<?xml version="1.0" standalone="no"?>
<!DOCTYPE svg PUBLIC "-//W3C//DTD SVG 1.1//EN" "http://www.w3.org/Graphics/SVG/1.1/DTD/svg11.dtd" >
<svg>
<metadata>
Created by FontForge 20090914 at Sat Apr  4 17:58:13 2020
 By www-data
Copyright (c) 2012, Soytutype (contact@soytutype.com.ar|soytutype@gmail.com), with reserved fontname 'Oleo'
</metadata>
<defs>
<font id="OleoScript-Bold" horiz-adv-x="675" >
  <font-face 
    font-family="Oleo Script"
    font-weight="700"
    font-stretch="normal"
    units-per-em="1000"
    panose-1="2 0 0 0 0 0 0 0 0 0"
    ascent="800"
    descent="-200"
    x-height="436.002"
    cap-height="710"
    bbox="-159.001 -284.003 987 941"
    underline-thickness="50"
    underline-position="-50"
    unicode-range="U+0020-U+20AC"
  />
<missing-glyph horiz-adv-x="500" 
 />
    <glyph glyph-name=".notdef" horiz-adv-x="500" 
 />
    <glyph glyph-name="space" unicode=" " horiz-adv-x="200" 
 />
    <glyph glyph-name="exclam" unicode="!" horiz-adv-x="334" 
d="M58 6c-15.333 14.667 -23 34.6689 -23 60.002s10.333 47.5 31 66.5s45.5 28.5 74.5 28.5s51.333 -7.83301 67 -23.5s23.5 -35.834 23.5 -60.501s-10.667 -46.334 -32 -65.001s-46.333 -28 -75 -28s-50.667 7.33301 -66 22zM331 667.002
c0 -48.667 -15.8311 -128.832 -47.498 -240.499s-54.5 -179.5 -68.5 -203.5c-20.667 -7.33301 -40.334 -11 -59.001 -11s-34.667 1.33301 -48 4c17.333 163.333 26 291 26 383l-6 87c73.333 22.667 136.666 34 189.999 34c8.66699 -10.667 13 -28.334 13 -53.001z" />
    <glyph glyph-name="quotedbl" unicode="&#x22;" horiz-adv-x="393" 
d="M148 732c60.667 0 91 -19.333 91 -58c0 -19.333 -10 -56 -30 -110s-38.667 -99.667 -56 -137l-62 11l19 292c17.333 1.33301 30 2 38 2zM315 732c60.667 0 91 -19.333 91 -58c0 -19.333 -10 -56 -30 -110s-38.667 -99.667 -56 -137l-62 11l19 292
c17.333 1.33301 30 2 38 2z" />
    <glyph glyph-name="numbersign" unicode="#" horiz-adv-x="614" 
d="M301 458c10.667 -1.33301 35.6641 -1.99902 74.9971 -1.99902c8 54.667 12 89.834 12 105.501s-0.333008 24.834 -1 27.501c50.667 19.333 92.334 29 125.001 29c3.33301 -11.333 5 -26.5 5 -45.5s-5.66699 -57.5 -17 -115.5c42.667 0 79.334 1 110.001 3
c2 -13.333 3 -28 3 -44c0 -44.667 -20.667 -67 -62 -67c-18 0 -40 1 -66 3c-2 -12.667 -5.16699 -30.334 -9.5 -53.001s-7.5 -40 -9.5 -52c34.667 0 73 3 115 9c2 -26 3 -41 3 -45c0 -42 -20.667 -63 -62 -63c-28.667 0 -52 0.666992 -70 2
c-8.66699 -57.333 -14.667 -104 -18 -140c-19.333 -14 -58.666 -21 -117.999 -21h-11c0.666992 13.333 9 69.333 25 168c-6 0.666992 -22 1 -48 1h-39c-12 -68 -19.333 -116 -22 -144c-21.333 -16.667 -56.666 -25 -105.999 -25h-21c2 28 11.667 83.667 29 167
c-36 -2 -66.667 -6.33301 -92 -13c-7.33301 34 -12 70 -14 108c38.667 6 79.667 9 123 9h3c2 9.33301 5.5 24.166 10.5 44.499s8.83301 37.5 11.5 51.5c-50.667 -2.66699 -85 -6.33398 -103 -11.001c-11.333 35.333 -17.666 71.666 -18.999 108.999
c41.333 4.66699 83.666 7 126.999 7h11c8.66699 48.667 13 81.5 13 98.5s-0.333008 26.833 -1 29.5c49.333 19.333 89.666 29 120.999 29c4 -11.333 6 -24.166 6 -38.499s-6.33301 -54.833 -19 -121.5zM344.997 255.001l19.002 104.001c-6.66699 0.666992 -26.667 1 -60 1
h-20c-2.66699 -12 -6.83398 -28.833 -12.501 -50.5s-9.83398 -38.834 -12.501 -51.501z" />
    <glyph glyph-name="dollar" unicode="$" horiz-adv-x="505" 
d="M472 178c0 -48.667 -21.333 -90.498 -64 -125.498s-94.667 -55.5 -156 -61.5c-4 -26.667 -7 -64 -9 -112c-26 0 -54 4.66699 -84 14l18 98c-45.333 5.33301 -83.333 18.5 -114 39.5s-46 40.833 -46 59.5c9.33301 25.333 28.5 53.166 57.5 83.499
s56.167 46.166 81.5 47.499c34 -14 63 -65.667 87 -155c34 1.33301 51 20.666 51 57.999c0 27.333 -10.5 60.333 -31.5 99s-44.167 74.334 -69.5 107.001s-48.5 69.167 -69.5 109.5s-31.5 75.833 -31.5 106.5c0 48.667 22.333 88.167 67 118.5s96 45.5 154 45.5h10
c4 33.333 6.66699 65.666 8 96.999c24.667 0 52 -4.66699 82 -14l-19 -96c28.667 -10.667 51.167 -26 67.5 -46s24.5 -40.667 24.5 -62c0 -49.333 -40.667 -106.666 -122 -171.999c8 -10 18 -23.5 30 -40.5s28 -46.667 48 -89s30 -78.833 30 -109.5zM409 584.002
c0 32.667 -21.333 49 -64 49c-22.667 0 -41 -5 -55 -15s-21 -22.333 -21 -37c0 -20.667 12 -47.667 36 -81l15 -21c16.667 8 35.667 22.5 57 43.5s32 41.5 32 61.5z" />
    <glyph glyph-name="percent" unicode="%" horiz-adv-x="864" 
d="M825.5 332.5c23 -26.333 34.501 -56.833 34.501 -91.5s-4.33301 -66.167 -13 -94.5s-21.334 -55 -38.001 -80s-39.667 -45.167 -69 -60.5s-65 -23 -107 -23s-75 13 -99 39s-36 60.333 -36 103c0 73.333 20.333 132.833 61 178.5s93.667 68.5 159 68.5
c48.667 0 84.5 -13.167 107.5 -39.5zM365.501 692.5c23 -26.333 34.501 -56.833 34.501 -91.5s-4.33301 -66.167 -13 -94.5s-21.334 -55 -38.001 -80s-39.667 -45.167 -69 -60.5s-65 -23 -107 -23s-75 13 -99 39s-36 60.333 -36 103c0 73.333 20.333 132.833 61 178.5
s93.667 68.5 159 68.5c48.667 0 84.5 -13.167 107.5 -39.5zM342.002 -12c-49.333 0 -90.667 10.3311 -124 30.998c30.667 104.667 82 221.334 154 350.001c73.333 130.667 128.333 252.667 165 366c37.333 0 81.333 -8.66699 132 -26l7 -3
c-23.333 -67.333 -57.5 -142.666 -102.5 -225.999l-129 -249c-41 -82.667 -72.167 -163.667 -93.5 -243h-9zM193.501 610.498c-11.667 -43.667 -17.5 -89.999 -17.5 -138.999s8 -73.5 24 -73.5c17.333 0 32 25.167 44 75.5s18 96.666 18 138.999s-7 63.5 -21 63.5
c-20 0 -35.833 -21.833 -47.5 -65.5zM653.501 250.499c-11.667 -43.667 -17.5 -89.999 -17.5 -138.999s8 -73.5 24 -73.5c17.333 0 32 25.167 44 75.5s18 96.666 18 138.999s-7 63.5 -21 63.5c-20 0 -35.833 -21.833 -47.5 -65.5z" />
    <glyph glyph-name="ampersand" unicode="&#x26;" horiz-adv-x="786" 
d="M610 385h11c6.66699 0 21.667 -4.66699 45 -14s38.333 -20 45 -32c-8.66699 -14.667 -24.834 -39 -48.501 -73s-45.167 -62 -64.5 -84c50 -56 83.333 -84 100 -84c9.33301 0 23.666 4.66699 42.999 14l9 5l33 -49c-58 -53.333 -117.667 -80 -179 -80
c-51.333 0 -95.666 20 -132.999 60c-57.333 -41.333 -121 -62 -191 -62s-124.667 15.667 -164 47s-59 73.333 -59 126c0 90 64.333 169.333 193 238c-30.667 53.333 -46 103.333 -46 150s21.833 85 65.5 115s95.5 45 155.5 45s104.5 -11.5 133.5 -34.5
s43.5 -49.833 43.5 -80.5c0 -37.333 -20 -73.333 -60 -108c-25.333 -22 -57.666 -46.333 -96.999 -73c19.333 -35.333 50 -85 92 -149zM237 197c0 -33.333 8.33301 -59.832 25 -79.499s36 -29.5 58 -29.5c13.333 0 27.5 2.66699 42.5 8s26.5 10.666 34.5 15.999l12 9
c-1.33301 2.66699 -8.33301 13.5 -21 32.5l-33 50.5c-28 44 -49.333 80.667 -64 110c-36 -33.333 -54 -72.333 -54 -117zM387.5 616.501c-11.667 -10.333 -17.498 -27.167 -17.498 -50.5s10 -51 30 -83c48 32 72 65.333 72 100c0 14.667 -3.83301 26.5 -11.5 35.5
s-18.834 13.5 -33.501 13.5s-27.834 -5.16699 -39.501 -15.5z" />
    <glyph glyph-name="quotesingle" unicode="'" horiz-adv-x="236" 
d="M148 732c60.667 0 91 -19.333 91 -58c0 -19.333 -10 -56 -30 -110s-38.667 -99.667 -56 -137l-62 11l19 292c17.333 1.33301 30 2 38 2z" />
    <glyph glyph-name="parenleft" unicode="(" horiz-adv-x="379" 
d="M243.5 212c-5 -53.333 -7.5 -107.667 -7.5 -163s3.83301 -101.333 11.5 -138s21.167 -68.667 40.5 -96l-39 -39c-4.66699 2.66699 -10.834 6.5 -18.501 11.5s-21.5 18.167 -41.5 39.5s-37.667 45.5 -53 72.5s-29.166 64.667 -41.499 113s-18.5 105.5 -18.5 171.5
s10.667 132.333 32 199s46.666 120.5 75.999 161.5s59.666 76.5 90.999 106.5s56.833 51.333 76.5 64s30.834 19 33.501 19l31 -47c-35.333 -32 -65.666 -75 -90.999 -129s-44 -111.833 -56 -173.5s-20.5 -119.167 -25.5 -172.5z" />
    <glyph glyph-name="parenright" unicode=")" horiz-adv-x="403" 
d="M175.5 298c5 53.333 7.5 107.667 7.5 163s-3.83301 101.333 -11.5 138s-21.167 68.667 -40.5 96l39 39c4.66699 -2.66699 10.834 -6.5 18.501 -11.5s21.5 -18.167 41.5 -39.5s37.667 -45.5 53 -72.5s29.166 -64.667 41.499 -113s18.5 -105.5 18.5 -171.5
s-10.667 -132.333 -32 -199s-46.666 -120.5 -75.999 -161.5s-59.666 -76.5 -90.999 -106.5s-56.833 -51.333 -76.5 -64s-30.834 -19 -33.501 -19l-31 47c35.333 32 65.666 75 90.999 129s44 111.833 56 173.5s20.5 119.167 25.5 172.5z" />
    <glyph glyph-name="asterisk" unicode="*" horiz-adv-x="420" 
d="M319 471c3.33301 -1.33301 10.001 -1.99902 20.001 -1.99902s25.333 3 46 9c9.33301 -4.66699 17.333 -14.5 24 -29.5s10 -27.5 10 -37.5s-0.333008 -16.333 -1 -19c-19.333 -21.333 -43 -32 -71 -32c-8 0 -15 1 -21 3c-10.667 5.33301 -23.834 21.166 -39.501 47.499
s-28.167 53.166 -37.5 80.499c-18.667 -26.667 -28 -45 -28 -55c0 -18.667 5.66699 -38 17 -58l5 -10c-8 -12 -20 -23 -36 -33s-30.667 -15 -44 -15c-12 7.33301 -22.667 18 -32 32s-14 28.333 -14 43s10 34.167 30 58.5s42 45.5 66 63.5c-17.333 5.33301 -30 8 -38 8
s-15 -0.666992 -21 -2c-12 -2.66699 -26 -12 -42 -28l-8 -8c-12.667 2 -27 9 -43 21s-24.667 25.333 -26 40c2.66699 15.333 11 30.166 25 44.499s27.333 21.5 40 21.5s32.334 -6.66699 59.001 -20s50 -28.333 70 -45c-1.33301 30.667 -5.33301 51.334 -12 62.001
c-5.33301 12.667 -18.333 25.334 -39 38.001l-10 6c0 18 4 35 12 51s17.333 26 28 30c17.333 0 34.166 -4.33301 50.499 -13s26.833 -19 31.5 -31c1.33301 -6.66699 2 -13.667 2 -21c0 -44.667 -6.66699 -86 -20 -124c26.667 14 42.667 24.333 48 31
c9.33301 14 15.333 31.667 18 53l2 11c17.333 4.66699 34.833 7 52.5 7s30.834 -4.33301 39.501 -13c6 -14.667 9 -30.667 9 -48s-4.83301 -30.833 -14.5 -40.5s-29 -18.667 -58 -27s-56.833 -13.5 -83.5 -15.5c13.333 -18.667 24.666 -30 33.999 -34z" />
    <glyph glyph-name="plus" unicode="+" horiz-adv-x="528" 
d="M310 232l0.000976562 -134c-24.667 -10.667 -51.334 -16 -80.001 -16h-16v150h-153c0 38 1.33301 68.667 4 92h149v131c34 9.33301 65.667 14 95 14v-145h161c0 -50 -1.66699 -80.667 -5 -92h-155z" />
    <glyph glyph-name="comma" unicode="," horiz-adv-x="255" 
d="M203.5 116c20.333 -22 30.499 -47.833 30.499 -77.5s-14.667 -68.667 -44 -117s-56.666 -85.5 -81.999 -111.5l-51 31c30 46 48 87.333 54 124l-79 54c0 26.667 7.16699 53 21.5 79s32.833 47 55.5 63c42.667 -8 74.167 -23 94.5 -45z" />
    <glyph glyph-name="hyphen" unicode="-" horiz-adv-x="423" 
d="M51 241c0 38.667 2.33301 68 7 88h331c0 -36.667 -2.33301 -66 -7 -88h-331z" />
    <glyph glyph-name="period" unicode="." horiz-adv-x="272" 
d="M62.5 11.5c-15 15.667 -22.5 36.332 -22.5 61.999s10.167 47.667 30.5 66s44.666 27.5 72.999 27.5s50 -7.5 65 -22.5s22.5 -35.167 22.5 -60.5s-10.167 -47.666 -30.5 -66.999s-44.666 -29 -72.999 -29s-50 7.83301 -65 23.5z" />
    <glyph glyph-name="slash" unicode="/" horiz-adv-x="373" 
d="M396 710l-320.001 -822.001c-33.333 0 -61.333 11.333 -84 34l321 825c22.667 -5.33301 50.334 -17.666 83.001 -36.999z" />
    <glyph glyph-name="zero" unicode="0" horiz-adv-x="617" 
d="M615 457c0 -95.333 -17.3311 -181.001 -51.998 -257.001c-18.667 -41.333 -41.5 -77.5 -68.5 -108.5s-60.833 -56 -101.5 -75s-86 -28.5 -136 -28.5c-66.667 0 -118.167 25 -154.5 75s-54.5 113.667 -54.5 191c0 138.667 32.667 249.334 98 332.001
s152.666 124 261.999 124c67.333 0 118.666 -24.667 153.999 -74s53 -109 53 -179zM293.002 64.999c24.667 0 47.333 27.001 68 81.001s36 115.667 46 185s15 134 15 194c0 72.667 -15 109 -45 109c-21.333 0 -41 -14.333 -59 -43s-32 -64.334 -42 -107.001
c-21.333 -92 -32 -184.833 -32 -278.5s16.333 -140.5 49 -140.5z" />
    <glyph glyph-name="one" unicode="1" horiz-adv-x="398" 
d="M94 -7l-5.99902 -0.00292969c0 56.667 9.16699 126.334 27.5 209.001s36.666 160.834 54.999 234.501s27.5 127.834 27.5 162.501c-42.667 -27.333 -78.667 -56 -108 -86c-12.667 6.66699 -24 16.5 -34 29.5s-17 24.167 -21 33.5l-6 14l177 107
c50.667 8.66699 108.667 13 174 13c7.33301 -18 11 -40.667 11 -68s-8.83301 -78.833 -26.5 -154.5s-35.5 -158 -53.5 -247s-27 -163.5 -27 -223.5c-30 -16 -93.333 -24 -190 -24z" />
    <glyph glyph-name="two" unicode="2" horiz-adv-x="531" 
d="M398 -23c-22 0 -48.3301 7.33301 -78.9971 22s-58.834 30 -84.501 46s-43.834 24.667 -54.501 26c-26 -23.333 -51.333 -43 -76 -59s-41.334 -24 -50.001 -24s-24.5 12 -47.5 36s-34.5 42.667 -34.5 56s12 33.166 36 59.499s51.667 39.5 83 39.5c10.667 0 30 -2 58 -6
c45.333 38 87.166 89.333 125.499 154s57.5 124 57.5 178c0 28.667 -7.33301 51 -22 67s-33 24 -55 24s-45 -7.5 -69 -22.5s-45.667 -36.833 -65 -65.5l-60 29c18 44.667 50.833 84.667 98.5 120s103.334 53 167.001 53s113.5 -16.333 149.5 -49s54 -73 54 -121
c0 -34 -9.83301 -70.667 -29.5 -110s-45.167 -76.666 -76.5 -111.999c-58 -65.333 -116.333 -121 -175 -167c70 -21.333 126.333 -32 169 -32c12.667 0 23 3.33301 31 10s18.667 22 32 46l53 -18c-9.33301 -66 -24.333 -112.333 -45 -139c-20.667 -27.333 -51 -41 -91 -41z
" />
    <glyph glyph-name="three" unicode="3" horiz-adv-x="513" 
d="M316 710c59.333 0 106.499 -14.3311 141.499 -42.998s52.5 -64.334 52.5 -107.001s-15.833 -80 -47.5 -112s-71.834 -53.333 -120.501 -64c48.667 -8 88 -26.667 118 -56s45 -67.333 45 -114c0 -64 -27.667 -117.667 -83 -161s-120.333 -65 -195 -65
c-58.667 0 -112.5 12.833 -161.5 38.5s-73.5 60.167 -73.5 103.5c0 34 9.66699 59.667 29 77c8 1.33301 18 2 30 2c54.667 0 98.334 -13.333 131.001 -40l-13 -103c7.33301 -7.33301 19 -11 35 -11c30 0 55 16.833 75 50.5s30 72.667 30 117s-9.83301 75.833 -29.5 94.5
s-50.5 28 -92.5 28l-40 -2l5 64c42 3.33301 74.667 11.333 98 24c47.333 26 71 62 71 108c0 24 -6.5 42.5 -19.5 55.5s-29.333 19.5 -49 19.5s-40.667 -7.33301 -63 -22s-42.166 -35.334 -59.499 -62.001l-60 28c20.667 44.667 52 81.167 94 109.5s92.667 42.5 152 42.5z
" />
    <glyph glyph-name="four" unicode="4" horiz-adv-x="581" 
d="M486 130c-17.333 0 -34 1.33496 -50 4.00195c-6 -42.667 -9 -80.334 -9 -113.001c-33.333 -17.333 -96 -26 -188 -26h-13c0 35.333 8.66699 94 26 176c-26 3.33301 -56 5 -90 5s-62.833 -3.33301 -86.5 -10s-36.167 -10 -37.5 -10c-10 0 -21.667 7.5 -35 22.5
s-20.166 27.833 -20.499 38.5s3.5 21.667 11.5 33l321 443c52 9.33301 119 15 201 17c10 -13.333 15 -32.333 15 -57s-3.16699 -54.334 -9.5 -89.001s-16.5 -82.5 -30.5 -143.5s-24.333 -108.5 -31 -142.5c16 -1.33301 31.167 -2 45.5 -2s24.833 5 31.5 15l16 27l52 -19
c-12.667 -68 -27.334 -112.667 -44.001 -134c-18 -23.333 -43 -35 -75 -35zM146 296.002c7.33301 0.666992 20.166 1 38.499 1s49.5 -1.33301 93.5 -4c40.667 158 61.334 259 62.001 303c-58 -71.333 -122.667 -171.333 -194 -300z" />
    <glyph glyph-name="five" unicode="5" horiz-adv-x="515" 
d="M218 699l206 9.99805c43.333 0 80.333 -7 111 -21c4 -8.66699 6 -20.667 6 -36c0 -30 -8.33301 -64 -25 -102l-9 -19c-40.667 20.667 -75.5 31 -104.5 31s-91.833 -2.33301 -188.5 -7c-8 -29.333 -14.667 -60 -20 -92c91.333 -4.66699 165.333 -25 222 -61
s85 -89.833 85 -161.5s-27.167 -132.167 -81.5 -181.5s-119.833 -74 -196.5 -74c-56 0 -106.333 13.5 -151 40.5s-67 62.5 -67 106.5c0 28.667 6.33301 53.334 19 74.001c13.333 2 24.666 3 33.999 3c57.333 0 102 -16 134 -48l-16 -99c10.667 -7.33301 20.667 -11 30 -11
c30.667 0 55.167 18.5 73.5 55.5s27.5 81.667 27.5 134s-15.5 91.333 -46.5 117s-73.833 38.5 -128.5 38.5l-29 2l-24 32c6.66699 23.333 16.834 67.333 30.501 132s24.5 111.334 32.5 140.001c20.667 -2 46 -3 76 -3z" />
    <glyph glyph-name="six" unicode="6" horiz-adv-x="585" 
d="M391 637c-30.667 0 -56.999 -21.668 -78.999 -65.001s-38.667 -100.333 -50 -171c36 15.333 72 23 108 23c55.333 0 101.833 -16.333 139.5 -49s56.5 -80.167 56.5 -142.5s-26.833 -118.666 -80.5 -168.999s-120.167 -75.5 -199.5 -75.5c-158.667 0 -238 88.333 -238 265
c0 126 33.167 233.667 99.5 323s149.5 134 249.5 134c56 0 101.5 -11 136.5 -33s52.5 -56 52.5 -102c0 -28 -10 -52 -30 -72c-12 -2 -21.667 -3 -29 -3c-56.667 0 -100.334 15 -131.001 45l15 85c-1.33301 4.66699 -8 7 -20 7zM353.501 313.499
c-9 17.667 -23.832 26.499 -44.499 26.499s-40 -6 -58 -18c-6 -37.333 -9 -76.666 -9 -117.999c0 -93.333 15.667 -140 47 -140c25.333 0 44.666 17.5 57.999 52.5s20 72.167 20 111.5s-4.5 67.833 -13.5 85.5z" />
    <glyph glyph-name="seven" unicode="7" horiz-adv-x="460" 
d="M106 -7h-25c6.66699 54 18 105.333 34 154c30.667 90 104 221.333 220 394c-74 6 -111.667 9 -113 9c-56.667 0 -105 -10.667 -145 -32c-16 44 -24 85.667 -24 125l5 47c32.667 12.667 76.334 19 131.001 19c23.333 0 57.666 -2.5 102.999 -7.5s83.833 -7.5 115.5 -7.5
s66.167 2.66699 103.5 8l17 -46l-46 -68c-65.333 -104.667 -115.5 -211.167 -150.5 -319.5s-52.5 -191.5 -52.5 -249.5c-8 -6 -31.333 -11.833 -70 -17.5s-73 -8.5 -103 -8.5z" />
    <glyph glyph-name="eight" unicode="8" horiz-adv-x="513" 
d="M231 -12c-55.333 0 -101.501 14.3291 -138.501 42.9961s-55.5 65.334 -55.5 110.001c0 68.667 54 142.334 162 221.001c-53.333 72.667 -80 132.834 -80 180.501s22.5 87.334 67.5 119.001s94.333 47.5 148 47.5s97.334 -11 131.001 -33s50.5 -55.667 50.5 -101
c0 -54.667 -37 -115.667 -111 -183c32.667 -44 56.667 -81 72 -111s23 -58.333 23 -85c0 -62 -27 -112.167 -81 -150.5s-116.667 -57.5 -188 -57.5zM156.999 145.996c0 -26.667 8 -46.998 24 -60.998s34.833 -21 56.5 -21s41 6.16699 58 18.5s25.5 28.833 25.5 49.5
c0 31.333 -25 83.666 -75 156.999c-59.333 -46.667 -89 -94.334 -89 -143.001zM299.999 581.998c0 -30 18 -70.666 54 -121.999c18 15.333 32.833 34.166 44.5 56.499s17.5 43 17.5 62s-5.5 33 -16.5 42s-24 13.5 -39 13.5s-28.833 -4.16699 -41.5 -12.5
s-19 -21.5 -19 -39.5z" />
    <glyph glyph-name="nine" unicode="9" horiz-adv-x="560" 
d="M71 147c44.667 -40 86.999 -59.999 126.999 -59.999c84 0 134.333 66.667 151 200c-38 -12.667 -75 -19 -111 -19c-61.333 0 -109.166 18 -143.499 54s-51.5 82.333 -51.5 139c0 71.333 26 130.666 78 177.999s117.667 71 197 71c160 0 240 -93.333 240 -280
c0 -76 -12.333 -147.167 -37 -213.5s-62.167 -121 -112.5 -164s-108.5 -64.5 -174.5 -64.5c-92 0 -162.333 36.667 -211 110zM300.999 355.001c18.667 0 37.001 6 55.001 18c6 37.333 9 77.666 9 120.999c0 93.333 -16.667 140 -50 140
c-22.667 0 -40.834 -18.167 -54.501 -54.5s-20.5 -76.166 -20.5 -119.499c0 -70 20.333 -105 61 -105z" />
    <glyph glyph-name="colon" unicode=":" horiz-adv-x="341" 
d="M120.5 287.5c-15 15.667 -22.5 36.332 -22.5 61.999s10.167 47.667 30.5 66s44.666 27.5 72.999 27.5s50 -7.5 65 -22.5s22.5 -35.167 22.5 -60.5s-10.167 -47.666 -30.5 -66.999s-44.666 -29 -72.999 -29s-50 7.83301 -65 23.5zM84.5 11.498
c-15 15.667 -22.5 36.332 -22.5 61.999s10.167 47.667 30.5 66s44.666 27.5 72.999 27.5s50 -7.5 65 -22.5s22.5 -35.167 22.5 -60.5s-10.167 -47.666 -30.5 -66.999s-44.666 -29 -72.999 -29s-50 7.83301 -65 23.5z" />
    <glyph glyph-name="semicolon" unicode=";" horiz-adv-x="341" 
d="M225.5 116c20.333 -22 30.499 -47.833 30.499 -77.5s-14.667 -68.667 -44 -117s-56.666 -85.5 -81.999 -111.5l-51 31c30 46 48 87.333 54 124l-79 54c0 26.667 7.16699 53 21.5 79s32.833 47 55.5 63c42.667 -8 74.167 -23 94.5 -45zM118.499 287.5
c-15 15.667 -22.5 36.332 -22.5 61.999s10.167 47.667 30.5 66s44.666 27.5 72.999 27.5s50 -7.5 65 -22.5s22.5 -35.167 22.5 -60.5s-10.167 -47.666 -30.5 -66.999s-44.666 -29 -72.999 -29s-50 7.83301 -65 23.5z" />
    <glyph glyph-name="less" unicode="&#x3c;" horiz-adv-x="446" 
d="M187 278l232 -91.001c0 -34.667 -5 -68 -15 -100l-367 158v64l366 176c10.667 -31.333 16 -64.666 16 -99.999z" />
    <glyph glyph-name="equal" unicode="=" horiz-adv-x="512" 
d="M82 152c0 35.333 3 66 9 92h357c0 -41.333 -2 -72 -6 -92h-360zM82 305c0 33.333 3 64.001 9 92.001h357c0 -36.667 -1.66699 -67.334 -5 -92.001h-361z" />
    <glyph glyph-name="greater" unicode="&#x3e;" horiz-adv-x="430" 
d="M52 187l231 90.999l-231 107c0 26.667 6.66699 59.334 20 98.001l362 -174v-64l-367 -158c-10 32 -15 65.333 -15 100z" />
    <glyph glyph-name="question" unicode="?" horiz-adv-x="407" 
d="M264 283c0 -6.66699 7.00098 -12.332 21.001 -16.999c2 -0.666992 5.5 -2 10.5 -4s9.33301 -3.5 13 -4.5s6.5 -1.83301 8.5 -2.5c-4.66699 -20.667 -12.334 -38.334 -23.001 -53.001c-58 0 -104.5 10.167 -139.5 30.5s-52.5 49.833 -52.5 88.5c0 24.667 12.667 54 38 88
l40 50c67.333 82.667 101 135.667 101 159c0 12 -10.667 18 -32 18c-27.333 -48 -53.333 -83.667 -78 -107c-23.333 3.33301 -49.5 16.833 -78.5 40.5s-43.5 42.334 -43.5 56.001s15.333 31.167 46 52.5s67 32 109 32c63.333 0 113.5 -16.167 150.5 -48.5
s55.5 -73.5 55.5 -123.5c0 -20 -5.5 -41.833 -16.5 -65.5s-21 -41.834 -30 -54.501s-22.5 -29.667 -40.5 -51c-39.333 -43.333 -59 -71.333 -59 -84zM95.501 10.002c-16.333 14.667 -24.502 34.002 -24.502 58.002s10.833 44.667 32.5 62s47.334 26 77.001 26
s51.5 -7.33301 65.5 -22s21 -33.334 21 -56.001s-9.83301 -43.334 -29.5 -62.001s-44.167 -28 -73.5 -28s-52.166 7.33301 -68.499 22z" />
    <glyph glyph-name="at" unicode="@" horiz-adv-x="832" 
d="M548 8c-55.333 -20.667 -109.331 -30.999 -161.998 -30.999s-101.667 9.16699 -147 27.5s-81.666 42.833 -108.999 73.5c-56.667 63.333 -85 138.666 -85 225.999c0 54 10.333 105.833 31 155.5s49.334 93.5 86.001 131.5s82.667 68.167 138 90.5s115.333 33.5 180 33.5
c103.333 0 185.833 -26.333 247.5 -79s92.5 -120 92.5 -202c0 -47.333 -9.5 -90.333 -28.5 -129s-42.167 -69 -69.5 -91c-56 -44 -105 -66 -147 -66c-32 0 -56.333 15 -73 45c-43.333 -30 -81.333 -45 -114 -45s-62.167 12.833 -88.5 38.5s-39.5 67.167 -39.5 124.5
c0 74 19 133.167 57 177.5s88.667 66.5 152 66.5c43.333 0 98 -12.333 164 -37c-18.667 -80 -28 -169 -28 -267c0 -16.667 3 -25 9 -25c8 0 18.667 6.66699 32 20s26.166 36.5 38.499 69.5s18.5 67.333 18.5 103s-4 66 -12 91s-20.333 48.167 -37 69.5
c-34.667 45.333 -91.667 68 -171 68c-46.667 0 -89.334 -9.33301 -128.001 -28s-70.334 -43.667 -95.001 -75c-51.333 -64 -77 -136.333 -77 -217s18.833 -147 56.5 -199s91.5 -78 161.5 -78c42 0 81 8.66699 117 26c13.333 -18.667 22.666 -38 27.999 -58zM428.002 232.001
c7.33301 0 15.832 3.16602 25.499 9.49902s16.5 12.833 20.5 19.5c7.33301 106 16 179.333 26 220c-8 5.33301 -17 8 -27 8c-23.333 0 -41.166 -15.667 -53.499 -47s-18.5 -74.166 -18.5 -128.499s9 -81.5 27 -81.5z" />
    <glyph glyph-name="A" unicode="A" horiz-adv-x="611" 
d="M95 13c-4.66699 -14.667 -20.165 -22 -46.498 -22s-52.5 9 -78.5 27c20.667 56 61.834 149.167 123.501 279.5s102.834 227.5 123.501 291.5c2 8 3 14.833 3 20.5s-2.33301 13.5 -7 23.5s-9.66699 18 -15 24l-7 9l4 20c59.333 16 129.666 24 210.999 24l77 -4
c6.66699 -6 13.334 -21.667 20.001 -47s11 -63.333 13 -114s3.33301 -145.667 4 -285c0.666992 -107.333 14 -161 40 -161c6.66699 0 21 3.33301 43 10l10 3l21 -57c-27.333 -20.667 -59.333 -37 -96 -49s-69.667 -18 -99 -18c-42.667 0 -71.834 13.167 -87.501 39.5
s-23.5 60.333 -23.5 102s0.333008 70.5 1 86.5c-12.667 2.66699 -37.334 4 -74.001 4s-68.334 -3.66699 -95.001 -11c-24.667 -66 -46.334 -131.333 -65.001 -196zM333.002 300c3.33301 58 5.00098 116.332 5.00098 174.999s-3.33301 101.334 -10 128.001
c-6.66699 0 -11.334 -0.666992 -14.001 -2c-14.667 -44.667 -54 -145 -118 -301h137z" />
    <glyph glyph-name="B" unicode="B" horiz-adv-x="631" 
d="M366 -12c-53.333 0 -106.667 9.33691 -160 28.0039c-38.667 -14.667 -83.334 -22 -134.001 -22c-11.333 0 -21.666 0.666992 -30.999 2c0 40 18.333 138.667 55 296s55 246.333 55 267s-3.83301 39 -11.5 55s-15.5 28 -23.5 36l-11 11l4 25
c16.667 3.33301 55.167 8.16602 115.5 14.499s111.5 9.5 153.5 9.5c162.667 0 244 -52.333 244 -157c0 -48.667 -16.5 -88.334 -49.5 -119.001s-73.833 -51.334 -122.5 -62.001c46 -5.33301 84.667 -21.833 116 -49.5s47 -66.834 47 -117.501
c0 -62.667 -23.333 -114.5 -70 -155.5s-105.667 -61.5 -177 -61.5zM331.999 338.004c-12 0 -25.333 -1 -40 -3c-26 -114 -42.667 -196.667 -50 -248c14.667 -8.66699 34.667 -13 60 -13c38.667 0 67.667 16 87 48s29 68.167 29 108.5s-7.16699 68.333 -21.5 84
s-35.833 23.5 -64.5 23.5zM318.999 411.004c29.333 0 52.333 11 69 33c30 38 45 80.167 45 126.5s-16 69.5 -48 69.5l-33 -4c-0.666992 -26 -14.667 -101 -42 -225h9z" />
    <glyph glyph-name="C" unicode="C" horiz-adv-x="578" 
d="M290 -12c-72 0 -130.332 26.002 -174.999 78.002s-67 125 -67 219c0 75.333 14.5 145.166 43.5 209.499s71 116.333 126 156s114.333 59.5 178 59.5s116.334 -12.667 158.001 -38s62.5 -58.5 62.5 -99.5s-11.333 -73.5 -34 -97.5c-26.667 0 -57.334 5.33301 -92.001 16
s-60.667 23.667 -78 39l19 97c-14 6.66699 -27.667 10 -41 10c-38.667 0 -72.667 -33.5 -102 -100.5s-44 -145.5 -44 -235.5c0 -134.667 38 -202 114 -202c45.333 0 96 24.667 152 74l47 -47c-5.33301 -8.66699 -19 -22.834 -41 -42.501s-42.833 -35.5 -62.5 -47.5
s-44.334 -23 -74.001 -33s-59.5 -15 -89.5 -15z" />
    <glyph glyph-name="D" unicode="D" horiz-adv-x="681" 
d="M339 -12c-44.667 0 -86.6689 8.66504 -126.002 25.998c-34 -12.667 -70.5 -19 -109.5 -19s-59.833 0.333008 -62.5 1c0 46 18.333 145.5 55 298.5s55 240 55 261s-3.83301 39.833 -11.5 56.5s-15.5 29.334 -23.5 38.001l-11 12l3 23c19.333 4.66699 58.166 10 116.499 16
s108.833 9 151.5 9c102.667 0 178.834 -21.167 228.501 -63.5s74.5 -110.166 74.5 -203.499c0 -72.667 -13.167 -143.167 -39.5 -211.5s-66.166 -126 -119.499 -173s-113.666 -70.5 -180.999 -70.5zM389.998 638.998c-12 0 -25.001 -0.999023 -39.001 -2.99902
c-2 -38.667 -19 -127.5 -51 -266.5s-51.667 -234.167 -59 -285.5c12 -6 26.333 -9 43 -9c35.333 0 66.833 16 94.5 48s48.834 72 63.501 120c28.667 97.333 43 185.666 43 264.999c0 48 -7.16699 81.833 -21.5 101.5s-38.833 29.5 -73.5 29.5z" />
    <glyph glyph-name="E" unicode="E" horiz-adv-x="545" 
d="M270 -13c-84 0 -148.667 26.998 -194 80.998c-24.667 29.333 -37 65 -37 107c0 56.667 20 103.167 60 139.5s87.333 57.5 142 63.5c-84 22.667 -126 71 -126 145c0 57.333 24.667 102.833 74 136.5s105.5 50.5 168.5 50.5s115.5 -13 157.5 -39s63 -60.333 63 -103
c0 -24.667 -6.66699 -48 -20 -70l-7 -11c-27.333 0 -56.666 4.16699 -87.999 12.5s-55 19.166 -71 32.499l10 102c-10 4.66699 -20 7 -30 7c-20.667 0 -36.5 -11 -47.5 -33s-16.5 -47.667 -16.5 -77s3.16699 -52.666 9.5 -69.999s16.333 -30.5 30 -39.5
s25.667 -15.333 36 -19s24.833 -7.5 43.5 -11.5l-8 -58c-46 0 -88.333 -13 -127 -39s-58 -61 -58 -105c0 -31.333 10 -54.166 30 -68.499s43.833 -21.5 71.5 -21.5s56.834 7 87.501 21s57 31.667 79 53l45 -45c-28.667 -39.333 -68.334 -72.666 -119.001 -99.999
s-103.334 -41 -158.001 -41z" />
    <glyph glyph-name="F" unicode="F" horiz-adv-x="517" 
d="M258 705l235.998 -6c34 0 60.333 0.666992 79 2c2 -12 3 -26.667 3 -44s-4.66699 -30.666 -14 -39.999s-25.666 -14 -48.999 -14l-153 12c-10 0 -18.333 -0.333008 -25 -1c-1.33301 -25.333 -15.333 -99.333 -42 -222c38 3.33301 76 5 114 5s65.667 -3 83 -9
c-2.66699 -30.667 -9 -55.334 -19 -74.001l-5 -10c-18.667 6 -47.167 9 -85.5 9s-73.5 -1.33301 -105.5 -4c-24.667 -119.333 -37 -211 -37 -275v-14c-35.333 -17.333 -97.333 -26 -186 -26h-11c0 58.667 14.667 157.334 44 296.001s47 235.667 53 291
c0 13.333 -3.66699 27.166 -11 41.499s-14.666 25.5 -21.999 33.5l-11 11l2 23c49.333 10 103.333 15 162 15z" />
    <glyph glyph-name="G" unicode="G" horiz-adv-x="610" 
d="M229 -224c-38 0 -69.832 8.16699 -95.499 24.5s-38.5 40.5 -38.5 72.5c0 18.667 4.33301 35 13 49s17.667 24.667 27 32s17.833 13.666 25.5 18.999s17.834 10.666 30.501 15.999s23 9.5 31 12.5s18.833 6.5 32.5 10.5l29.5 8.5c6 1.66699 15.333 3.83398 28 6.50098
s19.667 4.33398 21 5.00098c3.33301 10 6.66602 21.667 9.99902 35c-28 -8.66699 -54.333 -13 -79 -13c-59.333 0 -110.166 22.167 -152.499 66.5s-63.5 107.833 -63.5 190.5c0 67.333 14.333 131.166 43 191.499s70.834 110 126.501 149s116.5 58.5 182.5 58.5
s120.5 -15.167 163.5 -45.5s64.5 -68.833 64.5 -115.5c0 -21.333 -5.66699 -44.333 -17 -69c-9.33301 -1.33301 -21.333 -2 -36 -2c-62.667 0 -110.667 12.333 -144 37v109c-10.667 8.66699 -24.334 13 -41.001 13c-40 0 -74.333 -29.667 -103 -89s-43 -131.333 -43 -216
c0 -116.667 30.333 -175 91 -175c34.667 0 67.667 18 99 54s55.333 81.333 72 136l66 -10c-18.667 -185.333 -57.834 -325.166 -117.501 -419.499s-134.834 -141.5 -225.501 -141.5zM178.001 -111c0 -6.66699 2.66699 -12.5 8 -17.5s13 -7.5 23 -7.5
c38 0 71.667 30.333 101 91l1 3c-44 -6.66699 -77.167 -16.167 -99.5 -28.5s-33.5 -25.833 -33.5 -40.5z" />
    <glyph glyph-name="H" unicode="H" horiz-adv-x="712" 
d="M438 14c-20.667 17.333 -31.002 42.334 -31.002 75.001s14 106.334 42 221.001c-20 4.66699 -44 7 -72 7s-57.667 -4 -89 -12c-31.333 -135.333 -47.666 -229.333 -48.999 -282c-29.333 -17.333 -89 -26 -179 -26h-19c0 38 19 134 57 288s57 254.667 57 302
c0 11.333 -3.5 23.833 -10.5 37.5s-14.167 24.5 -21.5 32.5l-11 12l2 20c44.667 14 119.334 21 224.001 21c10.667 -14.667 16 -37.334 16 -68.001s-15 -112.334 -45 -245.001h160c24.667 104.667 37 187.667 37 249c0 12 -0.333008 21.667 -1 29
c65.333 23.333 128.333 35 189 35c4.66699 -4.66699 7 -21.5 7 -50.5s-16.5 -115.833 -49.5 -260.5s-49.5 -237.667 -49.5 -279c0 -14 4.33301 -21 13 -21c16.667 0 34.667 4.33301 54 13l22 -56c-24 -20.667 -52.5 -37.167 -85.5 -49.5s-64 -18.5 -93 -18.5
s-53.833 8.66699 -74.5 26z" />
    <glyph glyph-name="I" unicode="I" horiz-adv-x="361" 
d="M245 127c0 -18.667 4.33203 -27.999 12.999 -27.999c14.667 0 32.667 4.33301 54 13l22 -56c-61.333 -45.333 -120.666 -68 -177.999 -68c-33.333 0 -59.833 9.5 -79.5 28.5s-29.5 45.833 -29.5 80.5s17 113.167 51 235.5s52.667 207.5 56 255.5
c0 11.333 -3.66699 23.666 -11 36.999s-14.333 24 -21 32l-11 12l2 20c42 14 116.333 21 223 21c10.667 -20 16 -41.333 16 -64c0 -38.667 -17.833 -123 -53.5 -253s-53.5 -218.667 -53.5 -266z" />
    <glyph glyph-name="J" unicode="J" horiz-adv-x="437" 
d="M195 709l212.999 -2.00098l93 2c1.33301 -14.667 2 -30.334 2 -47.001s-3.5 -28.167 -10.5 -34.5s-19.667 -9.5 -38 -9.5s-33.166 0.333008 -44.499 1c-25.333 -260.667 -50.333 -425 -75 -493c-21.333 -60 -50.333 -100 -87 -120
c-22.667 -12.667 -49.834 -19 -81.501 -19s-65.167 9.16699 -100.5 27.5s-63.333 39.833 -84 64.5l36 51c8 -6 20.5 -13.167 37.5 -21.5s31.667 -12.5 44 -12.5s23.833 6.66699 34.5 20c24 31.333 45 116 63 254c12.667 94.667 19 174.334 19 239.001v17
c-46 -1.33301 -80.667 -5.66602 -104 -12.999c-9.33301 28 -14.666 56.333 -15.999 85c14.667 7.33301 47.667 11 99 11z" />
    <glyph glyph-name="K" unicode="K" horiz-adv-x="652" 
d="M237 20c-32 -17.333 -78.6621 -26 -139.995 -26c-19.333 0 -38 1.33301 -56 4c0 35.333 18.5 128 55.5 278s55.5 251 55.5 303c0 13.333 -3.33301 27.5 -10 42.5s-13.334 26.5 -20.001 34.5l-11 13l4 20c47.333 14 121.666 21 222.999 21
c9.33301 -18.667 14 -42.334 14 -71.001s-14 -108 -42 -238h6c48 0 84.167 21.833 108.5 65.5s43.166 115.834 56.499 216.501c59.333 18 118 27 176 27c1.33301 -5.33301 1.66602 -19.833 0.999023 -43.5s-6.83398 -55.167 -18.501 -94.5s-32.5 -79.833 -62.5 -121.5
s-66.667 -73.5 -110 -95.5c50.667 -174.667 90 -262 118 -262c10.667 0 27.667 4 51 12l11 4l24 -55c-62 -44 -124.667 -66 -188 -66s-105 32.667 -125 98c-20 66.667 -35 145 -45 235h-21c-36.667 -162.667 -55 -263 -55 -301z" />
    <glyph glyph-name="L" unicode="L" horiz-adv-x="524" 
d="M387 -24c-28 0 -68.834 14.668 -122.501 44.001s-84.834 45 -93.501 47c-40 -52.667 -77.333 -79 -112 -79c-9.33301 0 -23.333 13 -42 39s-28 50.333 -28 73c0 10 10.333 22.5 31 37.5s44.334 25.5 71.001 31.5c18 42 35.833 105.667 53.5 191s26.5 160.333 26.5 225
c0 10.667 -3.5 22.667 -10.5 36s-13.833 24 -20.5 32l-11 12l3 20c36.667 16.667 112.667 25 228 25c10.667 -16.667 16 -45 16 -85s-17.667 -109.333 -53 -208s-70.666 -184.334 -105.999 -257.001c66.667 -17.333 130.334 -26 191.001 -26c14 0 25.5 3.33301 34.5 10
s18.833 20.667 29.5 42l55 -19c-10.667 -63.333 -26.834 -111 -48.501 -143s-52.167 -48 -91.5 -48z" />
    <glyph glyph-name="M" unicode="M" horiz-adv-x="997" 
d="M53 -6l-12.001 -0.000976562c0 38.667 18.667 141 56 307s56 257.667 56 275c0 28 -10.333 54.667 -31 80l-10 13l3 20c39.333 13.333 111.333 20 216 20c10.667 -24 16.334 -52.333 17.001 -85c78 57.333 144.667 86 200 86c63.333 0 101 -27.333 113 -82
c75.333 54.667 141 82 197 82c38 0 69 -10.5 93 -31.5s36 -51.333 36 -91s-14.5 -115 -43.5 -226s-43.5 -189.833 -43.5 -236.5c0 -17.333 3.66699 -26 11 -26c14 0 31 4 51 12l21 -57c-62 -44 -123.333 -66 -184 -66c-28.667 0 -51.667 8.66699 -69 26s-26 42.833 -26 76.5
s13.833 107 41.5 220s41.5 181.833 41.5 206.5s-3 41.167 -9 49.5s-17.667 12.5 -35 12.5s-44.666 -12.667 -81.999 -38c-4.66699 -30.667 -15 -80.334 -31 -149.001c-42 -175.333 -63 -299.666 -63 -372.999c-32.667 -17.333 -89 -26 -169 -26h-27
c0 61.333 15.667 157.333 47 288s47 209 47 235s-2.83301 43 -8.5 51s-17.334 12 -35.001 12s-45.5 -13 -83.5 -39c-6 -33.333 -18.333 -88.666 -37 -165.999c-43.333 -180.667 -65 -298.667 -65 -354c-29.333 -17.333 -90.333 -26 -183 -26z" />
    <glyph glyph-name="N" unicode="N" horiz-adv-x="689" 
d="M58 -6h-17.001c0 40 18.667 142 56 306s56 259 56 285c0 11.333 -3.5 24 -10.5 38s-13.833 25 -20.5 33l-10 13l3 20c41.333 14 113.333 21 216 21c12 -25.333 18 -54 18 -86v-2c80 58.667 150 88 210 88c35.333 0 64.333 -10.5 87 -31.5s34 -51 34 -90
s-15.333 -117.5 -46 -235.5s-46 -189.833 -46 -215.5s4.33301 -38.5 13 -38.5c12 0 30 4.33301 54 13l21 -57c-65.333 -44.667 -126 -67 -182 -67c-32 0 -56.5 8.5 -73.5 25.5s-25.5 45.167 -25.5 84.5s14.5 114.166 43.5 224.499s43.5 178.833 43.5 205.5
c0 34 -15 51 -45 51c-22 0 -55 -13.667 -99 -41c-6 -32 -18.667 -87.333 -38 -166c-42.667 -179.333 -64 -296.666 -64 -351.999c-29.333 -17.333 -88.666 -26 -177.999 -26z" />
    <glyph glyph-name="O" unicode="O" 
d="M659 536c9.33301 -30 14.002 -65.668 14.002 -107.001s-7.16699 -87.333 -21.5 -138s-35.666 -99.167 -63.999 -145.5s-67.5 -84.166 -117.5 -113.499s-107 -44 -171 -44c-78 0 -139.333 26.333 -184 79s-67 119 -67 199s15.167 153.167 45.5 219.5
s73.666 120.333 129.999 162s119.166 62.5 188.499 62.5c46.667 0 87.5 -8 122.5 -24s62.167 -37.5 81.5 -64.5s33.666 -55.5 42.999 -85.5zM281.002 77.999c12 -9.33301 29.5 -14 52.5 -14s44.667 13.5 65 40.5s36.166 61.833 47.499 104.5c21.333 84 32 171 32 261
c0 109.333 -26.667 164 -80 164c-25.333 0 -48.166 -11.833 -68.499 -35.5s-36.5 -54.5 -48.5 -92.5c-24.667 -77.333 -37 -160.333 -37 -249c0 -99.333 12.333 -159 37 -179z" />
    <glyph glyph-name="P" unicode="P" horiz-adv-x="583" 
d="M317 263c-18.667 0 -32.332 0.330078 -40.999 0.99707c-26.667 -121.333 -40 -202.666 -40 -243.999c-37.333 -17.333 -86.333 -26 -147 -26c-16.667 0 -32.667 1 -48 3c0 42 18.333 139.5 55 292.5s55 247.833 55 284.5c0 11.333 -3.83301 24.333 -11.5 39
s-15.5 26.334 -23.5 35.001l-11 14l4 24c25.333 4.66699 68.166 9.83398 128.499 15.501s115.833 8.5 166.5 8.5c74.667 0 130 -15.333 166 -46s54 -72 54 -124c0 -80.667 -25.833 -147 -77.5 -199s-128.167 -78 -229.5 -78zM315.002 348.997
c37.333 0 66.167 21.333 86.5 64s30.5 94 30.5 154c0 48.667 -16 73 -48 73l-32 -4c0 -26 -18.667 -121.667 -56 -287h19z" />
    <glyph glyph-name="Q" unicode="Q" horiz-adv-x="670" 
d="M515 -224c-28 0 -71.1699 17.833 -129.503 53.5s-96.833 53.5 -115.5 53.5c-41.333 -56 -73.666 -84 -96.999 -84c-12 0 -27.5 11.5 -46.5 34.5s-28.5 47.167 -28.5 72.5c0 6 5.16699 14 15.5 24s26.833 19.5 49.5 28.5s48.834 13.5 78.501 13.5s77.834 -8 144.501 -24
s117.667 -24 153 -24c8 0 14.333 0.666992 19 2c12.667 4.66699 28.667 20.667 48 48l57 -19c-20 -119.333 -69.333 -179 -148 -179zM658.997 536c9.33301 -30 14.002 -65.668 14.002 -107.001s-7.16699 -87.333 -21.5 -138s-35.666 -99.167 -63.999 -145.5
s-67.5 -84.166 -117.5 -113.499s-107 -44 -171 -44c-78 0 -139.333 26.333 -184 79s-67 119 -67 199s15.167 153.167 45.5 219.5s73.666 120.333 129.999 162s119.166 62.5 188.499 62.5c46.667 0 87.5 -8 122.5 -24s62.167 -37.5 81.5 -64.5s33.666 -55.5 42.999 -85.5z
M280.999 77.999c12 -9.33301 29.5 -14 52.5 -14s44.667 13.5 65 40.5s36.166 61.833 47.499 104.5c21.333 84 32 171 32 261c0 109.333 -26.667 164 -80 164c-25.333 0 -48.166 -11.833 -68.499 -35.5s-36.5 -54.5 -48.5 -92.5c-24.667 -77.333 -37 -160.333 -37 -249
c0 -99.333 12.333 -159 37 -179z" />
    <glyph glyph-name="R" unicode="R" horiz-adv-x="651" 
d="M237 19c-39.333 -17.333 -87.3369 -26 -144.004 -26c-19.333 0 -36.666 1.66699 -51.999 5c0 44 18.833 143.167 56.5 297.5s56.5 251.5 56.5 291.5c0 16 -12 37.333 -36 64l-11 13l3 22c90.667 16 191.334 24 302.001 24c66.667 0 119.334 -12.833 158.001 -38.5
s58 -63 58 -112s-13.333 -93.667 -40 -134s-64.667 -71.833 -114 -94.5c22 -74.667 43 -133 63 -175s36.333 -63 49 -63c10.667 0 27.334 4 50.001 12l12 4l24 -54c-58.667 -44.667 -120.5 -67 -185.5 -67s-107.5 32.667 -127.5 98c-17.333 57.333 -31.333 128.333 -42 213
h-35c-30 -140 -45 -233.333 -45 -280zM322.996 386c21.333 0 39.834 6.66895 55.501 20.002s27.5 30.666 35.5 51.999c14.667 42 22 82.667 22 122s-17.667 59 -53 59c-10.667 0 -21.334 -1 -32.001 -3c-0.666992 -20.667 -17 -103.334 -49 -248.001
c4.66699 -1.33301 11.667 -2 21 -2z" />
    <glyph glyph-name="S" unicode="S" horiz-adv-x="508" 
d="M473 183c0 -55.333 -26.499 -101.666 -79.499 -138.999s-114.5 -56 -184.5 -56c-54.667 0 -100.834 11.667 -138.501 35s-56.5 45.666 -56.5 66.999c10.667 26 31 54 61 84s57.667 45.667 83 47c16.667 -7.33301 32.167 -25.5 46.5 -54.5s25.833 -62.5 34.5 -100.5
c36 1.33301 54 21.666 54 60.999c0 26 -9.83301 57.833 -29.5 95.5s-41.167 72.834 -64.5 105.501s-44.833 69 -64.5 109s-29.5 75 -29.5 105c0 49.333 22.667 89.666 68 120.999s95.833 47 151.5 47s99 -12 130 -36s46.5 -51.667 46.5 -83
c0 -26 -5.33301 -46.833 -16 -62.5s-19.167 -27.667 -25.5 -36s-14.833 -17.166 -25.5 -26.499c-20 -17.333 -35.333 -30 -46 -38l-15 -11c39.333 -48.667 69 -105.334 89 -170.001c7.33301 -23.333 11 -44.666 11 -63.999zM421.001 584c0 31.333 -20 47.001 -60 47.001
c-23.333 0 -42.166 -5 -56.499 -15s-21.5 -22.5 -21.5 -37.5s6.16699 -33.167 18.5 -54.5s22.166 -36.333 29.499 -45c16 8 35 22.667 57 44s33 41.666 33 60.999z" />
    <glyph glyph-name="T" unicode="T" horiz-adv-x="529" 
d="M135 -7h-23c0 55.333 15.667 156.333 47 303s48.833 234.5 52.5 263.5s5.83398 50.833 6.50098 65.5c-62.667 -1.33301 -112.667 -11 -150 -29c-19.333 22 -31.333 54.333 -36 97c32.667 11.333 88.667 17 168 17l315 -10c15.333 0 39.666 0.666992 72.999 2
c2.66699 -21.333 4 -39.333 4 -54c0 -31.333 -19.667 -47 -59 -47c-12 0 -30.833 2 -56.5 6s-48.167 6.33301 -67.5 7c-2 -21.333 -19.167 -108 -51.5 -260s-48.5 -263.667 -48.5 -335c-29.333 -17.333 -87.333 -26 -174 -26z" />
    <glyph glyph-name="U" unicode="U" horiz-adv-x="705" 
d="M306 120c27.333 0 61.999 12.002 103.999 36.002c1.33301 9.33301 16.666 77.833 45.999 205.5s44 218.5 44 272.5c0 20 -0.333008 33.667 -1 41c66.667 23.333 130.334 35 191.001 35c4 -4.66699 6 -16 6 -34c0 -40 -16.5 -133.333 -49.5 -280
s-49.5 -232.834 -49.5 -258.501s4.66699 -38.5 14 -38.5c6 0 24 4.33301 54 13l21 -56c-62.667 -45.333 -123 -68 -181 -68c-27.333 0 -49.666 7.66699 -66.999 23s-28 36 -32 62c-82 -56.667 -152.333 -85 -211 -85c-38 0 -69.167 10.5 -93.5 31.5s-36.5 49.667 -36.5 86
s14.333 111.166 43 224.499s43 199.333 43 258c0 11.333 -3.5 23.666 -10.5 36.999s-13.833 24 -20.5 32l-11 12l3 20c42 14 114.333 21 217 21c12.667 -17.333 19 -46.666 19 -87.999s-14.333 -121 -43 -239s-43 -189 -43 -213c0 -33.333 14.667 -50 44 -50z" />
    <glyph glyph-name="V" unicode="V" horiz-adv-x="603" 
d="M95 128c0 26.667 5.83398 81.3359 17.501 164.003s17.5 146.667 17.5 192s-2 76 -6 92c-6.66699 22.667 -20 48.667 -40 78l-10 13l4 20c64 13.333 145.333 20 244 20c11.333 -22.667 17 -50.334 17 -83.001c0 -64 -8.33301 -148 -25 -252s-25 -165 -25 -183
c0 -38 8.66699 -57 26 -57c20 0 45.333 17.167 76 51.5s58.5 77.666 83.5 129.999s39.167 100.5 42.5 144.5l-107 72c5.33301 38.667 15 72.5 29 101.5s27.333 49.167 40 60.5s22.667 17 30 17c42.667 0 76 -12.5 100 -37.5s36 -54.167 36 -87.5
c0 -50 -12.833 -109.333 -38.5 -178s-58.167 -133.834 -97.5 -195.501s-85.333 -114.167 -138 -157.5s-100.834 -65 -144.501 -65s-76.5 13 -98.5 39s-33 59.667 -33 101z" />
    <glyph glyph-name="W" unicode="W" horiz-adv-x="920" 
d="M145.5 28.5c-22.333 27 -33.499 61.1699 -33.499 102.503s2.66699 94.666 8 159.999s8 125.666 8 180.999s-5.33301 96 -16 122c-4.66699 10 -18.667 29 -42 57l-13 15l4 20c58.667 15.333 138.667 23 240 23c16.667 -19.333 25 -57.333 25 -114s-4 -124.5 -12 -203.5
s-12 -136.5 -12 -172.5s2.66699 -59.667 8 -71s14 -17 26 -17s27.667 6.5 47 19.5s34.666 26.833 45.999 41.5c0 4 4.83301 47.167 14.5 129.5s14.5 150.5 14.5 204.5s-6.33301 101.667 -19 143c58 26.667 127.667 40.334 209 41.001c11.333 -24 17 -60.667 17 -110
s-8.5 -125.666 -25.5 -228.999s-25.5 -164.333 -25.5 -183c0 -37.333 9.5 -56 28.5 -56s43.333 16.667 73 50s56.667 76.166 81 128.499s37.833 101.5 40.5 147.5l-113 76c6 60 27.333 110.667 64 152c8 8.66699 17.333 16.334 28 23.001c48 0 84.333 -12.667 109 -38
s37 -53.333 37 -84c0 -54.667 -12.333 -116.834 -37 -186.501s-56.167 -134.834 -94.5 -195.501s-83.666 -112 -135.999 -154s-103.5 -63 -153.5 -63c-26.667 0 -50.334 8.66699 -71.001 26s-34.667 43.666 -42 78.999c-66.667 -70 -130.667 -105 -192 -105
c-38 0 -68.167 13.5 -90.5 40.5z" />
    <glyph glyph-name="X" unicode="X" horiz-adv-x="627" 
d="M534 681c12 18.667 27.6689 28 47.002 28s46.666 -15 81.999 -45c-65.333 -84 -145.666 -178 -240.999 -282c50.667 -151.333 86 -240 106 -266c8.66699 -11.333 16.667 -17 24 -17c14 0 30.667 3.66699 50 11l9 3l23 -54c-7.33301 -5.33301 -17 -12 -29 -20
s-33.833 -18.5 -65.5 -31.5s-62.834 -19.5 -93.501 -19.5s-56.5 8.33301 -77.5 25s-37.833 44 -50.5 82l-47 147c-52.667 -68.667 -104.334 -147.334 -155.001 -236.001c-10 -12 -21.333 -18 -34 -18c-21.333 0 -51.333 15 -90 45c33.333 58.667 116 159.334 248 302.001
c-37.333 114 -70.333 197 -99 249c-12 22 -33.667 45.333 -65 70l3 22c67.333 18 137 28.333 209 31c22.667 -12 39.667 -34.333 51 -67l52 -164c45.333 58 93 126.333 143 205z" />
    <glyph glyph-name="Y" unicode="Y" horiz-adv-x="670" 
d="M303.5 -215c-22.333 -6 -47 -9.00195 -74 -9.00195s-51.667 9 -74 27s-33.5 40 -33.5 66s6.5 48.167 19.5 66.5s31.833 33.833 56.5 46.5c43.333 22.667 98 41 164 55c4.66699 10.667 12.334 35 23.001 73c-26.667 -14 -60.167 -27 -100.5 -39s-76.166 -18 -107.499 -18
s-57.833 10.5 -79.5 31.5s-32.5 50 -32.5 87s12.167 104.333 36.5 202s36.5 167.5 36.5 209.5c0 12.667 -3.33301 26.167 -10 40.5s-13.334 25.833 -20.001 34.5l-9 12l3 20c41.333 13.333 112.666 20 213.999 20c12.667 -22 19 -51.5 19 -88.5s-12.667 -107.833 -38 -212.5
s-38 -166.667 -38 -186c0 -33.333 11.667 -50 35 -50c32 0 70.333 12 115 36c22 93.333 40.667 185 56 275s23 155.333 23 196c21.333 8.66699 50 15.667 86 21s65.667 8 89 8h22c0 -51.333 -13.667 -141.666 -41 -270.999l-43.5 -198.5c-19 -87.667 -40.667 -159 -65 -214
s-49 -97.667 -74 -128s-52 -55.166 -81 -74.499s-54.667 -32 -77 -38zM196 -113.002c0 -14.667 9.66797 -21.999 29.001 -21.999s40.666 11.167 63.999 33.5s40 45.166 50 68.499c-38.667 -6 -72.167 -16.5 -100.5 -31.5s-42.5 -31.167 -42.5 -48.5z" />
    <glyph glyph-name="Z" unicode="Z" horiz-adv-x="580" 
d="M504.5 -7c-18.333 -12 -41.6641 -18 -69.9971 -18s-75.333 13.833 -141 41.5s-114.5 41.5 -146.5 41.5c-6 -5.33301 -13.667 -14 -23 -26c-20.667 -29.333 -36.334 -44 -47.001 -44s-23.334 5.5 -38.001 16.5s-27 23.167 -37 36.5
c25.333 50 59.666 100.167 102.999 150.5l142 163c51.333 58.333 95.666 116.833 132.999 175.5c-59.333 4.66699 -107.333 7 -144 7c-54.667 0 -96 -8.33301 -124 -25l-14 -8c-5.33301 11.333 -12 31.5 -20 60.5s-12 53.167 -12 72.5s1.66699 35 5 47
c40.667 18 81.5 27 122.5 27s91.333 -4 151 -12s104 -12 133 -12s60.833 3.66699 95.5 11l23 -51c-42.667 -68 -104.167 -147.167 -184.5 -237.5s-137.166 -158.833 -170.499 -205.5c26 -2 66.667 -10.667 122 -26s91 -23 107 -23c23.333 0 45.333 15.333 66 46l51 -20
c-10.667 -55.333 -22.5 -97.5 -35.5 -126.5s-28.667 -49.5 -47 -61.5z" />
    <glyph glyph-name="bracketleft" unicode="[" horiz-adv-x="394" 
d="M222 -133c0 -6 22.001 -16 66.001 -30l21 -7l-8 -53c-9.33301 -0.666992 -18 -1 -26 -1c-76 0 -140.333 4.66699 -193 14c-11.333 15.333 -17.666 29 -18.999 41c40 392.667 73 679 99 859c1.33301 10.667 6.5 20.667 15.5 30s18.5 14 28.5 14c56.667 0 127 -7 211 -21
l-4 -59c-64.667 -1.33301 -98.334 -8.33301 -101.001 -21c-3.33301 -16 -11.333 -67.167 -24 -153.5s-21.334 -150.333 -26.001 -192l-15 -131.5l-13 -109c-8 -74 -12 -134 -12 -180z" />
    <glyph glyph-name="backslash" unicode="\" horiz-adv-x="378" 
d="M9 710c28 18 55.667 30.333 83 37l321 -825c-22.667 -22.667 -50.667 -34 -84 -34z" />
    <glyph glyph-name="bracketright" unicode="]" horiz-adv-x="426" 
d="M210 643c0 6 -21.668 16 -65.001 30l-22 7l8 53c9.33301 0.666992 18 1 26 1c76 0 140.333 -4.66699 193 -14c11.333 -15.333 17.666 -29 18.999 -41c-40 -392.667 -73 -679 -99 -859c-1.33301 -10.667 -6.5 -20.667 -15.5 -30s-18.5 -14 -28.5 -14
c-56.667 0 -127 7 -211 21l4 59c64.667 1.33301 98.334 8.33301 101.001 21c3.33301 16 11.333 67.167 24 153.5s21.334 150.333 26.001 192l15 131.5l13 109c8 74 12 134 12 180z" />
    <glyph glyph-name="asciicircum" unicode="^" horiz-adv-x="471" 
d="M453 291c-16 -4.66699 -35.166 -7 -57.499 -7s-46.833 1.33301 -73.5 4l-85 235l-88 -235c-26.667 -2.66699 -51.334 -4 -74.001 -4l-57 4l172 386h95l53 -124z" />
    <glyph glyph-name="underscore" unicode="_" horiz-adv-x="614" 
d="M49 0c0 39.333 1 66.333 3 81h514c0 -43.333 -1 -70.333 -3 -81h-514z" />
    <glyph glyph-name="grave" unicode="`" horiz-adv-x="636" 
d="M230 696c30.667 0 117 -49.667 259 -149l-26 -48c-97.333 34.667 -200.333 65 -309 91c24 70.667 49.333 106 76 106z" />
    <glyph glyph-name="a" unicode="a" horiz-adv-x="531" 
d="M482 250.5c-10 -59.667 -15 -101.331 -15 -124.998s3.66699 -35.5 11 -35.5l50 14l18 -50c-21.333 -16.667 -48.5 -31.834 -81.5 -45.501s-62.167 -20.5 -87.5 -20.5c-43.333 0 -70.666 18.667 -81.999 56c-52.667 -37.333 -99.167 -56 -139.5 -56s-71.5 14.667 -93.5 44
s-33 71.333 -33 126c0 75.333 19.333 141.666 58 198.999s89.667 86 153 86c34.667 0 70 -9.66699 106 -29c5.33301 12 9.66602 20.667 12.999 26c48 0 101 -11.667 159 -35c-14 -43.333 -26 -94.833 -36 -154.5zM224 107.003
c4.66699 -8.66699 13.3311 -12.999 25.998 -12.999s25 5 37 15c2.66699 77.333 15.334 158.333 38.001 243c-10 6 -21.5 9 -34.5 9s-24.667 -7.33301 -35 -22s-18.166 -33 -23.499 -55c-10 -42 -15 -79.833 -15 -113.5s2.33301 -54.834 7 -63.501z" />
    <glyph glyph-name="b" unicode="b" horiz-adv-x="520" 
d="M327 692c0 -48.667 -16.335 -143.334 -49.002 -284.001c38.667 23.333 74.334 35 107.001 35s61.334 -13.667 86.001 -41s37 -77.166 37 -149.499s-19.833 -134.5 -59.5 -186.5s-88.5 -78 -146.5 -78c-34.667 0 -69 9.33301 -103 28c-66.667 -16 -123 -24 -169 -24
c-3.33301 2 -5 13.333 -5 34c0 48.667 19.5 153 58.5 313s58.5 268.667 58.5 326c0 14.667 -0.666992 28.667 -2 42c64.667 18 125 27 181 27c4 -6.66699 6 -20.667 6 -42zM295.998 343c-9.33301 0 -21.332 -3.66699 -35.999 -11
c-28.667 -123.333 -45.334 -206.333 -50.001 -249c12 -6 23 -9 33 -9c22.667 0 41.167 24.333 55.5 73s21.5 93.5 21.5 134.5s-8 61.5 -24 61.5z" />
    <glyph glyph-name="c" unicode="c" horiz-adv-x="424" 
d="M282 376c-20.667 0 -38.333 -18.332 -53 -54.999s-22 -73.667 -22 -111c0 -82 23.667 -123 71 -123c30 0 64 14.333 102 43l32 -44c-28 -30.667 -61.5 -54.667 -100.5 -72s-77.833 -26 -116.5 -26c-52 0 -94.167 15.833 -126.5 47.5s-48.5 79.5 -48.5 143.5
c0 77.333 23.833 140.666 71.5 189.999s110.167 74 187.5 74c50 0 89.333 -10.167 118 -30.5s43 -46 43 -77s-9.33301 -57.833 -28 -80.5c-22 0 -45.833 4.16699 -71.5 12.5s-46.167 18.833 -61.5 31.5l15 75c-4 1.33301 -8 2 -12 2z" />
    <glyph glyph-name="d" unicode="d" horiz-adv-x="542" 
d="M377 -12c-41.333 0 -67.9971 15.998 -79.9971 47.998c-50.667 -32 -95.834 -48 -135.501 -48s-71.667 13.5 -96 40.5s-36.5 70.833 -36.5 131.5c0 79.333 20.167 146.333 60.5 201s92.5 82 156.5 82c31.333 0 62.666 -7.33301 93.999 -22
c24.667 112.667 37 193.667 37 243c0 14.667 -1 29.334 -3 44.001c62 17.333 121.667 26 179 26c5.33301 -8.66699 8 -29.167 8 -61.5s-15.167 -119.166 -45.5 -260.499s-45.5 -236 -45.5 -284c0 -25.333 4.33301 -38 13 -38l43 14l18 -51
c-58.667 -43.333 -114.334 -65 -167.001 -65zM246.003 88.998c12 0 25.333 4 40 12v1c2.66699 54 15.667 139 39 255c-13.333 4 -23 6 -29 6c-14 0 -26.333 -7 -37 -21s-19 -32 -25 -54c-11.333 -45.333 -17 -89.833 -17 -133.5s9.66699 -65.5 29 -65.5z" />
    <glyph glyph-name="e" unicode="e" horiz-adv-x="436" 
d="M20 181c0 82.667 25.166 146.999 75.499 192.999s112.5 69 186.5 69c51.333 0 92.5 -11.167 123.5 -33.5s46.5 -52.166 46.5 -89.499c0 -27.333 -8.33301 -51.666 -25 -72.999s-37 -37.666 -61 -48.999c-50.667 -22.667 -94.667 -36.334 -132 -41.001l-25 -3
c7.33301 -44 29.333 -66 66 -66c16 0 33.667 3.5 53 10.5s34.666 14.167 45.999 21.5l17 10l32 -43l-11 -11c-4 -4 -13.5 -11.833 -28.5 -23.5s-30.667 -21.834 -47 -30.501s-37.166 -16.5 -62.499 -23.5s-50.666 -10.5 -75.999 -10.5c-56.667 0 -100.5 16.5 -131.5 49.5
s-46.5 80.833 -46.5 143.5zM262.999 267.499c19.333 29 29.001 53.333 29.001 73s-5.66699 29.5 -17 29.5c-16.667 0 -32 -13 -46 -39s-22 -63 -24 -111c19.333 2.66699 38.666 18.5 57.999 47.5z" />
    <glyph glyph-name="f" unicode="f" horiz-adv-x="326" 
d="M358 354l-88.0029 7.00391c-6 -112.667 -19.167 -220.334 -39.5 -323.001s-40.5 -167 -60.5 -193c-33.333 0.666992 -65.666 4.5 -96.999 11.5s-52.666 13.833 -63.999 20.5c25.333 85.333 43.333 159.166 54 221.499s21.334 148.5 32.001 258.5l-66 -7
c-2.66699 12.667 -4 25.5 -4 38.5s1.66699 27.167 5 42.5h72c10 99.333 24 166.333 42 201c23.333 46 51.333 75.333 84 88c20 8.66699 45.333 13 76 13s56.5 -8.83301 77.5 -26.5s31.5 -41.334 31.5 -71.001s-13.667 -63.834 -41 -102.501s-60.333 -72.667 -99 -102h101
c0 -30 -5.33301 -55.667 -16 -77zM328.997 658.004c-28 0 -45.666 -48.999 -52.999 -146.999c23.333 18.667 42.166 39.167 56.499 61.5s21.5 42.166 21.5 59.499s-8.33301 26 -25 26z" />
    <glyph glyph-name="g" unicode="g" horiz-adv-x="508" 
d="M281 43c-46.667 -25.333 -88.167 -38.001 -124.5 -38.001s-66.666 14.5 -90.999 43.5s-36.5 72.167 -36.5 129.5c0 76.667 20.833 140 62.5 190s91.5 75 149.5 75c28 0 59.667 -7.66699 95 -23c41.333 12.667 88.333 19 141 19h17c3.33301 -6.66699 5 -21.5 5 -44.5
s-4.16699 -68.167 -12.5 -135.5s-17.5 -123.666 -27.5 -168.999c-21.333 -96.667 -54.5 -173.167 -99.5 -229.5s-101.5 -84.5 -169.5 -84.5c-33.333 0 -60.5 7.33301 -81.5 22s-31.5 33.334 -31.5 56.001s5.5 41.5 16.5 56.5s26.833 27.5 47.5 37.5
c35.333 17.333 78.666 31.666 129.999 42.999zM287 361.999c-23.333 0 -41.167 -20 -53.5 -60s-18.5 -83.333 -18.5 -130s11 -70 33 -70c9.33301 0 23 4.66699 41 14c5.33301 54 14 134 26 240c-10 4 -19.333 6 -28 6zM172.999 -150.001
c12.667 0 27.168 6.33203 43.501 18.999s29.833 33.334 40.5 62.001c-72.667 -12.667 -109 -32 -109 -58c1.33301 -15.333 9.66602 -23 24.999 -23z" />
    <glyph glyph-name="h" unicode="h" horiz-adv-x="544" 
d="M329 681c0 -46.667 -17.001 -142.667 -51.001 -288c57.333 32.667 102.5 49 135.5 49s57.5 -8.83301 73.5 -26.5s24 -39.667 24 -66s-7.33301 -67.666 -22 -123.999s-22 -93.166 -22 -110.499s2.66699 -26 8 -26l52 14l18 -50c-20.667 -15.333 -49.167 -30 -85.5 -44
s-68.5 -21 -96.5 -21c-54 0 -81 30.667 -81 92c0 28 7 69.333 21 124s21 89.167 21 103.5s-5 21.5 -15 21.5c-14 0 -31 -6.66699 -51 -20c-30 -127.333 -45 -216 -45 -266l1 -24c-68 -18 -129 -27 -183 -27c-4 2 -6 12.667 -6 32c0 41.333 19.833 143.666 59.5 306.999
s59.5 273.333 59.5 330c0 17.333 -1.33301 32.666 -4 45.999c64.667 18 125.334 27 182.001 27c4.66699 -11.333 7 -29 7 -53z" />
    <glyph glyph-name="i" unicode="i" horiz-adv-x="300" 
d="M244 238.5c-16.667 -61.667 -24.998 -101.833 -24.998 -120.5s3.66699 -28 11 -28s20.666 3.33301 39.999 10l9 4l18 -50c-22.667 -17.333 -50.834 -32.666 -84.501 -45.999s-64.167 -20 -91.5 -20s-48.833 7.66699 -64.5 23s-23.5 37.5 -23.5 66.5
s8.16699 73.333 24.5 133s24.5 97.5 24.5 113.5c0 24.667 -8.66699 48 -26 70l-8 11l3 17c34.667 10.667 102 16 202 16c10.667 -12 16 -32.833 16 -62.5s-8.33301 -75.334 -25 -137.001zM123.502 540.001c-17 16 -25.501 36.5 -25.501 61.5s10.5 46 31.5 63
s46.5 25.5 76.5 25.5s53.333 -7 70 -21s25 -33.667 25 -59s-10.167 -47.333 -30.5 -66s-45.666 -28 -75.999 -28s-54 8 -71 24z" />
    <glyph glyph-name="j" unicode="j" horiz-adv-x="298" 
d="M13 -224c-58 0 -109.665 23.333 -154.998 70l27 43c21.333 -12.667 43.666 -19 66.999 -19s43.333 15.5 60 46.5s33.667 95.333 51 193s26 169.834 26 216.501c0 10 -3.33301 21.5 -10 34.5s-13.334 23.5 -20.001 31.5l-10 12l2 16c48 12 118 18 210 18
c10 -11.333 15 -33.5 15 -66.5s-6 -87.833 -18 -164.5s-25.333 -143.334 -40 -200.001c-40.667 -154 -109 -231 -205 -231zM139.502 540c-17 16 -25.501 36.5 -25.501 61.5s10.5 46 31.5 63s46.5 25.5 76.5 25.5s53.333 -7 70 -21s25 -33.667 25 -59
s-10.167 -47.333 -30.5 -66s-45.666 -28 -75.999 -28s-54 8 -71 24z" />
    <glyph glyph-name="k" unicode="k" horiz-adv-x="551" 
d="M143 661c0 17.333 -1.66504 32.6689 -4.99805 46.002c66 18 126 27 180 27c6.66699 -8 10 -25.667 10 -53c0 -48.667 -15 -142 -45 -280c53.333 28 100.5 42 141.5 42s72.333 -8.33301 94 -25s32.5 -40 32.5 -70c0 -58 -43 -99.333 -129 -124c21.333 -92 42 -138 62 -138
l48 13l22 -49c-16.667 -13.333 -42.334 -27 -77.001 -41s-68 -21 -100 -21s-56.333 12 -73 36s-27.334 55.333 -32.001 94s-7 82 -7 130c32 8 57.333 19.5 76 34.5s28 30 28 45s-8 22.5 -24 22.5c-12.667 0 -27.5 -3.66699 -44.5 -11s-29.5 -14.333 -37.5 -21
c-36 -152 -54 -253.667 -54 -305c-51.333 -11.333 -112.333 -17 -183 -17c-0.666992 5.33301 -1 11.666 -1 18.999c0 34.667 19.667 136.167 59 304.5s59 282.166 59 341.499z" />
    <glyph glyph-name="l" unicode="l" horiz-adv-x="297" 
d="M216 8c-34.667 -13.333 -66.168 -20.0029 -94.501 -20.0029s-51.5 8.16699 -69.5 24.5s-27 39.833 -27 70.5s16.833 116.167 50.5 256.5s50.5 244.5 50.5 312.5c0 14.667 -2 33.334 -6 56.001c62.667 17.333 123.334 26 182.001 26c6 -10.667 9 -28 9 -52
c0 -45.333 -16.833 -144.166 -50.5 -296.499s-50.5 -240.166 -50.5 -263.499s4 -35 12 -35c6.66699 0 21 4.33301 43 13l11 5l24 -49c-21.333 -18.667 -49.333 -34.667 -84 -48z" />
    <glyph glyph-name="m" unicode="m" horiz-adv-x="790" 
d="M60 -6l-25 0.000976562c0 47.333 9.16699 113.5 27.5 198.5s27.5 132.167 27.5 141.5s-3 19.666 -9 30.999s-12 20 -18 26l-9 9l2 15c38.667 12.667 107 19 205 19c7.33301 -15.333 12.333 -31.666 15 -48.999c58 38 107 57 147 57c21.333 0 39.5 -5.66699 54.5 -17
s25.5 -26.333 31.5 -45c55.333 41.333 106 62 152 62c30 0 53.5 -9.16699 70.5 -27.5s25.5 -40.333 25.5 -66s-7.33301 -67.167 -22 -124.5s-22 -94.166 -22 -110.499s2.66699 -24.5 8 -24.5l52 13l18 -50c-20 -16 -47.5 -30.667 -82.5 -44s-66.5 -20 -94.5 -20
c-57.333 0 -86 29 -86 87c0 24.667 7 66.667 21 126s21 95.5 21 108.5s-5 19.5 -15 19.5c-14 0 -29 -5.66699 -45 -17c-2 -10 -7.33301 -34 -16 -72c-18.667 -85.333 -28 -161 -28 -227c-30.667 -11.333 -90.334 -17 -179.001 -17c-2 7.33301 -3 24.666 -3 51.999
s7.33301 75.666 22 144.999s22 109.333 22 120s-4.66699 16 -14 16c-11.333 0 -26 -5.33301 -44 -16c-2 -11.333 -8.33301 -40.333 -19 -87c-22.667 -98 -34 -169.333 -34 -214c-31.333 -12 -83.666 -18 -156.999 -18z" />
    <glyph glyph-name="n" unicode="n" horiz-adv-x="554" 
d="M52 -6l-17.002 0.00390625c0 41.333 9.5 104 28.5 188s28.5 132.333 28.5 145s-3 25 -9 37s-12 21 -18 27l-9 9l2 15c39.333 12.667 108 19 206 19c6.66699 -15.333 11.334 -31.333 14.001 -48c60.667 37.333 111.667 56 153 56c28 0 50 -9.16699 66 -27.5
s24 -40.333 24 -66s-7.33301 -66.834 -22 -123.501s-22 -93.5 -22 -110.5s2.33301 -25.5 7 -25.5l53 14l18 -50c-21.333 -16 -49.166 -30.833 -83.499 -44.5s-65.833 -20.5 -94.5 -20.5c-56.667 0 -85 29.333 -85 88c0 25.333 7 66.666 21 123.999s21 93.166 21 107.499
s-4.66699 21.5 -14 21.5c-12 0 -28 -6.66699 -48 -20l-20 -87c-21.333 -96.667 -32 -166.334 -32 -209.001c-32.667 -12.667 -88.667 -19 -168 -19z" />
    <glyph glyph-name="o" unicode="o" horiz-adv-x="446" 
d="M188 -12c-52 0 -92.999 16.502 -122.999 49.502s-45 79.5 -45 139.5c0 73.333 21.667 135.5 65 186.5s100.333 76.5 171 76.5l45 -4c16 4.66699 31 7 45 7c33.333 0 57.166 -11.333 71.499 -34s22.5 -55 24.5 -97c28 1.33301 54.667 5.66602 80 12.999l14 4
c4.66699 -4.66699 8 -18.667 10 -42l1 -11c-30 -15.333 -66.667 -27.333 -110 -36c-14.667 -70.667 -43.667 -130.334 -87 -179.001s-97.333 -73 -162 -73zM208.001 181.002c0 -62 15.666 -93 46.999 -93c22 0 44.5 14 67.5 42s38.833 62 47.5 102
c-68 0 -102 32.667 -102 98c0 11.333 1 23 3 35c-6.66699 0 -11.667 -1 -15 -3c-11.333 -12 -22.166 -36.167 -32.499 -72.5s-15.5 -72.5 -15.5 -108.5z" />
    <glyph glyph-name="p" unicode="p" horiz-adv-x="512" 
d="M-2 -224c-5.33301 8.66699 -7.99902 26.998 -7.99902 54.998s12.833 104 38.5 228s38.5 201.667 38.5 233s-3 55.166 -9 71.499s-12 26.833 -18 31.5l-9 7l2 15c40 12.667 107.667 19 203 19c5.33301 -10 9.66602 -23 12.999 -39c42.667 30.667 83 46 121 46
s69.167 -14.5 93.5 -43.5s36.5 -78.167 36.5 -147.5s-18.167 -130.666 -54.5 -183.999s-89.5 -80 -159.5 -80c-30.667 0 -60.667 6 -90 18c-15.333 -75.333 -23 -141.666 -23 -198.999c-48 -17.333 -106.333 -27.666 -175 -30.999zM240.001 71.998
c18 0 33.333 13.332 46 39.999c22.667 46.667 34 103.334 34 170.001c0 39.333 -9.66699 59 -29 59c-10 0 -23.333 -3.66699 -40 -11c-4 -56 -17.333 -140.333 -40 -253c11.333 -3.33301 21 -5 29 -5z" />
    <glyph glyph-name="q" unicode="q" horiz-adv-x="518" 
d="M231 -224l-11 0.000976562c-0.666992 6 -1 16 -1 30c0 37.333 12.333 108.666 37 213.999c-36 -21.333 -71.5 -32 -106.5 -32s-63.833 13.5 -86.5 40.5s-34 69.833 -34 128.5c0 81.333 20.833 149.333 62.5 204s91.5 82 149.5 82c36 0 67.667 -7.66699 95 -23
c56.667 14 110.667 21 162 21c5.33301 -7.33301 8 -21.333 8 -42c0 -42 -17.167 -138 -51.5 -288s-51.5 -251.333 -51.5 -304c-44.667 -20.667 -102 -31 -172 -31zM294 361.001c-24.667 0 -43.665 -24 -56.998 -72s-20 -97 -20 -147c0 -18.667 1.66699 -32 5 -40
s10.166 -12 20.499 -12s21.166 2.66699 32.499 8c28.667 120.667 43.667 206.667 45 258c-10 3.33301 -18.667 5 -26 5z" />
    <glyph glyph-name="r" unicode="r" horiz-adv-x="392" 
d="M49 -6l-8.00098 0.000976562c-2 9.33301 -3 23.833 -3 43.5s8.16699 70.667 24.5 153s24.5 129 24.5 140s-3 22.333 -9 34s-12 20.5 -18 26.5l-9 9l2 15c40 12.667 106.333 19 199 19c8.66699 -16.667 14 -36.334 16 -59.001c40.667 45.333 76.667 68 108 68
c40.667 0 63 -34.333 67 -103c-1.33301 -1.33301 -3 -3.5 -5 -6.5s-6.66699 -8.16699 -14 -15.5s-15 -14 -23 -20c-22.667 -15.333 -46.667 -24.333 -72 -27c-0.666992 0 -5.16699 7.33301 -13.5 22s-15.333 22 -21 22s-16.167 -6 -31.5 -18
c-2 -12 -5.83301 -32.333 -11.5 -61s-10.167 -52.334 -13.5 -71.001c-10 -49.333 -15 -90.666 -15 -123.999l1 -30c-29.333 -11.333 -87.666 -17 -174.999 -17z" />
    <glyph glyph-name="s" unicode="s" horiz-adv-x="385" 
d="M368 135c0 -41.333 -19.167 -76.166 -57.5 -104.499s-83.166 -42.5 -134.499 -42.5s-93.5 8.66699 -126.5 26s-49.5 33.833 -49.5 49.5s10.167 35.667 30.5 60s41.166 38.5 62.499 42.5c30.667 -16.667 58.334 -53.667 83.001 -111c19.333 0 29 6.33301 29 19
c0 9.33301 -2.66699 18 -8 26s-9.33301 14.333 -12 19s-7.33398 11.167 -14.001 19.5l-15 18.5l-45 55c-32 40 -48 75.167 -48 105.5s9.66699 55.166 29 74.499c33.333 34 82.333 51 147 51c40.667 0 73 -7.83301 97 -23.5s36 -39 36 -70s-18.333 -66.5 -55 -106.5
c34 -39.333 51 -75.333 51 -108zM313 352c0 10 -4.33301 17.667 -13 23s-19 8 -31 8s-21.167 -2.83301 -27.5 -8.5s-9.5 -13.167 -9.5 -22.5s14.333 -30 43 -62c9.33301 6.66699 18 16.167 26 28.5s12 23.5 12 33.5z" />
    <glyph glyph-name="t" unicode="t" horiz-adv-x="338" 
d="M372 354l-86.001 6.99512c-26.667 -119.333 -41.167 -188.666 -43.5 -207.999s-3.5 -35.166 -3.5 -47.499s4 -18.5 12 -18.5c9.33301 0 27 6 53 18l24 -48c-21.333 -19.333 -48.333 -35.666 -81 -48.999s-64.167 -20 -94.5 -20s-54.5 7.83301 -72.5 23.5
s-27 37.834 -27 66.501s8.33301 74.667 25 138s27.667 110.333 33 141c-16 -1.33301 -39.667 -3.66602 -71 -6.99902c-2.66699 14 -4 27.167 -4 39.5s1.66699 26.166 5 41.499h80c0.666992 8.66699 1 37.667 1 87l-2 41c64.667 21.333 126.334 32 185.001 32
c4.66699 -10.667 7 -29.167 7 -55.5s-4.33301 -61.166 -13 -104.499h90c0 -27.333 -5.66699 -53 -17 -77z" />
    <glyph glyph-name="u" unicode="u" horiz-adv-x="542" 
d="M61.5 219c17.667 64 26.501 103.334 26.501 118.001s-12 36 -36 64l2 15c60.667 13.333 131.667 20 213 20c5.33301 -11.333 8 -29.333 8 -54s-9.16699 -71.334 -27.5 -140.001s-27.5 -109.334 -27.5 -122.001c0 -17.333 8.33301 -26 25 -26
c11.333 0 25.666 4.33301 42.999 13c2 10.667 8 38.667 18 84c23.333 100.667 35 176 35 226c30.667 13.333 83 20 157 20h27c0 -30 -8.83301 -88.667 -26.5 -176s-26.667 -137.666 -27 -150.999s2.5 -20 8.5 -20l49 13l18 -50c-19.333 -15.333 -47.333 -30 -84 -44
s-69 -21 -97 -21c-41.333 0 -67 16.667 -77 50c-55.333 -33.333 -108.333 -50 -159 -50c-63.333 0 -95 31 -95 93c0 28 8.83301 74 26.5 138z" />
    <glyph glyph-name="v" unicode="v" horiz-adv-x="427" 
d="M49 114l13 209.001c0 18 -2.5 32.167 -7.5 42.5s-15.167 24.833 -30.5 43.5l4 15c51.333 12 94 18 128 18s57.833 -7.83301 71.5 -23.5s20.5 -37.834 20.5 -66.501s-5.16699 -70.667 -15.5 -126s-15.5 -91.833 -15.5 -109.5s5 -26.5 15 -26.5
c16 0 36.833 15.167 62.5 45.5s42.5 60.166 50.5 89.499l-74 71c2.66699 28 8.66699 54.167 18 78.5s17.666 41.5 24.999 51.5l12 16c80.667 0 121 -33.333 121 -100c0 -43.333 -13.167 -92.166 -39.5 -146.499s-63.166 -102.5 -110.499 -144.5s-96.333 -63 -147 -63
c-67.333 0 -101 42 -101 126z" />
    <glyph glyph-name="w" unicode="w" horiz-adv-x="660" 
d="M49 109l10.001 220c0 14 -2 26.167 -6 36.5s-13.667 24.5 -29 42.5l3 16c50.667 12.667 92.667 19 126 19s57.166 -8 71.499 -24s21.5 -38.167 21.5 -66.5s-5 -69.833 -15 -124.5s-15 -91.5 -15 -110.5s5.33301 -28.5 16 -28.5c14.667 0 33 8.66699 55 26
c0.666992 11.333 3.66699 44 9 98s8 94.167 8 120.5s-2 49.5 -6 69.5c15.333 8 42 15.333 80 22s70 10 96 10c6 -12 9 -30.833 9 -56.5s-5.66699 -70.334 -17 -134.001s-17 -105.334 -17 -125.001s5.33301 -29.5 16 -29.5c16 0 36.667 15.833 62 47.5s42 60.5 50 86.5
l-73 72c2.66699 27.333 8.66699 53.166 18 77.499s18 41.833 26 52.5l11 16c80.667 0 121 -32.667 121 -98c0 -31.333 -8.5 -67.666 -25.5 -108.999s-38.5 -80.166 -64.5 -116.499s-57 -67.166 -93 -92.499s-71 -38 -105 -38c-47.333 0 -79.666 20.333 -96.999 61
c-48.667 -40 -98.667 -60 -150 -60c-30.667 0 -54.334 9 -71.001 27s-25 49 -25 93z" />
    <glyph glyph-name="x" unicode="x" horiz-adv-x="424" 
d="M378 90c8 0 22.665 5.00098 43.998 15.001l22 -49c-16 -16 -41.167 -31.333 -75.5 -46s-64.5 -22 -90.5 -22s-46.333 5.5 -61 16.5s-27 30.167 -37 57.5c-4 9.33301 -11.667 30.666 -23 63.999c-25.333 -30 -49.666 -76 -72.999 -138c-14.667 0 -32.667 3.5 -54 10.5
s-38 14.833 -50 23.5c40.667 67.333 91.667 126 153 176c-22.667 68.667 -40.667 116 -54 142c-5.33301 13.333 -21.333 33.333 -48 60l3 15c47.333 12.667 109.666 20.334 186.999 23.001c6.66699 -2 14.334 -8.83301 23.001 -20.5s15.334 -25.167 20.001 -40.5l20 -70
c12 18 20.333 31.667 25 41l10 20c6.66699 13.333 10.667 23 12 29c4 17.333 8.33301 32 13 44c28 -2.66699 55.667 -11.334 83 -26.001l13 -7c-32.667 -62 -77.667 -119 -135 -171c28.667 -98 53 -147 73 -147z" />
    <glyph glyph-name="y" unicode="y" horiz-adv-x="505" 
d="M499 436l8.00098 0.00195312c-3.33301 -17.333 -9 -54.666 -17 -111.999c-18 -130.667 -37.333 -229.334 -58 -296.001c-51.333 -168 -133.666 -252 -246.999 -252c-34 0 -61.5 7.16699 -82.5 21.5s-31.5 33 -31.5 56s5.5 42 16.5 57s26.833 27.5 47.5 37.5
c35.333 17.333 78.666 31.666 129.999 42.999c5.33301 25.333 8.66602 41.666 9.99902 48.999c-52 -28 -101.333 -42 -148 -42c-64 0 -96 31.333 -96 94c0 22 7.33301 65.167 22 129.5s22 108.833 22 133.5s-1.66699 43 -5 55c78.667 16.667 139.667 25 183 25
c5.33301 -8 8 -23.833 8 -47.5s-7.5 -69.5 -22.5 -137.5s-22.5 -108 -22.5 -120c0 -20.667 10 -31 30 -31c11.333 0 24.333 3 39 9c5.33301 34 12.833 85.833 22.5 155.5s16.5 117.5 20.5 143.5c17.333 8 43.5 14.833 78.5 20.5s65.833 8.5 92.5 8.5zM142.001 -126.998
c0 -15.333 10 -23.001 30 -23.001c10 0 23.167 6.83301 39.5 20.5s29.5 33.834 39.5 60.501c-72.667 -12.667 -109 -32 -109 -58z" />
    <glyph glyph-name="z" unicode="z" horiz-adv-x="425" 
d="M150 440l204.999 -5c23.333 0 45 1 65 3l9 -34c-96.667 -112 -165.667 -196.667 -207 -254c66 -17.333 107.833 -26.166 125.5 -26.499s32.167 13.5 43.5 41.5l43 -15c-12 -117.333 -50.333 -176 -115 -176c-22.667 0 -53.5 11 -92.5 33s-64.167 35 -75.5 39
c-32 -34 -55.833 -51 -71.5 -51s-32.834 9.16699 -51.501 27.5s-28 35.5 -28 51.5s11.833 35.667 35.5 59s48.834 35 75.501 35c6.66699 0 16.667 -0.666992 30 -2c39.333 36.667 74 85 104 145c-81.333 0 -142.666 -12 -183.999 -36c-8 32 -12 59.667 -12 83
s0.666992 43.666 2 60.999c10.667 14 43.667 21 99 21z" />
    <glyph glyph-name="braceleft" unicode="{" horiz-adv-x="468" 
d="M222 390l-3 205.996c0 43.333 12.667 77.333 38 102s59.166 37 101.499 37s85.166 -9 128.499 -27l-8 -50h-8c-39.333 0 -63 -4.66699 -71 -14s-14.667 -33.333 -20 -72s-10.166 -85 -14.499 -139s-7.83301 -90 -10.5 -108c-4.66699 -34.667 -27.667 -59.334 -69 -74.001
c15.333 -5.33301 27.5 -14.666 36.5 -27.999s13.5 -30.166 13.5 -50.499s-6 -68.166 -18 -143.499s-18 -119.666 -18 -132.999s1 -22.333 3 -27c3.33301 -9.33301 11.333 -17.166 24 -23.499s24.667 -10.166 36 -11.499l17 -3l-6 -50
c-19.333 -3.33301 -41.666 -5 -66.999 -5c-118 0 -177 37.333 -177 112c0 24 11.5 75.5 34.5 154.5s37.167 133.5 42.5 163.5c-6.66699 8 -39.667 14.667 -99 20l-30 2c0.666992 31.333 4 59.666 10 84.999c57.333 -9.33301 97 -14 119 -14l11 1
c2.66699 24.667 4 54.667 4 90z" />
    <glyph glyph-name="bar" unicode="|" horiz-adv-x="268" 
d="M204 796v-939c-29.333 -4 -61 -6 -95 -6v940c42 3.33301 73.667 5 95 5z" />
    <glyph glyph-name="braceright" unicode="}" horiz-adv-x="471" 
d="M293 121l3.00293 -206c0 -43.333 -12.667 -77.333 -38 -102s-59.333 -37 -102 -37s-85.334 9 -128.001 27l8 50c44 0 70.333 4.5 79 13.5s15.5 32.833 20.5 71.5s9.66699 85.167 14 139.5s7.83301 90.5 10.5 108.5c4.66699 34.667 27.667 59.334 69 74.001
c-15.333 5.33301 -27.5 14.666 -36.5 27.999s-13.5 30.166 -13.5 50.499s6 68.333 18 144s18 119.834 18 132.501s-1.33301 22.667 -4 30s-10.334 14.166 -23.001 20.499s-24.667 10.5 -36 12.5l-17 2l6 50c19.333 3.33301 41.666 5 66.999 5c118 0 177 -37.333 177 -112
c0 -24 -11.5 -75.5 -34.5 -154.5s-37.167 -133.5 -42.5 -163.5c6.66699 -8 39.667 -14.333 99 -19l30 -3c-0.666992 -31.333 -4 -59.666 -10 -84.999c-57.333 9.33301 -97 14 -119 14l-11 -1c-2.66699 -24.667 -4 -54.667 -4 -90z" />
    <glyph glyph-name="asciitilde" unicode="~" horiz-adv-x="540" 
d="M384 224c-16 0 -52.1699 4.5 -108.503 13.5s-92.666 13.5 -108.999 13.5s-29.666 -2.66699 -39.999 -8s-20.833 -16 -31.5 -32l-51 13c10.667 101.333 56.334 152 137.001 152c16.667 0 52.5 -4.5 107.5 -13.5s94.333 -13.5 118 -13.5s43.167 11 58.5 33l48 -12
c-10.667 -97.333 -53.667 -146 -129 -146z" />
    <glyph glyph-name="nbspace" unicode="&#xa0;" horiz-adv-x="200" 
 />
    <glyph glyph-name="exclamdown" unicode="&#xa1;" horiz-adv-x="311" 
d="M286 430c15.333 -14.667 23 -34.6689 23 -60.002s-10.333 -47.5 -31 -66.5s-45.5 -28.5 -74.5 -28.5s-51.333 7.83301 -67 23.5s-23.5 35.834 -23.5 60.501s10.667 46.334 32 65.001s46.333 28 75 28s50.667 -7.33301 66 -22zM13 -231.002
c0 48.667 15.8311 128.832 47.498 240.499s54.5 179.5 68.5 203.5c20.667 7.33301 40.334 11 59.001 11s34.667 -1.33301 48 -4c-17.333 -163.333 -26 -291 -26 -383l6 -87c-73.333 -22.667 -136.666 -34 -189.999 -34c-8.66699 10.667 -13 28.334 -13 53.001z" />
    <glyph glyph-name="cent" unicode="&#xa2;" horiz-adv-x="415" 
d="M282 376c-20.667 0 -38.334 -18.332 -53.001 -54.999s-22 -73.667 -22 -111c0 -82 23.667 -123 71 -123c30 0 64 14.333 102 43l32 -44c-53.333 -58 -118.666 -90.333 -195.999 -97c-3.33301 -26.667 -5 -61.667 -5 -105c-26 0 -54 4.66699 -84 14l18 96
c-38.667 8.66699 -69.167 28.5 -91.5 59.5s-33.5 72.833 -33.5 125.5c0 68.667 18.833 126.5 56.5 173.5s88.5 75.833 152.5 86.5c3.33301 32.667 6.33301 73.667 9 123c24 0 51 -4.66699 81 -14l-21 -106c44.667 -2.66699 79.5 -14 104.5 -34s37.5 -44.833 37.5 -74.5
s-9.33301 -55.834 -28 -78.501c-22 0 -45.833 4.16699 -71.5 12.5s-46.167 18.833 -61.5 31.5l15 75c-4 1.33301 -8 2 -12 2z" />
    <glyph glyph-name="sterling" unicode="&#xa3;" horiz-adv-x="551" 
d="M385 733c55.333 0 101.498 -11.5029 138.498 -34.5029s55.5 -52.5 55.5 -88.5c0 -26.667 -11 -54 -33 -82c-63.333 0 -109.333 12.667 -138 38l11 87c-6 6 -14 9 -24 9s-18.333 -3.33301 -25 -10c-10 -12 -17.667 -28 -23 -48s-11 -48.333 -17 -85
s-12.667 -72.667 -20 -108h158c-1.33301 -15.333 -6.66602 -33.666 -15.999 -54.999l-5 -10c-48.667 4 -99.334 6 -152.001 6c-21.333 -78 -44.666 -142.667 -69.999 -194c84 -23.333 147 -35 189 -35c17.333 0 31.666 7 42.999 21c10 12 19 25.667 27 41l54 -21
c-13.333 -62.667 -31 -108.667 -53 -138s-49.333 -44 -82 -44c-21.333 0 -43.166 4.33301 -65.499 13s-49 21.167 -80 37.5s-55.833 28.5 -74.5 36.5c-18.667 -23.333 -39.667 -42.5 -63 -57.5s-39.833 -22.5 -49.5 -22.5s-25.667 14.833 -48 44.5s-33.5 51.5 -33.5 65.5
c0 6.66699 12.333 18.834 37 36.501s48.334 28.834 71.001 33.501c10.667 32.667 20.667 90.667 30 174c-12.667 -1.33301 -29 -4 -49 -8c-2 9.33301 -3 20.5 -3 33.5s1 27.167 3 42.5h57l11 94c10.667 94 37.667 156.333 81 187c22 16 45.167 26.833 69.5 32.5
s53.833 8.5 88.5 8.5z" />
    <glyph glyph-name="currency" unicode="&#xa4;" horiz-adv-x="696" 
d="M152 222c-19.333 36 -28.9971 77.168 -28.9971 123.501s7.66699 85.833 23 118.5c-42 36 -76 70.667 -102 104c25.333 28 44.5 47.333 57.5 58s26.667 16.167 41 16.5s28.5 -8.5 42.5 -26.5l44 -60c36 20.667 79.667 31 131 31s95.666 -10.667 132.999 -32l24 33
c10 14 17 23.333 21 28c14 18 29 27 45 27c12.667 -1.33301 25.667 -7 39 -17s32.333 -29 57 -57c-23.333 -30 -57.666 -65 -102.999 -105c16 -34 24 -73 24 -117s-8.33301 -83 -25 -117c45.333 -40 80.666 -75.667 105.999 -107c-24.667 -27.333 -43.5 -45.833 -56.5 -55.5
s-25.833 -15.167 -38.5 -16.5c-16 0 -31 9 -45 27l-22 30c-10.667 14.667 -19.334 26 -26.001 34c-36 -20.667 -78.833 -31 -128.5 -31s-91.834 8.66699 -126.501 26c-28 -38.667 -42.333 -58.334 -43 -59.001c-14 -18 -29 -27 -45 -27
c-12.667 1.33301 -25.5 6.83301 -38.5 16.5s-31.833 28.167 -56.5 55.5c22 28 54.333 61 97 99zM361.003 468.001c-72 0 -108 -39.5 -108 -118.5s36 -118.5 108 -118.5c37.333 0 64.666 10.667 81.999 32s26 50 26 86s-8.66699 64.833 -26 86.5s-44.666 32.5 -81.999 32.5z
" />
    <glyph glyph-name="yen" unicode="&#xa5;" horiz-adv-x="516" 
d="M60 270c0 12.667 1.00098 25.999 3.00098 39.999h122c-17.333 24 -32.666 76 -45.999 156s-21.666 125.333 -24.999 136c-6.66699 18.667 -21.334 37 -44.001 55l-12 9l3 23c68 11.333 137.333 17 208 17c18 -12.667 29 -32.167 33 -58.5s7.66699 -66.666 11 -120.999
s6.33301 -88.5 9 -102.5h5c16.667 29.333 36.167 73.166 58.5 131.499s39.166 109.833 50.499 154.5c18.667 0 41.334 -2.5 68.001 -7.5s46 -10.833 58 -17.5c-4.66699 -7.33301 -31.334 -59.666 -80.001 -156.999s-88 -170 -118 -218h117
c-1.33301 -18 -6.33301 -36 -15 -54l-4 -10c-30 2 -68 3 -114 3l-7 -42h127c-1.33301 -18 -6 -36 -14 -54l-5 -10c-32 2.66699 -70.667 4.66699 -116 6c-4.66699 -46.667 -7 -87 -7 -121c-28.667 -18.667 -91.334 -28 -188.001 -28h-5c0 29.333 6.33301 77.333 19 144
c-30 -2.66699 -64 -6.33398 -102 -11.001c-2 10.667 -3 22.5 -3 35.5s1 25.833 3 38.5h115l9 40c-44.667 -2 -82 -5 -112 -9c-1.33301 8.66699 -2 19.334 -2 32.001z" />
    <glyph glyph-name="brokenbar" unicode="&#xa6;" horiz-adv-x="278" 
d="M109 -149l0.000976562 441h95v-435c-28.667 -4 -60.334 -6 -95.001 -6zM204.001 797v-398h-95v392c18 4 49.667 6 95 6z" />
    <glyph glyph-name="section" unicode="&#xa7;" horiz-adv-x="502" 
d="M347 666c-41.333 0 -62.001 -18.665 -62.001 -55.998c0 -35.333 34 -87 102 -155c24.667 -24.667 47.334 -54 68.001 -88s31 -66.667 31 -98s-14 -60.666 -42 -87.999s-64.667 -49.666 -110 -66.999c38 -48 57 -93.833 57 -137.5s-18.667 -79.667 -56 -108
s-82.5 -42.5 -135.5 -42.5s-98.667 9.83301 -137 29.5s-57.5 37.5 -57.5 53.5c1.33301 19.333 14 40.166 38 62.499s48 36.833 72 43.5c24.667 -16.667 45 -41.667 61 -75c4.66699 -10.667 10.667 -26.334 18 -47.001c13.333 3.33301 22.333 8 27 14s7 16.5 7 31.5
s-6.83301 33.667 -20.5 56s-30.334 44.5 -50.001 66.5l-58.5 68c-46.667 56 -70 108.333 -70 157c0 37.333 13.167 69.166 39.5 95.499s61.5 46.166 105.5 59.499c-38 48.667 -57 95 -57 139s22.5 80.667 67.5 110s93.333 44 145 44s92.334 -11.833 122.001 -35.5
s44.5 -53.5 44.5 -89.5s-20 -71 -60 -105c-36 6 -62.667 21.667 -80 47c10.667 8 20.334 18.5 29.001 31.5s13 26.167 13 39.5s-4.83301 24 -14.5 32s-21.834 12 -36.501 12zM295.999 285.002c-10 14.667 -17.334 24.999 -22.001 30.999c-10 14.667 -26 34.667 -48 60
c-18 -14.667 -27 -35 -27 -61c0 -20.667 12.333 -45 37 -73l15.5 -18.5c3.66699 -4.33301 9.83398 -11.166 18.501 -20.499s14.667 -16 18 -20c15.333 15.333 23 32.5 23 51.5s-5 35.833 -15 50.5z" />
    <glyph glyph-name="dieresis" unicode="&#xa8;" horiz-adv-x="548" 
d="M108 550c-14 13.333 -21.001 30.5 -21.001 51.5s8.66699 38.667 26 53s38.333 21.5 63 21.5s43.834 -5.83301 57.501 -17.5s20.5 -28.167 20.5 -49.5s-8.5 -39.833 -25.5 -55.5s-37.833 -23.5 -62.5 -23.5s-44 6.66699 -58 20zM318.999 550
c-14 13.333 -21.001 30.5 -21.001 51.5s8.66699 38.667 26 53s38.333 21.5 63 21.5s43.834 -5.83301 57.501 -17.5s20.5 -28.167 20.5 -49.5s-8.5 -39.833 -25.5 -55.5s-37.833 -23.5 -62.5 -23.5s-44 6.66699 -58 20z" />
    <glyph glyph-name="copyright" unicode="&#xa9;" horiz-adv-x="794" 
d="M552 388c-47.333 0 -80.667 6.99707 -100 20.9971l4 90c-2 4 -8.66699 6 -20 6c-20.667 0 -38.167 -15 -52.5 -45s-21.5 -68 -21.5 -114c0 -85.333 26.667 -128 80 -128c37.333 0 69.333 13.333 96 40l38 -47c-2 -2 -4.5 -5 -7.5 -9s-10.333 -10.667 -22 -20
s-23.834 -17.666 -36.501 -24.999c-33.333 -19.333 -71.333 -29 -114 -29c-56 0 -104 17.333 -144 52s-60 84.167 -60 148.5s24.167 120.833 72.5 169.5s108.5 73 180.5 73c46 0 84.5 -10.5 115.5 -31.5s46.5 -49.167 46.5 -84.5c0 -13.333 -2 -27.166 -6 -41.499
s-8 -22.166 -12 -23.499c-11.333 -1.33301 -23.666 -2 -36.999 -2zM129.999 86.4971c-65.333 67.667 -98 153.499 -98 257.499s33 190.5 99 259.5s158.667 103.5 278 103.5s211.333 -33.667 276 -101s97 -153.666 97 -258.999s-32.333 -192 -97 -260s-157 -102 -277 -102
s-212.667 33.833 -278 101.5zM194.999 553.496c-50.667 -55.667 -76 -125.332 -76 -208.999s25 -152.834 75 -207.501s121.5 -82 214.5 -82s164.333 27.5 214 82.5s74.5 125 74.5 210s-24.833 154.5 -74.5 208.5s-120.667 81 -213 81s-163.833 -27.833 -214.5 -83.5z" />
    <glyph glyph-name="ordfeminine" unicode="&#xaa;" horiz-adv-x="414" 
d="M236 339c-29.333 -19.333 -57.6699 -29 -85.0029 -29s-50.5 11 -69.5 33s-28.5 53 -28.5 93c0 64 17.5 118 52.5 162s81.5 66 139.5 66c22.667 0 41.334 -2 56.001 -6c36.667 -10 67 -19 91 -27c-10.667 -31.333 -20.5 -72.5 -29.5 -123.5s-13.5 -87.5 -13.5 -109.5
c0 -6.66699 2.66699 -10 8 -10l28 8l14 -35c-11.333 -11.333 -28.166 -22.833 -50.499 -34.5s-44.166 -17.5 -65.499 -17.5s-37 10 -47 30zM241.996 602c-15.333 0 -28.333 -18.333 -39 -55s-16 -72 -16 -106s5.66699 -51 17 -51c6 0 13 3.33301 21 10
c4.66699 56.667 16.667 123 36 199c-8 2 -14.333 3 -19 3z" />
    <glyph glyph-name="guillemotleft" unicode="&#xab;" horiz-adv-x="523" 
d="M114 194.5c-46.667 47 -70 78.667 -70 95s22.333 45.833 67 88.5s92 84 142 124l46 -41c-52 -74 -87 -129.333 -105 -166c16.667 -46 42 -99 76 -159l-45 -41c-27.333 19.333 -64.333 52.5 -111 99.5zM315 194.5c-46.667 47 -70 78.667 -70 95s22.333 45.833 67 88.5
s92 84 142 124l46 -41c-52 -74 -87 -129.333 -105 -166c16.667 -46 42 -99 76 -159l-45 -41c-27.333 19.333 -64.333 52.5 -111 99.5z" />
    <glyph glyph-name="logicalnot" unicode="&#xac;" horiz-adv-x="455" 
d="M404 389v-220c-22.667 -8 -55 -12 -97 -12v139h-261c0 40.667 2 71.667 6 93h352z" />
    <glyph glyph-name="uni00AD" unicode="&#xad;" horiz-adv-x="590" 
d="M493 234h-369c-2 28 -3 58 -3 90h369c2 -36.667 3 -66.667 3 -90z" />
    <glyph glyph-name="registered" unicode="&#xae;" horiz-adv-x="794" 
d="M448 461c0 28.667 -9.33301 43 -28 43l-17 -1c-2 -14 -4.83301 -35.167 -8.5 -63.5l-8.5 -65.5c41.333 2.66699 62 31.667 62 87zM261 469c0 10 -6.99805 26.3311 -20.998 48.998l5 26c62.667 15.333 129.667 23 201 23c44.667 0 81.5 -9.16699 110.5 -27.5
s43.5 -42.333 43.5 -72s-7.83301 -56 -23.5 -79s-38.5 -40.167 -68.5 -51.5c11.333 -27.333 24.333 -53.666 39 -78.999s26 -38 34 -38l22 2l15 -35c-34 -26.667 -71 -40 -111 -40c-30 0 -53.667 7.66699 -71 23c-6.66699 6 -12.834 15.167 -18.501 27.5
s-9.5 22.833 -11.5 31.5l-9 39.5l-9 39.5h-10c-10 -61.333 -15.333 -108.333 -16 -141c-26 -11.333 -64.667 -17 -116 -17c-10.667 0 -22.667 1.66699 -36 5c3.33301 26.667 12.666 79.834 27.999 159.501s23 131.167 23 154.5zM130.002 86.498
c-65.333 67.667 -98 153.499 -98 257.499s33 190.5 99 259.5s158.667 103.5 278 103.5s211.333 -33.667 276 -101s97 -153.666 97 -258.999s-32.333 -192 -97 -260s-157 -102 -277 -102s-212.667 33.833 -278 101.5zM195.002 553.497
c-50.667 -55.667 -76 -125.332 -76 -208.999s25 -152.834 75 -207.501s121.5 -82 214.5 -82s164.333 27.5 214 82.5s74.5 125 74.5 210s-24.833 154.5 -74.5 208.5s-120.667 81 -213 81s-163.833 -27.833 -214.5 -83.5z" />
    <glyph glyph-name="macron" unicode="&#xaf;" horiz-adv-x="502" 
d="M135 575c-2 10 -3 23 -3 39s1.33301 32.667 4 50h371l-9 -86c-42.667 2.66699 -104.667 4 -186 4s-140.333 -2.33301 -177 -7z" />
    <glyph glyph-name="degree" unicode="&#xb0;" horiz-adv-x="255" 
d="M287 687.5c25.333 -19.667 38.001 -46 38.001 -79s-12.5 -63 -37.5 -90s-63.5 -40.5 -115.5 -40.5c-36.667 0 -68.334 9.33301 -95.001 28s-40 46.167 -40 82.5s13.333 66.833 40 91.5s62 37 106 37s78.667 -9.83301 104 -29.5zM146.001 558
c6 -9.33301 16.499 -13.999 31.499 -13.999s26.333 7.16699 34 21.5s11.5 27.666 11.5 39.999s-3 23 -9 32s-16.167 13.5 -30.5 13.5s-25.666 -6.66699 -33.999 -20s-12.5 -26.5 -12.5 -39.5s3 -24.167 9 -33.5z" />
    <glyph glyph-name="plusminus" unicode="&#xb1;" horiz-adv-x="583" 
d="M329 303v-142c-20 -5.33301 -50 -8 -90 -8h-7v150h-155c0 40 1.33301 71 4 93h151v140c21.333 3.33301 53.333 5 96 5v-145h170c0 -52 -1.66699 -83 -5 -93h-164zM77 9c0 44 3.33301 75 10 93h412c0 -46 -1.66699 -77 -5 -93h-417z" />
    <glyph glyph-name="twosuperior" unicode="&#xb2;" horiz-adv-x="397" 
d="M315 345c-25.333 0 -53.499 6.66602 -84.499 19.999s-50.167 21.333 -57.5 24c-36 -23.333 -63.333 -35 -82 -35c-8 0 -18.167 6.83301 -30.5 20.5s-18.5 23.834 -18.5 30.501s8 18.167 24 34.5s30 24.5 42 24.5s22 -0.666992 30 -2
c23.333 16.667 45.166 39.667 65.499 69s30.5 56.833 30.5 82.5s-10.833 38.5 -32.5 38.5s-43.167 -14.333 -64.5 -43l-44 31c20 28.667 41.667 51.5 65 68.5s53.5 25.5 90.5 25.5s67.333 -9.5 91 -28.5s35.5 -43.667 35.5 -74s-15.333 -62.833 -46 -97.5
s-64.667 -63.667 -102 -87c34 -8 60.667 -12 80 -12s31.833 2.16699 37.5 6.5s11.5 11.5 17.5 21.5l39 -14c-6 -69.333 -34.667 -104 -86 -104z" />
    <glyph glyph-name="threesuperior" unicode="&#xb3;" horiz-adv-x="356" 
d="M144.5 712.5c27 14.333 59.6699 21.501 98.0029 21.501s69.333 -7.66699 93 -23s35.5 -34 35.5 -56s-9.16699 -40.833 -27.5 -56.5s-42.833 -27.5 -73.5 -35.5c69.333 -8 104 -39.333 104 -94c0 -34.667 -15.167 -64.167 -45.5 -88.5s-78.5 -36.5 -144.5 -36.5
c-36 0 -68.5 7.66699 -97.5 23s-43.5 36.666 -43.5 63.999c0 14 4.33301 28.667 13 44c39.333 0 76.666 -8.33301 111.999 -25l-8 -53c5.33301 -2 10.333 -3 15 -3c15.333 0 26.166 8.5 32.499 25.5s9.5 36 9.5 57s-7 35.167 -21 42.5s-35.667 11.333 -65 12l-1 40
c9.33301 0.666992 19.666 2 30.999 4c38.667 6.66699 58 26.667 58 60c0 10.667 -3.33301 18.667 -10 24s-15 8 -25 8c-24.667 0 -46 -11.667 -64 -35l-38 29c14.667 20 35.5 37.167 62.5 51.5z" />
    <glyph glyph-name="acute" unicode="&#xb4;" horiz-adv-x="616" 
d="M459 614c0 -23.333 -12.333 -40.334 -37 -51.001c-37.333 -17.333 -124 -38 -260 -62l-17 50c82 40 173.333 92 274 156c7.33301 -10 15.833 -25.667 25.5 -47s14.5 -36.666 14.5 -45.999z" />
    <glyph glyph-name="mu" unicode="&#xb5;" horiz-adv-x="544" 
d="M1 -218l-2.99902 37.999c0 108 23.667 244.667 71 410c16 56 24 90.333 24 103s-2.5 23.167 -7.5 31.5s-14.5 20.833 -28.5 37.5l2 15c54.667 12 125.667 18 213 18c5.33301 -9.33301 8 -25.5 8 -48.5s-9.16699 -69.167 -27.5 -138.5s-27.5 -112 -27.5 -128
c0 -20.667 10 -31 30 -31c10 0 21.333 2.33301 34 7c0 1.33301 9.5 44.833 28.5 130.5s28.5 148.167 28.5 187.5c30.667 13.333 82 20 154 20h28c0 -30 -9 -88.5 -27 -175.5s-27.167 -137 -27.5 -150s2.16699 -19.5 7.5 -19.5l50 14l18 -50
c-19.333 -16 -46.833 -30.833 -82.5 -44.5s-67.5 -20.5 -95.5 -20.5c-44.667 0 -71.334 18.333 -80.001 55c-49.333 -31.333 -97 -49.333 -143 -54c-0.666992 -13.333 -1 -26 -1 -38c0 -53.333 8.33301 -98.333 25 -135c-43.333 -17.333 -100.333 -28.666 -171 -33.999z" />
    <glyph glyph-name="mu" unicode="&#x3bc;" horiz-adv-x="544" 
d="M1 -218l-2.99902 37.999c0 108 23.667 244.667 71 410c16 56 24 90.333 24 103s-2.5 23.167 -7.5 31.5s-14.5 20.833 -28.5 37.5l2 15c54.667 12 125.667 18 213 18c5.33301 -9.33301 8 -25.5 8 -48.5s-9.16699 -69.167 -27.5 -138.5s-27.5 -112 -27.5 -128
c0 -20.667 10 -31 30 -31c10 0 21.333 2.33301 34 7c0 1.33301 9.5 44.833 28.5 130.5s28.5 148.167 28.5 187.5c30.667 13.333 82 20 154 20h28c0 -30 -9 -88.5 -27 -175.5s-27.167 -137 -27.5 -150s2.16699 -19.5 7.5 -19.5l50 14l18 -50
c-19.333 -16 -46.833 -30.833 -82.5 -44.5s-67.5 -20.5 -95.5 -20.5c-44.667 0 -71.334 18.333 -80.001 55c-49.333 -31.333 -97 -49.333 -143 -54c-0.666992 -13.333 -1 -26 -1 -38c0 -53.333 8.33301 -98.333 25 -135c-43.333 -17.333 -100.333 -28.666 -171 -33.999z" />
    <glyph glyph-name="paragraph" unicode="&#xb6;" horiz-adv-x="643" 
d="M198 -167l-29.9961 -0.00195312c2.66699 48.667 23 157 61 325c-54 2 -96.667 20.667 -128 56s-47 84.666 -47 147.999c0 96 29.667 175.833 89 239.5s139.666 95.5 240.999 95.5h256c4.66699 -20.667 7 -41.5 7 -62.5s-0.833008 -40 -2.5 -57
s-4.83398 -36.5 -9.50098 -58.5l-11.5 -53c-3 -13.333 -8.33301 -34.666 -16 -63.999s-12.834 -50 -15.501 -62s-9.66699 -39.833 -21 -83.5s-19.666 -76.834 -24.999 -99.501l-20 -89c-14.667 -67.333 -22 -128.666 -22 -183.999c-38.667 -17.333 -75.334 -26 -110.001 -26
h-30c1.33301 70.667 31.333 219.334 90 446.001c28 108 44.167 180.333 48.5 217s6.5 65.334 6.5 86.001c-27.333 0 -45.333 -1.33301 -54 -4c-4.66699 -83.333 -29.334 -208.833 -74.001 -376.5s-70.334 -291.167 -77.001 -370.5c-31.333 -15.333 -66.666 -23 -105.999 -23
z" />
    <glyph glyph-name="periodcentered" unicode="&#xb7;" horiz-adv-x="325" 
d="M93.5 265.5c-15 15.667 -22.5 36.332 -22.5 61.999s10.167 47.667 30.5 66s44.666 27.5 72.999 27.5s50 -7.5 65 -22.5s22.5 -35.167 22.5 -60.5s-10.167 -47.666 -30.5 -66.999s-44.666 -29 -72.999 -29s-50 7.83301 -65 23.5z" />
    <glyph glyph-name="cedilla" unicode="&#xb8;" horiz-adv-x="512" 
d="M245 -95c0 -12 5.00098 -18 15.001 -18c19.333 0 42 7.66699 68 23l28 -41c-14 -16 -36 -31.167 -66 -45.5s-56.833 -21.5 -80.5 -21.5s-42.834 6.5 -57.501 19.5s-22 31.333 -22 55s13 49.334 39 77.001s49.667 46.167 71 55.5l60 -6
c-36.667 -34.667 -55 -67.334 -55 -98.001z" />
    <glyph glyph-name="onesuperior" unicode="&#xb9;" horiz-adv-x="312" 
d="M286 733l17.001 0.998047c8 -13.333 12 -28.666 12 -45.999s-10.667 -69.5 -32 -156.5s-32 -142.5 -32 -166.5c-24.667 -10.667 -63.334 -16 -116.001 -16h-32c3.33301 35.333 13.833 86.833 31.5 154.5s29.167 120.167 34.5 157.5
c-4.66699 0 -15.5 -7.16699 -32.5 -21.5l-30.5 -25.5l-36 48l86 63c20 2.66699 63.333 5.33398 130 8.00098z" />
    <glyph glyph-name="ordmasculine" unicode="&#xba;" horiz-adv-x="331" 
d="M185 546.5c-9.33301 -31 -13.999 -62.167 -13.999 -93.5s1.66699 -52.5 5 -63.5s9.66602 -16.5 18.999 -16.5c16 0 28.667 17.667 38 53s14 72 14 110s-8 57 -24 57s-28.667 -15.5 -38 -46.5zM373.001 531c0 -58 -16.665 -109.999 -49.998 -155.999s-82.333 -69 -147 -69
c-42.667 0 -75.334 12 -98.001 36s-34 55.333 -34 94c0 66.667 18.167 120.667 54.5 162s84.166 62 143.499 62c44.667 0 77.667 -12.333 99 -37s32 -55.334 32 -92.001z" />
    <glyph glyph-name="guillemotright" unicode="&#xbb;" horiz-adv-x="554" 
d="M441 402.5c46.667 -47 70 -78.667 70 -95s-22.333 -45.833 -67 -88.5s-92 -84 -142 -124l-46 41c52 74 87 129.333 105 166c-16.667 46 -42 99 -76 159l45 41c27.333 -19.333 64.333 -52.5 111 -99.5zM240 402.5c46.667 -47 70 -78.667 70 -95s-22.333 -45.833 -67 -88.5
s-92 -84 -142 -124l-47 41c52 74 87 129.333 105 166c-16.667 46 -42 99 -76 159l46 41c27.333 -19.333 64.333 -52.5 111 -99.5z" />
    <glyph glyph-name="onequarter" unicode="&#xbc;" horiz-adv-x="790" 
d="M640 698l6.99902 -3.00195c-28.667 -66 -69 -139.833 -121 -221.5l-149.5 -244.5c-47.667 -81.333 -85.5 -161.666 -113.5 -240.999c-20.667 0.666992 -44 4.66699 -70 12s-47 17 -63 29c36.667 102.667 97.334 217.667 182.001 345c86 130.667 151.333 251 196 361
c42 -3.33301 86 -15.666 132 -36.999zM711.999 138.998c10.667 0 19.333 7.66699 26 23l35 -11c-2.66699 -21.333 -10.167 -41 -22.5 -59s-31.833 -27 -58.5 -27h-11c-4 -17.333 -6 -35.333 -6 -54c-24.667 -11.333 -64 -17 -118 -17h-22
c0 16.667 2.16699 34.334 6.5 53.001s6.83301 29.667 7.5 33c-30 3.33301 -52.667 5 -68 5s-35.666 -3.33301 -60.999 -10c-8 0 -17 3.66699 -27 11s-15 13.833 -15 19.5s2 11.5 6 17.5c63.333 81.333 102.666 133.666 117.999 156.999l63 87c38.667 8 88 12.333 148 13
c6.66699 -12.667 10 -25 10 -37c0 -39.333 -10.333 -107.333 -31 -204h20zM282.998 732.998l17.001 0.998047c8 -13.333 12 -28.666 12 -45.999s-10.667 -69.5 -32 -156.5s-32 -142.5 -32 -166.5c-24.667 -10.667 -63.334 -16 -116.001 -16h-32
c3.33301 35.333 13.833 86.833 31.5 154.5s29.167 120.167 34.5 157.5c-4.66699 0 -15.5 -7.16699 -32.5 -21.5l-30.5 -25.5l-36 48l86 63c20 2.66699 63.333 5.33398 130 8.00098zM508.999 154.996c26.667 -1.33301 43.667 -2.66699 51 -4c18.667 80 27.667 126.333 27 139
c-40 -64 -66 -109 -78 -135z" />
    <glyph glyph-name="onehalf" unicode="&#xbd;" horiz-adv-x="791" 
d="M640 698l6.99902 -3.00195c-28.667 -66 -69 -139.833 -121 -221.5l-149.5 -244.5c-47.667 -81.333 -85.5 -161.666 -113.5 -240.999c-20.667 0.666992 -44 4.66699 -70 12s-47 17 -63 29c36.667 102.667 97.334 217.667 182.001 345c86 130.667 151.333 251 196 361
c42 -3.33301 86 -15.666 132 -36.999zM672.999 -24.002c-25.333 0 -53.5 6.66602 -84.5 19.999s-50.167 21.333 -57.5 24c-36 -23.333 -63.333 -35 -82 -35c-8 0 -18.167 6.83301 -30.5 20.5s-18.5 23.834 -18.5 30.501s8 18.167 24 34.5s30.333 24.5 43 24.5
s22.334 -0.666992 29.001 -2c23.333 16.667 45.166 39.667 65.499 69s30.5 56.833 30.5 82.5s-10.667 38.5 -32 38.5c-22.667 0 -44.667 -14.333 -66 -43l-43 31c20 28.667 41.667 51.5 65 68.5s53.5 25.5 90.5 25.5s67.333 -9.5 91 -28.5s35.5 -43.667 35.5 -74
s-15.333 -62.833 -46 -97.5s-64.667 -63.667 -102 -87c34 -8 60.667 -12 80 -12s31.833 2.16699 37.5 6.5s11.5 11.5 17.5 21.5l39 -14c-6 -69.333 -34.667 -104 -86 -104zM282.999 732.997l17.001 0.998047c8 -13.333 12 -28.666 12 -45.999s-10.667 -69.5 -32 -156.5
s-32 -142.5 -32 -166.5c-24.667 -10.667 -63.334 -16 -116.001 -16h-32c3.33301 35.333 13.833 86.833 31.5 154.5s29.167 120.167 34.5 157.5c-4.66699 0 -15.5 -7.16699 -32.5 -21.5l-30.5 -25.5l-36 48l86 63c20 2.66699 63.333 5.33398 130 8.00098z" />
    <glyph glyph-name="threequarters" unicode="&#xbe;" horiz-adv-x="865" 
d="M715 698l6.99902 -3.00195c-28.667 -66 -69 -139.833 -121 -221.5l-149.5 -244.5c-47.667 -81.333 -85.5 -161.666 -113.5 -240.999c-20.667 0.666992 -44 4.66699 -70 12s-47 17 -63 29c36.667 102.667 97.334 217.667 182.001 345c86 130.667 151.333 251 196 361
c42 -3.33301 86 -15.666 132 -36.999zM786.999 138.998c10.667 0 19.335 7.66699 26.002 23l35 -11c-2.66699 -21.333 -10.167 -41 -22.5 -59s-31.833 -27 -58.5 -27h-11c-4 -17.333 -6 -35.333 -6 -54c-24.667 -11.333 -64 -17 -118 -17h-22
c0 16.667 2.16699 34.334 6.5 53.001s6.83301 29.667 7.5 33c-30 3.33301 -52.833 5 -68.5 5s-35.834 -3.33301 -60.501 -10c-8 0 -17 3.66699 -27 11s-15 13.833 -15 19.5s2 11.5 6 17.5c63.333 81.333 102.666 133.666 117.999 156.999l63 87c38.667 8 88 12.333 148 13
c6.66699 -12.667 10 -25 10 -37c0 -39.333 -10.333 -107.333 -31 -204h20zM139.5 712.498c27 14.333 59.6699 21.499 98.0029 21.499s69.333 -7.66699 93 -23s35.5 -34 35.5 -56s-9.16699 -40.833 -27.5 -56.5s-42.833 -27.5 -73.5 -35.5c69.333 -8 104 -39.333 104 -94
c0 -34.667 -15.167 -64.167 -45.5 -88.5s-78.5 -36.5 -144.5 -36.5c-28 0 -54.333 5 -79 15s-43 24.667 -55 44c-5.33301 8 -8 17.833 -8 29.5s4.66699 25.834 14 42.501c39.333 0 76.666 -8.33301 111.999 -25l-8 -53c4.66699 -2 9.66699 -3 15 -3
c15.333 0 26.166 8.5 32.499 25.5s9.5 36 9.5 57s-7 35.167 -21 42.5s-35.667 11.333 -65 12l-1 40c9.33301 0.666992 19.666 2 30.999 4c38.667 6.66699 58 26.667 58 60c0 10.667 -3.33301 18.667 -10 24s-15 8 -25 8c-24.667 0 -46 -11.667 -64 -35l-38 29
c14.667 20 35.5 37.167 62.5 51.5zM584.003 154.997c26.667 -1.33301 43.667 -2.66699 51 -4c18.667 80 27.667 126.333 27 139c-40 -64 -66 -109 -78 -135z" />
    <glyph glyph-name="questiondown" unicode="&#xbf;" horiz-adv-x="368" 
d="M134 146c0 6.66699 -7.00098 12.332 -21.001 16.999c-2 0.666992 -5.5 2 -10.5 4s-9.33301 3.5 -13 4.5s-6.5 1.83301 -8.5 2.5c4.66699 20.667 12.334 38.334 23.001 53.001c58 0 104.5 -10.167 139.5 -30.5s52.5 -49.833 52.5 -88.5c0 -24.667 -12.667 -54 -38 -88
l-40 -50c-67.333 -82.667 -101 -135.667 -101 -159c0 -12 10.667 -18 32 -18c27.333 48 53.333 83.667 78 107c23.333 -3.33301 49.5 -16.833 78.5 -40.5s43.5 -42.334 43.5 -56.001s-15.333 -31.167 -46 -52.5s-67 -32 -109 -32c-63.333 0 -113.5 16.167 -150.5 48.5
s-55.5 73.5 -55.5 123.5c0 20 5.5 41.833 16.5 65.5s21 41.834 30 54.501s22.5 29.667 40.5 51c39.333 43.333 59 71.333 59 84zM302.499 418.998c16.333 -14.667 24.502 -34.002 24.502 -58.002s-10.833 -44.667 -32.5 -62s-47.334 -26 -77.001 -26s-51.5 7.33301 -65.5 22
s-21 33.334 -21 56.001s9.83301 43.334 29.5 62.001s44.167 28 73.5 28s52.166 -7.33301 68.499 -22z" />
    <glyph glyph-name="Agrave" unicode="&#xc0;" horiz-adv-x="604" 
d="M241 905c20.667 0 57.999 -11.8311 111.999 -35.498s108.667 -50.834 164 -81.501l-22 -53c-64.667 15.333 -173 37.666 -325 66.999c20.667 68.667 44.334 103 71.001 103zM94.999 13.002c-4.66699 -14.667 -20.165 -22 -46.498 -22s-52.5 9 -78.5 27
c20.667 56 61.834 149.167 123.501 279.5s102.834 227.5 123.501 291.5c2 8 3 14.833 3 20.5s-2.33301 13.5 -7 23.5s-9.66699 18 -15 24l-7 9l4 20c59.333 16 129.666 24 210.999 24l77 -4c6.66699 -6 13.334 -21.667 20.001 -47s11 -63.333 13 -114
s3.33301 -145.667 4 -285c0.666992 -107.333 14 -161 40 -161c6.66699 0 21 3.33301 43 10l10 3l21 -57c-27.333 -20.667 -59.333 -37 -96 -49s-69.667 -18 -99 -18c-42.667 0 -71.834 13.167 -87.501 39.5s-23.5 60.333 -23.5 102s0.333008 70.5 1 86.5
c-12.667 2.66699 -37.334 4 -74.001 4s-68.334 -3.66699 -95.001 -11c-24.667 -66 -46.334 -131.333 -65.001 -196zM333.001 300.002c3.33301 58 5.00098 116.332 5.00098 174.999s-3.33301 101.334 -10 128.001c-6.66699 0 -11.334 -0.666992 -14.001 -2
c-14.667 -44.667 -54 -145 -118 -301h137z" />
    <glyph glyph-name="Aacute" unicode="&#xc1;" horiz-adv-x="604" 
d="M545 842c0 -21.333 -12.667 -36.668 -38 -46.001c-32.667 -14 -125.667 -32.667 -279 -56l-19 54l77 34l79 35c55.333 24.667 102 48 140 70c7.33301 -10.667 15.833 -26.167 25.5 -46.5s14.5 -35.166 14.5 -44.499zM95 12.998c-4.66699 -14.667 -20.165 -22 -46.498 -22
s-52.5 9 -78.5 27c20.667 56 61.834 149.167 123.501 279.5s102.834 227.5 123.501 291.5c2 8 3 14.833 3 20.5s-2.33301 13.5 -7 23.5s-9.66699 18 -15 24l-7 9l4 20c59.333 16 129.666 24 210.999 24l77 -4c6.66699 -6 13.334 -21.667 20.001 -47s11 -63.333 13 -114
s3.33301 -145.667 4 -285c0.666992 -107.333 14 -161 40 -161c6.66699 0 21 3.33301 43 10l10 3l21 -57c-27.333 -20.667 -59.333 -37 -96 -49s-69.667 -18 -99 -18c-42.667 0 -71.834 13.167 -87.501 39.5s-23.5 60.333 -23.5 102s0.333008 70.5 1 86.5
c-12.667 2.66699 -37.334 4 -74.001 4s-68.334 -3.66699 -95.001 -11c-24.667 -66 -46.334 -131.333 -65.001 -196zM333.002 299.998c3.33301 58 5.00098 116.332 5.00098 174.999s-3.33301 101.334 -10 128.001c-6.66699 0 -11.334 -0.666992 -14.001 -2
c-14.667 -44.667 -54 -145 -118 -301h137z" />
    <glyph glyph-name="Acircumflex" unicode="&#xc2;" horiz-adv-x="604" 
d="M305 875c58 29.333 97.167 43.999 117.5 43.999s48 -17.667 83 -53s60.5 -64.666 76.5 -87.999l-39 -37c-72.667 30 -124 49.667 -154 59c-47.333 -9.33301 -115.333 -29.666 -204 -60.999l-29 48c41.333 29.333 91 58.666 149 87.999zM95 12.999
c-4.66699 -14.667 -20.165 -22 -46.498 -22s-52.5 9 -78.5 27c20.667 56 61.834 149.167 123.501 279.5s102.834 227.5 123.501 291.5c2 8 3 14.833 3 20.5s-2.33301 13.5 -7 23.5s-9.66699 18 -15 24l-7 9l4 20c59.333 16 129.666 24 210.999 24l77 -4
c6.66699 -6 13.334 -21.667 20.001 -47s11 -63.333 13 -114s3.33301 -145.667 4 -285c0.666992 -107.333 14 -161 40 -161c6.66699 0 21 3.33301 43 10l10 3l21 -57c-27.333 -20.667 -59.333 -37 -96 -49s-69.667 -18 -99 -18c-42.667 0 -71.834 13.167 -87.501 39.5
s-23.5 60.333 -23.5 102s0.333008 70.5 1 86.5c-12.667 2.66699 -37.334 4 -74.001 4s-68.334 -3.66699 -95.001 -11c-24.667 -66 -46.334 -131.333 -65.001 -196zM333.002 299.999c3.33301 58 5.00098 116.332 5.00098 174.999s-3.33301 101.334 -10 128.001
c-6.66699 0 -11.334 -0.666992 -14.001 -2c-14.667 -44.667 -54 -145 -118 -301h137z" />
    <glyph glyph-name="Atilde" unicode="&#xc3;" horiz-adv-x="604" 
d="M460 761c-14.667 0 -44.999 4.83301 -90.999 14.5s-76.333 14.5 -91 14.5c-28 0 -50.667 -12.333 -68 -37l-54 14c9.33301 91.333 50.333 137 123 137c15.333 0 45.666 -4.83301 90.999 -14.5s76 -14.5 92 -14.5s27.667 2 35 6s15.333 12 24 24l55 -12
c-9.33301 -88 -48 -132 -116 -132zM95.001 13c-4.66699 -14.667 -20.165 -22 -46.498 -22s-52.5 9 -78.5 27c20.667 56 61.834 149.167 123.501 279.5s102.834 227.5 123.501 291.5c2 8 3 14.833 3 20.5s-2.33301 13.5 -7 23.5s-9.66699 18 -15 24l-7 9l4 20
c59.333 16 129.666 24 210.999 24l77 -4c6.66699 -6 13.334 -21.667 20.001 -47s11 -63.333 13 -114s3.33301 -145.667 4 -285c0.666992 -107.333 14 -161 40 -161c6.66699 0 21 3.33301 43 10l10 3l21 -57c-27.333 -20.667 -59.333 -37 -96 -49s-69.667 -18 -99 -18
c-42.667 0 -71.834 13.167 -87.501 39.5s-23.5 60.333 -23.5 102s0.333008 70.5 1 86.5c-12.667 2.66699 -37.334 4 -74.001 4s-68.334 -3.66699 -95.001 -11c-24.667 -66 -46.334 -131.333 -65.001 -196zM333.003 300c3.33301 58 5.00098 116.332 5.00098 174.999
s-3.33301 101.334 -10 128.001c-6.66699 0 -11.334 -0.666992 -14.001 -2c-14.667 -44.667 -54 -145 -118 -301h137z" />
    <glyph glyph-name="Adieresis" unicode="&#xc4;" horiz-adv-x="604" 
d="M420 777c-14 13.333 -21.001 30.5 -21.001 51.5s8.66699 38.667 26 53s38.333 21.5 63 21.5s43.834 -5.83301 57.501 -17.5s20.5 -28.167 20.5 -49.5s-8.5 -39.833 -25.5 -55.5s-37.833 -23.5 -62.5 -23.5s-44 6.66699 -58 20zM192.999 777
c-14 13.333 -21.001 30.5 -21.001 51.5s8.66699 38.667 26 53s38.333 21.5 63 21.5s43.834 -5.83301 57.501 -17.5s20.5 -28.167 20.5 -49.5s-8.5 -39.833 -25.5 -55.5s-37.833 -23.5 -62.5 -23.5s-44 6.66699 -58 20zM94.998 13c-4.66699 -14.667 -20.165 -22 -46.498 -22
s-52.5 9 -78.5 27c20.667 56 61.834 149.167 123.501 279.5s102.834 227.5 123.501 291.5c2 8 3 14.833 3 20.5s-2.33301 13.5 -7 23.5s-9.66699 18 -15 24l-7 9l4 20c59.333 16 129.666 24 210.999 24l77 -4c6.66699 -6 13.334 -21.667 20.001 -47s11 -63.333 13 -114
s3.33301 -145.667 4 -285c0.666992 -107.333 14 -161 40 -161c6.66699 0 21 3.33301 43 10l10 3l21 -57c-27.333 -20.667 -59.333 -37 -96 -49s-69.667 -18 -99 -18c-42.667 0 -71.834 13.167 -87.501 39.5s-23.5 60.333 -23.5 102s0.333008 70.5 1 86.5
c-12.667 2.66699 -37.334 4 -74.001 4s-68.334 -3.66699 -95.001 -11c-24.667 -66 -46.334 -131.333 -65.001 -196zM333 300c3.33301 58 5.00098 116.332 5.00098 174.999s-3.33301 101.334 -10 128.001c-6.66699 0 -11.334 -0.666992 -14.001 -2
c-14.667 -44.667 -54 -145 -118 -301h137z" />
    <glyph glyph-name="Aring" unicode="&#xc5;" horiz-adv-x="604" 
d="M288 768c-20.667 19.333 -30.998 43.5 -30.998 72.5s10.167 53 30.5 72s48.666 28.5 84.999 28.5s64.666 -9.5 84.999 -28.5s30.5 -43 30.5 -72s-10 -53.167 -30 -72.5s-48.167 -29 -84.5 -29s-64.833 9.66699 -85.5 29zM341.502 867.5c-7.66699 -7 -11.5 -16 -11.5 -27
s3.83301 -20 11.5 -27s18 -10.5 31 -10.5s22.833 3.5 29.5 10.5s10 15.833 10 26.5c0 25.333 -13 38 -39 38c-13.333 0 -23.833 -3.5 -31.5 -10.5zM95.002 13c-4.66699 -14.667 -20.165 -22 -46.498 -22s-52.5 9 -78.5 27c20.667 56 61.834 149.167 123.501 279.5
s102.834 227.5 123.501 291.5c2 8 3 14.833 3 20.5s-2.33301 13.5 -7 23.5s-9.66699 18 -15 24l-7 9l4 20c59.333 16 129.666 24 210.999 24l77 -4c6.66699 -6 13.334 -21.667 20.001 -47s11 -63.333 13 -114s3.33301 -145.667 4 -285c0.666992 -107.333 14 -161 40 -161
c6.66699 0 21 3.33301 43 10l10 3l21 -57c-27.333 -20.667 -59.333 -37 -96 -49s-69.667 -18 -99 -18c-42.667 0 -71.834 13.167 -87.501 39.5s-23.5 60.333 -23.5 102s0.333008 70.5 1 86.5c-12.667 2.66699 -37.334 4 -74.001 4s-68.334 -3.66699 -95.001 -11
c-24.667 -66 -46.334 -131.333 -65.001 -196zM333.004 300c3.33301 58 5.00098 116.332 5.00098 174.999s-3.33301 101.334 -10 128.001c-6.66699 0 -11.334 -0.666992 -14.001 -2c-14.667 -44.667 -54 -145 -118 -301h137z" />
    <glyph glyph-name="AE" unicode="&#xc6;" horiz-adv-x="748" 
d="M503 375c36.667 4.66699 76.1719 7 118.505 7s70.166 -3 83.499 -9c0 -20.667 -4.33301 -44 -13 -70l-4 -12c-36 6 -66 9 -90 9c-38 0 -68 -2 -90 -6l-11 -2c-1.33301 -10.667 -2 -27.667 -2 -51c0 -58.667 5.5 -98 16.5 -118s28.5 -30 52.5 -30
c44 0 99.333 14.333 166 43l21 -59c-86 -59.333 -174 -89 -264 -89c-63.333 0 -109.5 17.667 -138.5 53s-43.5 87.333 -43.5 156c0 35.333 0.333008 57 1 65c-18.667 -0.666992 -42.834 -5.16699 -72.501 -13.5s-53.5 -17.833 -71.5 -28.5
c-12.667 -34 -26.334 -74.167 -41.001 -120.5l-27 -84.5c-6.66699 -16 -22.334 -24 -47.001 -24s-50.334 9 -77.001 27c8.66699 34.667 53.667 137.334 135 308.001s122 265.667 122 285c0 12.667 -6.33301 28 -19 46l-7 9l5 20c64 16 141 24 231 24l227 -4
c21.333 0 46 0.666992 74 2c2 -16.667 3 -30.667 3 -42c0 -32.667 -12 -49 -36 -49c-4.66699 0 -24.5 2.5 -59.5 7.5s-58.833 7.5 -71.5 7.5s-26 -1 -40 -3c-20.667 -122.667 -31 -207.334 -31 -254.001zM319.005 601c-8 -28.667 -26.668 -76.6689 -56.001 -144.002
s-47 -108.666 -53 -123.999c47.333 10 81 16 101 18c1.33301 7.33301 6.33301 44.333 15 111s15.334 114.334 20.001 143.001c-12 0 -21 -1.33301 -27 -4z" />
    <glyph glyph-name="Ccedilla" unicode="&#xc7;" horiz-adv-x="578" 
d="M294 -95c0 -12 5.00195 -18 15.002 -18c19.333 0 42 7.66699 68 23l28 -41c-14 -16 -36 -31.167 -66 -45.5s-56.833 -21.5 -80.5 -21.5s-42.834 6.5 -57.501 19.5s-22 29.833 -22 50.5s7.83301 41.667 23.5 63s33.834 39.666 54.501 54.999
c-62 7.33301 -112.333 36.5 -151 87.5s-58 116.5 -58 196.5s14.5 152.833 43.5 218.5s70.333 118.334 124 158.001s113.167 59.5 178.5 59.5s118.666 -13 159.999 -39s62 -59.167 62 -99.5s-11.333 -72.5 -34 -96.5c-26.667 0 -57.334 5.33301 -92.001 16
s-60.667 23.667 -78 39l19 97c-12 6.66699 -26.667 10 -44 10c-37.333 0 -70.5 -33.833 -99.5 -101.5s-43.5 -149.167 -43.5 -244.5c0 -64.667 10.5 -112.834 31.5 -144.501s47.833 -47.5 80.5 -47.5c46.667 0 98 24.667 154 74l47 -47
c-18.667 -25.333 -46.334 -50.666 -83.001 -75.999c-43.333 -30.667 -88.666 -49.667 -135.999 -57c-29.333 -32.667 -44 -62 -44 -88z" />
    <glyph glyph-name="Egrave" unicode="&#xc8;" horiz-adv-x="545" 
d="M254 905c20.667 0 57.999 -11.8311 111.999 -35.498s108.667 -50.834 164 -81.501l-22 -53c-64.667 15.333 -173 37.666 -325 66.999c20.667 68.667 44.334 103 71.001 103zM269.999 -12.998c-84 0 -148.667 26.998 -194 80.998c-24.667 29.333 -37 65 -37 107
c0 56.667 20 103.167 60 139.5s87.333 57.5 142 63.5c-84 22.667 -126 71 -126 145c0 57.333 24.667 102.833 74 136.5s105.5 50.5 168.5 50.5s115.5 -13 157.5 -39s63 -60.333 63 -103c0 -24.667 -6.66699 -48 -20 -70l-7 -11c-27.333 0 -56.666 4.16699 -87.999 12.5
s-55 19.166 -71 32.499l10 102c-10 4.66699 -20 7 -30 7c-20.667 0 -36.5 -11 -47.5 -33s-16.5 -47.667 -16.5 -77s3.16699 -52.666 9.5 -69.999s16.333 -30.5 30 -39.5s25.667 -15.333 36 -19s24.833 -7.5 43.5 -11.5l-8 -58c-46 0 -88.333 -13 -127 -39s-58 -61 -58 -105
c0 -31.333 10 -54.166 30 -68.499s43.833 -21.5 71.5 -21.5s56.834 7 87.501 21s57 31.667 79 53l45 -45c-28.667 -39.333 -68.334 -72.666 -119.001 -99.999s-103.334 -41 -158.001 -41z" />
    <glyph glyph-name="Eacute" unicode="&#xc9;" horiz-adv-x="545" 
d="M566 842c0 -21.333 -12.667 -36.668 -38 -46.001c-32.667 -14 -125.667 -32.667 -279 -56l-19 54l77 34l79 35c55.333 24.667 102 48 140 70c7.33301 -10.667 15.833 -26.167 25.5 -46.5s14.5 -35.166 14.5 -44.499zM270 -13.002c-84 0 -148.667 26.998 -194 80.998
c-24.667 29.333 -37 65 -37 107c0 56.667 20 103.167 60 139.5s87.333 57.5 142 63.5c-84 22.667 -126 71 -126 145c0 57.333 24.667 102.833 74 136.5s105.5 50.5 168.5 50.5s115.5 -13 157.5 -39s63 -60.333 63 -103c0 -24.667 -6.66699 -48 -20 -70l-7 -11
c-27.333 0 -56.666 4.16699 -87.999 12.5s-55 19.166 -71 32.499l10 102c-10 4.66699 -20 7 -30 7c-20.667 0 -36.5 -11 -47.5 -33s-16.5 -47.667 -16.5 -77s3.16699 -52.666 9.5 -69.999s16.333 -30.5 30 -39.5s25.667 -15.333 36 -19s24.833 -7.5 43.5 -11.5l-8 -58
c-46 0 -88.333 -13 -127 -39s-58 -61 -58 -105c0 -31.333 10 -54.166 30 -68.499s43.833 -21.5 71.5 -21.5s56.834 7 87.501 21s57 31.667 79 53l45 -45c-28.667 -39.333 -68.334 -72.666 -119.001 -99.999s-103.334 -41 -158.001 -41z" />
    <glyph glyph-name="Ecircumflex" unicode="&#xca;" horiz-adv-x="545" 
d="M313 875c58 29.333 97.167 43.999 117.5 43.999s48 -17.667 83 -53s60.5 -64.666 76.5 -87.999l-39 -37c-72.667 30 -124 49.667 -154 59c-47.333 -9.33301 -115.333 -29.666 -204 -60.999l-29 48c41.333 29.333 91 58.666 149 87.999zM270 -13.001
c-84 0 -148.667 26.998 -194 80.998c-24.667 29.333 -37 65 -37 107c0 56.667 20 103.167 60 139.5s87.333 57.5 142 63.5c-84 22.667 -126 71 -126 145c0 57.333 24.667 102.833 74 136.5s105.5 50.5 168.5 50.5s115.5 -13 157.5 -39s63 -60.333 63 -103
c0 -24.667 -6.66699 -48 -20 -70l-7 -11c-27.333 0 -56.666 4.16699 -87.999 12.5s-55 19.166 -71 32.499l10 102c-10 4.66699 -20 7 -30 7c-20.667 0 -36.5 -11 -47.5 -33s-16.5 -47.667 -16.5 -77s3.16699 -52.666 9.5 -69.999s16.333 -30.5 30 -39.5
s25.667 -15.333 36 -19s24.833 -7.5 43.5 -11.5l-8 -58c-46 0 -88.333 -13 -127 -39s-58 -61 -58 -105c0 -31.333 10 -54.166 30 -68.499s43.833 -21.5 71.5 -21.5s56.834 7 87.501 21s57 31.667 79 53l45 -45c-28.667 -39.333 -68.334 -72.666 -119.001 -99.999
s-103.334 -41 -158.001 -41z" />
    <glyph glyph-name="Edieresis" unicode="&#xcb;" horiz-adv-x="545" 
d="M207 777c-14 13.333 -21.001 30.5 -21.001 51.5s8.66699 38.667 26 53s38.333 21.5 63 21.5s43.834 -5.83301 57.501 -17.5s20.5 -28.167 20.5 -49.5s-8.5 -39.833 -25.5 -55.5s-37.833 -23.5 -62.5 -23.5s-44 6.66699 -58 20zM433.999 777
c-14 13.333 -21.001 30.5 -21.001 51.5s8.66699 38.667 26 53s38.333 21.5 63 21.5s43.834 -5.83301 57.501 -17.5s20.5 -28.167 20.5 -49.5s-8.5 -39.833 -25.5 -55.5s-37.833 -23.5 -62.5 -23.5s-44 6.66699 -58 20zM269.998 -13c-84 0 -148.667 26.998 -194 80.998
c-24.667 29.333 -37 65 -37 107c0 56.667 20 103.167 60 139.5s87.333 57.5 142 63.5c-84 22.667 -126 71 -126 145c0 57.333 24.667 102.833 74 136.5s105.5 50.5 168.5 50.5s115.5 -13 157.5 -39s63 -60.333 63 -103c0 -24.667 -6.66699 -48 -20 -70l-7 -11
c-27.333 0 -56.666 4.16699 -87.999 12.5s-55 19.166 -71 32.499l10 102c-10 4.66699 -20 7 -30 7c-20.667 0 -36.5 -11 -47.5 -33s-16.5 -47.667 -16.5 -77s3.16699 -52.666 9.5 -69.999s16.333 -30.5 30 -39.5s25.667 -15.333 36 -19s24.833 -7.5 43.5 -11.5l-8 -58
c-46 0 -88.333 -13 -127 -39s-58 -61 -58 -105c0 -31.333 10 -54.166 30 -68.499s43.833 -21.5 71.5 -21.5s56.834 7 87.501 21s57 31.667 79 53l45 -45c-28.667 -39.333 -68.334 -72.666 -119.001 -99.999s-103.334 -41 -158.001 -41z" />
    <glyph glyph-name="Igrave" unicode="&#xcc;" horiz-adv-x="361" 
d="M114 908c19.333 0 55.667 -12.166 109 -36.499s106 -51.833 158 -82.5l-22 -51c-36 9.33301 -140 31.666 -312 66.999c18.667 68.667 41 103 67 103zM245.001 127.001c0 -18.667 4.33203 -27.999 12.999 -27.999c14.667 0 32.667 4.33301 54 13l22 -56
c-61.333 -45.333 -120.666 -68 -177.999 -68c-33.333 0 -59.833 9.5 -79.5 28.5s-29.5 45.833 -29.5 80.5s17 113.167 51 235.5s52.667 207.5 56 255.5c0 11.333 -3.66699 23.666 -11 36.999s-14.333 24 -21 32l-11 12l2 20c42 14 116.333 21 223 21
c10.667 -20 16 -41.333 16 -64c0 -38.667 -17.833 -123 -53.5 -253s-53.5 -218.667 -53.5 -266z" />
    <glyph glyph-name="Iacute" unicode="&#xcd;" horiz-adv-x="361" 
d="M425 845c0 -22 -11.6689 -37.333 -35.002 -46c-27.333 -12 -117.666 -30.667 -270.999 -56l-16 51c14.667 7.33301 45 21.666 91 42.999c86.667 40 151.334 73 194.001 99c6.66699 -10.667 14.5 -26.167 23.5 -46.5s13.5 -35.166 13.5 -44.499zM244.998 127
c0 -18.667 4.33203 -27.999 12.999 -27.999c14.667 0 32.667 4.33301 54 13l22 -56c-61.333 -45.333 -120.666 -68 -177.999 -68c-33.333 0 -59.833 9.5 -79.5 28.5s-29.5 45.833 -29.5 80.5s17 113.167 51 235.5s52.667 207.5 56 255.5
c0 11.333 -3.66699 23.666 -11 36.999s-14.333 24 -21 32l-11 12l2 20c42 14 116.333 21 223 21c10.667 -20 16 -41.333 16 -64c0 -38.667 -17.833 -123 -53.5 -253s-53.5 -218.667 -53.5 -266z" />
    <glyph glyph-name="Icircumflex" unicode="&#xce;" horiz-adv-x="361" 
d="M200 872c55.333 31.333 91.666 46.999 108.999 46.999s40.333 -16.167 69 -48.5s52.334 -62.166 71.001 -89.499l-35 -40c-60.667 30 -105.667 49.333 -135 58c-34.667 -7.33301 -98 -28 -190 -62l-27 46c36.667 28 82.667 57.667 138 89zM245 126.999
c0 -18.667 4.33203 -27.999 12.999 -27.999c14.667 0 32.667 4.33301 54 13l22 -56c-61.333 -45.333 -120.666 -68 -177.999 -68c-33.333 0 -59.833 9.5 -79.5 28.5s-29.5 45.833 -29.5 80.5s17 113.167 51 235.5s52.667 207.5 56 255.5
c0 11.333 -3.66699 23.666 -11 36.999s-14.333 24 -21 32l-11 12l2 20c42 14 116.333 21 223 21c10.667 -20 16 -41.333 16 -64c0 -38.667 -17.833 -123 -53.5 -253s-53.5 -218.667 -53.5 -266z" />
    <glyph glyph-name="Idieresis" unicode="&#xcf;" horiz-adv-x="361" 
d="M105.5 776.5c-13.667 13.667 -20.498 31 -20.498 52s8.66699 38.833 26 53.5s38 22 62 22s42.833 -6 56.5 -18s20.5 -28.667 20.5 -50s-8.33301 -40 -25 -56s-37.334 -24 -62.001 -24s-43.834 6.83301 -57.501 20.5zM315.502 776.5
c-13.667 13.667 -20.4961 31 -20.4961 52s8.66699 38.833 26 53.5s38.166 22 62.499 22s43.166 -6 56.499 -18s20 -28.667 20 -50s-8.33301 -40 -25 -56s-37.334 -24 -62.001 -24s-43.834 6.83301 -57.501 20.5zM245.006 127c0 -18.667 4.33203 -27.999 12.999 -27.999
c14.667 0 32.667 4.33301 54 13l22 -56c-61.333 -45.333 -120.666 -68 -177.999 -68c-33.333 0 -59.833 9.5 -79.5 28.5s-29.5 45.833 -29.5 80.5s17 113.167 51 235.5s52.667 207.5 56 255.5c0 11.333 -3.66699 23.666 -11 36.999s-14.333 24 -21 32l-11 12l2 20
c42 14 116.333 21 223 21c10.667 -20 16 -41.333 16 -64c0 -38.667 -17.833 -123 -53.5 -253s-53.5 -218.667 -53.5 -266z" />
    <glyph glyph-name="Eth" unicode="&#xd0;" horiz-adv-x="694" 
d="M493.5 29c-45 -27.333 -91 -41.0029 -138 -41.0029s-90.167 8.66699 -129.5 26c-34 -12.667 -70.5 -19 -109.5 -19s-59.833 0.333008 -62.5 1c0 48.667 20.667 158.334 62 329.001h-70c0 38 1.66699 65.333 5 82h85c18.667 80.667 28 131.334 28 152.001
c0 34 -11.333 64 -34 90l-12 13l3 23c20 5.33301 59.167 10.833 117.5 16.5s110.5 8.5 156.5 8.5c198 0 297 -86.667 297 -260c0 -115.333 -29.333 -219.666 -88 -312.999c-28.667 -44.667 -65.5 -80.667 -110.5 -108zM403 638.997c-12 0 -25 -1.00195 -39 -3.00195
c-2.66699 -39.333 -16.667 -115.666 -42 -228.999h103c0 -31.333 -3.33301 -58.666 -10 -81.999h-112c-24.667 -104 -41 -184.333 -49 -241c12 -6 27 -9 45 -9c34.667 0 65.667 16 93 48s48 72 62 120c29.333 97.333 44 186 44 266c0 47.333 -7.16699 80.833 -21.5 100.5
s-38.833 29.5 -73.5 29.5z" />
    <glyph glyph-name="Ntilde" unicode="&#xd1;" horiz-adv-x="689" 
d="M58 -6h-17.001c0 40 18.667 142 56 306s56 259 56 285c0 11.333 -3.5 24 -10.5 38s-13.833 25 -20.5 33l-10 13l3 20c41.333 14 113.333 21 216 21c12 -25.333 18 -54 18 -86v-2c80 58.667 150 88 210 88c35.333 0 64.333 -10.5 87 -31.5s34 -51 34 -90
s-15.333 -117.5 -46 -235.5s-46 -189.833 -46 -215.5s4.33301 -38.5 13 -38.5c12 0 30 4.33301 54 13l21 -57c-65.333 -44.667 -126 -67 -182 -67c-32 0 -56.5 8.5 -73.5 25.5s-25.5 45.167 -25.5 84.5s14.5 114.166 43.5 224.499s43.5 178.833 43.5 205.5
c0 34 -15 51 -45 51c-22 0 -55 -13.667 -99 -41c-6 -32 -18.667 -87.333 -38 -166c-42.667 -179.333 -64 -296.666 -64 -351.999c-29.333 -17.333 -88.666 -26 -177.999 -26zM564.999 761c-15.333 0 -45.832 4.83301 -91.499 14.5s-75.834 14.5 -90.501 14.5
c-28 0 -50.667 -12.333 -68 -37l-54 14c9.33301 91.333 50.333 137 123 137c14.667 0 45 -4.83301 91 -14.5s76.833 -14.5 92.5 -14.5s27.167 2 34.5 6s15.333 12 24 24l55 -12c-9.33301 -88 -48 -132 -116 -132z" />
    <glyph glyph-name="Ograve" unicode="&#xd2;" 
d="M659 536c9.33301 -30 14.002 -65.668 14.002 -107.001s-7.16699 -87.333 -21.5 -138s-35.666 -99.167 -63.999 -145.5s-67.5 -84.166 -117.5 -113.499s-107 -44 -171 -44c-78 0 -139.333 26.333 -184 79s-67 119 -67 199s15.167 153.167 45.5 219.5
s73.666 120.333 129.999 162s119.166 62.5 188.499 62.5c46.667 0 87.5 -8 122.5 -24s62.167 -37.5 81.5 -64.5s33.666 -55.5 42.999 -85.5zM281.002 77.999c12 -9.33301 29.5 -14 52.5 -14s44.667 13.5 65 40.5s36.166 61.833 47.499 104.5c21.333 84 32 171 32 261
c0 109.333 -26.667 164 -80 164c-25.333 0 -48.166 -11.833 -68.499 -35.5s-36.5 -54.5 -48.5 -92.5c-24.667 -77.333 -37 -160.333 -37 -249c0 -99.333 12.333 -159 37 -179zM284.002 904.999c20.667 0 57.999 -11.8311 111.999 -35.498s108.667 -50.834 164 -81.501
l-22 -53c-64.667 15.333 -173 37.666 -325 66.999c20.667 68.667 44.334 103 71.001 103z" />
    <glyph glyph-name="Oacute" unicode="&#xd3;" 
d="M659 536c9.33301 -30 14.002 -65.668 14.002 -107.001s-7.16699 -87.333 -21.5 -138s-35.666 -99.167 -63.999 -145.5s-67.5 -84.166 -117.5 -113.499s-107 -44 -171 -44c-78 0 -139.333 26.333 -184 79s-67 119 -67 199s15.167 153.167 45.5 219.5
s73.666 120.333 129.999 162s119.166 62.5 188.499 62.5c46.667 0 87.5 -8 122.5 -24s62.167 -37.5 81.5 -64.5s33.666 -55.5 42.999 -85.5zM281.002 77.999c12 -9.33301 29.5 -14 52.5 -14s44.667 13.5 65 40.5s36.166 61.833 47.499 104.5c21.333 84 32 171 32 261
c0 109.333 -26.667 164 -80 164c-25.333 0 -48.166 -11.833 -68.499 -35.5s-36.5 -54.5 -48.5 -92.5c-24.667 -77.333 -37 -160.333 -37 -249c0 -99.333 12.333 -159 37 -179zM604.002 841.999c0 -21.333 -12.667 -36.668 -38 -46.001
c-32.667 -14 -125.667 -32.667 -279 -56l-19 54l77 34l79 35c55.333 24.667 102 48 140 70c7.33301 -10.667 15.833 -26.167 25.5 -46.5s14.5 -35.166 14.5 -44.499z" />
    <glyph glyph-name="Ocircumflex" unicode="&#xd4;" 
d="M659 536c9.33301 -30 14.002 -65.668 14.002 -107.001s-7.16699 -87.333 -21.5 -138s-35.666 -99.167 -63.999 -145.5s-67.5 -84.166 -117.5 -113.499s-107 -44 -171 -44c-78 0 -139.333 26.333 -184 79s-67 119 -67 199s15.167 153.167 45.5 219.5
s73.666 120.333 129.999 162s119.166 62.5 188.499 62.5c46.667 0 87.5 -8 122.5 -24s62.167 -37.5 81.5 -64.5s33.666 -55.5 42.999 -85.5zM281.002 77.999c12 -9.33301 29.5 -14 52.5 -14s44.667 13.5 65 40.5s36.166 61.833 47.499 104.5c21.333 84 32 171 32 261
c0 109.333 -26.667 164 -80 164c-25.333 0 -48.166 -11.833 -68.499 -35.5s-36.5 -54.5 -48.5 -92.5c-24.667 -77.333 -37 -160.333 -37 -249c0 -99.333 12.333 -159 37 -179zM368.002 874.999c58 29.333 97.167 43.999 117.5 43.999s48 -17.667 83 -53
s60.5 -64.666 76.5 -87.999l-39 -37c-72.667 30 -124 49.667 -154 59c-47.333 -9.33301 -115.333 -29.666 -204 -60.999l-29 48c41.333 29.333 91 58.666 149 87.999z" />
    <glyph glyph-name="Otilde" unicode="&#xd5;" 
d="M659 536c9.33301 -30 14.002 -65.668 14.002 -107.001s-7.16699 -87.333 -21.5 -138s-35.666 -99.167 -63.999 -145.5s-67.5 -84.166 -117.5 -113.499s-107 -44 -171 -44c-78 0 -139.333 26.333 -184 79s-67 119 -67 199s15.167 153.167 45.5 219.5
s73.666 120.333 129.999 162s119.166 62.5 188.499 62.5c46.667 0 87.5 -8 122.5 -24s62.167 -37.5 81.5 -64.5s33.666 -55.5 42.999 -85.5zM281.002 77.999c12 -9.33301 29.5 -14 52.5 -14s44.667 13.5 65 40.5s36.166 61.833 47.499 104.5c21.333 84 32 171 32 261
c0 109.333 -26.667 164 -80 164c-25.333 0 -48.166 -11.833 -68.499 -35.5s-36.5 -54.5 -48.5 -92.5c-24.667 -77.333 -37 -160.333 -37 -249c0 -99.333 12.333 -159 37 -179zM524.002 760.999c-14.667 0 -44.999 4.83301 -90.999 14.5s-76.333 14.5 -91 14.5
c-28 0 -50.667 -12.333 -68 -37l-54 14c9.33301 91.333 50.333 137 123 137c15.333 0 45.666 -4.83301 90.999 -14.5s76 -14.5 92 -14.5s27.667 2 35 6s15.333 12 24 24l55 -12c-9.33301 -88 -48 -132 -116 -132z" />
    <glyph glyph-name="Odieresis" unicode="&#xd6;" 
d="M659 536c9.33301 -30 14.002 -65.668 14.002 -107.001s-7.16699 -87.333 -21.5 -138s-35.666 -99.167 -63.999 -145.5s-67.5 -84.166 -117.5 -113.499s-107 -44 -171 -44c-78 0 -139.333 26.333 -184 79s-67 119 -67 199s15.167 153.167 45.5 219.5
s73.666 120.333 129.999 162s119.166 62.5 188.499 62.5c46.667 0 87.5 -8 122.5 -24s62.167 -37.5 81.5 -64.5s33.666 -55.5 42.999 -85.5zM281.002 77.999c12 -9.33301 29.5 -14 52.5 -14s44.667 13.5 65 40.5s36.166 61.833 47.499 104.5c21.333 84 32 171 32 261
c0 109.333 -26.667 164 -80 164c-25.333 0 -48.166 -11.833 -68.499 -35.5s-36.5 -54.5 -48.5 -92.5c-24.667 -77.333 -37 -160.333 -37 -249c0 -99.333 12.333 -159 37 -179zM242.002 776.999c-14 13.333 -21.001 30.5 -21.001 51.5s8.66699 38.667 26 53
s38.333 21.5 63 21.5s43.834 -5.83301 57.501 -17.5s20.5 -28.167 20.5 -49.5s-8.5 -39.833 -25.5 -55.5s-37.833 -23.5 -62.5 -23.5s-44 6.66699 -58 20zM469.001 776.999c-14 13.333 -21.001 30.5 -21.001 51.5s8.66699 38.667 26 53s38.333 21.5 63 21.5
s43.834 -5.83301 57.501 -17.5s20.5 -28.167 20.5 -49.5s-8.5 -39.833 -25.5 -55.5s-37.833 -23.5 -62.5 -23.5s-44 6.66699 -58 20z" />
    <glyph glyph-name="multiply" unicode="&#xd7;" horiz-adv-x="511" 
d="M388 91l-129.001 128l-128 -128c-34 31.333 -54.333 54.666 -61 69.999l124 124l-122 122c12 17.333 33 40.333 63 69l124 -125l125 125c30 -28.667 51 -51.667 63 -69l-122 -122l124 -124c-9.33301 -17.333 -29.666 -40.666 -60.999 -69.999z" />
    <glyph glyph-name="Oslash" unicode="&#xd8;" 
d="M578 776c-4.66699 -10.667 -17 -41.999 -37 -93.999c44.667 -22.667 77.834 -56 99.501 -100s32.5 -90.833 32.5 -140.5s-7.16699 -99.834 -21.5 -150.501s-35.666 -99.167 -63.999 -145.5s-67.5 -84.166 -117.5 -113.499s-107 -44 -171 -44
c-8.66699 0 -19.667 0.666992 -33 2l-34 -94c-9.33301 0.666992 -22.666 4 -39.999 10c-18 5.33301 -32.333 11.333 -43 18c10 30 21 60 33 90c-43.333 21.333 -76.5 54.666 -99.5 99.999s-34.5 102 -34.5 170s15.167 135.167 45.5 201.5s73.666 120.333 129.999 162
s119.166 62.5 188.499 62.5c14.667 0 28.667 -1 42 -3c3.33301 8 15.666 39.667 36.999 95c17.333 -1.33301 35 -5 53 -11s29.333 -11 34 -15zM328 64.001c26.667 0 50.168 13.5 70.501 40.5s36.166 61.833 47.499 104.5c21.333 84 32 171 32 261c0 10 -0.666992 27 -2 51
l-180 -451c9.33301 -4 20 -6 32 -6zM245.001 181.001l177.999 447.999c-8 3.33301 -16.333 5 -25 5c-25.333 0 -48.166 -11.833 -68.499 -35.5s-36.5 -54.5 -48.5 -92.5c-24.667 -77.333 -37 -160.333 -37 -249c0 -43.333 0.333008 -68.666 1 -75.999z" />
    <glyph glyph-name="Ugrave" unicode="&#xd9;" horiz-adv-x="705" 
d="M306 120c27.333 0 61.999 12.002 103.999 36.002c1.33301 9.33301 16.666 77.833 45.999 205.5s44 218.5 44 272.5c0 20 -0.333008 33.667 -1 41c66.667 23.333 130.334 35 191.001 35c4 -4.66699 6 -16 6 -34c0 -40 -16.5 -133.333 -49.5 -280
s-49.5 -232.834 -49.5 -258.501s4.66699 -38.5 14 -38.5c6 0 24 4.33301 54 13l21 -56c-62.667 -45.333 -123 -68 -181 -68c-27.333 0 -49.666 7.66699 -66.999 23s-28 36 -32 62c-82 -56.667 -152.333 -85 -211 -85c-38 0 -69.167 10.5 -93.5 31.5s-36.5 49.667 -36.5 86
s14.333 111.166 43 224.499s43 199.333 43 258c0 11.333 -3.5 23.666 -10.5 36.999s-13.833 24 -20.5 32l-11 12l3 20c42 14 114.333 21 217 21c12.667 -17.333 19 -46.666 19 -87.999s-14.333 -121 -43 -239s-43 -189 -43 -213c0 -33.333 14.667 -50 44 -50z
M289.999 905.002c20.667 0 57.999 -11.8311 111.999 -35.498s108.667 -50.834 164 -81.501l-22 -53c-64.667 15.333 -173 37.666 -325 66.999c20.667 68.667 44.334 103 71.001 103z" />
    <glyph glyph-name="Uacute" unicode="&#xda;" horiz-adv-x="705" 
d="M306 120c27.333 0 61.999 12.002 103.999 36.002c1.33301 9.33301 16.666 77.833 45.999 205.5s44 218.5 44 272.5c0 20 -0.333008 33.667 -1 41c66.667 23.333 130.334 35 191.001 35c4 -4.66699 6 -16 6 -34c0 -40 -16.5 -133.333 -49.5 -280
s-49.5 -232.834 -49.5 -258.501s4.66699 -38.5 14 -38.5c6 0 24 4.33301 54 13l21 -56c-62.667 -45.333 -123 -68 -181 -68c-27.333 0 -49.666 7.66699 -66.999 23s-28 36 -32 62c-82 -56.667 -152.333 -85 -211 -85c-38 0 -69.167 10.5 -93.5 31.5s-36.5 49.667 -36.5 86
s14.333 111.166 43 224.499s43 199.333 43 258c0 11.333 -3.5 23.666 -10.5 36.999s-13.833 24 -20.5 32l-11 12l3 20c42 14 114.333 21 217 21c12.667 -17.333 19 -46.666 19 -87.999s-14.333 -121 -43 -239s-43 -189 -43 -213c0 -33.333 14.667 -50 44 -50z
M664.999 842.002c0 -21.333 -12.667 -36.668 -38 -46.001c-32.667 -14 -125.667 -32.667 -279 -56l-19 54l77 34l79 35c55.333 24.667 102 48 140 70c7.33301 -10.667 15.833 -26.167 25.5 -46.5s14.5 -35.166 14.5 -44.499z" />
    <glyph glyph-name="Ucircumflex" unicode="&#xdb;" horiz-adv-x="705" 
d="M306 120c27.333 0 61.999 12.002 103.999 36.002c1.33301 9.33301 16.666 77.833 45.999 205.5s44 218.5 44 272.5c0 20 -0.333008 33.667 -1 41c66.667 23.333 130.334 35 191.001 35c4 -4.66699 6 -16 6 -34c0 -40 -16.5 -133.333 -49.5 -280
s-49.5 -232.834 -49.5 -258.501s4.66699 -38.5 14 -38.5c6 0 24 4.33301 54 13l21 -56c-62.667 -45.333 -123 -68 -181 -68c-27.333 0 -49.666 7.66699 -66.999 23s-28 36 -32 62c-82 -56.667 -152.333 -85 -211 -85c-38 0 -69.167 10.5 -93.5 31.5s-36.5 49.667 -36.5 86
s14.333 111.166 43 224.499s43 199.333 43 258c0 11.333 -3.5 23.666 -10.5 36.999s-13.833 24 -20.5 32l-11 12l3 20c42 14 114.333 21 217 21c12.667 -17.333 19 -46.666 19 -87.999s-14.333 -121 -43 -239s-43 -189 -43 -213c0 -33.333 14.667 -50 44 -50z
M388.999 875.002c58 29.333 97.167 43.999 117.5 43.999s48 -17.667 83 -53s60.5 -64.666 76.5 -87.999l-39 -37c-72.667 30 -124 49.667 -154 59c-47.333 -9.33301 -115.333 -29.666 -204 -60.999l-29 48c41.333 29.333 91 58.666 149 87.999z" />
    <glyph glyph-name="Udieresis" unicode="&#xdc;" horiz-adv-x="705" 
d="M306 120c27.333 0 61.999 12.002 103.999 36.002c1.33301 9.33301 16.666 77.833 45.999 205.5s44 218.5 44 272.5c0 20 -0.333008 33.667 -1 41c66.667 23.333 130.334 35 191.001 35c4 -4.66699 6 -16 6 -34c0 -40 -16.5 -133.333 -49.5 -280
s-49.5 -232.834 -49.5 -258.501s4.66699 -38.5 14 -38.5c6 0 24 4.33301 54 13l21 -56c-62.667 -45.333 -123 -68 -181 -68c-27.333 0 -49.666 7.66699 -66.999 23s-28 36 -32 62c-82 -56.667 -152.333 -85 -211 -85c-38 0 -69.167 10.5 -93.5 31.5s-36.5 49.667 -36.5 86
s14.333 111.166 43 224.499s43 199.333 43 258c0 11.333 -3.5 23.666 -10.5 36.999s-13.833 24 -20.5 32l-11 12l3 20c42 14 114.333 21 217 21c12.667 -17.333 19 -46.666 19 -87.999s-14.333 -121 -43 -239s-43 -189 -43 -213c0 -33.333 14.667 -50 44 -50z
M511.999 777.002c-14 13.333 -21.001 30.5 -21.001 51.5s8.66699 38.667 26 53s38.333 21.5 63 21.5s43.834 -5.83301 57.501 -17.5s20.5 -28.167 20.5 -49.5s-8.5 -39.833 -25.5 -55.5s-37.833 -23.5 -62.5 -23.5s-44 6.66699 -58 20zM284.998 777.002
c-14 13.333 -21.001 30.5 -21.001 51.5s8.66699 38.667 26 53s38.333 21.5 63 21.5s43.834 -5.83301 57.501 -17.5s20.5 -28.167 20.5 -49.5s-8.5 -39.833 -25.5 -55.5s-37.833 -23.5 -62.5 -23.5s-44 6.66699 -58 20z" />
    <glyph glyph-name="Yacute" unicode="&#xdd;" horiz-adv-x="670" 
d="M665 842c0 -21.333 -12.667 -36.668 -38 -46.001c-32.667 -14 -125.667 -32.667 -279 -56l-19 54l77 34l79 35c55.333 24.667 102 48 140 70c7.33301 -10.667 15.833 -26.167 25.5 -46.5s14.5 -35.166 14.5 -44.499zM303.5 -215.002
c-22.333 -6 -47 -9.00195 -74 -9.00195s-51.667 9 -74 27s-33.5 40 -33.5 66s6.5 48.167 19.5 66.5s31.833 33.833 56.5 46.5c43.333 22.667 98 41 164 55c4.66699 10.667 12.334 35 23.001 73c-26.667 -14 -60.167 -27 -100.5 -39s-76.166 -18 -107.499 -18
s-57.833 10.5 -79.5 31.5s-32.5 50 -32.5 87s12.167 104.333 36.5 202s36.5 167.5 36.5 209.5c0 12.667 -3.33301 26.167 -10 40.5s-13.334 25.833 -20.001 34.5l-9 12l3 20c41.333 13.333 112.666 20 213.999 20c12.667 -22 19 -51.5 19 -88.5s-12.667 -107.833 -38 -212.5
s-38 -166.667 -38 -186c0 -33.333 11.667 -50 35 -50c32 0 70.333 12 115 36c22 93.333 40.667 185 56 275s23 155.333 23 196c21.333 8.66699 50 15.667 86 21s65.667 8 89 8h22c0 -51.333 -13.667 -141.666 -41 -270.999l-43.5 -198.5c-19 -87.667 -40.667 -159 -65 -214
s-49 -97.667 -74 -128s-52 -55.166 -81 -74.499s-54.667 -32 -77 -38zM196 -113.004c0 -14.667 9.66797 -21.999 29.001 -21.999s40.666 11.167 63.999 33.5s40 45.166 50 68.499c-38.667 -6 -72.167 -16.5 -100.5 -31.5s-42.5 -31.167 -42.5 -48.5z" />
    <glyph glyph-name="Thorn" unicode="&#xde;" horiz-adv-x="584" 
d="M54 -3h-12.999c0 32.667 19.333 131 58 295s58 263 58 297c0 10.667 -3.5 23 -10.5 37s-13.833 25.333 -20.5 34l-10 13l3 20c37.333 11.333 110.666 17 219.999 17c12 -10.667 18 -35 18 -73c0 -5.33301 -1.33301 -18.666 -4 -39.999
c6.66699 0.666992 16.334 1 29.001 1c150 0 225 -56.667 225 -170c0 -74.667 -27.167 -137.834 -81.5 -189.501s-132.833 -77.5 -235.5 -77.5h-32c-10.667 -57.333 -16 -105.333 -16 -144c-30.667 -13.333 -93.334 -20 -188.001 -20zM399.501 500.5
c-8.33301 15.667 -18.667 23.5 -31 23.5s-22.833 -1.66699 -31.5 -5c-40.667 -176 -61.667 -267.333 -63 -274h4c41.333 0 74 18.167 98 54.5s36 83.166 36 140.499c0 24.667 -4.16699 44.834 -12.5 60.501z" />
    <glyph glyph-name="germandbls" unicode="&#xdf;" horiz-adv-x="663" 
d="M669 154c0 -50 -21.3291 -90.002 -63.9961 -120.002s-91.667 -45 -147 -45c-36 0 -72 9.5 -108 28.5s-54 36.833 -54 53.5c0 12 11.667 31 35 57s44.666 41.333 63.999 46c12.667 -4 28.167 -15.667 46.5 -35s34.833 -43.666 49.5 -72.999c17.333 2.66699 26 10 26 22
c0 28 -29.667 70.667 -89 128c-22 21.333 -42.333 46.833 -61 76.5s-28 55.167 -28 76.5s4 37.833 12 49.5s17.667 22 29 31s22.666 19.167 33.999 30.5c28 26 42 65.667 42 119c0 20.667 -4 36.834 -12 48.501s-19.333 17.5 -34 17.5c-26.667 0 -49.667 -38.167 -69 -114.5
s-34 -161.833 -44 -256.5s-24 -187.5 -42 -278.5s-39 -147.833 -63 -170.5c-26 0 -56.5 3.33301 -91.5 10s-60.167 14 -75.5 22c42.667 122 76 280.333 100 475c-34 -2 -60 -5 -78 -9c-0.666992 8 -1 18 -1 30s2.33301 31.333 7 58h84c23.333 116 57.5 195 102.5 237
s111.5 63 199.5 63c75.333 0 131 -17 167 -51c20.667 -20 31 -43.333 31 -70s-6.33301 -50 -19 -70s-26.834 -35.333 -42.501 -46s-29.834 -23 -42.501 -37s-19 -28.333 -19 -43s8 -32.5 24 -53.5s33.833 -41 53.5 -60s37.5 -42 53.5 -69s24 -52.833 24 -77.5z" />
    <glyph glyph-name="agrave" unicode="&#xe0;" horiz-adv-x="531" 
d="M231 696c30.667 0 117 -49.667 259 -149l-26 -48c-97.333 34.667 -200.333 65 -309 91c24 70.667 49.333 106 76 106zM482 250.5c-10 -59.667 -15 -101.331 -15 -124.998s3.66699 -35.5 11 -35.5l50 14l18 -50c-21.333 -16.667 -48.5 -31.834 -81.5 -45.501
s-62.167 -20.5 -87.5 -20.5c-43.333 0 -70.666 18.667 -81.999 56c-52.667 -37.333 -99.167 -56 -139.5 -56s-71.5 14.667 -93.5 44s-33 71.333 -33 126c0 75.333 19.333 141.666 58 198.999s89.667 86 153 86c34.667 0 70 -9.66699 106 -29
c5.33301 12 9.66602 20.667 12.999 26c48 0 101 -11.667 159 -35c-14 -43.333 -26 -94.833 -36 -154.5zM224 107.003c4.66699 -8.66699 13.3311 -12.999 25.998 -12.999s25 5 37 15c2.66699 77.333 15.334 158.333 38.001 243c-10 6 -21.5 9 -34.5 9
s-24.667 -7.33301 -35 -22s-18.166 -33 -23.499 -55c-10 -42 -15 -79.833 -15 -113.5s2.33301 -54.834 7 -63.501z" />
    <glyph glyph-name="aacute" unicode="&#xe1;" horiz-adv-x="531" 
d="M516 614c0 -23.333 -12.333 -40.334 -37 -51.001c-37.333 -17.333 -124 -38 -260 -62l-17 50c82 40 173.333 92 274 156c7.33301 -10 15.833 -25.667 25.5 -47s14.5 -36.666 14.5 -45.999zM482 250.499c-10 -59.667 -15 -101.331 -15 -124.998s3.66699 -35.5 11 -35.5
l50 14l18 -50c-21.333 -16.667 -48.5 -31.834 -81.5 -45.501s-62.167 -20.5 -87.5 -20.5c-43.333 0 -70.666 18.667 -81.999 56c-52.667 -37.333 -99.167 -56 -139.5 -56s-71.5 14.667 -93.5 44s-33 71.333 -33 126c0 75.333 19.333 141.666 58 198.999s89.667 86 153 86
c34.667 0 70 -9.66699 106 -29c5.33301 12 9.66602 20.667 12.999 26c48 0 101 -11.667 159 -35c-14 -43.333 -26 -94.833 -36 -154.5zM224 107.002c4.66699 -8.66699 13.3311 -12.999 25.998 -12.999s25 5 37 15c2.66699 77.333 15.334 158.333 38.001 243
c-10 6 -21.5 9 -34.5 9s-24.667 -7.33301 -35 -22s-18.166 -33 -23.499 -55c-10 -42 -15 -79.833 -15 -113.5s2.33301 -54.834 7 -63.501z" />
    <glyph glyph-name="acircumflex" unicode="&#xe2;" horiz-adv-x="531" 
d="M283.5 652.5c55 34.333 93.667 51.5 116 51.5s48.5 -20 78.5 -60s52.333 -75 67 -105l-42 -36c-60 39.333 -106.333 66 -139 80c-52 -15.333 -115.333 -42.666 -190 -81.999l-32 47c39.333 35.333 86.5 70.166 141.5 104.499zM482 250.5
c-10 -59.667 -15 -101.331 -15 -124.998s3.66699 -35.5 11 -35.5l50 14l18 -50c-21.333 -16.667 -48.5 -31.834 -81.5 -45.501s-62.167 -20.5 -87.5 -20.5c-43.333 0 -70.666 18.667 -81.999 56c-52.667 -37.333 -99.167 -56 -139.5 -56s-71.5 14.667 -93.5 44
s-33 71.333 -33 126c0 75.333 19.333 141.666 58 198.999s89.667 86 153 86c34.667 0 70 -9.66699 106 -29c5.33301 12 9.66602 20.667 12.999 26c48 0 101 -11.667 159 -35c-14 -43.333 -26 -94.833 -36 -154.5zM224 107.003
c4.66699 -8.66699 13.3311 -12.999 25.998 -12.999s25 5 37 15c2.66699 77.333 15.334 158.333 38.001 243c-10 6 -21.5 9 -34.5 9s-24.667 -7.33301 -35 -22s-18.166 -33 -23.499 -55c-10 -42 -15 -79.833 -15 -113.5s2.33301 -54.834 7 -63.501z" />
    <glyph glyph-name="atilde" unicode="&#xe3;" horiz-adv-x="526" 
d="M441 528c-14 0 -43.0029 5.33203 -87.0029 15.999s-73.167 16 -87.5 16s-26.166 -3.16699 -35.499 -9.5s-18.666 -18.166 -27.999 -35.499l-52 12c9.33301 100.667 48 151 116 151c14.667 0 43.834 -5.33301 87.501 -16s73.167 -16 88.5 -16s26.833 2.5 34.5 7.5
s15.5 14.833 23.5 29.5l50 -10c-9.33301 -96.667 -46 -145 -110 -145zM481.997 250.499c-10 -59.667 -15 -101.331 -15 -124.998s3.66699 -35.5 11 -35.5l50 14l18 -50c-21.333 -16.667 -48.5 -31.834 -81.5 -45.501s-62.167 -20.5 -87.5 -20.5
c-43.333 0 -70.666 18.667 -81.999 56c-52.667 -37.333 -99.167 -56 -139.5 -56s-71.5 14.667 -93.5 44s-33 71.333 -33 126c0 75.333 19.333 141.666 58 198.999s89.667 86 153 86c34.667 0 70 -9.66699 106 -29c5.33301 12 9.66602 20.667 12.999 26
c48 0 101 -11.667 159 -35c-14 -43.333 -26 -94.833 -36 -154.5zM223.997 107.002c4.66699 -8.66699 13.3311 -12.999 25.998 -12.999s25 5 37 15c2.66699 77.333 15.334 158.333 38.001 243c-10 6 -21.5 9 -34.5 9s-24.667 -7.33301 -35 -22s-18.166 -33 -23.499 -55
c-10 -42 -15 -79.833 -15 -113.5s2.33301 -54.834 7 -63.501z" />
    <glyph glyph-name="adieresis" unicode="&#xe4;" horiz-adv-x="531" 
d="M166 550c-14 13.333 -21.001 30.5 -21.001 51.5s8.66699 38.667 26 53s38.333 21.5 63 21.5s43.834 -5.83301 57.501 -17.5s20.5 -28.167 20.5 -49.5s-8.5 -39.833 -25.5 -55.5s-37.833 -23.5 -62.5 -23.5s-44 6.66699 -58 20zM376.999 550
c-14 13.333 -21.001 30.5 -21.001 51.5s8.66699 38.667 26 53s38.333 21.5 63 21.5s43.834 -5.83301 57.501 -17.5s20.5 -28.167 20.5 -49.5s-8.5 -39.833 -25.5 -55.5s-37.833 -23.5 -62.5 -23.5s-44 6.66699 -58 20zM481.998 250.5c-10 -59.667 -15 -101.331 -15 -124.998
s3.66699 -35.5 11 -35.5l50 14l18 -50c-21.333 -16.667 -48.5 -31.834 -81.5 -45.501s-62.167 -20.5 -87.5 -20.5c-43.333 0 -70.666 18.667 -81.999 56c-52.667 -37.333 -99.167 -56 -139.5 -56s-71.5 14.667 -93.5 44s-33 71.333 -33 126
c0 75.333 19.333 141.666 58 198.999s89.667 86 153 86c34.667 0 70 -9.66699 106 -29c5.33301 12 9.66602 20.667 12.999 26c48 0 101 -11.667 159 -35c-14 -43.333 -26 -94.833 -36 -154.5zM223.998 107.003c4.66699 -8.66699 13.3311 -12.999 25.998 -12.999s25 5 37 15
c2.66699 77.333 15.334 158.333 38.001 243c-10 6 -21.5 9 -34.5 9s-24.667 -7.33301 -35 -22s-18.166 -33 -23.499 -55c-10 -42 -15 -79.833 -15 -113.5s2.33301 -54.834 7 -63.501z" />
    <glyph glyph-name="aring" unicode="&#xe5;" horiz-adv-x="531" 
d="M248 547.5c-20.667 21 -31 47.667 -31 80s10.333 58.666 31 78.999s50.334 30.5 89.001 30.5s68.334 -10.167 89.001 -30.5s31 -46.666 31 -78.999s-10.333 -59 -31 -80s-50.334 -31.5 -89.001 -31.5s-68.334 10.5 -89.001 31.5zM292 627c0 -12.667 4 -23 12 -31
s19 -12 33 -12c27.333 0 41 14.333 41 43s-13.667 43 -41 43c-14 0 -25 -4 -33 -12s-12 -18.333 -12 -31zM482 250.5c-10 -59.667 -15 -101.331 -15 -124.998s3.66699 -35.5 11 -35.5l50 14l18 -50c-21.333 -16.667 -48.5 -31.834 -81.5 -45.501s-62.167 -20.5 -87.5 -20.5
c-43.333 0 -70.666 18.667 -81.999 56c-52.667 -37.333 -99.167 -56 -139.5 -56s-71.5 14.667 -93.5 44s-33 71.333 -33 126c0 75.333 19.333 141.666 58 198.999s89.667 86 153 86c34.667 0 70 -9.66699 106 -29c5.33301 12 9.66602 20.667 12.999 26
c48 0 101 -11.667 159 -35c-14 -43.333 -26 -94.833 -36 -154.5zM224 107.003c4.66699 -8.66699 13.3311 -12.999 25.998 -12.999s25 5 37 15c2.66699 77.333 15.334 158.333 38.001 243c-10 6 -21.5 9 -34.5 9s-24.667 -7.33301 -35 -22s-18.166 -33 -23.499 -55
c-10 -42 -15 -79.833 -15 -113.5s2.33301 -54.834 7 -63.501z" />
    <glyph glyph-name="ae" unicode="&#xe6;" horiz-adv-x="671" 
d="M223 443c35.333 0 70.334 -9.99805 105.001 -29.998c3.33301 8.66699 7.66602 17.667 12.999 27c36 -1.33301 69 -6.33301 99 -15c30.667 12 66.5 18 107.5 18s74.5 -9.66699 100.5 -29s39 -43.833 39 -73.5s-7.66699 -54.334 -23 -74.001s-34 -34.834 -56 -45.501
c-46.667 -23.333 -86.334 -37 -119.001 -41l-23 -3c0 -29.333 6.33301 -52.333 19 -69s28.334 -25 47.001 -25s36.167 3.16699 52.5 9.5s28.833 12.833 37.5 19.5l13 10l29 -49c-2.66699 -2 -6.16699 -5 -10.5 -9s-14 -10.833 -29 -20.5s-30.5 -18.167 -46.5 -25.5
c-40 -20 -84 -30 -132 -30c-61.333 0 -106 21 -134 63c-56.667 -42 -110 -63 -160 -63c-32 0 -60.5 13.5 -85.5 40.5s-37.5 68.833 -37.5 125.5c0 89.333 18.667 159.833 56 211.5s83.333 77.5 138 77.5zM283.001 173.002c0 58 8.66699 118 26 180
c-14.667 6 -26.334 9 -35.001 9c-17.333 0 -31.666 -20 -42.999 -60s-17 -84.667 -17 -134s10.667 -74 32 -74c11.333 0 26 5.33301 44 16c-4.66699 18.667 -7 39.667 -7 63zM514.501 274.002c13.667 20 20.5 42.5 20.5 67.5s-7 37.5 -21 37.5
c-16.667 0 -28.834 -17.167 -36.501 -51.5s-11.5 -64.833 -11.5 -91.5c18.667 5.33301 34.834 18 48.501 38z" />
    <glyph glyph-name="ccedilla" unicode="&#xe7;" horiz-adv-x="415" 
d="M282 376c-20.667 0 -38.332 -18.333 -52.999 -55s-22 -73.667 -22 -111c0 -82 23.667 -123 71 -123c30 0 64 14.333 102 43l32 -44c-51.333 -55.333 -114 -87.333 -188 -96c-27.333 -31.333 -41 -59.666 -41 -84.999c0 -12 5 -18 15 -18c19.333 0 42 7.66699 68 23
l28 -41c-14 -16 -36 -31.167 -66 -45.5s-56.833 -21.5 -80.5 -21.5s-42.834 6.5 -57.501 19.5s-22 30 -22 51s8.33301 42.333 25 64s35.667 40.5 57 56.5c-39.333 8 -70.833 27.5 -94.5 58.5s-35.5 73.5 -35.5 127.5c0 77.333 23.833 140.666 71.5 189.999
s110.167 74 187.5 74c50 0 89.333 -10.167 118 -30.5s43 -46 43 -77s-9.33301 -57.833 -28 -80.5c-22 0 -45.833 4.16699 -71.5 12.5s-46.167 18.833 -61.5 31.5l15 75c-4 1.33301 -8 2 -12 2z" />
    <glyph glyph-name="egrave" unicode="&#xe8;" horiz-adv-x="436" 
d="M20 177c0 85.333 25.1689 150.999 75.502 196.999s113.166 69 188.499 69c50 0 90.5 -11.167 121.5 -33.5s46.5 -51.833 46.5 -88.5c0 -26.667 -8.33301 -50.667 -25 -72s-37 -37.666 -61 -48.999c-48 -22.667 -92 -36.667 -132 -42l-25 -4c7.33301 -44 30 -66 68 -66
c14.667 0 31.5 3.5 50.5 10.5s34.5 14.167 46.5 21.5l17 10l32 -43l-11 -11c-4 -4 -13.5 -11.833 -28.5 -23.5s-30.833 -21.834 -47.5 -30.501c-42.667 -22.667 -90.334 -34 -143.001 -34s-94.667 16.333 -126 49s-47 79.334 -47 140.001zM292.002 346.999
c0 15.333 -5.99902 22.999 -17.999 22.999c-16 0 -31 -13.167 -45 -39.5s-22 -63.166 -24 -110.499c19.333 2.66699 38.666 18.5 57.999 47.5s29 55.5 29 79.5zM183.003 695.998c30.667 0 117 -49.667 259 -149l-26 -48c-97.333 34.667 -200.333 65 -309 91
c24 70.667 49.333 106 76 106z" />
    <glyph glyph-name="eacute" unicode="&#xe9;" horiz-adv-x="437" 
d="M20 177c0 85.333 25.1689 150.999 75.502 196.999s113.166 69 188.499 69c50 0 90.5 -11.167 121.5 -33.5s46.5 -51.833 46.5 -88.5c0 -26.667 -8.33301 -50.667 -25 -72s-37 -37.666 -61 -48.999c-48 -22.667 -92 -36.667 -132 -42l-25 -4c7.33301 -44 30 -66 68 -66
c14.667 0 31.5 3.5 50.5 10.5s34.5 14.167 46.5 21.5l17 10l32 -43l-11 -11c-4 -4 -13.5 -11.833 -28.5 -23.5s-30.833 -21.834 -47.5 -30.501c-42.667 -22.667 -90.334 -34 -143.001 -34s-94.667 16.333 -126 49s-47 79.334 -47 140.001zM292.002 346.999
c0 15.333 -5.99902 22.999 -17.999 22.999c-16 0 -31 -13.167 -45 -39.5s-22 -63.166 -24 -110.499c19.333 2.66699 38.666 18.5 57.999 47.5s29 55.5 29 79.5zM453.003 613.998c0 -23.333 -12.333 -40.334 -37 -51.001c-37.333 -17.333 -124 -38 -260 -62l-17 50
c82 40 173.333 92 274 156c7.33301 -10 15.833 -25.667 25.5 -47s14.5 -36.666 14.5 -45.999z" />
    <glyph glyph-name="ecircumflex" unicode="&#xea;" horiz-adv-x="437" 
d="M20 177c0 85.333 25.1689 150.999 75.502 196.999s113.166 69 188.499 69c50 0 90.5 -11.167 121.5 -33.5s46.5 -51.833 46.5 -88.5c0 -26.667 -8.33301 -50.667 -25 -72s-37 -37.666 -61 -48.999c-48 -22.667 -92 -36.667 -132 -42l-25 -4c7.33301 -44 30 -66 68 -66
c14.667 0 31.5 3.5 50.5 10.5s34.5 14.167 46.5 21.5l17 10l32 -43l-11 -11c-4 -4 -13.5 -11.833 -28.5 -23.5s-30.833 -21.834 -47.5 -30.501c-42.667 -22.667 -90.334 -34 -143.001 -34s-94.667 16.333 -126 49s-47 79.334 -47 140.001zM292.002 346.999
c0 15.333 -5.99902 22.999 -17.999 22.999c-16 0 -31 -13.167 -45 -39.5s-22 -63.166 -24 -110.499c19.333 2.66699 38.666 18.5 57.999 47.5s29 55.5 29 79.5zM227.503 652.498c55 34.333 93.667 51.5 116 51.5s48.5 -20 78.5 -60s52.333 -75 67 -105l-42 -36
c-60 39.333 -106.333 66 -139 80c-52 -15.333 -115.333 -42.666 -190 -81.999l-32 47c39.333 35.333 86.5 70.166 141.5 104.499z" />
    <glyph glyph-name="edieresis" unicode="&#xeb;" horiz-adv-x="437" 
d="M20 177c0 85.333 25.1689 150.999 75.502 196.999s113.166 69 188.499 69c50 0 90.5 -11.167 121.5 -33.5s46.5 -51.833 46.5 -88.5c0 -26.667 -8.33301 -50.667 -25 -72s-37 -37.666 -61 -48.999c-48 -22.667 -92 -36.667 -132 -42l-25 -4c7.33301 -44 30 -66 68 -66
c14.667 0 31.5 3.5 50.5 10.5s34.5 14.167 46.5 21.5l17 10l32 -43l-11 -11c-4 -4 -13.5 -11.833 -28.5 -23.5s-30.833 -21.834 -47.5 -30.501c-42.667 -22.667 -90.334 -34 -143.001 -34s-94.667 16.333 -126 49s-47 79.334 -47 140.001zM292.002 346.999
c0 15.333 -5.99902 22.999 -17.999 22.999c-16 0 -31 -13.167 -45 -39.5s-22 -63.166 -24 -110.499c19.333 2.66699 38.666 18.5 57.999 47.5s29 55.5 29 79.5zM121.003 549.998c-14 13.333 -21.001 30.5 -21.001 51.5s8.66699 38.667 26 53s38.333 21.5 63 21.5
s43.834 -5.83301 57.501 -17.5s20.5 -28.167 20.5 -49.5s-8.5 -39.833 -25.5 -55.5s-37.833 -23.5 -62.5 -23.5s-44 6.66699 -58 20zM332.002 549.998c-14 13.333 -21.001 30.5 -21.001 51.5s8.66699 38.667 26 53s38.333 21.5 63 21.5s43.834 -5.83301 57.501 -17.5
s20.5 -28.167 20.5 -49.5s-8.5 -39.833 -25.5 -55.5s-37.833 -23.5 -62.5 -23.5s-44 6.66699 -58 20z" />
    <glyph glyph-name="igrave" unicode="&#xec;" horiz-adv-x="300" 
d="M115 695c13.333 0 34.668 -8.66699 64.001 -26s55.333 -34.5 78 -51.5l93 -71.5l-26 -48c-124 48 -219 79.667 -285 95c23.333 68 48.666 102 75.999 102zM244.002 238.5c-16.667 -61.667 -24.998 -101.833 -24.998 -120.5s3.66699 -28 11 -28s20.666 3.33301 39.999 10
l9 4l18 -50c-22.667 -17.333 -50.834 -32.666 -84.501 -45.999s-64.167 -20 -91.5 -20s-48.833 7.66699 -64.5 23s-23.5 37.5 -23.5 66.5s8.16699 73.333 24.5 133s24.5 97.5 24.5 113.5c0 24.667 -8.66699 48 -26 70l-8 11l3 17c34.667 10.667 102 16 202 16
c10.667 -12 16 -32.833 16 -62.5s-8.33301 -75.334 -25 -137.001z" />
    <glyph glyph-name="iacute" unicode="&#xed;" horiz-adv-x="300" 
d="M357 616c0 -22.667 -12.332 -39.3311 -36.999 -49.998c-18.667 -8 -53.334 -18.667 -104.001 -32s-96.667 -23.333 -138 -30l-17 50c90 46.667 175.333 96.667 256 150c7.33301 -10.667 15.833 -25.834 25.5 -45.501s14.5 -33.834 14.5 -42.501zM244.001 238.503
c-16.667 -61.667 -24.998 -101.833 -24.998 -120.5s3.66699 -28 11 -28s20.666 3.33301 39.999 10l9 4l18 -50c-22.667 -17.333 -50.834 -32.666 -84.501 -45.999s-64.167 -20 -91.5 -20s-48.833 7.66699 -64.5 23s-23.5 37.5 -23.5 66.5s8.16699 73.333 24.5 133
s24.5 97.5 24.5 113.5c0 24.667 -8.66699 48 -26 70l-8 11l3 17c34.667 10.667 102 16 202 16c10.667 -12 16 -32.833 16 -62.5s-8.33301 -75.334 -25 -137.001z" />
    <glyph glyph-name="icircumflex" unicode="&#xee;" horiz-adv-x="300" 
d="M241 704c14.667 0 36.332 -20.6699 64.999 -62.0029s49.334 -75.666 62.001 -102.999l-42 -36c-61.333 44 -102 70.667 -122 80c-40.667 -13.333 -96.667 -40.666 -168 -81.999l-32 47c37.333 36.667 80.5 71.834 129.5 105.501s84.833 50.5 107.5 50.5zM243.998 238.497
c-16.667 -61.667 -24.998 -101.833 -24.998 -120.5s3.66699 -28 11 -28s20.666 3.33301 39.999 10l9 4l18 -50c-22.667 -17.333 -50.834 -32.666 -84.501 -45.999s-64.167 -20 -91.5 -20s-48.833 7.66699 -64.5 23s-23.5 37.5 -23.5 66.5s8.16699 73.333 24.5 133
s24.5 97.5 24.5 113.5c0 24.667 -8.66699 48 -26 70l-8 11l3 17c34.667 10.667 102 16 202 16c10.667 -12 16 -32.833 16 -62.5s-8.33301 -75.334 -25 -137.001z" />
    <glyph glyph-name="idieresis" unicode="&#xef;" horiz-adv-x="300" 
d="M57 550c-12.667 13.333 -18.998 30.5 -18.998 51.5s8 38.667 24 53s35.167 21.5 57.5 21.5s39.666 -5.83301 51.999 -17.5s18.5 -28.167 18.5 -49.5s-7.66699 -39.833 -23 -55.5s-34.333 -23.5 -57 -23.5s-40.334 6.66699 -53.001 20zM242.002 550
c-12.667 13.333 -18.999 30.5 -18.999 51.5s8 38.667 24 53s35.167 21.5 57.5 21.5s39.666 -5.83301 51.999 -17.5s18.5 -28.167 18.5 -49.5s-7.83301 -39.833 -23.5 -55.5s-34.667 -23.5 -57 -23.5s-39.833 6.66699 -52.5 20zM244.003 238.5
c-16.667 -61.667 -24.998 -101.833 -24.998 -120.5s3.66699 -28 11 -28s20.666 3.33301 39.999 10l9 4l18 -50c-22.667 -17.333 -50.834 -32.666 -84.501 -45.999s-64.167 -20 -91.5 -20s-48.833 7.66699 -64.5 23s-23.5 37.5 -23.5 66.5s8.16699 73.333 24.5 133
s24.5 97.5 24.5 113.5c0 24.667 -8.66699 48 -26 70l-8 11l3 17c34.667 10.667 102 16 202 16c10.667 -12 16 -32.833 16 -62.5s-8.33301 -75.334 -25 -137.001z" />
    <glyph glyph-name="eth" unicode="&#xf0;" horiz-adv-x="490" 
d="M497 301c0 -114.667 -39.335 -202.668 -118.002 -264.001c-42 -32.667 -94.5 -49 -157.5 -49s-112.5 19.5 -148.5 58.5s-54 88.833 -54 149.5s21.833 117 65.5 169s99.834 78 168.501 78c15.333 0 29.333 -1.33301 42 -4c-6.66699 37.333 -15.667 69.333 -27 96l-117 -35
c-5.33301 5.33301 -10.333 15.333 -15 30s-7 27.334 -7 38.001l107 31c-21.333 34 -49.666 65.667 -84.999 95l27 40c64 -18.667 122 -52 174 -100l128 38c3.33301 -4.66699 6.83301 -15.667 10.5 -33s5.5 -29 5.5 -35l-92 -28c62 -84 93 -175.667 93 -275zM305.998 297.999
c0 15.333 -0.667969 38.333 -2.00098 69h-6c-21.333 0 -40 -10.333 -56 -31c-30 -40 -45 -96.667 -45 -170c0 -27.333 3.5 -51 10.5 -71s16.833 -30 29.5 -30c22.667 0 39.834 23.167 51.501 69.5s17.5 100.833 17.5 163.5z" />
    <glyph glyph-name="ntilde" unicode="&#xf1;" horiz-adv-x="554" 
d="M433 522c-14 0 -43.0029 5.33203 -87.0029 15.999s-73.167 16 -87.5 16s-26.166 -3.16699 -35.499 -9.5s-18.666 -18.166 -27.999 -35.499l-52 12c9.33301 100.667 48 151 116 151c14.667 0 43.834 -5.33301 87.501 -16s73.167 -16 88.5 -16s26.833 2.5 34.5 7.5
s15.5 14.833 23.5 29.5l50 -10c-9.33301 -96.667 -46 -145 -110 -145zM51.9971 -6.00098l-17.002 0.00390625c0 41.333 9.5 104 28.5 188s28.5 132.333 28.5 145s-3 25 -9 37s-12 21 -18 27l-9 9l2 15c39.333 12.667 108 19 206 19
c6.66699 -15.333 11.334 -31.333 14.001 -48c60.667 37.333 111.667 56 153 56c28 0 50 -9.16699 66 -27.5s24 -40.333 24 -66s-7.33301 -66.834 -22 -123.501s-22 -93.5 -22 -110.5s2.33301 -25.5 7 -25.5l53 14l18 -50c-21.333 -16 -49.166 -30.833 -83.499 -44.5
s-65.833 -20.5 -94.5 -20.5c-56.667 0 -85 29.333 -85 88c0 25.333 7 66.666 21 123.999s21 93.166 21 107.499s-4.66699 21.5 -14 21.5c-12 0 -28 -6.66699 -48 -20l-20 -87c-21.333 -96.667 -32 -166.334 -32 -209.001c-32.667 -12.667 -88.667 -19 -168 -19z" />
    <glyph glyph-name="ograve" unicode="&#xf2;" horiz-adv-x="446" 
d="M204 696c30.667 0 117 -49.667 259 -149l-26 -48c-97.333 34.667 -200.333 65 -309 91c24 70.667 49.333 106 76 106zM188 -12c-52 0 -92.999 16.502 -122.999 49.502s-45 79.5 -45 139.5c0 73.333 21.667 135.5 65 186.5s100.333 76.5 171 76.5l45 -4
c16 4.66699 31 7 45 7c33.333 0 57.166 -11.333 71.499 -34s22.5 -55 24.5 -97c28 1.33301 54.667 5.66602 80 12.999l14 4c4.66699 -4.66699 8 -18.667 10 -42l1 -11c-30 -15.333 -66.667 -27.333 -110 -36c-14.667 -70.667 -43.667 -130.334 -87 -179.001
s-97.333 -73 -162 -73zM208.001 181.002c0 -62 15.666 -93 46.999 -93c22 0 44.5 14 67.5 42s38.833 62 47.5 102c-68 0 -102 32.667 -102 98c0 11.333 1 23 3 35c-6.66699 0 -11.667 -1 -15 -3c-11.333 -12 -22.166 -36.167 -32.499 -72.5s-15.5 -72.5 -15.5 -108.5z" />
    <glyph glyph-name="oacute" unicode="&#xf3;" horiz-adv-x="446" 
d="M467 614c0 -23.333 -12.333 -40.334 -37 -51.001c-37.333 -17.333 -124 -38 -260 -62l-17 50c82 40 173.333 92 274 156c7.33301 -10 15.833 -25.667 25.5 -47s14.5 -36.666 14.5 -45.999zM188 -12.001c-52 0 -92.999 16.502 -122.999 49.502s-45 79.5 -45 139.5
c0 73.333 21.667 135.5 65 186.5s100.333 76.5 171 76.5l45 -4c16 4.66699 31 7 45 7c33.333 0 57.166 -11.333 71.499 -34s22.5 -55 24.5 -97c28 1.33301 54.667 5.66602 80 12.999l14 4c4.66699 -4.66699 8 -18.667 10 -42l1 -11c-30 -15.333 -66.667 -27.333 -110 -36
c-14.667 -70.667 -43.667 -130.334 -87 -179.001s-97.333 -73 -162 -73zM208.001 181.001c0 -62 15.666 -93 46.999 -93c22 0 44.5 14 67.5 42s38.833 62 47.5 102c-68 0 -102 32.667 -102 98c0 11.333 1 23 3 35c-6.66699 0 -11.667 -1 -15 -3
c-11.333 -12 -22.166 -36.167 -32.499 -72.5s-15.5 -72.5 -15.5 -108.5z" />
    <glyph glyph-name="ocircumflex" unicode="&#xf4;" horiz-adv-x="446" 
d="M226.5 652.5c55 34.333 93.667 51.5 116 51.5s48.5 -20 78.5 -60s52.333 -75 67 -105l-42 -36c-60 39.333 -106.333 66 -139 80c-52 -15.333 -115.333 -42.666 -190 -81.999l-32 47c39.333 35.333 86.5 70.166 141.5 104.499zM188 -12
c-52 0 -92.999 16.502 -122.999 49.502s-45 79.5 -45 139.5c0 73.333 21.667 135.5 65 186.5s100.333 76.5 171 76.5l45 -4c16 4.66699 31 7 45 7c33.333 0 57.166 -11.333 71.499 -34s22.5 -55 24.5 -97c28 1.33301 54.667 5.66602 80 12.999l14 4
c4.66699 -4.66699 8 -18.667 10 -42l1 -11c-30 -15.333 -66.667 -27.333 -110 -36c-14.667 -70.667 -43.667 -130.334 -87 -179.001s-97.333 -73 -162 -73zM208.001 181.002c0 -62 15.666 -93 46.999 -93c22 0 44.5 14 67.5 42s38.833 62 47.5 102
c-68 0 -102 32.667 -102 98c0 11.333 1 23 3 35c-6.66699 0 -11.667 -1 -15 -3c-11.333 -12 -22.166 -36.167 -32.499 -72.5s-15.5 -72.5 -15.5 -108.5z" />
    <glyph glyph-name="otilde" unicode="&#xf5;" horiz-adv-x="446" 
d="M372 528c-14 0 -43.0029 5.33203 -87.0029 15.999s-73.167 16 -87.5 16s-26.166 -3.16699 -35.499 -9.5s-18.666 -18.166 -27.999 -35.499l-52 12c9.33301 100.667 48 151 116 151c14.667 0 43.834 -5.33301 87.501 -16s73.167 -16 88.5 -16s26.833 2.5 34.5 7.5
s15.5 14.833 23.5 29.5l50 -10c-9.33301 -96.667 -46 -145 -110 -145zM187.997 -12.001c-52 0 -92.999 16.502 -122.999 49.502s-45 79.5 -45 139.5c0 73.333 21.667 135.5 65 186.5s100.333 76.5 171 76.5l45 -4c16 4.66699 31 7 45 7c33.333 0 57.166 -11.333 71.499 -34
s22.5 -55 24.5 -97c28 1.33301 54.667 5.66602 80 12.999l14 4c4.66699 -4.66699 8 -18.667 10 -42l1 -11c-30 -15.333 -66.667 -27.333 -110 -36c-14.667 -70.667 -43.667 -130.334 -87 -179.001s-97.333 -73 -162 -73zM207.998 181.001c0 -62 15.666 -93 46.999 -93
c22 0 44.5 14 67.5 42s38.833 62 47.5 102c-68 0 -102 32.667 -102 98c0 11.333 1 23 3 35c-6.66699 0 -11.667 -1 -15 -3c-11.333 -12 -22.166 -36.167 -32.499 -72.5s-15.5 -72.5 -15.5 -108.5z" />
    <glyph glyph-name="odieresis" unicode="&#xf6;" horiz-adv-x="446" 
d="M120 550c-14 13.333 -21.001 30.5 -21.001 51.5s8.66699 38.667 26 53s38.333 21.5 63 21.5s43.834 -5.83301 57.501 -17.5s20.5 -28.167 20.5 -49.5s-8.5 -39.833 -25.5 -55.5s-37.833 -23.5 -62.5 -23.5s-44 6.66699 -58 20zM330.999 550
c-14 13.333 -21.001 30.5 -21.001 51.5s8.66699 38.667 26 53s38.333 21.5 63 21.5s43.834 -5.83301 57.501 -17.5s20.5 -28.167 20.5 -49.5s-8.5 -39.833 -25.5 -55.5s-37.833 -23.5 -62.5 -23.5s-44 6.66699 -58 20zM187.998 -12c-52 0 -92.999 16.502 -122.999 49.502
s-45 79.5 -45 139.5c0 73.333 21.667 135.5 65 186.5s100.333 76.5 171 76.5l45 -4c16 4.66699 31 7 45 7c33.333 0 57.166 -11.333 71.499 -34s22.5 -55 24.5 -97c28 1.33301 54.667 5.66602 80 12.999l14 4c4.66699 -4.66699 8 -18.667 10 -42l1 -11
c-30 -15.333 -66.667 -27.333 -110 -36c-14.667 -70.667 -43.667 -130.334 -87 -179.001s-97.333 -73 -162 -73zM207.999 181.002c0 -62 15.666 -93 46.999 -93c22 0 44.5 14 67.5 42s38.833 62 47.5 102c-68 0 -102 32.667 -102 98c0 11.333 1 23 3 35
c-6.66699 0 -11.667 -1 -15 -3c-11.333 -12 -22.166 -36.167 -32.499 -72.5s-15.5 -72.5 -15.5 -108.5z" />
    <glyph glyph-name="divide" unicode="&#xf7;" horiz-adv-x="546" 
d="M67 232c0 40 3 70.667 9 92h411c0 -48 -2 -78.667 -6 -92h-414zM207 44.5c-11.333 11.667 -16.999 27.168 -16.999 46.501s7.66699 35.833 23 49.5s33.666 20.5 54.999 20.5s37.5 -5.66699 48.5 -17s16.5 -26.333 16.5 -45s-7.66699 -35.334 -23 -50.001
s-33.5 -22 -54.5 -22s-37.167 5.83301 -48.5 17.5zM224.001 408.501c-11.333 11.667 -16.999 27.168 -16.999 46.501s7.66699 35.833 23 49.5s33.666 20.5 54.999 20.5s37.5 -5.66699 48.5 -17s16.5 -26.333 16.5 -45s-7.66699 -35.334 -23 -50.001s-33.5 -22 -54.5 -22
s-37.167 5.83301 -48.5 17.5z" />
    <glyph glyph-name="oslash" unicode="&#xf8;" horiz-adv-x="444" 
d="M275 443l7 -0.000976562l23 87h6c23.333 0 50.666 -10 81.999 -30l-27 -79c46 -25.333 69 -70.333 69 -135c0 -34 -7.16699 -69.833 -21.5 -107.5s-36.5 -73 -66.5 -106s-63.667 -55.167 -101 -66.5c-11.333 -41.333 -19 -70.666 -23 -87.999h-18
c-9.33301 0 -27 3.33301 -53 10l-19 7l22 66c-41.333 7.33301 -74.166 26.333 -98.499 57s-36.5 70.667 -36.5 120c0 72.667 22.5 135 67.5 187s107.5 78 187.5 78zM196.5 295.499c-17 -46.333 -25.5 -87.167 -25.5 -122.5s5.66699 -59.333 17 -72
c22 68.667 48.333 162.667 79 282c-30 -12 -53.5 -41.167 -70.5 -87.5zM331.5 183.998c15.667 38 23.499 71 23.499 99s-4 50.667 -12 68c-25.333 -76.667 -49.666 -159.667 -72.999 -249c25.333 16.667 45.833 44 61.5 82z" />
    <glyph glyph-name="ugrave" unicode="&#xf9;" horiz-adv-x="542" 
d="M239 696c30.667 0 117 -49.667 259 -149l-26 -48c-97.333 34.667 -200.333 65 -309 91c24 70.667 49.333 106 76 106zM61.5 219c17.667 64 26.501 103.334 26.501 118.001s-12 36 -36 64l2 15c60.667 13.333 131.667 20 213 20c5.33301 -11.333 8 -29.333 8 -54
s-9.16699 -71.334 -27.5 -140.001s-27.5 -109.334 -27.5 -122.001c0 -17.333 8.33301 -26 25 -26c11.333 0 25.666 4.33301 42.999 13c2 10.667 8 38.667 18 84c23.333 100.667 35 176 35 226c30.667 13.333 83 20 157 20h27c0 -30 -8.83301 -88.667 -26.5 -176
s-26.667 -137.666 -27 -150.999s2.5 -20 8.5 -20l49 13l18 -50c-19.333 -15.333 -47.333 -30 -84 -44s-69 -21 -97 -21c-41.333 0 -67 16.667 -77 50c-55.333 -33.333 -108.333 -50 -159 -50c-63.333 0 -95 31 -95 93c0 28 8.83301 74 26.5 138z" />
    <glyph glyph-name="uacute" unicode="&#xfa;" horiz-adv-x="542" 
d="M516 614c0 -23.333 -12.333 -40.334 -37 -51.001c-37.333 -17.333 -124 -38 -260 -62l-17 50c82 40 173.333 92 274 156c7.33301 -10 15.833 -25.667 25.5 -47s14.5 -36.666 14.5 -45.999zM61.5 218.999c17.667 64 26.501 103.334 26.501 118.001s-12 36 -36 64l2 15
c60.667 13.333 131.667 20 213 20c5.33301 -11.333 8 -29.333 8 -54s-9.16699 -71.334 -27.5 -140.001s-27.5 -109.334 -27.5 -122.001c0 -17.333 8.33301 -26 25 -26c11.333 0 25.666 4.33301 42.999 13c2 10.667 8 38.667 18 84c23.333 100.667 35 176 35 226
c30.667 13.333 83 20 157 20h27c0 -30 -8.83301 -88.667 -26.5 -176s-26.667 -137.666 -27 -150.999s2.5 -20 8.5 -20l49 13l18 -50c-19.333 -15.333 -47.333 -30 -84 -44s-69 -21 -97 -21c-41.333 0 -67 16.667 -77 50c-55.333 -33.333 -108.333 -50 -159 -50
c-63.333 0 -95 31 -95 93c0 28 8.83301 74 26.5 138z" />
    <glyph glyph-name="ucircumflex" unicode="&#xfb;" horiz-adv-x="542" 
d="M275.5 652.5c55 34.333 93.667 51.5 116 51.5s48.5 -20 78.5 -60s52.333 -75 67 -105l-42 -36c-60 39.333 -106.333 66 -139 80c-52 -15.333 -115.333 -42.666 -190 -81.999l-32 47c39.333 35.333 86.5 70.166 141.5 104.499zM61.5 219
c17.667 64 26.501 103.334 26.501 118.001s-12 36 -36 64l2 15c60.667 13.333 131.667 20 213 20c5.33301 -11.333 8 -29.333 8 -54s-9.16699 -71.334 -27.5 -140.001s-27.5 -109.334 -27.5 -122.001c0 -17.333 8.33301 -26 25 -26c11.333 0 25.666 4.33301 42.999 13
c2 10.667 8 38.667 18 84c23.333 100.667 35 176 35 226c30.667 13.333 83 20 157 20h27c0 -30 -8.83301 -88.667 -26.5 -176s-26.667 -137.666 -27 -150.999s2.5 -20 8.5 -20l49 13l18 -50c-19.333 -15.333 -47.333 -30 -84 -44s-69 -21 -97 -21
c-41.333 0 -67 16.667 -77 50c-55.333 -33.333 -108.333 -50 -159 -50c-63.333 0 -95 31 -95 93c0 28 8.83301 74 26.5 138z" />
    <glyph glyph-name="udieresis" unicode="&#xfc;" horiz-adv-x="542" 
d="M389 550c-14 13.333 -21.001 30.5 -21.001 51.5s8.66699 38.667 26 53s38.333 21.5 63 21.5s43.834 -5.83301 57.501 -17.5s20.5 -28.167 20.5 -49.5s-8.5 -39.833 -25.5 -55.5s-37.833 -23.5 -62.5 -23.5s-44 6.66699 -58 20zM177.999 550
c-14 13.333 -21.001 30.5 -21.001 51.5s8.66699 38.667 26 53s38.333 21.5 63 21.5s43.834 -5.83301 57.501 -17.5s20.5 -28.167 20.5 -49.5s-8.5 -39.833 -25.5 -55.5s-37.833 -23.5 -62.5 -23.5s-44 6.66699 -58 20zM61.498 219c17.667 64 26.501 103.334 26.501 118.001
s-12 36 -36 64l2 15c60.667 13.333 131.667 20 213 20c5.33301 -11.333 8 -29.333 8 -54s-9.16699 -71.334 -27.5 -140.001s-27.5 -109.334 -27.5 -122.001c0 -17.333 8.33301 -26 25 -26c11.333 0 25.666 4.33301 42.999 13c2 10.667 8 38.667 18 84
c23.333 100.667 35 176 35 226c30.667 13.333 83 20 157 20h27c0 -30 -8.83301 -88.667 -26.5 -176s-26.667 -137.666 -27 -150.999s2.5 -20 8.5 -20l49 13l18 -50c-19.333 -15.333 -47.333 -30 -84 -44s-69 -21 -97 -21c-41.333 0 -67 16.667 -77 50
c-55.333 -33.333 -108.333 -50 -159 -50c-63.333 0 -95 31 -95 93c0 28 8.83301 74 26.5 138z" />
    <glyph glyph-name="yacute" unicode="&#xfd;" horiz-adv-x="505" 
d="M489 614c0 -23.333 -12.333 -40.334 -37 -51.001c-37.333 -17.333 -124 -38 -260 -62l-17 50c82 40 173.333 92 274 156c7.33301 -10 15.833 -25.667 25.5 -47s14.5 -36.666 14.5 -45.999zM499 435.999h8.00098c-3.33301 -17.333 -9 -54.666 -17 -111.999
c-18 -130.667 -38 -232.167 -60 -304.5s-53 -131 -93 -176s-93.333 -67.5 -160 -67.5c-28.667 0 -53.5 7.16699 -74.5 21.5s-31.5 32.833 -31.5 55.5s5.5 41.667 16.5 57s27.167 28 48.5 38c33.333 16.667 76.333 31 129 43c5.33301 25.333 8.66602 41.666 9.99902 48.999
c-52 -28 -102 -42 -150 -42c-32 0 -55.667 8.5 -71 25.5s-23 38.167 -23 63.5s7.33301 70.166 22 134.499s22 108.833 22 133.5s-1.66699 43 -5 55c78.667 16.667 139.667 25 183 25c5.33301 -9.33301 8 -25.666 8 -48.999s-7.5 -68.833 -22.5 -136.5
s-22.5 -107.5 -22.5 -119.5c0 -20.667 10 -31 30 -31c11.333 0 24.333 3 39 9c5.33301 34 12.833 85.833 22.5 155.5s16.5 117.5 20.5 143.5c17.333 8 43.5 14.833 78.5 20.5s65.833 8.5 92.5 8.5zM142.001 -127.001c1.33301 -15.333 9.16797 -23 23.501 -23
s29.666 7 45.999 21s29.5 34 39.5 60c-72.667 -12.667 -109 -32 -109 -58z" />
    <glyph glyph-name="thorn" unicode="&#xfe;" horiz-adv-x="483" 
d="M-27 -178c0 49.333 23 185.665 69 408.998s69 367 69 431c0 10.667 -1.66699 24.334 -5 41.001c66 20.667 128 31 186 31c3.33301 -9.33301 5 -21.666 5 -36.999c0 -55.333 -14 -148 -42 -278c30.667 15.333 62.667 23 96 23s62.5 -14.167 87.5 -42.5
s37.5 -69.166 37.5 -122.499c0 -84 -17.667 -153.167 -53 -207.5s-86.666 -81.5 -153.999 -81.5c-34.667 0 -67.334 6 -98.001 18c-10.667 -72.667 -16 -139.334 -16 -200.001c-50 -16.667 -108.667 -26.667 -176 -30c-4 8 -6 23.333 -6 46zM217 74.999
c17.333 0 32.333 13 45 39c22.667 46.667 34 104 34 172c0 38.667 -9.66699 58 -29 58c-8 0 -18 -2 -30 -6c-29.333 -136 -47.333 -221.667 -54 -257c14.667 -4 26 -6 34 -6z" />
    <glyph glyph-name="ydieresis" unicode="&#xff;" horiz-adv-x="505" 
d="M361 550c-14 13.333 -21.001 30.5 -21.001 51.5s8.66699 38.667 26 53s38.333 21.5 63 21.5s43.834 -5.83301 57.501 -17.5s20.5 -28.167 20.5 -49.5s-8.5 -39.833 -25.5 -55.5s-37.833 -23.5 -62.5 -23.5s-44 6.66699 -58 20zM149.999 550
c-14 13.333 -21.001 30.5 -21.001 51.5s8.66699 38.667 26 53s38.333 21.5 63 21.5s43.834 -5.83301 57.501 -17.5s20.5 -28.167 20.5 -49.5s-8.5 -39.833 -25.5 -55.5s-37.833 -23.5 -62.5 -23.5s-44 6.66699 -58 20zM498.998 436h8.00098
c-3.33301 -17.333 -9 -54.666 -17 -111.999c-18 -130.667 -38 -232.167 -60 -304.5s-53 -131 -93 -176s-93.333 -67.5 -160 -67.5c-28.667 0 -53.5 7.16699 -74.5 21.5s-31.5 32.833 -31.5 55.5s5.5 41.667 16.5 57s27.167 28 48.5 38c33.333 16.667 76.333 31 129 43
c5.33301 25.333 8.66602 41.666 9.99902 48.999c-52 -28 -102 -42 -150 -42c-32 0 -55.667 8.5 -71 25.5s-23 38.167 -23 63.5s7.33301 70.166 22 134.499s22 108.833 22 133.5s-1.66699 43 -5 55c78.667 16.667 139.667 25 183 25c5.33301 -9.33301 8 -25.666 8 -48.999
s-7.5 -68.833 -22.5 -136.5s-22.5 -107.5 -22.5 -119.5c0 -20.667 10 -31 30 -31c11.333 0 24.333 3 39 9c5.33301 34 12.833 85.833 22.5 155.5s16.5 117.5 20.5 143.5c17.333 8 43.5 14.833 78.5 20.5s65.833 8.5 92.5 8.5zM141.999 -127
c1.33301 -15.333 9.16797 -23 23.501 -23s29.666 7 45.999 21s29.5 34 39.5 60c-72.667 -12.667 -109 -32 -109 -58z" />
    <glyph glyph-name="hbar" unicode="&#x127;" horiz-adv-x="544" 
d="M322 734c4.66699 -11.333 6.99902 -28.5 6.99902 -51.5s-2.66699 -50.5 -8 -82.5h123c0 -33.333 -1.66699 -58.333 -5 -75h-131c-10.667 -50 -20.667 -94 -30 -132c57.333 32.667 102.5 49 135.5 49s57.5 -8.83301 73.5 -26.5s24 -39.667 24 -66
s-7.33301 -67.666 -22 -123.999s-22 -93.166 -22 -110.499s2.66699 -26 8 -26l52 14l18 -50c-20.667 -15.333 -49.167 -30 -85.5 -44s-68.5 -21 -96.5 -21c-54 0 -81 30.667 -81 92c0 28 7 69.333 21 124s21 89.167 21 103.5s-5 21.5 -15 21.5c-14 0 -31 -6.66699 -51 -20
c-30 -127.333 -45 -216 -45 -266l1 -24c-68 -18 -129 -27 -183 -27c-4 2 -6 15.167 -6 39.5s6 64.5 18 120.5s27.167 121.5 45.5 196.5s31.5 133.833 39.5 176.5h-90c0 35.333 1.66699 60.333 5 75h97c2.66699 29.333 4 51.166 4 65.499s-1.33301 28.166 -4 41.499
c64.667 18 125.334 27 182.001 27z" />
    <glyph glyph-name="Itilde" unicode="&#x128;" horiz-adv-x="369" 
d="M361 761c-14.667 0 -45.1689 4.83301 -91.502 14.5s-73.833 14.5 -82.5 14.5c-25.333 0 -45.666 -12.333 -60.999 -37l-53 14c9.33301 91.333 48.333 137 117 137c14.667 0 43.834 -4.83301 87.501 -14.5s71.834 -14.5 84.501 -14.5s22.167 2 28.5 6s13.166 12 20.499 24
l54 -12c-9.33301 -88 -44 -132 -104 -132zM244.998 127c0 -18.667 4.33203 -27.999 12.999 -27.999c14.667 0 32.667 4.33301 54 13l22 -56c-61.333 -45.333 -120.666 -68 -177.999 -68c-33.333 0 -59.833 9.5 -79.5 28.5s-29.5 45.833 -29.5 80.5s17 113.167 51 235.5
s52.667 207.5 56 255.5c0 11.333 -3.66699 23.666 -11 36.999s-14.333 24 -21 32l-11 12l2 20c42 14 116.333 21 223 21c10.667 -20 16 -41.333 16 -64c0 -38.667 -17.833 -123 -53.5 -253s-53.5 -218.667 -53.5 -266z" />
    <glyph glyph-name="itilde" unicode="&#x129;" horiz-adv-x="300" 
d="M271 530c-12 0 -35.834 4.99902 -71.501 14.999s-59.667 15 -72 15s-22.666 -3.16699 -30.999 -9.5s-16.5 -18.166 -24.5 -35.499l-49 12c8.66699 99.333 43.334 149 104.001 149c12.667 0 36.167 -5 70.5 -15s60.166 -15 77.499 -15s31.666 12.333 42.999 37l47 -10
c-7.33301 -95.333 -38.666 -143 -93.999 -143zM243.999 238.499c-16.667 -61.667 -24.998 -101.833 -24.998 -120.5s3.66699 -28 11 -28s20.666 3.33301 39.999 10l9 4l18 -50c-22.667 -17.333 -50.834 -32.666 -84.501 -45.999s-64.167 -20 -91.5 -20
s-48.833 7.66699 -64.5 23s-23.5 37.5 -23.5 66.5s8.16699 73.333 24.5 133s24.5 97.5 24.5 113.5c0 24.667 -8.66699 48 -26 70l-8 11l3 17c34.667 10.667 102 16 202 16c10.667 -12 16 -32.833 16 -62.5s-8.33301 -75.334 -25 -137.001z" />
    <glyph glyph-name="dotlessi" unicode="&#x131;" horiz-adv-x="300" 
d="M244 238.5c-16.667 -61.667 -24.998 -101.833 -24.998 -120.5s3.66699 -28 11 -28s20.666 3.33301 39.999 10l9 4l18 -50c-22.667 -17.333 -50.834 -32.666 -84.501 -45.999s-64.167 -20 -91.5 -20s-48.833 7.66699 -64.5 23s-23.5 37.5 -23.5 66.5
s8.16699 73.333 24.5 133s24.5 97.5 24.5 113.5c0 24.667 -8.66699 48 -26 70l-8 11l3 17c34.667 10.667 102 16 202 16c10.667 -12 16 -32.833 16 -62.5s-8.33301 -75.334 -25 -137.001z" />
    <glyph glyph-name="IJ" unicode="&#x132;" horiz-adv-x="787" 
d="M540 709l212.996 -4.00195l105 4c1.33301 -14.667 2 -30.5 2 -47.5s-3.66699 -28.5 -11 -34.5s-20.5 -9 -39.5 -9s-33.833 0.333008 -44.5 1c-23.333 -197.333 -42.666 -335.333 -57.999 -414c-20 -83.333 -45 -140.333 -75 -171c-12 -13.333 -28.167 -24.5 -48.5 -33.5
s-45.166 -13.5 -74.499 -13.5s-61.666 9.5 -96.999 28.5s-63.666 41.167 -84.999 66.5l38 49c8 -6.66699 20.167 -14.167 36.5 -22.5s30.666 -12.5 42.999 -12.5s23.5 6.66699 33.5 20c24.667 31.333 46 116 64 254c12.667 94.667 19 174.334 19 239.001v17
c-48 -1.33301 -83.667 -5.66602 -107 -12.999c-9.33301 28 -14.666 56.333 -15.999 85c16.667 7.33301 50.667 11 102 11zM245.996 121.998c0 -18.667 4.16699 -27.998 12.5 -27.998s22.166 2.66699 41.499 8l20 -50c-60 -42.667 -115 -64 -165 -64
c-33.333 0 -59.833 9.5 -79.5 28.5s-29.5 45.167 -29.5 78.5s16.5 111.666 49.5 234.999s51.167 209.333 54.5 258c0 11.333 -3.66699 23.666 -11 36.999s-14.333 24 -21 32l-11 12l2 20c46.667 14 123.334 21 230.001 21c10.667 -20 16 -41.333 16 -64
c0 -38 -18.167 -122.333 -54.5 -253s-54.5 -221 -54.5 -271z" />
    <glyph glyph-name="ij" unicode="&#x133;" horiz-adv-x="593" 
d="M314 -224c-68.667 0 -128.666 29.999 -179.999 89.999l32 43c31.333 -21.333 59 -32 83 -32s43 16.333 57 49s30.333 96.834 49 192.501s28 164.834 28 207.501c0 10 -3.33301 21.5 -10 34.5s-13.334 23.5 -20.001 31.5l-10 12l2 16c50.667 12 122 18 214 18
c11.333 -11.333 17 -32.833 17 -64.5s-8.16699 -92.334 -24.5 -182.001s-32.5 -165.5 -48.5 -227.5c-14 -62.667 -38 -109.667 -72 -141s-73 -47 -117 -47zM433.501 539.999c-17 16 -25.501 36.5 -25.501 61.5s10.5 46 31.5 63s46.5 25.5 76.5 25.5s53.333 -7 70 -21
s25 -33.667 25 -59s-10.167 -47.333 -30.5 -66s-45.666 -28 -75.999 -28s-54 8 -71 24zM122.5 539.999c-17 16 -25.501 36.5 -25.501 61.5s10.5 46 31.5 63s46.5 25.5 76.5 25.5s53.333 -7 70 -21s25 -33.667 25 -59s-10.167 -47.333 -30.5 -66s-45.666 -28 -75.999 -28
s-54 8 -71 24zM243.999 238.499c-16.667 -61.667 -24.998 -101.833 -24.998 -120.5s3.66699 -28 11 -28s20.666 3.33301 39.999 10l9 4l18 -50c-22.667 -17.333 -50.834 -32.666 -84.501 -45.999s-64.167 -20 -91.5 -20s-48.833 7.66699 -64.5 23s-23.5 37.5 -23.5 66.5
s8.16699 73.333 24.5 133s24.5 97.5 24.5 113.5c0 24.667 -8.66699 48 -26 70l-8 11l3 17c34.667 10.667 102 16 202 16c10.667 -12 16 -32.833 16 -62.5s-8.33301 -75.334 -25 -137.001z" />
    <glyph glyph-name="Jcircumflex" unicode="&#x134;" horiz-adv-x="437" 
d="M195 709l213 -4.00195l99 4c1.33301 -14.667 2 -30.5 2 -47.5s-3.66699 -28.5 -11 -34.5s-21 -9 -41 -9s-35.667 0.333008 -47 1c-25.333 -260.667 -50.333 -425 -75 -493c-21.333 -60 -50.333 -100 -87 -120c-22.667 -12.667 -49.834 -19 -81.501 -19
s-65.167 9.16699 -100.5 27.5s-63.333 39.833 -84 64.5l36 51c8 -6 20.5 -13.167 37.5 -21.5s31.667 -12.5 44 -12.5s23.833 6.66699 34.5 20c24 31.333 45 116 63 254c12.667 94.667 19 174.334 19 239.001v17c-48 -1.33301 -83.667 -5.66602 -107 -12.999
c-9.33301 28 -14.666 56.333 -15.999 85c16.667 7.33301 50.667 11 102 11zM253 871.998c55.333 31.333 91.666 46.999 108.999 46.999s40.333 -16.167 69 -48.5s52.334 -62.166 71.001 -89.499l-35 -40c-60.667 30 -105.667 49.333 -135 58
c-34.667 -7.33301 -98 -28 -190 -62l-27 46c36.667 28 82.667 57.667 138 89z" />
    <glyph glyph-name="jcircumflex" unicode="&#x135;" horiz-adv-x="303" 
d="M237 704c14.667 0 36.332 -20.6699 64.999 -62.0029s49.334 -75.666 62.001 -102.999l-42 -36c-61.333 44 -102 70.667 -122 80c-40.667 -13.333 -96.667 -40.666 -168 -81.999l-32 47c37.333 36.667 80.5 71.834 129.5 105.501s84.833 50.5 107.5 50.5zM10.998 -224.003
c-61.333 0 -117.999 26.668 -169.999 80.001l32 43c28 -18 53.833 -27 77.5 -27s44 15.333 61 46s34.167 94.667 51.5 192s26 169.333 26 216c0 10 -3.33301 21.5 -10 34.5s-13.334 23.5 -20.001 31.5l-10 12l2 16c46.667 12 116 18 208 18
c11.333 -11.333 17 -33.5 17 -66.5s-6 -87.833 -18 -164.5s-25.333 -143.334 -40 -200.001c-40.667 -154 -109.667 -231 -207 -231z" />
    <glyph glyph-name="kcommaaccent" unicode="&#x137;" horiz-adv-x="551" 
d="M143 661c0 17.333 -1.66504 32.6689 -4.99805 46.002c66 18 126 27 180 27c6.66699 -8 10 -25.667 10 -53c0 -48.667 -15 -142 -45 -280c53.333 28 100.5 42 141.5 42s72.333 -8.33301 94 -25s32.5 -40 32.5 -70c0 -58 -43 -99.333 -129 -124c21.333 -92 42 -138 62 -138
l48 13l22 -49c-16.667 -13.333 -42.334 -27 -77.001 -41s-68 -21 -100 -21s-56.333 12 -73 36s-27.334 55.333 -32.001 94s-7 82 -7 130c32 8 57.333 19.5 76 34.5s28 30 28 45s-8 22.5 -24 22.5c-12.667 0 -27.5 -3.66699 -44.5 -11s-29.5 -14.333 -37.5 -21
c-36 -152 -54 -253.667 -54 -305c-51.333 -11.333 -112.333 -17 -183 -17c-0.666992 5.33301 -1 11.666 -1 18.999c0 34.667 19.667 136.167 59 304.5s59 282.166 59 341.499zM338.002 -108.997c0 -48 -31.667 -104.333 -95 -169l-51 24c14 30 22.333 57 25 81l-63 55
c8 20 19.667 38.833 35 56.5s30.333 27.834 45 30.501c27.333 0 51.5 -7.33301 72.5 -22s31.5 -33.334 31.5 -56.001z" />
    <glyph glyph-name="kgreenlandic" unicode="&#x138;" horiz-adv-x="562" 
d="M352 282.5c18.667 15 28.0029 30 28.0029 45s-8 22.5 -24 22.5c-12.667 0 -27.5 -3.66699 -44.5 -11s-29.5 -14.333 -37.5 -21c-2.66699 -12.667 -9.33398 -42.334 -20.001 -89.001c-22.667 -99.333 -34 -171.333 -34 -216c-32.667 -12.667 -88.667 -19 -168 -19h-17
c0 41.333 9.5 104 28.5 188s28.5 132.333 28.5 145s-3 25 -9 37s-12 21 -18 27l-9 9l2 15c39.333 12.667 108 19 206 19c6 -13.333 10.333 -27.666 13 -42.999l15 9c52 28.667 99.167 43 141.5 43s74.333 -8.33301 96 -25s32.5 -40 32.5 -70c0 -58 -43 -99.333 -129 -124
c21.333 -92 42 -138 62 -138l48 13l22 -49c-16.667 -13.333 -42.334 -27 -77.001 -41s-68 -21 -100 -21s-56.333 12 -73 36s-27.334 55.333 -32.001 94s-7 82 -7 130c32 8 57.333 19.5 76 34.5z" />
    <glyph glyph-name="Ldotaccent" unicode="&#x13f;" horiz-adv-x="538" 
d="M394.5 323c-12.333 13.333 -18.5 30.667 -18.5 52s8.33301 39.5 25 54.5s36.5 22.5 59.5 22.5s40.5 -6.33301 52.5 -19s18 -29.5 18 -50.5s-8.16699 -39.5 -24.5 -55.5s-36 -24 -59 -24s-40.667 6.66699 -53 20zM387 -23.999c-28 0 -68.834 14.668 -122.501 44.001
s-84.834 45 -93.501 47c-40 -52.667 -77.333 -79 -112 -79c-9.33301 0 -23.333 13 -42 39s-28 50.333 -28 73c0 10 10.333 22.5 31 37.5s44.334 25.5 71.001 31.5c18 42 35.833 105.667 53.5 191s26.5 160.333 26.5 225c0 10.667 -3.5 22.667 -10.5 36s-13.833 24 -20.5 32
l-11 12l3 20c36.667 16.667 112.667 25 228 25c10.667 -16.667 16 -45 16 -85s-17.667 -109.333 -53 -208s-70.666 -184.334 -105.999 -257.001c66.667 -17.333 130.334 -26 191.001 -26c14 0 25.5 3.33301 34.5 10s18.833 20.667 29.5 42l55 -19
c-10.667 -63.333 -26.834 -111 -48.501 -143s-52.167 -48 -91.5 -48z" />
    <glyph glyph-name="ldot" unicode="&#x140;" horiz-adv-x="424" 
d="M312.5 314c-12.333 13.333 -18.5 30.667 -18.5 52s8.33301 39.5 25 54.5s36.5 22.5 59.5 22.5s40.5 -6.33301 52.5 -19s18 -29.5 18 -50.5s-8.16699 -39.5 -24.5 -55.5s-36 -24 -59 -24s-40.667 6.66699 -53 20zM216 8.00098
c-34.667 -13.333 -66.168 -20.0029 -94.501 -20.0029s-51.5 8.16699 -69.5 24.5s-27 39.833 -27 70.5s16.833 116.167 50.5 256.5s50.5 244.5 50.5 312.5c0 14.667 -2 33.334 -6 56.001c62.667 17.333 123.334 26 182.001 26c6 -10.667 9 -28 9 -52
c0 -45.333 -16.833 -144.166 -50.5 -296.499s-50.5 -240.166 -50.5 -263.499s4 -35 12 -35c6.66699 0 21 4.33301 43 13l11 5l24 -49c-21.333 -18.667 -49.333 -34.667 -84 -48z" />
    <glyph glyph-name="Lslash" unicode="&#x141;" horiz-adv-x="537" 
d="M341 430l143.001 49c4.66699 -9.33301 9 -23.5 13 -42.5s6 -31.5 6 -37.5c-12 -3.33301 -77.333 -23.666 -196 -60.999c-26.667 -68.667 -52.334 -128 -77.001 -178c66.667 -17.333 130.334 -26 191.001 -26c14 0 25.5 3.33301 34.5 10s18.833 20.667 29.5 42l55 -19
c-10.667 -63.333 -26.834 -111 -48.501 -143s-52.167 -48 -91.5 -48c-28 0 -68.833 14.667 -122.5 44s-84.834 45 -93.501 47c-40 -52.667 -77.333 -79 -112 -79c-9.33301 0 -23.333 13 -42 39s-28 50.333 -28 73c0 10 10.333 22.5 31 37.5s44.334 25.5 71.001 31.5
c15.333 36.667 29 81.667 41 135l-98 -36c-4 3.33301 -8.66699 14 -14 32s-8.33301 34 -9 48c36 12 82.333 26.333 139 43c14 76.667 21 141.334 21 194.001c0 10.667 -3.5 22.667 -10.5 36s-14.167 24 -21.5 32l-10 12l3 20c36.667 16.667 112.667 25 228 25
c10.667 -16.667 16 -44.334 16 -83.001s-16 -104.334 -48 -197.001z" />
    <glyph glyph-name="lslash" unicode="&#x142;" horiz-adv-x="377" 
d="M304 460l89 36c5.33301 -8 11.166 -19.833 17.499 -35.5s9.83301 -27.167 10.5 -34.5c-10 -4 -21.5 -8.33301 -34.5 -13l-48 -17.5l-51.5 -18.5c-32.667 -145.333 -49 -230 -49 -254s4 -36 12 -36c6.66699 0 21 4.33301 43 13l11 5l24 -49
c-21.333 -18.667 -49.333 -34.667 -84 -48s-66.167 -20 -94.5 -20s-51.5 8.16699 -69.5 24.5s-27 39.833 -27 70.5s15 108.667 45 234l-69 -30c-14 19.333 -24 43.333 -30 72l57 22l63 24c23.333 105.333 35 187.666 35 246.999c0 14.667 -2 33.334 -6 56.001
c62.667 17.333 123.334 26 182.001 26c6 -10.667 9 -32 9 -64s-11.667 -102 -35 -210z" />
    <glyph glyph-name="Nacute" unicode="&#x143;" horiz-adv-x="689" 
d="M58 -6h-17.001c0 40 18.667 142 56 306s56 259 56 285c0 11.333 -3.5 24 -10.5 38s-13.833 25 -20.5 33l-10 13l3 20c41.333 14 113.333 21 216 21c12 -25.333 18 -54 18 -86v-2c80 58.667 150 88 210 88c35.333 0 64.333 -10.5 87 -31.5s34 -51 34 -90
s-15.333 -117.5 -46 -235.5s-46 -189.833 -46 -215.5s4.33301 -38.5 13 -38.5c12 0 30 4.33301 54 13l21 -57c-65.333 -44.667 -126 -67 -182 -67c-32 0 -56.5 8.5 -73.5 25.5s-25.5 45.167 -25.5 84.5s14.5 114.166 43.5 224.499s43.5 178.833 43.5 205.5
c0 34 -15 51 -45 51c-22 0 -55 -13.667 -99 -41c-6 -32 -18.667 -87.333 -38 -166c-42.667 -179.333 -64 -296.666 -64 -351.999c-29.333 -17.333 -88.666 -26 -177.999 -26zM661.999 842c0 -21.333 -12.667 -36.668 -38 -46.001c-32.667 -14 -125.667 -32.667 -279 -56
l-19 54l77 34l79 35c55.333 24.667 102 48 140 70c7.33301 -10.667 15.833 -26.167 25.5 -46.5s14.5 -35.166 14.5 -44.499z" />
    <glyph glyph-name="nacute" unicode="&#x144;" horiz-adv-x="554" 
d="M503 614c0 -23.333 -12.333 -40.334 -37 -51.001c-37.333 -17.333 -124 -38 -260 -62l-17 50c82 40 173.333 92 274 156c7.33301 -10 15.833 -25.667 25.5 -47s14.5 -36.666 14.5 -45.999zM52 -6.00098l-17.002 0.00390625c0 41.333 9.5 104 28.5 188
s28.5 132.333 28.5 145s-3 25 -9 37s-12 21 -18 27l-9 9l2 15c39.333 12.667 108 19 206 19c6.66699 -15.333 11.334 -31.333 14.001 -48c60.667 37.333 111.667 56 153 56c28 0 50 -9.16699 66 -27.5s24 -40.333 24 -66s-7.33301 -66.834 -22 -123.501
s-22 -93.5 -22 -110.5s2.33301 -25.5 7 -25.5l53 14l18 -50c-21.333 -16 -49.166 -30.833 -83.499 -44.5s-65.833 -20.5 -94.5 -20.5c-56.667 0 -85 29.333 -85 88c0 25.333 7 66.666 21 123.999s21 93.166 21 107.499s-4.66699 21.5 -14 21.5c-12 0 -28 -6.66699 -48 -20
l-20 -87c-21.333 -96.667 -32 -166.334 -32 -209.001c-32.667 -12.667 -88.667 -19 -168 -19z" />
    <glyph glyph-name="OE" unicode="&#x152;" horiz-adv-x="866" 
d="M600 389c49.333 6.66699 93.832 10.001 133.499 10.001s69.167 -3 88.5 -9c0 -28.667 -4 -52.667 -12 -72l-5 -11c-38 6 -72 9 -102 9l-113 -7c-5.33301 -34 -8 -69.333 -8 -106s7.33301 -64.834 22 -84.501s38 -29.5 70 -29.5s89.333 16 172 48l22 -60
c-26.667 -19.333 -65.167 -39 -115.5 -59s-104.333 -30 -162 -30s-105.834 14.667 -144.501 44c-47.333 -29.333 -100 -44 -158 -44c-72 0 -130 25.667 -174 77s-66 122.333 -66 213c0 113.333 30.667 212.333 92 297c30 40.667 68.333 73.334 115 98.001
s98.334 37 155.001 37l170 -5c120 0 214.667 1 284 3c2 -18 3 -34.667 3 -50c0 -30 -14.333 -45 -43 -45c-5.33301 0 -25.166 1.33301 -59.499 4s-60.333 4 -78 4s-31.167 -0.666992 -40.5 -2c-18.667 -72.667 -34 -149.334 -46 -230.001zM400.999 636.001
c-47.333 0 -85.332 -35.168 -113.999 -105.501s-43 -162.833 -43 -277.5c0 -69.333 5.66699 -117.333 17 -144s28.333 -40 51 -40c14 0 27.5 3.5 40.5 10.5s22.5 13.833 28.5 20.5l9 11v26c0.666992 71.333 9.16699 160.333 25.5 267s30.166 179.334 41.499 218.001
c-17.333 9.33301 -36 14 -56 14z" />
    <glyph glyph-name="oe" unicode="&#x153;" horiz-adv-x="754" 
d="M251 443c30.667 0 55.998 -5.00098 75.998 -15.001c8 2 20.667 3 38 3s32 -7.66699 44 -23s18.333 -32.333 19 -51c54 57.333 121 86 201 86c40.667 0 74.334 -8.5 101.001 -25.5s40 -42.833 40 -77.5c0 -25.333 -7.83301 -48.166 -23.5 -68.499
s-34.5 -35.833 -56.5 -46.5c-46.667 -22 -88 -35.333 -124 -40l-24 -3c0 -30 6.33301 -54 19 -72s32 -27 58 -27c15.333 0 31.166 3.16699 47.499 9.5s28.833 12.5 37.5 18.5l13 9l30 -47c-7.33301 -6.66699 -17.333 -14.667 -30 -24s-37.5 -21.833 -74.5 -37.5
s-74.833 -23.5 -113.5 -23.5s-71.5 10.167 -98.5 30.5s-45.167 45.5 -54.5 75.5c-53.333 -70.667 -116 -106 -188 -106c-49.333 0 -89.666 16 -120.999 48s-47 81 -47 147s21.333 125.833 64 179.5s98.334 80.5 167.001 80.5zM256.998 87.999c18 0 36.5 10.166 55.5 30.499
s33.833 44.833 44.5 73.5c-60.667 6 -91 44.667 -91 116c0 20.667 1.33301 38.334 4 53.001c-2.66699 1.33301 -7.66699 2 -15 2c-3.33301 -2 -8.5 -9.66699 -15.5 -23s-14 -34 -21 -62s-10.5 -57.333 -10.5 -88c0 -68 16.333 -102 49 -102zM602.998 281.498
c16 18.333 24 39.167 24 62.5s-8.83301 35 -26.5 35s-31.667 -14.333 -42 -43s-15.5 -59 -15.5 -91c24 6 44 18.167 60 36.5z" />
    <glyph glyph-name="Racute" unicode="&#x154;" horiz-adv-x="651" 
d="M237 19c-39.333 -17.333 -87.3369 -26 -144.004 -26c-19.333 0 -36.666 1.66699 -51.999 5c0 44 18.833 143.167 56.5 297.5s56.5 251.5 56.5 291.5c0 16 -12 37.333 -36 64l-11 13l3 22c90.667 16 191.334 24 302.001 24c66.667 0 119.334 -12.833 158.001 -38.5
s58 -63 58 -112s-13.333 -93.667 -40 -134s-64.667 -71.833 -114 -94.5c22 -74.667 43 -133 63 -175s36.333 -63 49 -63c10.667 0 27.334 4 50.001 12l12 4l24 -54c-58.667 -44.667 -120.5 -67 -185.5 -67s-107.5 32.667 -127.5 98c-17.333 57.333 -31.333 128.333 -42 213
h-35c-30 -140 -45 -233.333 -45 -280zM631.996 842c0 -21.333 -12.667 -36.668 -38 -46.001c-32.667 -14 -125.667 -32.667 -279 -56l-19 54l77 34l79 35c55.333 24.667 102 48 140 70c7.33301 -10.667 15.833 -26.167 25.5 -46.5s14.5 -35.166 14.5 -44.499z
M322.996 385.998c21.333 0 39.834 6.66895 55.501 20.002s27.5 30.666 35.5 51.999c14.667 42 22 82.667 22 122s-17.667 59 -53 59c-10.667 0 -21.334 -1 -32.001 -3c-0.666992 -20.667 -17 -103.334 -49 -248.001c4.66699 -1.33301 11.667 -2 21 -2z" />
    <glyph glyph-name="Rcommaaccent" unicode="&#x156;" horiz-adv-x="651" 
d="M237 19c-39.333 -17.333 -87.3369 -26 -144.004 -26c-19.333 0 -36.666 1.66699 -51.999 5c0 44 18.833 143.167 56.5 297.5s56.5 251.5 56.5 291.5c0 16 -12 37.333 -36 64l-11 13l3 22c90.667 16 191.334 24 302.001 24c66.667 0 119.334 -12.833 158.001 -38.5
s58 -63 58 -112s-13.333 -93.667 -40 -134s-64.667 -71.833 -114 -94.5c22 -74.667 43 -133 63 -175s36.333 -63 49 -63c10.667 0 27.334 4 50.001 12l12 4l24 -54c-58.667 -44.667 -120.5 -67 -185.5 -67s-107.5 32.667 -127.5 98c-17.333 57.333 -31.333 128.333 -42 213
h-35c-30 -140 -45 -233.333 -45 -280zM399.996 -104c0 -56 -33.667 -113.666 -101 -172.999l-51 25c13.333 29.333 21.666 57.333 24.999 84l-63 55c8 20.667 20.167 40.667 36.5 60s31.5 30.333 45.5 33c26.667 0 51.334 -8.33301 74.001 -25s34 -36.334 34 -59.001z
M322.996 386.001c21.333 0 39.834 6.66895 55.501 20.002s27.5 30.666 35.5 51.999c14.667 42 22 82.667 22 122s-17.667 59 -53 59c-10.667 0 -21.334 -1 -32.001 -3c-0.666992 -20.667 -17 -103.334 -49 -248.001c4.66699 -1.33301 11.667 -2 21 -2z" />
    <glyph glyph-name="rcommaaccent" unicode="&#x157;" horiz-adv-x="392" 
d="M49 -6l-8.00293 0.000976562c-2 9.33301 -3 23.833 -3 43.5s8.16699 70.5 24.5 152.5s24.5 128.667 24.5 140c0 21.333 -9 41.333 -27 60l-9 10l2 15c40 12.667 106.333 19 199 19c8.66699 -16.667 14 -36.334 16 -59.001c40 45.333 75 68 105 68
c23.333 0 41 -7.83301 53 -23.5s19 -41.5 21 -77.5c-3.33301 -4.66699 -8.16602 -10.5 -14.499 -17.5s-19.666 -16.667 -39.999 -29s-41.5 -19.833 -63.5 -22.5c-0.666992 0 -5.16699 7.33301 -13.5 22s-14.833 22 -19.5 22s-15.667 -6.66699 -33 -20l-11 -57
c-19.333 -95.333 -29 -159.333 -29 -192l1 -37c-29.333 -11.333 -87.666 -17 -174.999 -17zM212.997 -108.999c0 -48 -31.667 -104.333 -95 -169l-51 24c14 30 22.333 57 25 81l-63 55c8 20 19.667 38.833 35 56.5s30.333 27.834 45 30.501c27.333 0 51.5 -7.33301 72.5 -22
s31.5 -33.334 31.5 -56.001z" />
    <glyph glyph-name="Rcaron" unicode="&#x158;" horiz-adv-x="661" 
d="M237 19c-39.333 -17.333 -87.3369 -26 -144.004 -26c-19.333 0 -36.666 1.66699 -51.999 5c0 44 18.833 143.167 56.5 297.5s56.5 251.5 56.5 291.5c0 16 -12 37.333 -36 64l-11 13l3 22c90.667 16 191.334 24 302.001 24c66.667 0 119.334 -12.833 158.001 -38.5
s58 -63 58 -112s-13.333 -93.667 -40 -134s-64.667 -71.833 -114 -94.5c22 -74.667 43 -133 63 -175s36.333 -63 49 -63c10.667 0 27.334 4 50.001 12l12 4l24 -54c-58.667 -44.667 -120.5 -67 -185.5 -67s-107.5 32.667 -127.5 98c-17.333 57.333 -31.333 128.333 -42 213
h-35c-30 -140 -45 -233.333 -45 -280zM532.996 788c-58 -29.333 -97.167 -43.999 -117.5 -43.999s-48 17.667 -83 53s-60.5 64.666 -76.5 87.999l39 37c72.667 -30 124 -49.667 154 -59c47.333 9.33301 115.333 29.666 204 60.999l29 -48
c-41.333 -29.333 -91 -58.666 -149 -87.999zM322.996 386.001c21.333 0 39.834 6.66895 55.501 20.002s27.5 30.666 35.5 51.999c14.667 42 22 82.667 22 122s-17.667 59 -53 59c-10.667 0 -21.334 -1 -32.001 -3c-0.666992 -20.667 -17 -103.334 -49 -248.001
c4.66699 -1.33301 11.667 -2 21 -2z" />
    <glyph glyph-name="rcaron" unicode="&#x159;" horiz-adv-x="392" 
d="M49 -6l-8.00293 0.000976562c-2 9.33301 -3 23.833 -3 43.5s8.16699 70.5 24.5 152.5s24.5 128.667 24.5 140c0 21.333 -9 41.333 -27 60l-9 10l2 15c40 12.667 106.333 19 199 19c8.66699 -16.667 14 -36.334 16 -59.001c40 45.333 75 68 105 68
c23.333 0 41 -7.83301 53 -23.5s19 -41.5 21 -77.5c-3.33301 -4.66699 -8.16602 -10.5 -14.499 -17.5s-19.666 -16.667 -39.999 -29s-41.5 -19.833 -63.5 -22.5c-0.666992 0 -5.16699 7.33301 -13.5 22s-14.833 22 -19.5 22s-15.667 -6.66699 -33 -20l-11 -57
c-19.333 -95.333 -29 -159.333 -29 -192l1 -37c-29.333 -11.333 -87.666 -17 -174.999 -17zM199.997 504.001c-18.667 0 -56 55.666 -112 166.999l34 31c2.66699 -2 8 -6.66699 16 -14l16.5 -15l14.5 -13c6.66699 -6 12 -10.333 16 -13l15 -10
c12.667 -9.33301 22.667 -15.333 30 -18c42 13.333 95 42.333 159 87l28 -40c-30 -33.333 -69.667 -68.666 -119 -105.999s-82 -56 -98 -56z" />
    <glyph glyph-name="dotlessj" unicode="&#x237;" horiz-adv-x="298" 
d="M13 -224c-58 0 -109.665 23.333 -154.998 70l27 43c21.333 -12.667 43.666 -19 66.999 -19s43.333 15.5 60 46.5s33.667 95.333 51 193s26 169.834 26 216.501c0 10 -3.33301 21.5 -10 34.5s-13.334 23.5 -20.001 31.5l-10 12l2 16c48 12 118 18 210 18
c10 -11.333 15 -33.5 15 -66.5s-6 -87.833 -18 -164.5s-25.333 -143.334 -40 -200.001c-40.667 -154 -109 -231 -205 -231z" />
    <glyph glyph-name="circumflex" unicode="&#x2c6;" horiz-adv-x="583" 
d="M230.5 652.5c55 34.333 93.667 51.5 116 51.5s48.5 -20 78.5 -60s52.333 -75 67 -105l-42 -36c-60 39.333 -106.333 66 -139 80c-52 -15.333 -115.333 -42.666 -190 -81.999l-32 47c39.333 35.333 86.5 70.166 141.5 104.499z" />
    <glyph glyph-name="caron" unicode="&#x2c7;" horiz-adv-x="626" 
d="M386.5 555.5c-59.667 -33 -98.8311 -49.5 -117.498 -49.5s-44.334 19.167 -77.001 57.5s-56.334 69.833 -71.001 94.5l49 47c52 -36 96 -61.333 132 -76c72.667 23.333 136 49.333 190 78l37 -56c-35.333 -30.667 -82.833 -62.5 -142.5 -95.5z" />
    <glyph glyph-name="ring" unicode="&#x2da;" horiz-adv-x="458" 
d="M152 547.5c-20.667 21 -31 47.667 -31 80s10.333 58.666 31 78.999s50.334 30.5 89.001 30.5s68.334 -10.167 89.001 -30.5s31 -46.666 31 -78.999s-10.333 -59 -31 -80s-50.334 -31.5 -89.001 -31.5s-68.334 10.5 -89.001 31.5zM196 627c0 -12.667 4 -23 12 -31
s19 -12 33 -12c27.333 0 41 14.333 41 43s-13.667 43 -41 43c-14 0 -25 -4 -33 -12s-12 -18.333 -12 -31z" />
    <glyph glyph-name="tilde" unicode="&#x2dc;" horiz-adv-x="605" 
d="M390 528c-14 0 -43.0029 5.33203 -87.0029 15.999s-73.167 16 -87.5 16s-26.166 -3.16699 -35.499 -9.5s-18.666 -18.166 -27.999 -35.499l-52 12c9.33301 100.667 48 151 116 151c14.667 0 43.834 -5.33301 87.501 -16s73.167 -16 88.5 -16s26.833 2.5 34.5 7.5
s15.5 14.833 23.5 29.5l50 -10c-9.33301 -96.667 -46 -145 -110 -145z" />
    <glyph glyph-name="dotaccentcmb" unicode="&#x307;" horiz-adv-x="388" 
d="M141.5 748c-13.667 13.333 -20.5 31.167 -20.5 53.5s9.16699 41.333 27.5 57s40 23.5 65 23.5s44.167 -6.5 57.5 -19.5s20 -30.667 20 -53s-9 -41.5 -27 -57.5s-39.5 -24 -64.5 -24s-44.333 6.66699 -58 20z" />
    <glyph glyph-name="endash" unicode="&#x2013;" horiz-adv-x="583" 
d="M51 239c0 38 1 68.667 3 92h489c0 -19.333 -1 -50 -3 -92h-489z" />
    <glyph glyph-name="emdash" unicode="&#x2014;" horiz-adv-x="984" 
d="M61 239c0 25.333 1 56 3 92h880c0 -33.333 -1 -64 -3 -92h-880z" />
    <glyph glyph-name="quoteleft" unicode="&#x2018;" horiz-adv-x="301" 
d="M90 518c0 30 13.332 68.167 39.999 114.5s51 80.5 73 102.5l54 -29c-26 -40.667 -42.333 -79.667 -49 -117l72 -50c0 -25.333 -6.66699 -49.833 -20 -73.5s-30.666 -43.167 -51.999 -58.5c-78.667 12.667 -118 49.667 -118 111z" />
    <glyph glyph-name="quoteright" unicode="&#x2019;" horiz-adv-x="305" 
d="M291 624c0 -30 -13.332 -68.167 -39.999 -114.5s-51 -80.5 -73 -102.5l-54 29c26 40.667 42.333 79.667 49 117l-72 50c0 25.333 6.66699 49.833 20 73.5s30.666 43.167 51.999 58.5c78.667 -12.667 118 -49.667 118 -111z" />
    <glyph glyph-name="quotesinglbase" unicode="&#x201a;" horiz-adv-x="307" 
d="M254 45c0 -30 -13.332 -68.167 -39.999 -114.5s-51 -80.5 -73 -102.5l-54 29c26 40.667 42.333 79.667 49 117l-72 50c0 25.333 6.66699 49.833 20 73.5s30.666 43.167 51.999 58.5c78.667 -12.667 118 -49.667 118 -111z" />
    <glyph glyph-name="quotedblleft" unicode="&#x201c;" horiz-adv-x="515" 
d="M304 518c0 30 13.332 68.167 39.999 114.5s51 80.5 73 102.5l54 -29c-28 -43.333 -45 -82.333 -51 -117l74 -50c0 -25.333 -6.66699 -49.833 -20 -73.5s-30.666 -43.167 -51.999 -58.5c-78.667 12.667 -118 49.667 -118 111zM89.999 518c0 30 13.332 68.167 39.999 114.5
s51 80.5 73 102.5l54 -29c-28 -43.333 -45 -82.333 -51 -117l74 -50c0 -25.333 -6.66699 -49.833 -20 -73.5s-30.666 -43.167 -51.999 -58.5c-78.667 12.667 -118 49.667 -118 111z" />
    <glyph glyph-name="quotedblright" unicode="&#x201d;" horiz-adv-x="519" 
d="M291 624c0 -30 -13.332 -68.167 -39.999 -114.5s-51 -80.5 -73 -102.5l-54 29c26 40.667 42.333 79.667 49 117l-72 50c0 25.333 6.66699 49.833 20 73.5s30.666 43.167 51.999 58.5c78.667 -12.667 118 -49.667 118 -111zM505.001 624
c0 -30 -13.332 -68.167 -39.999 -114.5s-51 -80.5 -73 -102.5l-54 29c26 40.667 42.333 79.667 49 117l-72 50c0 25.333 6.66699 49.833 20 73.5s30.666 43.167 51.999 58.5c78.667 -12.667 118 -49.667 118 -111z" />
    <glyph glyph-name="quotedblbase" unicode="&#x201e;" horiz-adv-x="520" 
d="M254 49c0 -30 -13.332 -68.167 -39.999 -114.5s-51 -80.5 -73 -102.5l-54 29c26 40.667 42.333 79.667 49 117l-72 50c0 25.333 6.66699 49.833 20 73.5s30.666 43.167 51.999 58.5c78.667 -12.667 118 -49.667 118 -111zM468.001 49
c0 -30 -13.332 -68.167 -39.999 -114.5s-51 -80.5 -73 -102.5l-54 29c26 40.667 42.333 79.667 49 117l-72 50c0 25.333 6.66699 49.833 20 73.5s30.666 43.167 51.999 58.5c78.667 -12.667 118 -49.667 118 -111z" />
    <glyph glyph-name="bullet" unicode="&#x2022;" horiz-adv-x="452" 
d="M134 222c-24.667 26 -37 59.333 -37 100s14 74.667 42 102s62.833 41 104.5 41s74.667 -12.5 99 -37.5s36.5 -57.333 36.5 -97s-14.167 -74.167 -42.5 -103.5s-63 -44 -104 -44s-73.833 13 -98.5 39z" />
    <glyph glyph-name="guilsinglleft" unicode="&#x2039;" horiz-adv-x="347" 
d="M139 194.5c-46.667 47 -70 78.667 -70 95s22.333 45.833 67 88.5s92 84 142 124l46 -41c-52 -74 -87 -129.333 -105 -166c16.667 -46 42 -99 76 -159l-45 -41c-27.333 19.333 -64.333 52.5 -111 99.5z" />
    <glyph glyph-name="guilsinglright" unicode="&#x203a;" horiz-adv-x="358" 
d="M239 400.5c46.667 -47 70 -78.667 70 -95s-22.333 -45.833 -67 -88.5s-92 -84 -142 -124l-46 41c52 74 87 129.333 105 166c-16.667 46 -42 99 -76 159l45 41c27.333 -19.333 64.333 -52.5 111 -99.5z" />
    <glyph glyph-name="Euro" unicode="&#x20ac;" horiz-adv-x="620" 
d="M330 -12c-64 0 -117.666 21.8301 -160.999 65.4971s-68.666 103.5 -75.999 179.5c-40 -3.33301 -67.333 -6.33301 -82 -9c-1.33301 16.667 -2 31.5 -2 44.5s1 26.833 3 41.5h80c0.666992 10.667 2.33398 28.334 5.00098 53.001
c-18.667 -1.33301 -40.334 -3.66602 -65.001 -6.99902c-2 9.33301 -3 21 -3 35s1.33301 31 4 51h83c25.333 80 66.666 144.667 123.999 194s120.833 74 190.5 74s125.167 -13 166.5 -39s62 -59.167 62 -99.5s-11.333 -72.5 -34 -96.5c-26.667 0 -57.334 5.33301 -92.001 16
s-60.667 23.667 -78 39l19 97c-12 6.66699 -26.667 10 -44 10c-26 0 -50.833 -18 -74.5 -54s-41.5 -83 -53.5 -141h214c-1.33301 -19.333 -6 -40.666 -14 -63.999l-5 -13c-36.667 3.33301 -71.667 5 -105 5s-67.333 -0.666992 -102 -2c-2 -19.333 -3 -38.666 -3 -57.999h212
c-1.33301 -14.667 -7.33301 -36 -18 -64l-5 -13c-35.333 3.33301 -67 5 -95 5s-48.5 -0.166992 -61.5 -0.5s-22.833 -0.5 -29.5 -0.5c6 -46.667 18.667 -81.334 38 -104.001s43 -34 71 -34c46.667 0 98 24.667 154 74l47 -47c-6.66699 -10 -20.667 -24.5 -42 -43.5
s-41.833 -34.5 -61.5 -46.5s-44.667 -23 -75 -33s-60.833 -15 -91.5 -15z" />
    <glyph glyph-name=".null" horiz-adv-x="0" 
 />
    <glyph glyph-name="nonmarkingreturn" horiz-adv-x="333" 
 />
    </font>
</defs>
</svg>
