<?xml version="1.0" encoding="utf-8"?><svg xmlns="http://www.w3.org/2000/svg" xmlns:xlink="http://www.w3.org/1999/xlink"><symbol viewBox="0 0 33 31" id="consultancy" xmlns="http://www.w3.org/2000/svg"><text dominant-baseline="text-before-edge" font-family="'FontAwesome','FontAwesome'" font-size="54.42" font-style="none" font-weight="400"><tspan letter-spacing="2.72"></tspan></text></symbol><symbol class="bsvg-inline--fa bfa-download bfa-w-16" viewBox="0 0 512 512" id="download" xmlns="http://www.w3.org/2000/svg"><path d="M216 0h80c13.3 0 24 10.7 24 24v168h87.7c17.8 0 26.7 21.5 14.1 34.1L269.7 378.3c-7.5 7.5-19.8 7.5-27.3 0L90.1 226.1c-12.6-12.6-3.7-34.1 14.1-34.1H192V24c0-13.3 10.7-24 24-24zm296 376v112c0 13.3-10.7 24-24 24H24c-13.3 0-24-10.7-24-24V376c0-13.3 10.7-24 24-24h146.7l49 49c20.1 20.1 52.5 20.1 72.6 0l49-49H488c13.3 0 24 10.7 24 24zm-124 88c0-11-9-20-20-20s-20 9-20 20 9 20 20 20 20-9 20-20zm64 0c0-11-9-20-20-20s-20 9-20 20 9 20 20 20 20-9 20-20z"/></symbol><symbol viewBox="0 0 31 27" id="maketing" xmlns="http://www.w3.org/2000/svg"><text dominant-baseline="text-before-edge" font-family="'FontAwesome','FontAwesome'" font-size="54.42" font-style="none" font-weight="400"><tspan letter-spacing="2.72"></tspan></text></symbol><symbol viewBox="0 0 26 27" id="reaserch" xmlns="http://www.w3.org/2000/svg"><text dominant-baseline="text-before-edge" font-family="'FontAwesome','FontAwesome'" font-size="54.42" font-style="none" font-weight="400"><tspan letter-spacing="2.72"></tspan></text></symbol></svg>