<?xml version="1.0" standalone="no"?>
<!DOCTYPE svg PUBLIC "-//W3C//DTD SVG 1.1//EN" "http://www.w3.org/Graphics/SVG/1.1/DTD/svg11.dtd" >
<svg>
<metadata>
Created by FontForge 20090914 at Sat Apr  4 17:58:21 2020
 By www-data
Copyright (c) 2012, Soytutype (contact@soytutype.com.ar|soytutype@gmail.com), with reserved fontname 'Oleo'
</metadata>
<defs>
<font id="OleoScript-Regular" horiz-adv-x="576" >
  <font-face 
    font-family="Oleo Script"
    font-weight="400"
    font-stretch="normal"
    units-per-em="1000"
    panose-1="2 0 0 0 0 0 0 0 0 0"
    ascent="800"
    descent="-200"
    x-height="438.002"
    cap-height="710.001"
    bbox="-156 -279 958 937.998"
    underline-thickness="50"
    underline-position="-50"
    unicode-range="U+0020-U+20AC"
  />
<missing-glyph horiz-adv-x="500" 
 />
    <glyph glyph-name=".notdef" horiz-adv-x="500" 
 />
    <glyph glyph-name="space" unicode=" " horiz-adv-x="200" 
 />
    <glyph glyph-name="exclam" unicode="!" horiz-adv-x="298" 
d="M288 664c0 -66 -21.667 -169.668 -65 -311.001l-18.5 -61.5l-20.5 -68.5c-18 -6 -33.833 -9 -47.5 -9s-25.834 0.666992 -36.501 2c24 144.667 36 272.334 36 383.001l-6 84c56.667 18 107.334 27 152.001 27c4 -6 6 -21.333 6 -46zM31 59.999
c0 22 9.16602 41.334 27.499 58.001s39.5 25 63.5 25s42.667 -6.66699 56 -20s20 -30.833 20 -52.5s-9.5 -40.834 -28.5 -57.501s-40.167 -25 -63.5 -25s-41.666 6.5 -54.999 19.5s-20 30.5 -20 52.5z" />
    <glyph glyph-name="quotedbl" unicode="&#x22;" horiz-adv-x="376" 
d="M138 732c52 0 78 -19.167 78 -57.5s-27.667 -119.5 -83 -243.5l-44 7l19 292c13.333 1.33301 23.333 2 30 2zM298 732c52 0 78 -19.167 78 -57.5s-27.667 -119.5 -83 -243.5l-44 7l19 292c13.333 1.33301 23.333 2 30 2z" />
    <glyph glyph-name="numbersign" unicode="#" horiz-adv-x="593" 
d="M320 -12l-8.99805 0.00488281c0.666992 21.333 9 80.666 25 177.999c-21.333 1.33301 -37.666 2 -48.999 2h-52c-11.333 -60.667 -19 -114.667 -23 -162c-24 -12 -56.333 -18 -97 -18h-10c0.666992 28 10.334 87 29.001 177c-51.333 -2.66699 -85 -6 -101 -10
c-6.66699 21.333 -11 51.666 -13 90.999c31.333 3.33301 67.666 5 108.999 5h23c10 46 17.667 84.333 23 115c-56 -2.66699 -92.667 -6 -110 -10c-8.66699 21.333 -15 51.666 -19 90.999c33.333 3.33301 70.666 5 111.999 5h32c8.66699 52 13 87.167 13 105.5
s-0.666992 30.166 -2 35.499c41.333 16 76.333 24 105 24c2.66699 -8.66699 4 -21.667 4 -39s-6.33301 -60 -19 -128l90 -4c8 58 12 95.667 12 113s-0.666992 28.666 -2 33.999c42 16 77 24 105 24c2.66699 -8.66699 4 -22.667 4 -42s-5.66699 -64 -17 -134h7
c36.667 0 69 2 97 6c1.33301 -8.66699 2 -21 2 -37c0 -36.667 -13.333 -55 -40 -55c-18.667 0 -45.334 1.33301 -80.001 4c-2 -12.667 -5.33301 -32.167 -10 -58.5s-8 -46.5 -10 -60.5h12c36.667 0 69 2 97 6c1.33301 -13.333 2 -25.666 2 -36.999
c0 -36.667 -13.333 -55 -40 -55c-20 0 -48 1.33301 -84 4c-10 -66.667 -16 -117.334 -18 -152.001c-24.667 -12 -57.334 -18 -98.001 -18zM316.002 369.005h-41c-2 -8 -5.83301 -26 -11.5 -54l-13.5 -66l100 -4l20 122c-24 1.33301 -42 2 -54 2z" />
    <glyph glyph-name="dollar" unicode="$" horiz-adv-x="477" 
d="M436 196c0 -57.333 -19.834 -103.999 -59.501 -139.999s-89.167 -57.667 -148.5 -65c-6.66699 -50 -10 -86.333 -10 -109c-18 0 -39.333 4.33301 -64 13l17 94c-42.667 2.66699 -77.667 15.167 -105 37.5s-42.666 41.5 -45.999 57.5c7.33301 22 23 46.667 47 74
s45.667 44 65 50c34 -22 65.667 -71 95 -147c19.333 0.666992 35 6.83398 47 18.501s18 29.667 18 54s-10.167 55 -30.5 92s-42.5 71.667 -66.5 104s-46.167 68.666 -66.5 108.999s-30.5 76.166 -30.5 107.499c0 50.667 20.667 90.667 62 120s91 44 149 44h6
c4.66699 36 7.66699 66.667 9 92c18 0 39.333 -4.33301 64 -13l-16 -88c27.333 -8.66699 48.833 -22.5 64.5 -41.5s23.5 -40.333 23.5 -64s-10.667 -50.167 -32 -79.5s-42.666 -52.666 -63.999 -69.999l-32 -26c8 -10.667 17.667 -24.334 29 -41.001s26.666 -45 45.999 -85
s29 -72.667 29 -98zM383.999 555.501c7.33301 12.333 11 25.3311 11 38.998s-8 25.167 -24 34.5s-35.167 14 -57.5 14s-41 -5.16699 -56 -15.5s-22.5 -22.666 -22.5 -36.999s4.83301 -31 14.5 -50s19.167 -34.833 28.5 -47.5l15 -19c6.66699 3.33301 17.167 10.333 31.5 21
s26 20.334 35 29.001s17.167 19.167 24.5 31.5z" />
    <glyph glyph-name="percent" unicode="%" horiz-adv-x="813" 
d="M326.5 696c19.667 -26 29.5 -58.834 29.5 -98.501s-6.33301 -77.667 -19 -114s-34.5 -67.833 -65.5 -94.5s-67 -40 -108 -40s-71.667 12.833 -92 38.5s-30.5 59.5 -30.5 101.5c0 72.667 18.167 131.834 54.5 177.501s83.166 68.5 140.499 68.5
c40.667 0 70.834 -13 90.501 -39zM175 394.999c24 0 43 33.001 57 99.001c8 37.333 12 79.166 12 125.499s-8.66699 69.5 -26 69.5c-22 0 -40 -33 -54 -99c-7.33301 -38 -11 -80 -11 -126s7.33301 -69 22 -69zM776.5 333c19.667 -26 29.5 -58.834 29.5 -98.501
s-6.33301 -77.667 -19 -114s-34.5 -67.833 -65.5 -94.5s-67 -40 -108 -40s-71.667 12.833 -92 38.5s-30.5 59.5 -30.5 101.5c0 72.667 18.167 131.834 54.5 177.501s83.166 68.5 140.499 68.5c40.667 0 70.834 -13 90.501 -39zM625 31.999c24 0 43 33.001 57 99.001
c8 37.333 12 79.166 12 125.499s-8.66699 69.5 -26 69.5c-22 0 -40 -33.333 -54 -100c-7.33301 -37.333 -11 -79 -11 -125s7.33301 -69 22 -69zM643 701c-31.333 -71.333 -69.5 -148.832 -114.5 -232.499s-85.833 -163.334 -122.5 -239.001s-69 -155.834 -97 -240.501
c-11.333 0.666992 -25.666 4.33398 -42.999 11.001c-18.667 6.66699 -34.667 15.667 -48 27c31.333 88.667 84.666 206.667 159.999 354s130 265 164 353c50 -10 83.667 -21 101 -33z" />
    <glyph glyph-name="ampersand" unicode="&#x26;" horiz-adv-x="727" 
d="M655 82c8 0 22 6 42 18l10 6l25 -37c-54 -52 -106 -78 -156 -78s-93 24.667 -129 74c-59.333 -50.667 -126 -76 -200 -76c-58 0 -104.167 14.833 -138.5 44.5s-51.5 70.5 -51.5 122.5c0 95.333 62.333 176.333 187 243c-28.667 55.333 -43 102.666 -43 141.999
c0 53.333 19.333 94.833 58 124.5s84.334 44.5 137.001 44.5s91.5 -11.167 116.5 -33.5s37.5 -48.5 37.5 -78.5c0 -56 -49.333 -118 -148 -186c30.667 -58.667 65.334 -117 104.001 -175c15.333 20.667 32.166 47.5 50.499 80.5s29.166 52.167 32.499 57.5
c36.667 -5.33301 60 -16.666 70 -33.999c-7.33301 -9.33301 -23.5 -33 -48.5 -71s-45.5 -67 -61.5 -87c52.667 -67.333 88 -101 106 -101zM199 180c0 -36.667 8.33398 -64.501 25.001 -83.501s37 -28.5 61 -28.5s45 4.33301 63 13s31.333 17.334 40 26.001l13 13
c-60.667 96 -103.334 169.667 -128.001 221c-49.333 -39.333 -74 -93 -74 -161zM456.001 557.999c4.66699 10.667 7 22.499 7 35.499s-5.5 24.5 -16.5 34.5s-26.5 15 -46.5 15s-37.833 -5.5 -53.5 -16.5s-23.5 -29 -23.5 -54s14.333 -59.5 43 -103.5l26 18
c8 5.33301 16.333 12 25 20s16.167 15.833 22.5 23.5s11.833 16.834 16.5 27.501z" />
    <glyph glyph-name="quotesingle" unicode="'" horiz-adv-x="216" 
d="M138 732c52 0 78 -19.167 78 -57.5s-27.667 -119.5 -83 -243.5l-44 7l19 292c13.333 1.33301 23.333 2 30 2z" />
    <glyph glyph-name="parenleft" unicode="(" horiz-adv-x="345" 
d="M197 81c0 -69.333 3.66699 -121.666 11 -156.999s21.333 -71.333 42 -108l-45 -44c-11.333 9.33301 -25.166 26 -41.499 50s-30 49.333 -41 76s-21 63.5 -30 110.5s-13.5 103.833 -13.5 170.5s9.16699 134.167 27.5 202.5s40.166 123.166 65.499 164.499
s51.666 77 78.999 107s49.333 51 66 63s26.334 18 29.001 18l37 -50c-124 -105.333 -186 -306.333 -186 -603z" />
    <glyph glyph-name="parenright" unicode=")" horiz-adv-x="373" 
d="M192 422c0 72.667 -3.83301 125.999 -11.5 159.999s-21.5 70 -41.5 108l45 44c11.333 -9.33301 25.166 -26 41.499 -50s30 -49.333 41 -76s21 -63.5 30 -110.5s13.5 -103.833 13.5 -170.5s-9.16699 -134.167 -27.5 -202.5s-40.166 -123.166 -65.499 -164.499
s-51.666 -77 -78.999 -107s-49.333 -51 -66 -63s-26.334 -18 -29.001 -18l-37 50c124 105.333 186 305.333 186 600z" />
    <glyph glyph-name="asterisk" unicode="*" horiz-adv-x="383" 
d="M266 529c20.667 -16.667 38.165 -25.001 52.498 -25.001s29.5 2.66699 45.5 8c8 -4.66699 15 -13.5 21 -26.5s9 -24 9 -33s-0.333008 -14.833 -1 -17.5c-17.333 -19.333 -38.333 -29 -63 -29c-5.33301 0 -11.666 1.66699 -18.999 5s-20.5 15.666 -39.5 36.999
s-34.167 42.666 -45.5 63.999c-11.333 -20.667 -17 -36 -17 -46c0 -16 4.33301 -33 13 -51l5 -9c-6 -10 -16.167 -19.667 -30.5 -29s-27.833 -14 -40.5 -14c-11.333 6.66699 -21 16.334 -29 29.001s-12 25.5 -12 38.5s9 30.333 27 52s37.667 41.167 59 58.5
c-10 2 -20.333 3 -31 3s-18.667 -0.666992 -24 -2s-12.166 -4.66602 -20.499 -9.99902s-14.833 -10.666 -19.5 -15.999l-7 -7c-11.333 2 -24 8.33301 -38 19s-21.667 22.334 -23 35.001c2.66699 14 10.167 27.5 22.5 40.5s24 19.5 35 19.5s28.333 -4.66699 52 -14
s45.5 -20.333 65.5 -33c-1.33301 25.333 -3.66602 41.333 -6.99902 48c-6 11.333 -18 22.666 -36 33.999l-9 5c0 16 3.5 31.167 10.5 45.5s15.5 23.5 25.5 27.5c14.667 0 29.5 -4 44.5 -12s24.5 -17.333 28.5 -28c1.33301 -5.33301 2 -11.666 2 -18.999
c0 -38.667 -6 -75 -18 -109c21.333 10.667 34.666 19.334 39.999 26.001c9.33301 11.333 15.333 27.333 18 48l2 10c12 4 26.5 6 43.5 6s29.5 -4 37.5 -12c5.33301 -10.667 8 -24.334 8 -41.001s-4.33301 -29.334 -13 -38.001s-25.5 -16.667 -50.5 -24s-49.5 -12 -73.5 -14z
" />
    <glyph glyph-name="plus" unicode="+" horiz-adv-x="503" 
d="M295 238l0.000976562 -143c-13.333 -6 -41 -9 -83 -9h-9v152h-139c0 39.333 1.33301 68.666 4 87.999h135v139c21.333 5.33301 51.666 8 90.999 8v-147h148c0 -53.333 -1 -82.666 -3 -87.999h-144z" />
    <glyph glyph-name="comma" unicode="," horiz-adv-x="235" 
d="M24 16c0 48 18.667 92.999 56 134.999c34.667 0 63.334 -10.167 86.001 -30.5s34 -44.166 34 -71.499c0 -68 -40.667 -148.333 -122 -241l-42 27c41.333 62.667 63.666 107 66.999 133z" />
    <glyph glyph-name="hyphen" unicode="-" horiz-adv-x="369" 
d="M54 238c0 41.333 1 69.667 3 85h275c0 -46 -1 -74.333 -3 -85h-275z" />
    <glyph glyph-name="period" unicode="." horiz-adv-x="248" 
d="M62 9c-12.667 14 -19.001 32.667 -19.001 56s8.66699 43.5 26 60.5s37.833 25.5 61.5 25.5s41.834 -6.83301 54.501 -20.5s19 -32 19 -55s-8.83301 -43.333 -26.5 -61s-38.167 -26.5 -61.5 -26.5s-41.333 7 -54 21z" />
    <glyph glyph-name="slash" unicode="/" horiz-adv-x="361" 
d="M381 715c-110 -279.333 -213 -554.333 -309 -825c-26 0 -51.667 12.667 -77 38l304 820c30 -4.66699 57.333 -15.667 82 -33z" />
    <glyph glyph-name="zero" unicode="0" horiz-adv-x="570" 
d="M565 452c0 -112 -24.999 -214.668 -74.999 -308.001c-24.667 -46.667 -58.167 -84.334 -100.5 -113.001s-90.166 -43 -143.499 -43c-64.667 0 -113.334 23.833 -146.001 71.5s-49 110.834 -49 189.501c0 136 29.667 246.833 89 332.5s135.666 128.5 228.999 128.5
c66.667 0 116 -24.167 148 -72.5s48 -110.166 48 -185.499zM255.001 54.999c30 0 56.167 19.499 78.5 58.499s38.5 86.5 48.5 142.5c19.333 109.333 29 191.5 29 246.5s-4.5 92 -13.5 111s-25 28.5 -48 28.5s-44.333 -15.667 -64 -47s-35.167 -71.666 -46.5 -120.999
c-22.667 -97.333 -34 -196 -34 -296c0 -48 4.33301 -80.5 13 -97.5s21 -25.5 37 -25.5z" />
    <glyph glyph-name="one" unicode="1" horiz-adv-x="373" 
d="M100 -3h-10c1.33301 48.667 20.333 152.834 57 312.501s55 255.167 55 286.5c0 15.333 -0.333008 24.666 -1 27.999c-36.667 -20 -76.667 -51.667 -120 -95c-8 4 -16.167 11.167 -24.5 21.5s-14.5 19.5 -18.5 27.5l-6 12l167 107c49.333 8.66699 100 13 152 13
c8 -13.333 12 -34.5 12 -63.5s-8.33301 -79.667 -25 -152s-34 -153 -52 -242s-28 -167.5 -30 -235.5c-24 -13.333 -76 -20 -156 -20z" />
    <glyph glyph-name="two" unicode="2" horiz-adv-x="495" 
d="M372 -18c-23.333 0 -58.3311 13.499 -104.998 40.499s-85.334 44.833 -116.001 53.5c-22.667 -24 -44.5 -43.5 -65.5 -58.5s-35.167 -22.5 -42.5 -22.5s-20.5 11.833 -39.5 35.5s-28.5 41.667 -28.5 54s11.167 30 33.5 53s48.166 34.5 77.499 34.5c18 0 35.667 -2 53 -6
c46.667 37.333 91 91.5 133 162.5s63 133.167 63 186.5c0 30 -9 53.5 -27 70.5s-39.833 25.5 -65.5 25.5s-50.667 -8.33301 -75 -25s-45.166 -39.667 -62.499 -69l-46 20c13.333 42 43.5 81.333 90.5 118s99.333 55 157 55s102.667 -15.667 135 -47
s48.5 -70.666 48.5 -117.999c0 -34 -9.83301 -71.167 -29.5 -111.5s-44.834 -78.833 -75.501 -115.5c-57.333 -67.333 -114.666 -124 -171.999 -170c83.333 -22.667 147.666 -34 192.999 -34c12.667 0 22 3.5 28 10.5s15.333 23.167 28 48.5l33 -7
c-6.66699 -122.667 -47.667 -184 -123 -184z" />
    <glyph glyph-name="three" unicode="3" horiz-adv-x="477" 
d="M150 662.5c40.667 31.667 87.834 47.498 141.501 47.498s97 -14.5 130 -43.5s49.5 -64.167 49.5 -105.5s-15.333 -77.833 -46 -109.5s-69 -53.5 -115 -65.5c45.333 -8 82.5 -27.333 111.5 -58s43.5 -70.334 43.5 -119.001c0 -61.333 -25.667 -113.5 -77 -156.5
s-111.333 -64.5 -180 -64.5c-74.667 0 -134 22 -178 66c-23.333 22.667 -35 49.667 -35 81c0 10 2.66699 22.167 8 36.5s12 25.5 20 33.5c6.66699 1.33301 14 2 22 2c47.333 0 83.666 -12.667 108.999 -38l-14 -106c9.33301 -7.33301 25 -11 47 -11
c33.333 0 62.166 17.5 86.499 52.5s36.5 76.5 36.5 124.5s-10.667 80.833 -32 98.5s-56.666 26.5 -105.999 26.5l-23 -1l6 51c32.667 3.33301 57.167 8.83301 73.5 16.5s31.5 16.834 45.5 27.501c31.333 22.667 47 56.334 47 101.001c0 28 -7.5 48.833 -22.5 62.5
s-32.833 20.5 -53.5 20.5c-54.667 0 -98.667 -32.333 -132 -97l-44 19c13.333 40.667 40.333 76.834 81 108.501z" />
    <glyph glyph-name="four" unicode="4" horiz-adv-x="548" 
d="M510 158c-14 -9.33301 -30.667 -14.002 -50 -14.002s-36.666 1.33301 -51.999 4c-6.66699 -50 -10 -94 -10 -132c-26 -13.333 -78.333 -20 -157 -20h-10c0 29.333 9.33301 89.666 28 180.999c-42 6.66699 -79.5 10 -112.5 10s-62.5 -4.33301 -88.5 -13l-39 -14h-1
c-6.66699 0 -15.167 7.33301 -25.5 22s-15.833 28.334 -16.5 41.001c0 4.66699 6 13 18 25l318 445c42.667 9.33301 102 15 178 17c8.66699 -13.333 13 -32.166 13 -56.499s-3.83301 -55.833 -11.5 -94.5s-18.5 -88 -32.5 -148s-24.667 -109.333 -32 -148
c25.333 -1.33301 45.166 -2 59.499 -2s24.833 5 31.5 15l16 27l36 -12c-10 -69.333 -30 -113.666 -60 -132.999zM281 279.998c42.667 187.333 64.3311 300.667 64.998 340c-61.333 -70.667 -136.666 -180 -225.999 -328c44.667 -0.666992 98.334 -4.66699 161.001 -12z" />
    <glyph glyph-name="five" unicode="5" horiz-adv-x="481" 
d="M219 695l215 9.00098c25.333 0 46.666 -4.33301 63.999 -13c4 -9.33301 6 -22.333 6 -39c0 -30.667 -6 -61 -18 -91l-5 -14c-31.333 22 -69.666 33 -114.999 33c-80.667 0 -138 -2 -172 -6c-8 -30.667 -15.667 -68 -23 -112c80 -2.66699 147.333 -19.334 202 -50.001
c29.333 -16 52.333 -39 69 -69s25 -65.667 25 -107c0 -66.667 -25.333 -124.667 -76 -174s-111 -74 -181 -74c-50.667 0 -97 13.5 -139 40.5s-63 61.833 -63 104.5c0 31.333 8 56 24 74c4 0.666992 9.66699 1 17 1c47.333 0 84.333 -14 111 -42l-7 -106
c10.667 -7.33301 24.334 -11 41.001 -11c36 0 64.833 19 86.5 57s32.5 86.167 32.5 144.5s-15.333 99.666 -46 123.999s-77 36.5 -139 36.5h-17l-20 27c6.66699 22.667 16 66.334 28 131.001s22 108 30 130c19.333 -2.66699 42.666 -4 69.999 -4z" />
    <glyph glyph-name="six" unicode="6" horiz-adv-x="547" 
d="M367 648c-38.667 0 -70.832 -24.499 -96.499 -73.499s-44.167 -113.5 -55.5 -193.5c40.667 26 86.667 39 138 39s90.833 -16.833 118.5 -50.5s41.5 -80.667 41.5 -141s-24 -115.5 -72 -165.5s-107.667 -75 -179 -75c-140.667 0 -211 88 -211 264c0 82 13.5 158 40.5 228
s65.167 125.833 114.5 167.5s104.333 62.5 165 62.5c45.333 0 85.666 -11.5 120.999 -34.5s53 -56.167 53 -99.5c0 -30.667 -8 -54.334 -24 -71.001c-5.33301 -0.666992 -12.666 -1 -21.999 -1c-48.667 0 -85 13 -109 39l15 94c-10.667 7.33301 -23.334 11 -38.001 11z
M293.002 350.001c-24 0 -52.332 -11.333 -84.999 -34c-2.66699 -32.667 -4 -74.167 -4 -124.5s4.66699 -86.5 14 -108.5s25 -33 47 -33c31.333 0 54.666 19 69.999 57s23 80.333 23 127c0 77.333 -21.667 116 -65 116z" />
    <glyph glyph-name="seven" unicode="7" horiz-adv-x="418" 
d="M171 583c-33.333 0 -70.6689 -13.668 -112.002 -41.001c-14.667 34 -22 70.667 -22 110c0 14.667 2 28 6 40c40 10 75 15 105 15s68.833 -2.16699 116.5 -6.5s85.334 -6.5 113.001 -6.5s57.834 2.66699 90.501 8l15 -35c-72 -107.333 -128.5 -217.833 -169.5 -331.5
s-66.167 -220.167 -75.5 -319.5c-6 -4.66699 -23.833 -9.16699 -53.5 -13.5s-56.167 -6.5 -79.5 -6.5h-21c6.66699 56 19.334 112 38.001 168c31.333 96.667 100.666 233.334 207.999 410.001c-51.333 6 -104.333 9 -159 9z" />
    <glyph glyph-name="eight" unicode="8" horiz-adv-x="500" 
d="M380 46c-48.667 -38 -101.502 -57 -158.502 -57s-101.5 14 -133.5 42s-48 64.333 -48 109c0 75.333 53.333 149 160 221c-52 80.667 -78 144.5 -78 191.5s21.5 85 64.5 114s92 43.5 147 43.5s96.5 -12 124.5 -36s42 -53.333 42 -88c0 -58 -43.333 -125.333 -130 -202
c4.66699 -8 13.334 -21.333 26.001 -40s22.334 -34 29.001 -46c18.667 -32 28 -66.333 28 -103c0 -61.333 -24.333 -111 -73 -149zM126.998 145c0 -27.333 8.66602 -49.001 25.999 -65.001s39.833 -24 67.5 -24s51.834 6.83301 72.501 20.5s31 31.834 31 54.501
c0 26 -14.333 61.667 -43 107l-44 67c-73.333 -50 -110 -103.333 -110 -160zM415.997 584.999c0 38.667 -22.333 57.9971 -67 57.9971c-24 0 -44.5 -5.16699 -61.5 -15.5s-25.5 -24.666 -25.5 -42.999s8.83301 -43.166 26.5 -74.499s32.5 -54.666 44.5 -69.999
c20 16 38.833 38.833 56.5 68.5s26.5 55.167 26.5 76.5z" />
    <glyph glyph-name="nine" unicode="9" horiz-adv-x="528" 
d="M68 134c37.333 -44.667 77.333 -67 120 -67c88 0 143.667 78.667 167 236c-35.333 -18.667 -74.666 -28 -117.999 -28c-56 0 -99.833 17.167 -131.5 51.5s-47.5 78.833 -47.5 133.5c0 70.667 24.667 130 74 178s109.166 72 179.499 72s123.166 -21.833 158.499 -65.5
s53 -109 53 -196s-11.333 -164 -34 -231s-57.667 -122 -105 -165s-102.666 -64.5 -165.999 -64.5c-49.333 0 -90 11.5 -122 34.5s-55.667 48.5 -71 76.5zM285 345c27.333 0 53 7.33301 77 22c3.33301 38 5 80.5 5 127.5s-4.16699 84.167 -12.5 111.5s-26.333 41 -54 41
s-49 -18.5 -64 -55.5s-22.5 -80.167 -22.5 -129.5c0 -78 23.667 -117 71 -117z" />
    <glyph glyph-name="colon" unicode=":" horiz-adv-x="318" 
d="M84 9c-12.667 14 -19.001 32.667 -19.001 56s8.66699 43.5 26 60.5s37.833 25.5 61.5 25.5s41.834 -6.83301 54.501 -20.5s19 -32 19 -55s-8.83301 -43.333 -26.5 -61s-38.167 -26.5 -61.5 -26.5s-41.333 7 -54 21zM120.999 300c-12.667 14 -19.001 32.667 -19.001 56
s8.66699 43.5 26 60.5s37.833 25.5 61.5 25.5s41.834 -6.83301 54.501 -20.5s19 -32 19 -55s-8.83301 -43.333 -26.5 -61s-38.167 -26.5 -61.5 -26.5s-41.333 7 -54 21z" />
    <glyph glyph-name="semicolon" unicode=";" horiz-adv-x="320" 
d="M121 300c-12.667 14 -19.001 32.667 -19.001 56s8.66699 43.5 26 60.5s37.833 25.5 61.5 25.5s41.834 -6.83301 54.501 -20.5s19 -32 19 -55s-8.83301 -43.333 -26.5 -61s-38.167 -26.5 -61.5 -26.5s-41.333 7 -54 21zM56.999 16c0 48 18.667 92.999 56 134.999
c34.667 0 63.334 -10.167 86.001 -30.5s34 -44.166 34 -71.499c0 -68 -40.667 -148.333 -122 -241l-42 27c41.333 62.667 63.666 107 66.999 133z" />
    <glyph glyph-name="less" unicode="&#x3c;" horiz-adv-x="421" 
d="M154 283l237 -88.999c0 -42 -3 -71.667 -9 -89l-342 139v75l342 156c6 -16.667 9 -46.334 9 -89.001z" />
    <glyph glyph-name="equal" unicode="=" horiz-adv-x="532" 
d="M85 159c0 41.333 3.33301 71.333 10 90h370c0 -44.667 -2 -74.667 -6 -90h-374zM85 315c0 39.333 3.66699 69.333 11 90h369c0 -34 -2 -64 -6 -90h-374z" />
    <glyph glyph-name="greater" unicode="&#x3e;" horiz-adv-x="405" 
d="M55 194l237 89l-237 103c0 34 4.33301 63 13 87l338 -154v-75l-342 -139c-6 17.333 -9 47 -9 89z" />
    <glyph glyph-name="question" unicode="?" horiz-adv-x="422" 
d="M415 542c0 -25.333 -7.66699 -51.499 -23 -78.499s-32 -50.167 -50 -69.5c-49.333 -50.667 -74 -87 -74 -109c0 -6.66699 5.5 -13.167 16.5 -19.5s22.833 -9.83301 35.5 -10.5c-6 -24 -12 -40.333 -18 -49c-48 0 -87.5 10.167 -118.5 30.5s-46.5 49.166 -46.5 86.499
c0 22.667 13.667 53.167 41 91.5l82 113.5c27.333 37.333 41 67.666 41 90.999s-11.667 37 -35 41c-17.333 -45.333 -45.333 -85.333 -84 -120c-16 4.66699 -36.667 18 -62 40s-38 37.667 -38 47c0 17.333 16.333 35.5 49 54.5s70.667 28.5 114 28.5s82.5 -13.667 117.5 -41
s52.5 -69.666 52.5 -126.999zM110 60.001c0 22 9.16602 41.334 27.499 58.001s39.5 25 63.5 25s42.667 -6.66699 56 -20s20 -30.833 20 -52.5s-9.5 -40.834 -28.5 -57.501s-40.167 -25 -63.5 -25s-41.666 6.5 -54.999 19.5s-20 30.5 -20 52.5z" />
    <glyph glyph-name="at" unicode="@" horiz-adv-x="774" 
d="M362 -12c-102.667 0 -180.669 30.167 -234.002 90.5s-80 135.833 -80 226.5c0 53.333 9.5 104.333 28.5 153s45.5 91.667 79.5 129s76.667 67.166 128 89.499s107 33.5 167 33.5c96 0 171.333 -25.667 226 -77s82 -118 82 -200c0 -45.333 -8.66699 -86.833 -26 -124.5
s-38.666 -67.334 -63.999 -89.001s-50 -38.334 -74 -50.001s-44.333 -17.5 -61 -17.5c-28.667 0 -47.667 18 -57 54c-43.333 -36 -82.166 -54 -116.499 -54s-62 11.667 -83 35s-31.5 68 -31.5 134s17.333 121.833 52 167.5s79.334 68.5 134.001 68.5
c20.667 0 39.167 -2.33301 55.5 -7l50 -15c17 -5.33301 31.833 -9.66602 44.5 -12.999c-24 -94 -36 -183.667 -36 -269c0 -12 0.833008 -20.333 2.5 -25s5.5 -7 11.5 -7c22.667 0 47.167 20.833 73.5 62.5s39.5 91.834 39.5 150.501s-17.333 108.834 -52 150.501
s-91 62.5 -169 62.5c-92.667 0 -166.834 -32.5 -222.501 -97.5s-83.5 -138 -83.5 -219s19 -147 57 -198s94.667 -76.5 170 -76.5c38 0 72 7.33301 102 22c9.33301 -14.667 16 -32.667 20 -54l2 -10c-44.667 -17.333 -89.667 -26 -135 -26zM389.998 225
c21.333 0 43.333 12 66 36c6.66699 96.667 16 170.667 28 222c-17.333 8.66699 -33.333 13 -48 13c-28 0 -50.333 -16.667 -67 -50s-25 -78.5 -25 -135.5s15.333 -85.5 46 -85.5z" />
    <glyph glyph-name="A" unicode="A" 
d="M60 13c-4.66699 -14.667 -15.167 -22.001 -31.5 -22.001s-34.833 9 -55.5 27c20 58.667 62.333 153.167 127 283.5s106.667 227.833 126 292.5c2.66699 10.667 4 18 4 22c0 10 -7.33301 25.333 -22 46l-8 11l2 13c56.667 16 119.334 24 188.001 24l61 -4
c7.33301 -10 13 -25.333 17 -46c10.667 -50.667 16 -181 16 -391c0 -81.333 7 -138.666 21 -171.999c5.33301 -12.667 10.666 -19 15.999 -19s21.666 6.66699 48.999 20l13 6l20 -36c-25.333 -24.667 -53.5 -44.167 -84.5 -58.5s-59.5 -21.5 -85.5 -21.5
c-67.333 0 -101 52.333 -101 157v79c-17.333 4 -43.666 6 -78.999 6s-74 -3.33301 -116 -10c-33.333 -77.333 -59 -146.333 -77 -207zM334 291.999l1 116c0 101.333 -4.33301 170 -13 206c-5.33301 0 -9.33301 -0.666992 -12 -2
c-18.667 -51.333 -36.167 -94.833 -52.5 -130.5l-53 -114l-35.5 -75.5h165z" />
    <glyph glyph-name="B" unicode="B" horiz-adv-x="591" 
d="M330 -12c-36 0 -81.667 6.66406 -137 19.9971c-34.667 -9.33301 -67 -14 -97 -14s-47.333 1 -52 3c4.66699 40 24.5 138.5 59.5 295.5s52.5 255.5 52.5 295.5c0 8 -4.33301 18.667 -13 32s-17.334 24.666 -26.001 33.999l-13 14l3 15c87.333 18 181.333 27 282 27
c55.333 0 100.833 -13.167 136.5 -39.5s53.5 -63.166 53.5 -110.499c0 -91.333 -55.667 -154.666 -167 -189.999c44.667 -5.33301 82.167 -22.166 112.5 -50.499s45.5 -68.166 45.5 -119.499c0 -62.667 -22.667 -113.667 -68 -153s-102.666 -59 -171.999 -59zM312 342.997
c-18.667 0 -35.334 -1.66602 -50.001 -4.99902c-28.667 -126.667 -47 -215 -55 -265c16.667 -11.333 42.834 -17 78.501 -17s66.167 14.167 91.5 42.5s38 69.166 38 122.499c0 81.333 -34.333 122 -103 122zM368 647.998c-25.333 0 -40.335 -2.33105 -45.002 -6.99805
c-9.33301 -60 -24.666 -138.667 -45.999 -236c26.667 0 45.334 1.66699 56.001 5s20.167 7.66602 28.5 12.999s17.833 13.666 28.5 24.999c23.333 24.667 35 64.167 35 118.5s-19 81.5 -57 81.5z" />
    <glyph glyph-name="C" unicode="C" horiz-adv-x="542" 
d="M266 -12c-62 0 -113.334 25.1689 -154.001 75.502s-61 116.166 -61 197.499s14 155.5 42 222.5s68 121.5 120 163.5s107.5 63 166.5 63s106.667 -13.333 143 -40s54.5 -58.5 54.5 -95.5s-11 -68.5 -33 -94.5c-21.333 0 -45.333 4.66699 -72 14s-46.667 20.666 -60 33.999
l19 101c-16 10 -37 15 -63 15c-40.667 0 -76.667 -34.833 -108 -104.5s-47 -155.5 -47 -257.5c0 -67.333 11.167 -116.166 33.5 -146.499s49.5 -45.5 81.5 -45.5c52.667 0 103.334 24.667 152.001 74l41 -37c-7.33301 -10.667 -20.666 -25.334 -39.999 -44.001
s-38.333 -34.167 -57 -46.5s-42.334 -23.5 -71.001 -33.5s-57.667 -15 -87 -15z" />
    <glyph glyph-name="D" unicode="D" horiz-adv-x="641" 
d="M307 -12c-38.667 0 -78.668 6.33301 -120.001 19c-34.667 -8.66699 -64.834 -13 -90.501 -13s-43.167 0.666992 -52.5 2c4.66699 39.333 24.834 139.166 60.501 299.499s53.5 251.333 53.5 273s-4.5 40.5 -13.5 56.5s-17.833 27.667 -26.5 35l-14 11l3 15
c17.333 4.66699 52.833 9.83398 106.5 15.501s100.5 8.5 140.5 8.5c92.667 0 162.834 -20.5 210.501 -61.5s71.5 -107.5 71.5 -199.5c0 -75.333 -12.5 -147.5 -37.5 -216.5s-63.167 -127 -114.5 -174s-110.333 -70.5 -177 -70.5zM377.999 647
c-17.333 0 -36.999 -1.99805 -58.999 -5.99805c-6.66699 -70.667 -25.5 -173.834 -56.5 -309.501s-49.167 -222.167 -54.5 -259.5c16 -8 38 -12 66 -12s54.5 11.167 79.5 33.5s45.167 50.166 60.5 83.499s28.666 70.666 39.999 111.999c19.333 74 29 141.333 29 202
s-8 101.834 -24 123.501s-43 32.5 -81 32.5z" />
    <glyph glyph-name="E" unicode="E" horiz-adv-x="515" 
d="M249 -12c-46.667 0 -91.3311 13.333 -133.998 40c-21.333 13.333 -38.833 32 -52.5 56s-20.5 51.667 -20.5 83c0 59.333 19.667 107.666 59 144.999s86.666 59 141.999 65c-37.333 10 -67.166 27.333 -89.499 52s-33.5 56 -33.5 94c0 57.333 22.5 102.833 67.5 136.5
s96.5 50.5 154.5 50.5s106.333 -12.333 145 -37s58 -58 58 -100c0 -14.667 -2.5 -29 -7.5 -43s-10.167 -24 -15.5 -30l-7 -10c-21.333 0 -44.833 3.66699 -70.5 11s-44.5 16.666 -56.5 27.999l12 103c-10 10 -26.833 15 -50.5 15s-42.334 -12.167 -56.001 -36.5
s-20.5 -52.166 -20.5 -83.499s3.66699 -55 11 -71s17.666 -28.333 30.999 -37c20.667 -13.333 45 -22.666 73 -27.999l-8 -55c-48 0 -89.667 -14.167 -125 -42.5s-53 -65.833 -53 -112.5c0 -29.333 9.5 -53.5 28.5 -72.5s43.5 -28.5 73.5 -28.5
c54.667 0 110.667 27.667 168 83l40 -37c-77.333 -92 -165 -138 -263 -138z" />
    <glyph glyph-name="F" unicode="F" horiz-adv-x="481" 
d="M235 705l195.999 -5.99805l103 2c2 -10 3 -23.333 3 -40s-2.5 -28.667 -7.5 -36s-13.5 -11 -25.5 -11s-37.5 1.66699 -76.5 5s-67.833 5 -86.5 5l-36 -2c-2.66699 -25.333 -18.667 -106.333 -48 -243c50.667 4.66699 93 7 127 7s60.333 -2.66699 79 -8
c-1.33301 -28 -7.33301 -52 -18 -72c-28.667 6 -62.667 9 -102 9s-72.666 -2 -99.999 -6c-24.667 -120.667 -37 -212.334 -37 -275.001v-17c-24 -13.333 -74.667 -20 -152 -20h-10c0 45.333 15.5 139.666 46.5 282.999s49.833 246.333 56.5 309
c0 10.667 -3.33301 23.5 -10 38.5s-13.667 27.167 -21 36.5l-10 14l3 15c36 7.33301 78 11.333 126 12z" />
    <glyph glyph-name="G" unicode="G" horiz-adv-x="567" 
d="M222 -224c-33.333 0 -61.0029 8.16699 -83.0029 24.5s-33 38.833 -33 67.5c0 76.667 78.333 127 235 151c6 22 10.667 43.333 14 64c-30.667 -18.667 -63 -28 -97 -28c-62 0 -112 22.5 -150 67.5s-57 103.5 -57 175.5s14 138.667 42 200s68.167 112 120.5 152
s108 60 167 60s107.333 -14.5 145 -43.5s56.5 -65.833 56.5 -110.5c0 -26.667 -4.66699 -48.334 -14 -65.001c-5.33301 -0.666992 -12.666 -1 -21.999 -1c-51.333 0 -90 8.33301 -116 25l1 108c-16 14 -37 21 -63 21c-40.667 0 -76.667 -31.167 -108 -93.5
s-47 -138.166 -47 -227.499c0 -59.333 9.66699 -103 29 -131s42.333 -42 69 -42c40 0 76 20 108 60s55 87.667 69 143l54 -9c-25.333 -190.667 -63.666 -333 -114.999 -427s-119.666 -141 -204.999 -141zM170.997 -129c0 -18.667 15.667 -28.001 47 -28.001
c16 0 35 9.83301 57 29.5s38.667 45.167 50 76.5c-38.667 -3.33301 -74 -12.166 -106 -26.499s-48 -31.5 -48 -51.5z" />
    <glyph glyph-name="H" unicode="H" horiz-adv-x="681" 
d="M436 13.5c-16.667 17 -24.998 40 -24.998 69s14.667 111.167 44 246.5c-17.333 4 -45.333 6 -84 6s-75.667 -3.33301 -111 -10c-34 -153.333 -52 -256 -54 -308c-24 -13.333 -74.667 -20 -152 -20h-10c2 29.333 19.833 117 53.5 263s54.5 255.667 62.5 329
c0 10.667 -3.33301 23.5 -10 38.5s-13.334 27.167 -20.001 36.5l-11 14l3 15c39.333 11.333 101.666 17 186.999 17c8 -13.333 12 -35 12 -65s-15 -112.667 -45 -248h193c23.333 118.667 35.333 203.334 36 254.001c0 11.333 -0.666992 20.666 -2 27.999
c53.333 20.667 107 31 161 31c2 -4 3 -14 3 -30c0 -36.667 -16.167 -131 -48.5 -283s-48.5 -248.667 -48.5 -290c0 -18 3 -27 9 -27s26.333 8.66699 61 26l18 -37c-59.333 -54 -112 -81 -158 -81c-26 0 -47.333 8.5 -64 25.5z" />
    <glyph glyph-name="I" unicode="I" horiz-adv-x="325" 
d="M209 102c0 -14.667 3.66797 -21.999 11.001 -21.999c4 0 23.333 8.66699 58 26l19 -37c-60 -54 -113 -81 -159 -81c-28.667 0 -50.5 9.66699 -65.5 29s-22.5 43.333 -22.5 72s16.167 107.167 48.5 235.5s50.166 216.5 53.499 264.5c0 10.667 -3.5 23.5 -10.5 38.5
s-14.167 27.167 -21.5 36.5l-10 14l3 15c38 11.333 100.667 17 188 17c8 -15.333 12 -37.5 12 -66.5s-17.333 -112.833 -52 -251.5s-52 -235.334 -52 -290.001z" />
    <glyph glyph-name="J" unicode="J" horiz-adv-x="415" 
d="M173 709l202.999 -6.99902l106 4c1.33301 -7.33301 2 -18.5 2 -33.5s-2.5 -25.667 -7.5 -32s-13.167 -9.5 -24.5 -9.5s-35.666 0.666992 -72.999 2c-26.667 -223.333 -53 -385.666 -79 -486.999c-12 -49.333 -28.333 -86.666 -49 -111.999
c-10.667 -12.667 -25 -23.5 -43 -32.5s-40.667 -13.5 -68 -13.5s-55.5 9.16699 -84.5 27.5s-52.5 41.166 -70.5 68.499l28 31c8 -7.33301 20.333 -15.333 37 -24s31 -13 43 -13c20 0 37.5 20.167 52.5 60.5s30.333 111.166 46 212.499s23.5 183.666 23.5 246.999v41
c-52.667 0 -91.667 -3 -117 -9c-8.66699 17.333 -14.667 40 -18 68c16.667 7.33301 47.667 11 93 11z" />
    <glyph glyph-name="K" unicode="K" horiz-adv-x="635" 
d="M63 -4h-19.001c2.66699 30 20.334 118.167 53.001 264.5s53 255.833 61 328.5c0 10.667 -3.5 23.5 -10.5 38.5s-14.167 27.167 -21.5 36.5l-10 14l3 15c37.333 11.333 101.666 17 192.999 17c8.66699 -16 13 -38.833 13 -68.5s-16.667 -113.167 -50 -250.5h5
c59.333 0 101.833 22.5 127.5 67.5s44.834 120.833 57.501 227.5c47.333 16 97 24 149 24c1.33301 -4.66699 1.83301 -16 1.5 -34s-3.83301 -41.167 -10.5 -69.5s-16.5 -58.166 -29.5 -89.499s-32 -60.833 -57 -88.5s-53.833 -49.834 -86.5 -66.501
c38.667 -132 72 -218 100 -258c12 -16.667 21.333 -25 28 -25c12 0 30.667 6 56 18l12 6l23 -37c-24.667 -22.667 -53.167 -41.334 -85.5 -56.001s-62.833 -22 -91.5 -22s-51.167 11.333 -67.5 34s-30 50.834 -41 84.501s-22.5 73.5 -34.5 119.5s-20 80.667 -24 104
c-6 -0.666992 -21.667 -1 -47 -1c-39.333 -166.667 -59 -271 -59 -313c-26 -13.333 -72 -20 -138 -20z" />
    <glyph glyph-name="L" unicode="L" horiz-adv-x="501" 
d="M442.5 -1c-17 -12 -37 -18.002 -60 -18.002s-57.333 14 -103 42s-82.167 46 -109.5 54c-18 -24 -38.333 -44 -61 -60s-38.334 -24 -47.001 -24c-6.66699 0 -20 14.5 -40 43.5s-30 49.833 -30 62.5c0 7.33301 10.5 18.333 31.5 33s43.167 24.667 66.5 30
c16.667 40.667 34 100.834 52 180.501s32 161.834 42 246.501c0 10.667 -3.5 23.5 -10.5 38.5s-14.167 27.167 -21.5 36.5l-10 14l3 15c40 11.333 105.667 17 197 17c8.66699 -14.667 13 -37 13 -67s-8.66699 -74.667 -26 -134s-41.166 -130.5 -71.499 -213.5
s-47.833 -132.167 -52.5 -147.5c2.66699 -0.666992 11 -3 25 -7s23.167 -6.5 27.5 -7.5l25.5 -6c12.667 -3 22.667 -5 30 -6s17 -2.16699 29 -3.5c20.667 -3.33301 40.167 -5 58.5 -5s31.5 4.66699 39.5 14l28 52l33 -8c0 -43.333 -7 -84.333 -21 -123
c-8 -20.667 -20.5 -37 -37.5 -49z" />
    <glyph glyph-name="M" unicode="M" horiz-adv-x="970" 
d="M730 14.5c-15.333 17.667 -22.998 41.6689 -22.998 72.002s13.833 105.833 41.5 226.5s41.5 197.667 41.5 231s-13 50 -39 50c-36 0 -75.667 -16 -119 -48c-4.66699 -36 -18.334 -98.833 -41.001 -188.5s-37.834 -156 -45.501 -199s-11.5 -76.167 -11.5 -99.5
s0.333008 -37.666 1 -42.999c-26 -13.333 -72.333 -20 -139 -20h-19c0 56 15.667 151.333 47 286c32 137.333 48 223.666 48 258.999s-12.333 53 -37 53c-36 0 -78 -17.333 -126 -52c-7.33301 -36.667 -21 -96.334 -41 -179.001c-44.667 -189.333 -67 -305 -67 -347
c-26 -13.333 -72 -20 -138 -20h-19c2.66699 30 20.334 118.167 53.001 264.5s53 255.833 61 328.5c0 10.667 -3.5 23.5 -10.5 38.5s-14.167 27.167 -21.5 36.5l-10 14l3 15c37.333 11.333 101.666 17 192.999 17c8.66699 -16 13 -36.333 13 -61
c0 -5.33301 -1.33301 -19.333 -4 -42c76.667 68.667 145.334 103 206.001 103c27.333 0 50.333 -9.33301 69 -28s30.667 -43 36 -73c79.333 67.333 146.666 101 201.999 101c34.667 0 62.667 -11.333 84 -34s32 -54.334 32 -95.001s-14.167 -118.167 -42.5 -232.5
s-42.5 -194.166 -42.5 -239.499c0 -19.333 3.33301 -29 10 -29c6 0 22.333 6.66699 49 20l14 6l20 -37c-28.667 -24.667 -57.5 -44.334 -86.5 -59.001s-56 -22 -81 -22s-45.167 8.83301 -60.5 26.5zM228.002 390.002c-0.666992 -1.33301 -1 -3 -1 -5z" />
    <glyph glyph-name="N" unicode="N" horiz-adv-x="661" 
d="M63 -4h-19.001c2.66699 30 20.334 118.167 53.001 264.5s53 255.833 61 328.5c0 10.667 -3.5 23.5 -10.5 38.5s-14.167 27.167 -21.5 36.5l-10 14l3 15c37.333 11.333 101.666 17 192.999 17c8.66699 -16 13 -31.667 13 -47s-1.33301 -34.333 -4 -57
c83.333 69.333 151.333 104 204 104c34.667 0 62.667 -11.333 84 -34s32 -54.334 32 -95.001s-14.167 -118.167 -42.5 -232.5s-42.5 -194.166 -42.5 -239.499c0 -19.333 3.33301 -29 10 -29c6 0 22.667 6.66699 50 20l13 6l20 -37c-28 -24 -57 -43.5 -87 -58.5
s-57.167 -22.5 -81.5 -22.5s-44.166 8.83301 -59.499 26.5s-23 41.667 -23 72s13.833 105.833 41.5 226.5s41.5 197.667 41.5 231s-13 50 -39 50c-39.333 0 -84 -19.667 -134 -59c-7.33301 -35.333 -21 -94.333 -41 -177c-44 -182 -66 -296 -66 -342
c-26 -13.333 -72 -20 -138 -20z" />
    <glyph glyph-name="O" unicode="O" horiz-adv-x="636" 
d="M618 537.5c8.66699 -29.667 13.001 -62.498 13.001 -98.498s-4 -74.333 -12 -115s-21.333 -81.334 -40 -122.001s-41.334 -76.667 -68.001 -108s-60.334 -56.833 -101.001 -76.5s-85.334 -29.5 -134.001 -29.5c-71.333 0 -126.666 25.5 -165.999 76.5
s-59 116.667 -59 197s14.167 154 42.5 221s69 121.667 122 164s111.833 63.5 176.5 63.5c42.667 0 80 -8 112 -24s56.833 -37.333 74.5 -64s30.834 -54.834 39.501 -84.501zM385.501 97.002c21.667 27.333 38.167 63 49.5 107c22.667 86.667 34 175.667 34 267
c0 114 -30.667 171 -92 171c-34.667 0 -65 -20.667 -91 -62c-48.667 -78 -73 -186 -73 -324c0 -75.333 4.33301 -122 13 -140c4 -10 9.33301 -20.333 16 -31c12 -19.333 33.5 -29 64.5 -29s57.333 13.667 79 41z" />
    <glyph glyph-name="P" unicode="P" horiz-adv-x="546" 
d="M290 277c-18 0 -31.666 0.334961 -40.999 1.00195c-28.667 -125.333 -44.667 -212.333 -48 -261c-28.667 -14 -72.334 -21 -131.001 -21c-12.667 0 -21.334 0.333008 -26.001 1c4.66699 39.333 24.667 138.166 60 296.499s53 258.166 53 299.499
c0 8 -4.5 18.5 -13.5 31.5s-18.167 23.833 -27.5 32.5l-13 13l3 15c112 16.667 202.667 25 272 25c137.333 0 206 -56 206 -168c0 -74.667 -24.667 -137.5 -74 -188.5s-122.666 -76.5 -219.999 -76.5zM274.001 344.002c51.333 0 90.168 19.332 116.501 57.999
s39.5 90.334 39.5 155.001c0 26.667 -5 48.5 -15 65.5s-24.667 25.5 -44 25.5c-12.667 0 -28.334 -2.33301 -47.001 -7c-10.667 -70 -30.667 -169 -60 -297h10z" />
    <glyph glyph-name="Q" unicode="Q" horiz-adv-x="636" 
d="M516 -224c-21.333 0 -63.499 18.168 -126.499 54.501s-106.833 54.5 -131.5 54.5c-41.333 -45.333 -71.333 -68 -90 -68c-6.66699 0 -18.834 10.667 -36.501 32s-26.5 37.666 -26.5 48.999s11.667 25.5 35 42.5s50.5 25.5 81.5 25.5s82.167 -10.167 153.5 -30.5
s127 -30.5 167 -30.5c12 0 20.5 2.5 25.5 7.5s10 11.5 15 19.5l14 22.5c4.33301 7 6.83301 10.5 7.5 10.5l32 -10c0 -119.333 -40 -179 -120 -179zM618.001 537.501c8.66699 -29.667 13.001 -62.498 13.001 -98.498s-4 -74.333 -12 -115s-21.333 -81.334 -40 -122.001
s-41.334 -76.667 -68.001 -108s-60.334 -56.833 -101.001 -76.5s-85.334 -29.5 -134.001 -29.5c-71.333 0 -126.666 25.5 -165.999 76.5s-59 116.667 -59 197s14.167 154 42.5 221s69 121.667 122 164s111.833 63.5 176.5 63.5c42.667 0 80 -8 112 -24
s56.833 -37.333 74.5 -64s30.834 -54.834 39.501 -84.501zM385.502 97.0029c21.667 27.333 38.166 63 49.499 107c22.667 86.667 34 175.667 34 267c0 114 -30.667 171 -92 171c-35.333 0 -65.666 -20.667 -90.999 -62c-48.667 -78.667 -73 -186.667 -73 -324
c0 -75.333 4.33301 -122 13 -140c4 -10 9.33301 -20.333 16 -31c12 -19.333 33.5 -29 64.5 -29s57.333 13.667 79 41z" />
    <glyph glyph-name="R" unicode="R" horiz-adv-x="633" 
d="M70 -5c-12.667 0 -21.3359 0.334961 -26.0029 1.00195c4.66699 38.667 25.167 136.834 61.5 294.501s54.5 257.5 54.5 299.5c0 8 -4.66699 18.5 -14 31.5s-18.666 23.833 -27.999 32.5l-13 14l3 16c91.333 17.333 188 26 290 26c122.667 0 184 -48.333 184 -145
c0 -47.333 -11.833 -90.5 -35.5 -129.5s-60.5 -69.5 -110.5 -91.5c37.333 -124.667 69.333 -205.334 96 -242.001c12 -15.333 21.333 -23 28 -23c12 0 30.667 6 56 18l12 6l23 -37c-24.667 -22.667 -53.167 -41.334 -85.5 -56.001s-62.666 -22 -90.999 -22
s-51.666 12.167 -69.999 36.5s-35 60.166 -50 107.499s-30.167 108 -45.5 182c-21.333 -1.33301 -37.666 -2 -48.999 -2c-34 -146 -52.667 -244.667 -56 -296c-28.667 -14 -73.334 -21 -134.001 -21zM298.998 380.002c40 0 71.5 17.834 94.5 53.501s34.5 78.167 34.5 127.5
c0 26 -4.66699 47 -14 63s-23.333 24 -42 24c-8 0 -17.5 -1.16699 -28.5 -3.5s-16.5 -3.83301 -16.5 -4.5c-10.667 -68.667 -28 -155.334 -52 -260.001h24z" />
    <glyph glyph-name="S" unicode="S" horiz-adv-x="463" 
d="M432 196c0 -64 -24.333 -114.666 -73 -151.999s-107.667 -56 -177 -56c-46.667 0 -85.167 11.833 -115.5 35.5s-47.166 43.834 -50.499 60.501c7.33301 22 23 46.667 47 74s45.667 44 65 50c34 -22 65.667 -71 95 -147c43.333 1.33301 65 25 65 71
c0 25.333 -10.167 56.5 -30.5 93.5s-42.5 71.667 -66.5 104s-46.167 68.666 -66.5 108.999s-30.5 76.166 -30.5 107.499c0 50.667 20.5 90.667 61.5 120s87.167 44 138.5 44s91.166 -11 119.499 -33s42.5 -47 42.5 -75s-10.667 -56.667 -32 -86
s-42.666 -52.666 -63.999 -69.999l-32 -26c8 -10.667 17.667 -24.334 29 -41.001s26.666 -45 45.999 -85s29 -72.667 29 -98zM380 555.501c7.33301 12.333 11 25.3311 11 38.998s-8 25.167 -24 34.5s-35.167 14 -57.5 14s-41 -5.16699 -56 -15.5
s-22.5 -22.666 -22.5 -36.999s4.83301 -31 14.5 -50s19.167 -34.833 28.5 -47.5l15 -19c6.66699 3.33301 17.167 10.333 31.5 21s26 20.334 35 29.001s17.167 19.167 24.5 31.5z" />
    <glyph glyph-name="T" unicode="T" horiz-adv-x="499" 
d="M136 710l333.998 -11l94 2c2 -14 3 -28.667 3 -44s-2.66699 -26.333 -8 -33s-15 -10 -29 -10c-1.33301 0 -48.333 4.33301 -141 13c-2.66699 -30 -12.667 -81.333 -30 -154s-34 -150.334 -50 -233.001s-24.333 -157 -25 -223c-26 -13.333 -79.333 -20 -160 -20h-7
c0 34.667 19 138 57 310s57 276.667 57 314c0 2.66699 -0.666992 7.33398 -2 14.001h-40c-54.667 0 -96.667 -8.33301 -126 -25c-15.333 20 -24.666 49.333 -27.999 88c22.667 8 56.334 12 101.001 12z" />
    <glyph glyph-name="U" unicode="U" horiz-adv-x="668" 
d="M313 633c0 -34.667 -14.1641 -114.665 -42.4971 -239.998s-42.5 -204.833 -42.5 -238.5s12.333 -50.5 37 -50.5c42.667 0 90.667 18.333 144 55c4 24 13.667 72.333 29 145c36 168 54.667 283.667 56 347c0 11.333 -0.666992 20.666 -2 27.999
c53.333 20.667 107 31 161 31c2 -4 3 -14 3 -30c0 -36.667 -16.167 -131 -48.5 -283s-48.5 -248.667 -48.5 -290c0 -18 3 -27 9 -27s26.333 8.66699 61 26l18 -37c-59.333 -54 -112 -81 -158 -81c-25.333 0 -46.333 8 -63 24s-25.334 38.667 -26.001 68
c-90 -61.333 -164.667 -92 -224 -92c-32.667 0 -58.834 10.5 -78.501 31.5s-29.5 49.833 -29.5 86.5s13.667 113.5 41 230.5s41 201.167 41 252.5c0 10.667 -3.33301 23.5 -10 38.5s-13.334 27.167 -20.001 36.5l-10 14l2 15c36.667 11.333 98.667 17 186 17
c10 -16.667 15 -42.334 15 -77.001z" />
    <glyph glyph-name="V" unicode="V" 
d="M133.5 25.5c-20.333 25 -30.4961 55.8311 -30.4961 92.498s4.66699 101.334 14 194.001s14 158.667 14 198s-4.33301 70 -13 92l-41 76l4 15c54 11.333 121 17 201 17c6.66699 -25.333 10 -64.333 10 -117s-6.5 -129.167 -19.5 -229.5s-19.5 -167 -19.5 -200
s10.333 -49.5 31 -49.5s47.167 17.667 79.5 53s63.166 81.833 92.499 139.5s47.333 113.167 54 166.5l-106 62c5.33301 50.667 17.666 91 36.999 121c17.333 26.667 31.666 43.667 42.999 51l7 5c40.667 0 71.5 -10.667 92.5 -32s31.5 -46.666 31.5 -75.999
c0 -72.667 -21.667 -157.667 -65 -255s-97.333 -181.833 -162 -253.5s-124.334 -107.5 -179.001 -107.5c-30 0 -55.167 12.5 -75.5 37.5z" />
    <glyph glyph-name="W" unicode="W" horiz-adv-x="891" 
d="M117 123l7.00293 316.996c0 84 -5 138 -15 162l-49 76l3 15c47.333 10.667 115.333 16 204 16c12.667 -19.333 19 -55.166 19 -107.499s-3.33301 -122.666 -10 -210.999s-10 -156.5 -10 -204.5s11.333 -72 34 -72c13.333 0 32.666 10.833 57.999 32.5s47 45.167 65 70.5
c14.667 150.667 22 252.334 22 305.001s-7.33301 101.667 -22 147c35.333 18 93.333 31.667 174 41c7.33301 -24 11 -57.833 11 -101.5s-6.83301 -119.5 -20.5 -227.5s-20.5 -179.5 -20.5 -214.5s10.167 -52.5 30.5 -52.5s47.833 19.333 82.5 58s66.5 86.834 95.5 144.501
s45.167 109.834 48.5 156.501l-106 62c4.66699 40 14.167 74.5 28.5 103.5s27.5 48.167 39.5 57.5l18 14c40.667 0 71.834 -10.5 93.501 -31.5s32.5 -45.833 32.5 -74.5c0 -54 -13.5 -117 -40.5 -189s-60.333 -139.333 -100 -202s-84.834 -115.834 -135.501 -159.501
s-97.334 -65.5 -140.001 -65.5c-25.333 0 -47.833 12 -67.5 36s-29.834 54.667 -30.501 92c-29.333 -40 -60.333 -71.333 -93 -94s-64 -34 -94 -34s-56.167 12.5 -78.5 37.5s-33.5 57.5 -33.5 97.5z" />
    <glyph glyph-name="X" unicode="X" horiz-adv-x="564" 
d="M532 710c16.667 0 37.333 -13.333 62 -40c-26 -47.333 -72 -108 -138 -182l-98 -108c15.333 -43.333 34.666 -95.333 57.999 -156c34.667 -91.333 62.334 -137 83.001 -137c6.66699 0 24 7.66699 52 23l14 7l21 -44c-20.667 -20.667 -48.834 -40 -84.501 -58
s-66.334 -27 -92.001 -27s-46.167 6.83301 -61.5 20.5s-30.333 39.5 -45 77.5s-34 93.333 -58 166c-74.667 -87.333 -137.334 -170.333 -188.001 -249c-6.66699 -11.333 -17 -17 -31 -17s-31.667 14 -53 42c30.667 52.667 79.334 116.667 146.001 192l100 110
c-48.667 144 -83.167 230.667 -103.5 260s-40.833 54.333 -61.5 75l4 15c-1.33301 0.666992 7 3.33398 25 8.00098c50.667 12 102.334 19.333 155.001 22c16.667 -14.667 30.334 -40.334 41.001 -77.001l53 -177c85.333 97.333 144.333 176.333 177 237
c6 11.333 13.667 17 23 17z" />
    <glyph glyph-name="Y" unicode="Y" horiz-adv-x="641" 
d="M282.5 -216.5c-22.333 -5 -46.498 -7.49902 -72.498 -7.49902s-48.167 7.66699 -66.5 23s-27.5 35.666 -27.5 60.999s8.5 48.333 25.5 69s37.5 37 61.5 49c48.667 25.333 93 42 133 50l26 5c0.666992 2.66699 4.66699 16 12 40s12.666 42.667 15.999 56
c-84.667 -50.667 -154.334 -76 -209.001 -76c-32.667 0 -59.667 10.5 -81 31.5s-32 51 -32 90s12.667 109.333 38 211s38 169.5 38 203.5c0 22 -10 47 -30 75l-10 14l3 15c40 11.333 101.667 17 185 17c9.33301 -20 14 -47 14 -81s-12.667 -105.833 -38 -215.5
s-38 -173.167 -38 -190.5c0 -35.333 12 -53 36 -53c45.333 0 93.666 13 144.999 39c40.667 167.333 68.334 325.333 83.001 474c34 17.333 80.667 26 140 26h19c0 -35.333 -6 -84.333 -18 -147l-71 -360c-14 -72 -32.333 -134.833 -55 -188.5s-46 -95.167 -70 -124.5
s-50.5 -53 -79.5 -71s-54.667 -29.5 -77 -34.5zM210.002 -156.999c23.333 0 47.667 12.833 73 38.5s46 56.167 62 91.5c-31.333 -3.33301 -66.5 -15.5 -105.5 -36.5s-58.5 -42.5 -58.5 -64.5c0 -8 2.83301 -14.833 8.5 -20.5s12.5 -8.5 20.5 -8.5z" />
    <glyph glyph-name="Z" unicode="Z" horiz-adv-x="530" 
d="M420 -13c-27.333 0 -70.335 13.333 -129.002 40s-108.667 40 -150 40c-12 0 -30 -12.333 -54 -37s-39 -37 -45 -37s-15 3.66699 -27 11s-21 14.666 -27 21.999c26.667 54 87 137.667 181 251s165 206.333 213 279c-65.333 8.66699 -116.666 13 -153.999 13
c-56 0 -96 -6.66699 -120 -20l-12 -7c-1.33301 0 -4 5.33301 -8 16c-12 32 -18 60 -18 84s2 40.667 6 50c27.333 12 58 18 92 18s80.167 -3.83301 138.5 -11.5s104.5 -11.5 138.5 -11.5s64.333 3 91 9l19 -45c-42.667 -68 -102 -148.667 -178 -242
s-131.333 -166.666 -166 -219.999c28 -2 68 -11.167 120 -27.5s88 -24.5 108 -24.5s34 3.33301 42 10s18.333 21.667 31 45l32 -10c-3.33301 -47.333 -9.66602 -86 -18.999 -116c-16 -52.667 -51 -79 -105 -79z" />
    <glyph glyph-name="bracketleft" unicode="[" horiz-adv-x="343" 
d="M178 -147c0 -6 20 -16.332 60 -30.999l20 -8l-6 -37c-4.66699 -0.666992 -9.33398 -1 -14.001 -1c-46 0 -98 4.66699 -156 14c-9.33301 14.667 -14.666 28 -15.999 40c38 391.333 69.667 679.333 95 864c0.666992 5.33301 4.33398 13.333 11.001 24s13.667 16 21 16
c45.333 0 102 -5.66699 170 -17l-2 -37c-60.667 -8.66699 -92 -18 -94 -28c-3.33301 -15.333 -11.333 -69 -24 -161s-21.167 -158.833 -25.5 -200.5s-9.33301 -86.834 -15 -135.501s-9.83398 -87 -12.501 -115c-8 -82.667 -12 -145 -12 -187z" />
    <glyph glyph-name="backslash" unicode="\" horiz-adv-x="366" 
d="M12 715c24.667 17.333 52 28.333 82 33l304 -820c-25.333 -25.333 -51 -38 -77 -38c-96 270.667 -199 545.667 -309 825z" />
    <glyph glyph-name="bracketright" unicode="]" horiz-adv-x="375" 
d="M203 657c0 6 -20 16.332 -60 30.999l-20 8l6 37c4.66699 0.666992 9.33398 1 14.001 1c46 0 98 -4.66699 156 -14c9.33301 -14.667 14.666 -28 15.999 -40c-38 -391.333 -69.667 -679.333 -95 -864c-0.666992 -5.33301 -4.33398 -13.333 -11.001 -24s-13.667 -16 -21 -16
c-45.333 0 -102 5.66699 -170 17l2 37c60.667 8.66699 92 18 94 28c3.33301 15.333 11.333 69 24 161s21.167 158.833 25.5 200.5s9.33301 86.834 15 135.501s9.83398 87 12.501 115c8 82.667 12 145 12 187z" />
    <glyph glyph-name="asciicircum" unicode="^" horiz-adv-x="458" 
d="M21 287l172.003 387h75l54 -126l115 -261c-17.333 -2 -31.333 -3 -42 -3s-29.334 1.33301 -56.001 4l-109 268l-112 -268c-26.667 -2.66699 -45.334 -4 -56.001 -4s-24.334 1 -41.001 3z" />
    <glyph glyph-name="underscore" unicode="_" horiz-adv-x="560" 
d="M52 0c0 28 1 49.668 3 65.001h454c0 -32.667 -1 -54.334 -3 -65.001h-454z" />
    <glyph glyph-name="grave" unicode="`" horiz-adv-x="621" 
d="M228 693c18 0 47.333 -14 88 -42l28.5 -19.5l31.5 -22.5l31 -23c20 -16.667 41.333 -33 64 -49l-22 -38c-82 31.333 -179.333 65 -292 101c25.333 62 49 93 71 93z" />
    <glyph glyph-name="a" unicode="a" horiz-adv-x="480" 
d="M328 414c1.33301 1.33301 5.00098 9.99902 11.001 25.999c31.333 0 73.333 -9.33301 126 -28c-16.667 -55.333 -30 -113.166 -40 -173.499s-15 -103.333 -15 -129s2.66699 -38.5 8 -38.5c4 0 18.667 6.33301 44 19l12 6l18 -35l-23.5 -20
c-9.66699 -8 -27.834 -18.833 -54.501 -32.5s-50.667 -20.5 -72 -20.5c-41.333 0 -65.333 18.667 -72 56c-42.667 -37.333 -81.167 -56 -115.5 -56s-63.333 13.333 -87 40s-35.5 68.667 -35.5 126c0 89.333 18.333 159.833 55 211.5s81 77.5 133 77.5
c37.333 0 73.333 -9.66699 108 -29zM214.001 72.999c16 0 33.999 6.33301 53.999 19c4.66699 94 20.334 187 47.001 279c-20 8.66699 -37 13 -51 13c-24 0 -44.5 -23.5 -61.5 -70.5s-25.5 -98.833 -25.5 -155.5s12.333 -85 37 -85z" />
    <glyph glyph-name="b" unicode="b" horiz-adv-x="480" 
d="M289 698c0 -50.667 -16.999 -150 -50.999 -298c40 28.667 76.167 43 108.5 43s60 -13.5 83 -40.5s34.5 -68.167 34.5 -123.5c0 -92.667 -18.167 -164.334 -54.5 -215.001s-80.5 -76 -132.5 -76c-19.333 0 -38.833 2.33301 -58.5 7s-34.5 9.66699 -44.5 15l-15 7
c-42.667 -14.667 -84.334 -22 -125.001 -22c-4 3.33301 -6 19.5 -6 48.5s18.667 125 56 288s56 274.5 56 334.5c0 10.667 -1.66699 24.334 -5 41.001c52 18 101.667 27 149 27c3.33301 -9.33301 5 -21.333 5 -36zM280.001 358c-12.667 0 -31.666 -6 -56.999 -18
c-30.667 -129.333 -47.334 -222 -50.001 -278c20 -8.66699 39 -13 57 -13c25.333 0 46.5 23.333 63.5 70s25.5 98.167 25.5 154.5s-13 84.5 -39 84.5z" />
    <glyph glyph-name="c" unicode="c" horiz-adv-x="397" 
d="M260 393c-26.667 0 -48.001 -22.166 -64.001 -66.499s-24 -91.833 -24 -142.5c0 -80 24.667 -120 74 -120c16 0 33 3.83301 51 11.5s32.333 15.167 43 22.5l15 12l23 -31c-5.33301 -7.33301 -16 -17 -32 -29s-31 -22 -45 -30s-32 -15.333 -54 -22s-43.667 -10 -65 -10
c-52 0 -91 17 -117 51s-39 79.667 -39 137c0 79.333 21.833 143.666 65.5 192.999s99.834 74 168.501 74c44.667 0 80.167 -10.167 106.5 -30.5s39.5 -45.333 39.5 -75s-9.33301 -55.167 -28 -76.5c-16.667 0 -36 3.66699 -58 11s-38.667 16.333 -50 27l15 88
c-6 4 -14.333 6 -25 6z" />
    <glyph glyph-name="d" unicode="d" horiz-adv-x="502" 
d="M504 61c-56.667 -48.667 -106.499 -73 -149.499 -73s-67.833 21.333 -74.5 64c-20 -20 -42.333 -35.667 -67 -47s-46.334 -17 -65.001 -17c-32 0 -59.333 14 -82 42s-34 71.333 -34 130c0 88 18.667 157.167 56 207.5s79.5 75.5 126.5 75.5s86.5 -10.667 118.5 -32
c20.667 108 31 193 31 255l-5 42c50 17.333 99 26 147 26c5.33301 -11.333 8 -24.333 8 -39c0 -48.667 -14.667 -147.5 -44 -296.5s-44 -250.167 -44 -303.5c0 -16 3.66699 -24 11 -24c4 0 16.667 6.33301 38 19l10 6zM263.001 384
c-23.333 0 -43.499 -23.001 -60.499 -69.001s-25.5 -91.5 -25.5 -136.5s3.16699 -73.833 9.5 -86.5s15.833 -19 28.5 -19c22 0 43.667 9 65 27c2 26.667 17 115.334 45 266.001c-22.667 12 -43.334 18 -62.001 18z" />
    <glyph glyph-name="e" unicode="e" horiz-adv-x="399" 
d="M26 173c0 83.333 25.165 149.166 75.498 197.499s107.5 72.5 171.5 72.5c39.333 0 71.666 -9.66699 96.999 -29s38 -45.166 38 -77.499s-8.16699 -59.5 -24.5 -81.5s-36.166 -39 -59.499 -51c-47.333 -23.333 -90.666 -38 -129.999 -44l-24 -3
c4.66699 -62.667 30.334 -94 77.001 -94c16 0 33 4 51 12s32 16 42 24l15 12l24 -32c-5.33301 -7.33301 -16 -17 -32 -29s-31 -22 -45 -30c-38.667 -21.333 -81 -32 -127 -32s-82.333 16.333 -109 49s-40 78 -40 136zM249.998 249c20 22.667 30 52 30 88s-10.667 54 -32 54
c-25.333 0 -44.833 -21.5 -58.5 -64.5s-20.5 -83.167 -20.5 -120.5c34 6 61 20.333 81 43z" />
    <glyph glyph-name="f" unicode="f" horiz-adv-x="293" 
d="M322 431c-1.33301 -14.667 -7.33301 -34 -18 -58c-25.333 2.66699 -50.333 4 -75 4h-4c-14 -164.667 -27 -286.334 -39 -365.001s-27.667 -133.667 -47 -165c-24 0.666992 -48.833 3.83398 -74.5 9.50098s-43.167 11.5 -52.5 17.5c16 49.333 32.167 123.666 48.5 222.999
s26.833 191 31.5 275c-18.667 -1.33301 -39.334 -3.66602 -62.001 -6.99902c-2 8.66699 -3 17.5 -3 26.5s1.33301 22.167 4 39.5h64c1.33301 58 4.33301 102 9 132c8 53.333 26.5 95.166 55.5 125.499s66.5 45.5 112.5 45.5c29.333 0 52.5 -6.5 69.5 -19.5
s25.5 -33.5 25.5 -61.5s-12.667 -64.167 -38 -108.5s-58.666 -82.166 -99.999 -113.499h93zM292 567c14.667 26.667 22 50.834 22 72.501s-7 32.5 -21 32.5c-29.333 0 -48 -33.667 -56 -101c-2.66699 -22.667 -4.66699 -48.334 -6 -77.001c26 22 46.333 46.333 61 73z" />
    <glyph glyph-name="g" unicode="g" horiz-adv-x="463" 
d="M123 -147c0 -12.667 7.16699 -19.001 21.5 -19.001s30.5 6.83301 48.5 20.5s33 35.834 45 66.501c-32 -6 -59.167 -15.667 -81.5 -29s-33.5 -26.333 -33.5 -39zM453 435.999c2.66699 -2.66699 3.99805 -8.5 3.99805 -17.5s-0.666992 -18.667 -2 -29
s-3.66602 -33.5 -6.99902 -69.5s-6.66602 -67.333 -9.99902 -94c-34 -300 -125.333 -450 -274 -450c-24 0 -45.833 6.33301 -65.5 19s-29.5 29 -29.5 49c0 26.667 16.333 51 49 73s76.667 39 132 51c0 0.666992 2 10 6 28s6.66699 32.667 8 44
c-40 -29.333 -77.5 -44 -112.5 -44s-63.667 13.667 -86 41s-33.5 71 -33.5 131c0 78.667 17.667 144.167 53 196.5s82 78.5 140 78.5c32.667 0 65 -8 97 -24c34 12 70.667 18 110 18zM269.998 383.999c-28.667 0 -51.333 -23.168 -68 -69.501s-25 -97.666 -25 -153.999
s12.667 -84.5 38 -84.5c16.667 0 36.334 6.33301 59.001 19c18.667 112 32 204.333 40 277c-18.667 8 -33.334 12 -44.001 12z" />
    <glyph glyph-name="h" unicode="h" horiz-adv-x="496" 
d="M147 660c0 22 -2.00098 37.6699 -6.00098 47.0029c52 18 101 27 147 27c6 -6 9 -21.333 9 -46c0 -44 -18.667 -145.333 -56 -304c54 39.333 101.333 59 142 59c25.333 0 44.5 -8 57.5 -24s19.5 -37.167 19.5 -63.5s-7.66699 -69.333 -23 -129s-23 -100.5 -23 -122.5
s2.66699 -33 8 -33s19.333 6 42 18l12 6l18 -35c-6 -5.33301 -14 -12 -24 -20s-28.333 -18.667 -55 -32s-51.167 -20 -73.5 -20s-40.166 7.16699 -53.499 21.5s-20 33.666 -20 57.999s7.5 68.666 22.5 132.999s22.5 105 22.5 122s-7 25.5 -21 25.5
c-17.333 0 -39 -7.33301 -65 -22c-36.667 -161.333 -55 -266 -55 -314c-28 -10.667 -75.667 -16 -143 -16c-0.666992 11.333 -1 21.333 -1 30c0 28.667 19.833 126.667 59.5 294s59.5 280.666 59.5 339.999z" />
    <glyph glyph-name="i" unicode="i" horiz-adv-x="272" 
d="M210 236.5c-18 -68.333 -27.001 -112.998 -27.001 -133.998s3 -31.5 9 -31.5c4 0 19.333 6.33301 46 19l12 6l17 -35c-6 -5.33301 -14 -12 -24 -20s-28.667 -18.833 -56 -32.5s-52.666 -20.5 -75.999 -20.5s-41.666 7.16699 -54.999 21.5s-20 33.666 -20 57.999
s8.33301 67.666 25 129.999s25 102.833 25 121.5c0 28 -8.66699 54.333 -26 79l-9 12l1 13c35.333 10 92.666 15 171.999 15c8.66699 -10 13 -29 13 -57s-9 -76.167 -27 -144.5zM102.999 600.002c0 22 9.16602 41.334 27.499 58.001s39.5 25 63.5 25s42.667 -6.66699 56 -20
s20 -30.833 20 -52.5s-9.5 -40.834 -28.5 -57.501s-40.167 -25 -63.5 -25s-41.666 6.5 -54.999 19.5s-20 30.5 -20 52.5z" />
    <glyph glyph-name="j" unicode="j" horiz-adv-x="256" 
d="M89 333c0 15.333 -9.66602 36.333 -28.999 63l-9 14l1 13c38 10 95.333 15 172 15c8.66699 -10 13 -28.5 13 -55.5s-8.16699 -89.833 -24.5 -188.5s-30 -169.667 -41 -213s-22.5 -77.5 -34.5 -102.5s-30.833 -48.333 -56.5 -70s-53 -32.5 -82 -32.5
s-55.833 6.33301 -80.5 19s-43.334 25 -56.001 37l-18 19l22 32c32.667 -19.333 57 -29 73 -29c25.333 0 48 17.667 68 53s38.667 105.5 56 210.5s26 176.833 26 215.5zM105.001 600c0 22 9.16602 41.334 27.499 58.001s39.5 25 63.5 25s42.667 -6.66699 56 -20
s20 -30.833 20 -52.5s-9.5 -40.834 -28.5 -57.501s-40.167 -25 -63.5 -25s-41.666 6.5 -54.999 19.5s-20 30.5 -20 52.5z" />
    <glyph glyph-name="k" unicode="k" horiz-adv-x="508" 
d="M143 660c0 22 -1.99805 37.6689 -5.99805 47.002c52 18 101 27 147 27c6 -6 9 -21.333 9 -46c0 -55.333 -18.333 -161.333 -55 -318c59.333 48.667 118 73 176 73c26 0 48 -8 66 -24s27 -39.333 27 -70c0 -57.333 -47 -99 -141 -125c22 -69.333 41.333 -116.333 58 -141
c7.33301 -10.667 12.666 -16 15.999 -16c7.33301 0 22.666 5.66699 45.999 17l11 5l16 -34c-16 -14.667 -38.167 -29.5 -66.5 -44.5s-54.166 -22.5 -77.499 -22.5c-52 0 -88.333 47.333 -109 142c-9.33301 40.667 -15 78.667 -17 114c42.667 10 74.5 22.167 95.5 36.5
s31.5 32.666 31.5 54.999s-11.333 33.5 -34 33.5s-60.667 -22.667 -114 -68c-33.333 -140.667 -50 -237 -50 -289c-36.667 -10.667 -84.334 -16 -143.001 -16c-0.666992 11.333 -1 21.333 -1 30c0 28.667 19.167 126.667 57.5 294s57.5 280.666 57.5 339.999z" />
    <glyph glyph-name="l" unicode="l" horiz-adv-x="266" 
d="M50.5 11c-15 15.333 -22.5 36.832 -22.5 64.499s16.5 116 49.5 265s49.5 256.5 49.5 322.5l-6 44c52 18 100.667 27 146 27c6.66699 -9.33301 10 -25.666 10 -48.999c0 -53.333 -16.833 -156.5 -50.5 -309.5s-50.5 -242 -50.5 -267s3 -37.5 9 -37.5l70 25l18 -35
c-22.667 -18 -50.167 -34.667 -82.5 -50s-60 -23 -83 -23s-42 7.66699 -57 23z" />
    <glyph glyph-name="m" unicode="m" horiz-adv-x="734" 
d="M57 -3l-19 -0.000976562c0 31.333 9.5 91.333 28.5 180s28.5 139 28.5 151c0 22 -9.33301 45.333 -28 70l-9 12l1 13c36 10 93.667 15 173 15c9.33301 -12.667 14 -33.334 14 -62.001c60 44.667 107.667 67 143 67c44.667 0 71 -23 79 -69
c18 14.667 41.5 29.834 70.5 45.501s55 23.5 78 23.5s42.167 -7.5 57.5 -22.5s23 -35.833 23 -62.5s-7.33301 -70.667 -22 -132s-22 -102.5 -22 -123.5s3 -31.5 9 -31.5c4 0 17.667 6.33301 41 19l11 6l18 -35c-17.333 -17.333 -40.833 -33.833 -70.5 -49.5
s-55.834 -23.5 -78.501 -23.5c-50 0 -75 28.333 -75 85c0 20.667 7.16699 62.167 21.5 124.5s21.5 103 21.5 122s-5.66699 28.5 -17 28.5c-19.333 0 -41.333 -7.33301 -66 -22c-1.33301 -13.333 -10.5 -58.666 -27.5 -135.999s-25.5 -137.333 -25.5 -180
c-19.333 -8.66699 -64.666 -13 -135.999 -13c-1.33301 7.33301 -2 25 -2 53s7.83301 75.667 23.5 143s23.5 110 23.5 128s-6.33301 27 -19 27c-20 0 -42 -8 -66 -24l-20 -88c-24 -105.333 -36 -180.333 -36 -225c-23.333 -9.33301 -65.333 -14 -126 -14z" />
    <glyph glyph-name="n" unicode="n" horiz-adv-x="508" 
d="M57 -3h-19.001c0 31.333 9.5 91.333 28.5 180s28.5 139 28.5 151c0 22 -9.33301 45.333 -28 70l-9 12l1 13c36 10 93.667 15 173 15c8.66699 -11.333 13.334 -32 14.001 -62c58 44.667 107 67 147 67c24 0 43.167 -8.33301 57.5 -25s21.5 -37.5 21.5 -62.5
s-7.66699 -68.167 -23 -129.5s-23 -102.5 -23 -123.5s2.66699 -31.5 8 -31.5c4 0 18 6.33301 42 19l12 6l18 -35c-6 -5.33301 -14 -12 -24 -20s-28.5 -18.833 -55.5 -32.5s-51.167 -20.5 -72.5 -20.5c-48.667 0 -73 27.667 -73 83c0 23.333 7.5 66.333 22.5 129
s22.5 103 22.5 121s-5.66699 27 -17 27c-19.333 0 -43 -8.33301 -71 -25c-2 -11.333 -8.66699 -41.333 -20 -90c-23.333 -104.667 -35 -178.667 -35 -222c-23.333 -9.33301 -65.333 -14 -126 -14z" />
    <glyph glyph-name="o" unicode="o" horiz-adv-x="409" 
d="M170 -12c-46 0 -81.998 16.166 -107.998 48.499s-39 77.5 -39 135.5c0 74 19.833 137.667 59.5 191s94.5 80 164.5 80l36 -2c11.333 6 24 9 38 9c52.667 0 79 -49.667 79 -149c27.333 1.33301 55 5 83 11l16 4l6 -39c-22 -9.33301 -51.667 -17.666 -89 -24.999l-20 -4
c-12.667 -70 -38.334 -130.833 -77.001 -182.5s-88.334 -77.5 -149.001 -77.5zM224.002 73.999c28 0 53.168 18 75.501 54s37.833 74 46.5 114c-71.333 0 -107 26.667 -107 80c0 21.333 4.33301 41.333 13 60l5 10c-2.66699 1.33301 -6 2 -10 2s-7 -0.666992 -9 -2
c-16.667 -10.667 -32.334 -35.667 -47.001 -75s-22 -84.333 -22 -135c0 -72 18.333 -108 55 -108z" />
    <glyph glyph-name="p" unicode="p" horiz-adv-x="477" 
d="M1 -224c-3.33301 8 -4.99707 25.667 -4.99707 53s13 100.833 39 220.5s39 211.834 39 276.501c0 12.667 -3 26.167 -9 40.5s-12.333 25.5 -19 33.5l-9 11l1 13c31.333 10 86.666 15 165.999 15c7.33301 -14 12 -33.667 14 -59c51.333 42 94.166 63 128.499 63
s62 -14.333 83 -43s31.5 -70.667 31.5 -126c0 -96.667 -17.667 -168.5 -53 -215.5s-80 -70.5 -134 -70.5c-28 0 -51.333 4 -70 12l-10 4l7 39c6 -1.33301 13 -2 21 -2c17.333 0 32.5 8 45.5 24s22.833 36.333 29.5 61c13.333 49.333 20 95 20 137c0 60 -12.333 90 -37 90
c-19.333 0 -40 -7.66699 -62 -23c-2.66699 -46.667 -16.334 -128.334 -41.001 -245.001s-37 -210.667 -37 -282c-36 -14.667 -82.333 -23.667 -139 -27z" />
    <glyph glyph-name="q" unicode="q" horiz-adv-x="469" 
d="M238 -224c-4 8 -6 24.667 -6 50s11.667 96.333 35 213c-42 -34 -80.667 -51 -116 -51s-64 14 -86 42s-33 69.667 -33 125c0 92.667 18.667 163.834 56 213.501s82 74.5 134 74.5c28 0 61.667 -7.66699 101 -23c33.333 12 76 18 128 18c2 -12 3 -25.667 3 -41
c0 -72.667 -12.833 -174.334 -38.5 -305.001s-38.5 -227 -38.5 -289c-36 -14.667 -82.333 -23.667 -139 -27zM266 384c-25.333 0 -46.499 -22.168 -63.499 -66.501s-25.5 -96.166 -25.5 -155.499s12.667 -89 38 -89c22.667 0 44 8.66699 64 26c22.667 114.667 34 206 34 274
c-18.667 7.33301 -34.334 11 -47.001 11z" />
    <glyph glyph-name="r" unicode="r" horiz-adv-x="364" 
d="M50 -3l-6.99805 -0.00292969c-1.33301 5.33301 -2 17.5 -2 36.5s9 70.167 27 153.5s27 131 27 143c0 20.667 -9.33301 43.334 -28 68.001l-9 12l1 13c36 10 93.667 15 173 15c8 -17.333 12 -41.666 12 -72.999c7.33301 12 22.666 28 45.999 48s47.333 30 72 30
c36 0 54 -31.333 54 -94l-13.5 -15.5c-5.66699 -6.33301 -17 -15.166 -34 -26.499s-33.5 -18.333 -49.5 -21c-0.666992 0 -6.33398 9 -17.001 27s-18.667 27 -24 27c-16.667 -6 -31.334 -16 -44.001 -30c-30.667 -138 -46 -227.333 -46 -268c0 -14.667 0.333008 -25 1 -31
c-23.333 -9.33301 -69.666 -14 -138.999 -14z" />
    <glyph glyph-name="s" unicode="s" horiz-adv-x="355" 
d="M339 131c0 -42 -18.498 -76.3311 -55.498 -102.998s-79.167 -40 -126.5 -40s-84.833 10 -112.5 30s-41.5 37.667 -41.5 53c0 9.33301 11.667 24.5 35 45.5s43 33.833 59 38.5c33.333 -24.667 60.666 -63.667 81.999 -117c24.667 2 37 13.667 37 35
c0 30.667 -27 74.167 -81 130.5s-81 101.166 -81 134.499s15 59.166 45 77.499s66.167 27.5 108.5 27.5s74.166 -7.5 95.499 -22.5s32 -35.333 32 -61s-20.333 -61.167 -61 -106.5l18 -18.5c7.33301 -7.66699 17 -22.167 29 -43.5s18 -41.333 18 -60zM285.002 359.002
c0 23.333 -16 35.001 -48 35.001c-15.333 0 -28 -3.16699 -38 -9.5s-15 -13.5 -15 -21.5c0 -14.667 14.667 -35.334 44 -62.001l15 -13c28 24 42 47.667 42 71z" />
    <glyph glyph-name="t" unicode="t" horiz-adv-x="295" 
d="M343 431c-1.33301 -16.667 -7 -35.999 -17 -57.999c-25.333 2.66699 -49.333 4 -72 4h-18c-30.667 -148.667 -46 -241.334 -46 -278.001c0 -19.333 4.16699 -29 12.5 -29s30.5 8.33301 66.5 25l18 -33c-59.333 -49.333 -114.333 -74 -165 -74
c-23.333 0 -42.5 7.33301 -57.5 22s-22.5 34.167 -22.5 58.5s2.83301 51.833 8.5 82.5s13.5 68.167 23.5 112.5s17.333 80.166 22 107.499c-24.667 -2 -43 -4 -55 -6c-1.33301 8 -2 18.833 -2 32.5s1 24.834 3 33.501h63c5.33301 36 8 70 8 102l-1 31v3c52 18 101 27 147 27
c2.66699 -13.333 4 -30 4 -50s-5.66699 -57.667 -17 -113h97z" />
    <glyph glyph-name="u" unicode="u" horiz-adv-x="499" 
d="M64 221.5c17.333 69 26 111.335 26 127.002s-12 36.5 -36 62.5l1 13c45.333 9.33301 105 14 179 14c3.33301 -8.66699 5 -24.334 5 -47.001s-9.33301 -71 -28 -145s-28 -120 -28 -138s6.66699 -27 20 -27c19.333 0 41.666 7 66.999 21
c2.66699 16 9.33398 46.667 20.001 92c24 106.667 36 183 36 229c23.333 9.33301 65.333 14 126 14h19c0 -31.333 -9.33301 -92.5 -28 -183.5s-28 -144.333 -28 -160s3.33301 -23.5 10 -23.5c4 0 23 8 57 24l19 -32c-59.333 -49.333 -111.333 -74 -156 -74
c-21.333 0 -39.5 6 -54.5 18s-23.5 27.667 -25.5 47c-54 -44 -103 -66 -147 -66c-23.333 0 -42.5 7.66699 -57.5 23s-22.5 37.166 -22.5 65.499s8.66699 77 26 146z" />
    <glyph glyph-name="v" unicode="v" horiz-adv-x="394" 
d="M192.5 425c14.333 -12 21.501 -36.666 21.501 -73.999c0 -20 -6 -60.833 -18 -122.5s-18 -99.167 -18 -112.5c0 -26.667 5.33301 -40 16 -40c25.333 0 53.166 18.833 83.499 56.5s46.166 69.167 47.499 94.5l-68 76c2.66699 28.667 9.66699 54.667 21 78
s22 39.666 32 48.999l14 13c28.667 0 50.334 -7.66699 65.001 -23s22 -33.333 22 -54c0 -52.667 -13 -108.334 -39 -167.001s-60.667 -108.5 -104 -149.5s-87.333 -61.5 -132 -61.5c-28 0 -49.5 8.66699 -64.5 26s-22.5 40.166 -22.5 68.499s2.16699 66.5 6.5 114.5
s6.5 95.667 6.5 143c0 10.667 -3.83301 23.334 -11.5 38.001s-15.5 26.334 -23.5 35.001l3 12c36 12 68.5 18 97.5 18s50.667 -6 65 -18z" />
    <glyph glyph-name="w" unicode="w" horiz-adv-x="624" 
d="M52 82l10.999 261.002c0 22.667 -12 46 -36 70l2 12c4.66699 1.33301 9.16699 2.5 13.5 3.5l15 3.5c5.66699 1.33301 12.167 2.66602 19.5 3.99902l23 4c18.667 2 36.167 3 52.5 3s30.333 -6.66699 42 -20s17.5 -34.5 17.5 -63.5s-4.5 -70.333 -13.5 -124
s-13.5 -93.667 -13.5 -120s6.33301 -39.5 19 -39.5c20.667 0 43.334 13 68.001 39c0.666992 10.667 5 44.667 13 102s12 99 12 125s-2 48.333 -6 67c51.333 19.333 97.333 29 138 29c8.66699 -6 13 -25.5 13 -58.5s-5.66699 -78.667 -17 -137s-17 -100.666 -17 -126.999
s5.33301 -39.5 16 -39.5c25.333 0 53 18.833 83 56.5s46 69.167 48 94.5l-68 76c2.66699 28.667 9.66699 54.667 21 78s22 39.666 32 48.999l14 13c28.667 0 50.334 -7.66699 65.001 -23s22 -33.333 22 -54c0 -52.667 -13 -108.334 -39 -167.001s-61 -108.5 -105 -149.5
s-88.667 -61.5 -134 -61.5c-22.667 0 -41.834 6.5 -57.501 19.5s-26.167 29.833 -31.5 50.5c-46.667 -46.667 -92 -70 -136 -70c-29.333 0 -51 9.16699 -65 27.5s-21 40.5 -21 66.5z" />
    <glyph glyph-name="x" unicode="x" horiz-adv-x="391" 
d="M342 68c4 0 17.335 5.99805 40.002 17.998l10 5l18 -35c-5.33301 -5.33301 -12.333 -11.666 -21 -18.999s-25.5 -17.333 -50.5 -30s-48.667 -19 -71 -19s-40.333 5.83301 -54 17.5s-24.834 30.834 -33.501 57.501l-23 71c-50 -54 -87.333 -102.333 -112 -145
c-4.66699 0 -16.167 3.33301 -34.5 10s-31.833 12.334 -40.5 17.001c19.333 34 75 94.333 167 181c-23.333 70 -42 119 -56 147c-2.66699 5.33301 -18.667 24.333 -48 57l3 12l61 13c35.333 5.33301 66.666 8.66602 93.999 9.99902c14 -11.333 25.167 -32.333 33.5 -63
l19.5 -70c49.333 54 81.666 99.333 96.999 136c18.667 -2.66699 37 -9.66699 55 -21l9 -5c-23.333 -44 -70.666 -101.667 -141.999 -173c7.33301 -25.333 14 -46.333 20 -63c25.333 -72.667 45 -109 59 -109z" />
    <glyph glyph-name="y" unicode="y" horiz-adv-x="457" 
d="M133 -147c0 -12.667 7.16699 -19.001 21.5 -19.001s30.5 6.83301 48.5 20.5s33 35.834 45 66.501c-32 -6 -59.167 -15.667 -81.5 -29s-33.5 -26.333 -33.5 -39zM118 -4.00098c-56 0 -83.998 30.667 -83.998 92c0 14.667 6.66699 57 20 127s20 128.333 20 175
c0 10 -1.33301 19.333 -4 28c36 14 85.333 21 148 21c3.33301 -9.33301 5 -25.333 5 -48s-7.33301 -69.667 -22 -141s-22 -117.333 -22 -138s8.66699 -31 26 -31c20.667 0 45.667 10.333 75 31c3.33301 39.333 16.666 143 39.999 311c23.333 9.33301 65.333 14 126 14h19
c-12.667 -50 -25 -122 -37 -216s-21.667 -159.333 -29 -196c-14 -73.333 -39.833 -133.166 -77.5 -179.499s-86.834 -69.5 -147.501 -69.5c-24 0 -45.833 6.33301 -65.5 19s-29.5 29 -29.5 49c0 26.667 16.333 51 49 73s76.667 39 132 51c6 29.333 10.667 57.666 14 84.999
c-54 -38 -106 -57 -156 -57z" />
    <glyph glyph-name="z" unicode="z" horiz-adv-x="389" 
d="M131 443l191.002 -8.00195c21.333 0 41.666 1 60.999 3l9 -32l-19 -22c-36 -43.333 -76 -95.166 -120 -155.499l-72 -98.5c61.333 -22 107.666 -33 138.999 -33c10 0 17 2 21 6c6 6 13.667 19 23 39l30 -7c-4.66699 -75.333 -20 -123.333 -46 -144
c-12.667 -10 -28.334 -15 -47.001 -15s-48.5 11.5 -89.5 34.5s-74.167 37.833 -99.5 44.5c-28 -38 -47.333 -57 -58 -57s-24 8.83301 -40 26.5s-24 31.5 -24 41.5s10.5 27.167 31.5 51.5s42.833 36.5 65.5 36.5c4.66699 0 8.33398 -0.333008 11.001 -1
c54 52.667 102.667 112.334 146 179.001c-57.333 -0.666992 -97.333 -2.5 -120 -5.5s-44.667 -10.5 -66 -22.5c-5.33301 23.333 -8 47.5 -8 72.5s1 42.833 3 53.5c8.66699 8.66699 34.667 13 78 13z" />
    <glyph glyph-name="braceleft" unicode="{" horiz-adv-x="430" 
d="M228 390l-3.00098 221.999c0 30 9.5 58 28.5 84s45.5 39 79.5 39s71.667 -8.66699 113 -26l-5 -41c-43.333 0 -69.333 -4.66699 -78 -14s-16 -34.166 -22 -74.499s-11.667 -91 -17 -152s-9 -98.167 -11 -111.5c-4 -28.667 -21.667 -49.667 -53 -63
c24 -14.667 36 -34.167 36 -58.5s-7 -76.833 -21 -157.5s-21 -129.334 -21 -146.001s1 -27.334 3 -32.001c3.33301 -9.33301 11.666 -17 24.999 -23s26 -10 38 -12l18 -2l-6 -41c-19.333 -3.33301 -41.666 -5 -66.999 -5c-88 0 -132 37.333 -132 112
c0 24 12.167 77.333 36.5 160s39.166 138.334 44.499 167.001c-3.33301 4 -16.166 7.83301 -38.499 11.5s-43.5 6.16699 -63.5 7.5l-31 2l10 73c58.667 -8 99.334 -12 122.001 -12l11 1c2.66699 24.667 4 55.334 4 92.001z" />
    <glyph glyph-name="bar" unicode="|" horiz-adv-x="266" 
d="M199 794v-938c-15.333 -2 -44.333 -3 -87 -3v938c23.333 2 52.333 3 87 3z" />
    <glyph glyph-name="braceright" unicode="}" horiz-adv-x="433" 
d="M249 121l3.00195 -221.996c0 -30 -9.5 -58 -28.5 -84s-45.5 -39 -79.5 -39s-71.667 8.66699 -113 26l5 41c43.333 0 69.333 4.66699 78 14s16 34.166 22 74.499s11.667 91 17 152s9 98.167 11 111.5c4 28.667 21.667 49.667 53 63c-24 14.667 -36 34.167 -36 58.5
s7 76.833 21 157.5s21 129.167 21 145.5s-1.33301 28.166 -4 35.499s-10.667 14 -24 20s-26 9.66699 -38 11l-18 3l6 41c19.333 3.33301 41.666 5 66.999 5c88 0 132 -37.333 132 -112c0 -24 -12.167 -77.333 -36.5 -160s-39.166 -138.334 -44.499 -167.001
c3.33301 -4 16.166 -7.83301 38.499 -11.5s43.833 -6.16699 64.5 -7.5l30 -2l-10 -73c-58.667 8 -99.334 12 -122.001 12l-11 -1c-2.66699 -24.667 -4 -55.334 -4 -92.001z" />
    <glyph glyph-name="asciitilde" unicode="~" horiz-adv-x="535" 
d="M376 235c-17.333 0 -50.998 4.33203 -100.998 12.999s-86.167 13 -108.5 13s-36.5 -0.333008 -42.5 -1c-18 -3.33301 -33.333 -14.666 -46 -33.999l-31 7c5.33301 36.667 18.833 67.167 40.5 91.5s48 36.5 79 36.5s72.167 -4 123.5 -12s87.166 -12 107.499 -12
s35.833 2 46.5 6s20.667 12.667 30 26l31 -6c-6.66699 -38.667 -19.334 -69.667 -38.001 -93s-49 -35 -91 -35z" />
    <glyph glyph-name="nbspace" unicode="&#xa0;" horiz-adv-x="200" 
 />
    <glyph glyph-name="exclamdown" unicode="&#xa1;" horiz-adv-x="275" 
d="M16 -233c0 66 21.668 169.668 65.001 311.001l18.5 61.5l20.5 68.5c18 7.33301 34.667 11 50 11s26.666 -1.33301 33.999 -4c-24 -144.667 -36 -272.334 -36 -383.001l6 -84c-56.667 -18 -107 -27 -151 -27c-4.66699 6 -7 21.333 -7 46zM273.001 371.001
c0 -22 -9.16602 -41.334 -27.499 -58.001s-39.5 -25 -63.5 -25s-42.667 6.66699 -56 20s-20 30.833 -20 52.5s9.5 40.834 28.5 57.501s40.167 25 63.5 25s41.666 -6.5 54.999 -19.5s20 -30.5 20 -52.5z" />
    <glyph glyph-name="cent" unicode="&#xa2;" horiz-adv-x="388" 
d="M252 393c-22.667 0 -43.001 -20.333 -61.001 -61s-27 -80 -27 -118c0 -80 24.667 -120 74 -120c16 0 33 3.83301 51 11.5s32.333 15.167 43 22.5l15 12l23 -31l-21.5 -21c-9 -8.66699 -27.833 -21.167 -56.5 -37.5s-57.667 -26.5 -87 -30.5
c-7.33301 -49.333 -11 -87.333 -11 -114c-30.667 0 -52.667 3.33301 -66 10l19 104c-43.333 6 -75.666 25.5 -96.999 58.5s-32 78.167 -32 135.5s19.667 107.833 59 151.5s88 68.834 146 75.501c8 66.667 12 106.667 12 120c26.667 0 48.667 -3.33301 66 -10l-21 -110
c36.667 -4 65.5 -15.833 86.5 -35.5s31.5 -43.334 31.5 -71.001s-9.33301 -52.167 -28 -73.5c-16.667 0 -36 3.66699 -58 11s-38.667 16.333 -50 27l15 88c-6 4 -14.333 6 -25 6z" />
    <glyph glyph-name="sterling" unicode="&#xa3;" horiz-adv-x="523" 
d="M432 431c-1.33301 -16.667 -7.00098 -35.998 -17.001 -57.998c-25.333 2.66699 -62.666 4 -111.999 4h-27c-20 -86 -45.333 -161.667 -76 -227c2.66699 -0.666992 12.5 -3.33398 29.5 -8.00098s28.333 -7.66699 34 -9l31 -7c15 -3.33301 27.5 -5.66602 37.5 -6.99902
c28.667 -4 51.667 -6 69 -6s30 4 38 12l30 56l32 -10c0 -43.333 -7 -84.333 -21 -123c-8 -20.667 -20.5 -37 -37.5 -49s-37 -18 -60 -18s-57.333 14 -103 42s-82.167 46 -109.5 54c-18 -24 -38.333 -44 -61 -60s-38.334 -24 -47.001 -24c-6.66699 0 -20 14.5 -40 43.5
s-30 49.833 -30 62.5c0 7.33301 10.5 18.333 31.5 33s43.167 24.667 66.5 30c14.667 40.667 29 110 43 208c-16.667 -0.666992 -31 -2.33398 -43 -5.00098c-1.33301 8 -2 17.667 -2 29s1 23.666 3 36.999h50l9 72c12 94.667 38.333 157.667 79 189
c20.667 16 42.334 26.833 65.001 32.5s52.667 8.5 90 8.5s74 -10.667 110 -32s54 -48 54 -80c0 -14.667 -3.33301 -30.5 -10 -47.5s-14.334 -29.833 -23.001 -38.5c-16.667 0 -38 5.5 -64 16.5s-45.333 22.833 -58 35.5l18 86c-7.33301 6 -17.166 9 -29.499 9
s-22.333 -3 -30 -9s-14 -13.833 -19 -23.5s-9.5 -23.167 -13.5 -40.5l-9 -40c-2 -9.33301 -5 -26.5 -9 -51.5l-7 -43.5l-7 -43h145z" />
    <glyph glyph-name="currency" unicode="&#xa4;" horiz-adv-x="654" 
d="M151 217c-23.333 36 -34.999 79.332 -34.999 129.999s11 94.334 33 131.001c-46.667 38.667 -80.667 72.334 -102 101.001c30.667 39.333 54 59 70 59c7.33301 0 14.666 -4 21.999 -12s18.5 -21.5 33.5 -40.5s27.833 -33.833 38.5 -44.5c38 22.667 82.667 34 134 34
s96 -11.333 134 -34c26.667 34.667 47 62.334 61 83.001c6.66699 9.33301 14.334 13.833 23.001 13.5s15.334 -1.5 20.001 -3.5c11.333 -4.66699 29 -22 53 -52c-20.667 -28.667 -52.334 -62.667 -95.001 -102c23.333 -37.333 35 -81 35 -131s-11.667 -93.667 -35 -131
c44.667 -40.667 76.334 -74.334 95.001 -101.001c-30.667 -38 -54 -57 -70 -57c-9.33301 0 -17 3.83301 -23 11.5l-30.5 40.5l-33.5 45c-36 -22.667 -80.5 -34 -133.5 -34s-98.167 11.667 -135.5 35c-0.666992 -0.666992 -20.334 -29 -59.001 -85c-6 -8 -13 -12 -21 -12
c-18 0 -42.333 18.667 -73 56c23.333 31.333 54.666 64.666 93.999 99.999zM238.501 452.999c-24.333 -26.667 -36.5 -61.167 -36.5 -103.5s12.167 -77 36.5 -104s60 -40.5 107 -40.5s82.833 13.5 107.5 40.5s37 61.5 37 103.5s-12.333 76.5 -37 103.5
s-60.5 40.5 -107.5 40.5s-82.667 -13.333 -107 -40z" />
    <glyph glyph-name="yen" unicode="&#xa5;" horiz-adv-x="489" 
d="M433 204c-1.33301 -16.667 -7 -36 -17 -58l-118 4c-7.33301 -45.333 -11 -88.666 -11 -129.999c-21.333 -13.333 -69.666 -20 -144.999 -20h-4c0 29.333 7 78.333 21 147c-42.667 -2 -78.334 -5 -107.001 -9c-1.33301 8 -2 17.667 -2 29s1 23.666 3 36.999h117l10 47
c-57.333 -2.66699 -96 -5.66699 -116 -9c-1.33301 8 -2 17.667 -2 29s1 23.666 3 36.999h127c-6.66699 6.66699 -12.334 16.334 -17.001 29.001c-10.667 26 -21.334 73 -32.001 141s-19.167 111.167 -25.5 129.5s-12.166 29.166 -17.499 32.499l-39 42l3 13
c58.667 10 118.667 15 180 15c10 -17.333 16.5 -39.166 19.5 -65.499s6.16699 -58.5 9.5 -96.5c6.66699 -74 14 -124 22 -150c4 0 6.33301 0.333008 7 1c23.333 35.333 49 82.833 77 142.5s49.333 115.167 64 166.5c38 0 67.667 -5 89 -15
c-6 -9.33301 -33.167 -62 -81.5 -158s-87.166 -167.333 -116.499 -214l-3 -13h114c-1.33301 -16.667 -7 -36 -17 -58l-110 4l-10 -50h125z" />
    <glyph glyph-name="brokenbar" unicode="&#xa6;" horiz-adv-x="276" 
d="M112 -147v436h87v-433c-15.333 -2 -44.333 -3 -87 -3zM199 403h-87v388c1.33301 0 30.333 1 87 3v-391z" />
    <glyph glyph-name="section" unicode="&#xa7;" horiz-adv-x="479" 
d="M464 274c0 -68.667 -48.333 -121.004 -145 -157.004c39.333 -52.667 59 -100 59 -142s-19.833 -77 -59.5 -105s-83.167 -42 -130.5 -42c-28.667 0 -57.667 5.66699 -87 17s-52 23.333 -68 36s-24.333 22.334 -25 29.001c5.33301 16.667 18.5 34.334 39.5 53.001
s40.5 30.667 58.5 36c26.667 -18.667 49.334 -56.334 68.001 -113.001c18 0 34 4.33301 48 13s21 22.667 21 42s-6.66699 40 -20 62s-29.666 43.667 -48.999 65l-58 66c-46 54 -69 105.333 -69 154c0 70.667 48.333 121.334 145 152.001
c-39.333 52.667 -59 100.334 -59 143.001s19.833 78.5 59.5 107.5s82.834 43.5 129.501 43.5s83 -10.167 109 -30.5s39 -44.5 39 -72.5c0 -48 -18.333 -87 -55 -117c-11.333 4 -21.5 9.5 -30.5 16.5s-16.833 15.5 -23.5 25.5c28.667 22.667 43 45.667 43 69
c0 14.667 -6.33301 26.334 -19 35.001s-29.334 13 -50.001 13s-37.334 -5.5 -50.001 -16.5s-19.334 -26.5 -20.001 -46.5c3.33301 -31.333 28.333 -73 75 -125l56 -65c45.333 -53.333 68 -102 68 -146zM331 240.996c0 11.333 -3 22.333 -9 33l-13.5 23.5
c-3 5 -8.5 12.5 -16.5 22.5l-17.5 21.5l-21 24l-20.5 23.5c-36 -18.667 -54 -42.667 -54 -72c0 -12 3 -23.333 9 -34s10.667 -18.667 14 -24s9 -13 17 -23l17.5 -21.5l21.5 -24.5l21 -24c34.667 22.667 52 47.667 52 75z" />
    <glyph glyph-name="dieresis" unicode="&#xa8;" horiz-adv-x="509" 
d="M106 557c-10.667 12 -15.999 28 -15.999 48s7.5 37.167 22.5 51.5s32.167 21.5 51.5 21.5c42 0 63 -21.667 63 -65c0 -19.333 -7.66699 -36.5 -23 -51.5s-32.833 -22.5 -52.5 -22.5s-34.834 6 -45.501 18zM301.501 556.5c-10.333 11.667 -15.5 27.6689 -15.5 48.002
s7.5 37.666 22.5 51.999s32.5 21.5 52.5 21.5s35.333 -5.83301 46 -17.5s16 -27.334 16 -47.001s-7.66699 -37 -23 -52s-33 -22.5 -53 -22.5s-35.167 5.83301 -45.5 17.5z" />
    <glyph glyph-name="copyright" unicode="&#xa9;" horiz-adv-x="793" 
d="M544 543c28 -20 42 -42.167 42 -66.5s-5 -45.166 -15 -62.499c-17.333 0 -37 2.83301 -59 8.5s-38.333 12.5 -49 20.5l7 70c-11.333 6.66699 -22.333 10 -33 10c-28.667 0 -51.834 -16.833 -69.501 -50.5s-26.5 -81.834 -26.5 -144.501c0 -38.667 8.33301 -69.667 25 -93
s36.667 -35 60 -35c34.667 0 69.334 15 104.001 45l24 -32c-22 -33.333 -56.333 -57.333 -103 -72c-18.667 -6 -38.334 -9 -59.001 -9c-51.333 0 -94.166 17 -128.499 51s-51.5 83.167 -51.5 147.5s22.5 120.833 67.5 169.5s100.833 73 167.5 73c36.667 0 69 -10 97 -30z
M132 89.5c-64.667 67.667 -96.999 153.501 -96.999 257.501s33 190.5 99 259.5s158.167 103.5 276.5 103.5s209.666 -33.667 273.999 -101s96.5 -153.833 96.5 -259.5s-32.333 -192.334 -97 -260.001s-156.667 -101.5 -276 -101.5s-211.333 33.833 -276 101.5z
M185.001 560.001c-53.333 -56.667 -80 -127.501 -80 -212.501s26 -155.333 78 -211s127 -83.5 225 -83.5s173 27.833 225 83.5s78 126.834 78 213.501s-26 157.5 -78 212.5s-126.333 82.5 -223 82.5s-171.667 -28.333 -225 -85z" />
    <glyph glyph-name="ordfeminine" unicode="&#xaa;" horiz-adv-x="385" 
d="M200 321c-19.333 -10 -38.832 -15.001 -58.499 -15.001s-37.834 9.83301 -54.501 29.5s-25 51.834 -25 96.501c0 64 16.5 118 49.5 162s76.5 66 130.5 66c20.667 0 64.334 -9.33301 131.001 -28c-12.667 -32 -24.167 -73.833 -34.5 -125.5s-15.5 -87.167 -15.5 -106.5
s3.66699 -29 11 -29l36 8l11 -28c-36.667 -30.667 -68.334 -46 -95.001 -46c-24 0 -37.667 17 -41 51c-10.667 -13.333 -25.667 -25 -45 -35zM180.001 375.999c19.333 0 39.6689 11.333 61.002 34c16 90.667 30 154 42 190c-8.66699 4.66699 -22.334 7 -41.001 7
s-35.334 -9.66699 -50.001 -29c-29.333 -38.667 -44 -87 -44 -145c0 -38 10.667 -57 32 -57z" />
    <glyph glyph-name="guillemotleft" unicode="&#xab;" horiz-adv-x="494" 
d="M234 492l42.999 -33.999c-60.667 -76 -98 -128.333 -112 -157c11.333 -34.667 38 -86.334 80 -155.001l-42 -35c-23.333 16 -55.166 46 -95.499 90s-60.5 75.667 -60.5 95c2 24 64.333 89.333 187 196zM429.999 492.001l42.999 -33.999
c-60.667 -76 -98 -128.333 -112 -157c11.333 -34.667 38 -86.334 80 -155.001l-42 -35c-23.333 16 -55.166 46 -95.499 90s-60.5 75.667 -60.5 95c2 24 64.333 89.333 187 196z" />
    <glyph glyph-name="logicalnot" unicode="&#xac;" horiz-adv-x="503" 
d="M449 388l-0.000976562 -219.001c-17.333 -8.66699 -47.666 -13 -90.999 -13v146h-309c0 42.667 2 71.334 6 86.001h394z" />
    <glyph glyph-name="uni00AD" unicode="&#xad;" horiz-adv-x="518" 
d="M76 159c0 41.333 3.33301 71.333 10 90h370c0 -44.667 -2 -74.667 -6 -90h-374z" />
    <glyph glyph-name="registered" unicode="&#xae;" horiz-adv-x="796" 
d="M132 89.5c-64.667 67.667 -97 154.334 -97 260.001s32.167 192.167 96.5 259.5s156.5 101 276.5 101s212.167 -33.667 276.5 -101s96.5 -153.833 96.5 -259.5s-32.333 -192.334 -97 -260.001s-156.667 -101.5 -276 -101.5s-211.333 33.833 -276 101.5zM183 562.5
c-52 -55 -78 -125.833 -78 -212.5s26 -157.834 78 -213.501s127 -83.5 225 -83.5s173 27.833 225 83.5s78 126.834 78 213.501s-26 157.5 -78 212.5s-127 82.5 -225 82.5s-173 -27.5 -225 -82.5zM232 149c-7.33301 0 -12.334 0.331055 -15.001 0.998047
c2.66699 24 14.167 80.333 34.5 169s30.5 144.667 30.5 168c0 8.66699 -8 21.334 -24 38.001l-7 8l4 16c63.333 13.333 128.666 20 195.999 20c38.667 0 69.334 -7.33301 92.001 -22s34 -37 34 -67c0 -62 -31.333 -104 -94 -126c2 -7.33301 16.667 -39.333 44 -96
c14 -30 27.333 -45 40 -45l34 8l13 -27c-37.333 -30 -73.5 -45 -108.5 -45s-59.167 16.833 -72.5 50.5s-27.333 78.834 -42 135.501c-5.33301 -0.666992 -13.666 -1 -24.999 -1c-20 -92.667 -30.667 -150 -32 -172c-17.333 -8.66699 -51.333 -13 -102 -13zM393.999 382.998
c23.333 0 41 9.16797 53 27.501s18 42.666 18 72.999s-10.667 45.5 -32 45.5l-27 -4c-9.33301 -46.667 -19.333 -94 -30 -142h18z" />
    <glyph glyph-name="macron" unicode="&#xaf;" horiz-adv-x="469" 
d="M138 576c-2 10 -3 22 -3 36s1.33301 29.667 4 47h332l-9 -80c-42.667 2.66699 -98.167 4 -166.5 4s-120.833 -2.33301 -157.5 -7z" />
    <glyph glyph-name="degree" unicode="&#xb0;" horiz-adv-x="233" 
d="M268.5 690.5c21 -15.667 31.501 -40.001 31.501 -73.001s-12.333 -64 -37 -93s-60.334 -43.5 -107.001 -43.5c-33.333 0 -61 8.33301 -83 25s-33 42.834 -33 78.501s12.833 66.167 38.5 91.5s58.5 38 98.5 38s70.5 -7.83301 91.5 -23.5zM160.001 529.999
c22 0 37.332 9 45.999 27s13 38.667 13 62c0 30.667 -13 46 -39 46c-21.333 0 -36.666 -8.66699 -45.999 -26s-14 -38.333 -14 -63c0 -30.667 13.333 -46 40 -46z" />
    <glyph glyph-name="plusminus" unicode="&#xb1;" horiz-adv-x="545" 
d="M310 308l0.000976562 -142c-13.333 -6 -41 -9 -83 -9h-9v151h-139c0 40.667 1.33301 70.667 4 90h135v138c21.333 5.33301 51.666 8 90.999 8v-146h148c0 -54.667 -1 -84.667 -3 -90h-144zM79.001 12c0 44 3.66699 74 11 90h368c0 -46.667 -1.33301 -76.667 -4 -90h-375z
" />
    <glyph glyph-name="twosuperior" unicode="&#xb2;" horiz-adv-x="363" 
d="M339 369c-10.667 -12 -23.167 -17.999 -37.5 -17.999s-31.333 3.5 -51 10.5s-39.167 14.833 -58.5 23.5s-31.333 13.667 -36 15c-14.667 -12 -29.334 -21.5 -44.001 -28.5s-24.667 -10.5 -30 -10.5s-12.833 6.5 -22.5 19.5s-14.5 22.667 -14.5 29s7.33301 15.833 22 28.5
s29.667 19 45 19c4 0 12 -0.666992 24 -2c25.333 16.667 49.166 41.667 71.499 75s33.5 65.666 33.5 96.999s-12 47 -36 47c-11.333 0 -23.666 -4.5 -36.999 -13.5s-24.666 -20.833 -33.999 -35.5l-34 19c39.333 60 88.666 90 147.999 90c34 0 60.333 -8 79 -24
s28 -40 28 -72s-15.5 -66 -46.5 -102s-65.5 -66.667 -103.5 -92c45.333 -10.667 75.833 -16 91.5 -16s25.834 2 30.501 6l16 25l21 -6c0 -37.333 -8.33301 -65.333 -25 -84z" />
    <glyph glyph-name="threesuperior" unicode="&#xb3;" horiz-adv-x="319" 
d="M139 713.5c23.333 13.667 51.332 20.4971 83.999 20.4971s58.667 -7.16699 78 -21.5s29 -32.166 29 -53.499s-8.66699 -40.166 -26 -56.499s-40.333 -28.166 -69 -35.499c66 -8 99 -39.333 99 -94c0 -33.333 -12.667 -62.5 -38 -87.5s-59.333 -37.5 -102 -37.5
s-78 7 -106 21s-42 33.333 -42 58c0 16.667 4.66699 30.667 14 42c4 0.666992 10.667 1 20 1c22.667 0 41.334 -8 56.001 -24l-6 -48c5.33301 -4.66699 12.666 -7 21.999 -7c19.333 0 35.5 8 48.5 24s19.5 36.333 19.5 61s-6.83301 41 -20.5 49s-34.834 12 -63.501 12l-2 33
c8.66699 0 18.334 1.33301 29.001 4c38.667 8.66699 58 30 58 64c0 28 -12.667 42 -38 42s-48.666 -12.667 -69.999 -38l-28 22c12.667 19.333 30.667 35.833 54 49.5z" />
    <glyph glyph-name="acute" unicode="&#xb4;" horiz-adv-x="607" 
d="M447 616c0 -18.667 -12 -33.667 -36 -45c-32.667 -15.333 -114.334 -38 -245.001 -68l-18 40c62.667 32.667 119.334 66 170.001 100s82 54.667 94 62c6.66699 -9.33301 14.167 -24 22.5 -44s12.5 -35 12.5 -45z" />
    <glyph glyph-name="mu" unicode="&#xb5;" horiz-adv-x="503" 
d="M70 219c16 62 24 103.003 24 123.003s-12 43 -36 69l1 13c36.667 10 97 15 181 15c2 -4.66699 3 -13 3 -25c0 -40 -9.33301 -96.5 -28 -169.5s-28 -118.5 -28 -136.5s6.66699 -27 20 -27c19.333 0 41.666 7 66.999 21c2.66699 16 9.33398 46.667 20.001 92
c24 106.667 36 183 36 229c23.333 9.33301 65.333 14 126 14h19c0 -31.333 -9.33301 -92.5 -28 -183.5s-28 -144.333 -28 -160s3.33301 -23.5 10 -23.5c4 0 23 8 57 24l19 -32c-59.333 -49.333 -111.333 -74 -156 -74c-21.333 0 -39.5 6 -54.5 18s-23.5 27.667 -25.5 47
c-54 -42 -100.667 -64 -140 -66c-2.66699 -26.667 -4 -55.834 -4 -87.501s5 -64.167 15 -97.5c-28.667 -11.333 -64 -19 -106 -23l-30 -3c-2 17.333 -3 34.666 -3 51.999c0 77.333 23 207.666 69 390.999z" />
    <glyph glyph-name="mu" unicode="&#x3bc;" horiz-adv-x="503" 
d="M70 219c16 62 24 103.003 24 123.003s-12 43 -36 69l1 13c36.667 10 97 15 181 15c2 -4.66699 3 -13 3 -25c0 -40 -9.33301 -96.5 -28 -169.5s-28 -118.5 -28 -136.5s6.66699 -27 20 -27c19.333 0 41.666 7 66.999 21c2.66699 16 9.33398 46.667 20.001 92
c24 106.667 36 183 36 229c23.333 9.33301 65.333 14 126 14h19c0 -31.333 -9.33301 -92.5 -28 -183.5s-28 -144.333 -28 -160s3.33301 -23.5 10 -23.5c4 0 23 8 57 24l19 -32c-59.333 -49.333 -111.333 -74 -156 -74c-21.333 0 -39.5 6 -54.5 18s-23.5 27.667 -25.5 47
c-54 -42 -100.667 -64 -140 -66c-2.66699 -26.667 -4 -55.834 -4 -87.501s5 -64.167 15 -97.5c-28.667 -11.333 -64 -19 -106 -23l-30 -3c-2 17.333 -3 34.666 -3 51.999c0 77.333 23 207.666 69 390.999z" />
    <glyph glyph-name="paragraph" unicode="&#xb6;" horiz-adv-x="581" 
d="M357 698l219.001 0.998047c4 -18 6 -44.5 6 -79.5s-6.5 -82.667 -19.5 -143s-27.5 -117.833 -43.5 -172.5s-31.667 -121.167 -47 -199.5s-25 -153.166 -29 -224.499c-24.667 -13.333 -53.334 -20 -86.001 -20h-10c1.33301 54.667 24.5 178.834 69.5 372.501
s69.5 325.834 73.5 396.501c-36 0 -58.333 -2.66699 -67 -8c-4 -72.667 -30.5 -204.334 -79.5 -395.001s-75.833 -314.334 -80.5 -371.001c-24.667 -13.333 -53.334 -20 -86.001 -20h-10c2.66699 50.667 22.334 159.334 59.001 326.001h-9c-49.333 0 -88.333 17.667 -117 53
s-43 85.333 -43 150c0 96 27 175.667 81 239s127 95 219 95z" />
    <glyph glyph-name="periodcentered" unicode="&#xb7;" horiz-adv-x="289" 
d="M93.5 276.5c-13 13.667 -19.501 31 -19.501 52s7.33301 39 22 54s33 22.5 55 22.5s39.5 -6.66699 52.5 -20s19.5 -30.5 19.5 -51.5s-7.66699 -39.167 -23 -54.5s-33.666 -23 -54.999 -23s-38.5 6.83301 -51.5 20.5z" />
    <glyph glyph-name="cedilla" unicode="&#xb8;" horiz-adv-x="495" 
d="M226 -94c0 -16 8 -23.9971 24 -23.9971s35 5.33301 57 16l11 6l18 -34c-4.66699 -4.66699 -11 -10.5 -19 -17.5s-24 -16.5 -48 -28.5s-46.333 -18 -67 -18s-37.334 6.16699 -50.001 18.5s-19 28.666 -19 48.999s9.83301 43.166 29.5 68.499s39.834 44.666 60.501 57.999
l64 -1c-17.333 -13.333 -31.833 -28.833 -43.5 -46.5s-17.5 -33.167 -17.5 -46.5z" />
    <glyph glyph-name="onesuperior" unicode="&#xb9;" horiz-adv-x="277" 
d="M271 733c4 -6.66699 6 -18 6 -34s-10.333 -68.667 -31 -158s-31.667 -148 -33 -176c-16.667 -7.33301 -50.667 -11 -102 -11h-7c1.33301 16.667 12 69.167 32 157.5s30 139.5 30 153.5l-2 12c-9.33301 -4.66699 -20.5 -12.167 -33.5 -22.5s-22.833 -17.833 -29.5 -22.5
l-28 36l77 57c26 4 66.333 6.66699 121 8z" />
    <glyph glyph-name="ordmasculine" unicode="&#xba;" horiz-adv-x="318" 
d="M324 627c22 -22 33 -51.833 33 -89.5s-6.33301 -73 -19 -106s-34.167 -62.167 -64.5 -87.5s-66.5 -38 -108.5 -38c-78.667 0 -118 44.333 -118 133c0 62 17.5 114.333 52.5 157s79.833 64 134.5 64c38 0 68 -11 90 -33zM161 551.5
c-17.333 -38.333 -26.001 -80.333 -26.001 -126s13.833 -68.5 41.5 -68.5s50 20.167 67 60.5s25.5 82.333 25.5 126s-13.667 65.5 -41 65.5s-49.666 -19.167 -66.999 -57.5z" />
    <glyph glyph-name="guillemotright" unicode="&#xbb;" horiz-adv-x="524" 
d="M291 111l-42.999 33.999c60.667 76 98 128.333 112 157c-11.333 34.667 -38 86.334 -80 155.001l42 35c23.333 -16 55.166 -46 95.499 -90s60.5 -75.667 60.5 -95c-2 -24 -64.333 -89.333 -187 -196zM95.001 110.999l-42.999 33.999c60.667 76 98 128.333 112 157
c-11.333 34.667 -38 86.334 -80 155.001l42 35c23.333 -16 55.166 -46 95.499 -90s60.5 -75.667 60.5 -95c-2 -24 -64.333 -89.333 -187 -196z" />
    <glyph glyph-name="onequarter" unicode="&#xbc;" horiz-adv-x="736" 
d="M619 701c-48 -109.333 -115.336 -226.669 -202.003 -352.002c-31.333 -45.333 -64 -100.166 -98 -164.499s-62 -129.5 -84 -195.5c-11.333 0.666992 -25.666 4.33398 -42.999 11.001c-18.667 6.66699 -34.667 15.667 -48 27c20 57.333 47.333 117.5 82 180.5
s67.834 118.333 99.501 166s65.834 104.5 102.501 170.5s66.667 129.333 90 190c50 -10 83.667 -21 101 -33zM673.997 67.9971c-9.33301 0 -19.3311 1 -29.998 3c-4.66699 -29.333 -7 -49.333 -7 -60c-15.333 -7.33301 -47 -11 -95 -11h-4c0 9.33301 2.16699 23.333 6.5 42
s7.5 33 9.5 43c-20 2.66699 -41.833 4 -65.5 4s-50.5 -4.33301 -80.5 -13c-4 0 -9.5 3.83301 -16.5 11.5s-10.5 13.5 -10.5 17.5s2.66699 9.66699 8 17c68 90 104 138.333 108 145c15.333 24.667 39 59 71 103c27.333 5.33301 65 8.66602 113 9.99902
c4.66699 -8.66699 7 -22.167 7 -40.5s-11.333 -84.166 -34 -197.499c7.33301 -0.666992 16.166 -1 26.499 -1s17.166 2.66699 20.499 8l8 13l24 -5c-8 -59.333 -27.667 -89 -59 -89zM563.999 151.997c22.667 100.667 33.999 158.667 33.999 174
c-37.333 -48.667 -74.666 -104.667 -111.999 -168c3.33301 0 29.333 -2 78 -6zM277.998 732.997c4 -6.66699 6 -18 6 -34s-10.333 -68.667 -31 -158s-31.667 -148 -33 -176c-16.667 -7.33301 -50.667 -11 -102 -11h-7c1.33301 16.667 12 69.167 32 157.5s30 139.5 30 153.5
l-2 12c-9.33301 -4.66699 -20.5 -12.167 -33.5 -22.5s-22.833 -17.833 -29.5 -22.5l-28 36l77 57c26 4 66.333 6.66699 121 8z" />
    <glyph glyph-name="onehalf" unicode="&#xbd;" horiz-adv-x="745" 
d="M619 701c-48 -109.333 -115.336 -226.669 -202.003 -352.002c-31.333 -45.333 -64 -100.166 -98 -164.499s-62 -129.5 -84 -195.5c-11.333 0.666992 -25.666 4.33398 -42.999 11.001c-18.667 6.66699 -34.667 15.667 -48 27c20 57.333 47.333 117.5 82 180.5
s67.834 118.333 99.501 166s65.834 104.5 102.501 170.5s66.667 129.333 90 190c50 -10 83.667 -21 101 -33zM692.997 -4.00293c-10.667 -12 -23.167 -17.999 -37.5 -17.999s-31.333 3.5 -51 10.5s-39.167 14.833 -58.5 23.5s-31.333 13.667 -36 15
c-14.667 -12 -29.334 -21.5 -44.001 -28.5s-24.667 -10.5 -30 -10.5s-12.833 6.5 -22.5 19.5s-14.5 22.667 -14.5 29s7.33301 15.833 22 28.5s29.667 19 45 19c4 0 12 -0.666992 24 -2c25.333 16.667 49.166 41.667 71.499 75s33.5 65.666 33.5 96.999s-12 47 -36 47
c-11.333 0 -23.666 -4.5 -36.999 -13.5s-24.666 -20.833 -33.999 -35.5l-34 19c39.333 60 88.666 90 147.999 90c34 0 60.333 -8 79 -24s28 -40 28 -72s-15.5 -66 -46.5 -102s-65.5 -66.667 -103.5 -92c45.333 -10.667 75.833 -16 91.5 -16s25.834 2 30.501 6l16 25l21 -6
c0 -37.333 -8.33301 -65.333 -25 -84zM277.997 732.998c4 -6.66699 6 -18 6 -34s-10.333 -68.667 -31 -158s-31.667 -148 -33 -176c-16.667 -7.33301 -50.667 -11 -102 -11h-7c1.33301 16.667 12 69.167 32 157.5s30 139.5 30 153.5l-2 12
c-9.33301 -4.66699 -20.5 -12.167 -33.5 -22.5s-22.833 -17.833 -29.5 -22.5l-28 36l77 57c26 4 66.333 6.66699 121 8z" />
    <glyph glyph-name="threequarters" unicode="&#xbe;" horiz-adv-x="792" 
d="M672 701c-48 -109.333 -115.335 -226.669 -202.002 -352.002c-31.333 -45.333 -64 -100.166 -98 -164.499s-62 -129.5 -84 -195.5c-11.333 0.666992 -26 4.33398 -44 11.001s-33.667 15.667 -47 27c20 57.333 47.333 117.5 82 180.5s67.834 118.333 99.501 166
s65.834 104.5 102.501 170.5s66.667 129.333 90 190c50 -10 83.667 -21 101 -33zM729.998 67.9971c-9.33301 0 -19.3311 1 -29.998 3c-4.66699 -29.333 -7 -49.333 -7 -60c-15.333 -7.33301 -47 -11 -95 -11h-4c0 9.33301 2.16699 23.333 6.5 42s7.5 33 9.5 43
c-20 2.66699 -41.833 4 -65.5 4s-50.5 -4.33301 -80.5 -13c-4 0 -9.5 3.83301 -16.5 11.5s-10.5 13.5 -10.5 17.5s2.66699 9.66699 8 17c68 90 104 138.333 108 145c15.333 24.667 39 59 71 103c27.333 5.33301 65 8.66602 113 9.99902c4.66699 -6.66699 7 -19.667 7 -39
s-11.333 -85.666 -34 -198.999c7.33301 -0.666992 16.166 -1 26.499 -1s17.166 2.66699 20.499 8l8 13l24 -5c-8 -59.333 -27.667 -89 -59 -89zM620 151.997c22.667 100.667 33.999 158.667 33.999 174c-37.333 -48.667 -74.666 -104.667 -111.999 -168
c3.33301 0 29.333 -2 78 -6zM124.999 713.497c23.333 13.667 51.332 20.4971 83.999 20.4971s58.667 -7.16699 78 -21.5s29 -32.166 29 -53.499s-8.66699 -40.166 -26 -56.499s-40.333 -28.166 -69 -35.499c66 -8 99 -39.333 99 -94c0 -33.333 -12.667 -62.5 -38 -87.5
s-59.333 -37.5 -102 -37.5s-78 7 -106 21s-42 33.333 -42 58c0 16.667 4.66699 30.667 14 42c4 0.666992 10.667 1 20 1c22.667 0 41.334 -8 56.001 -24l-6 -48c5.33301 -4.66699 12.666 -7 21.999 -7c19.333 0 35.5 8 48.5 24s19.5 36.333 19.5 61s-6.83301 41 -20.5 49
s-34.834 12 -63.501 12l-2 33c8.66699 0 18.334 1.33301 29.001 4c38.667 8.66699 58 30 58 64c0 28 -12.667 42 -38 42s-48.666 -12.667 -69.999 -38l-28 22c12.667 19.333 30.667 35.833 54 49.5z" />
    <glyph glyph-name="questiondown" unicode="&#xbf;" horiz-adv-x="387" 
d="M5 -111c0 25.333 7.66699 51.499 23 78.499s32 49.833 50 68.5c49.333 51.333 74 88 74 110c0 6.66699 -5.5 13.167 -16.5 19.5s-22.833 9.83301 -35.5 10.5c6 24 12 40.333 18 49c48 0 87.5 -10.167 118.5 -30.5s46.5 -49.166 46.5 -86.499
c0 -22.667 -13.667 -53.167 -41 -91.5l-82 -113.5c-27.333 -37.333 -41 -67.666 -41 -90.999s11.667 -37 35 -41c17.333 45.333 45.333 85.333 84 120c16 -4.66699 36.667 -18 62 -40s38 -37.667 38 -47c0 -17.333 -16.333 -35.5 -49 -54.5s-70.667 -28.5 -114 -28.5
s-82.5 13.667 -117.5 41s-52.5 69.666 -52.5 126.999zM310 370.999c0 -22 -9.16602 -41.334 -27.499 -58.001s-39.5 -25 -63.5 -25s-42.667 6.66699 -56 20s-20 30.833 -20 52.5s9.5 40.834 28.5 57.501s40.167 25 63.5 25s41.666 -6.5 54.999 -19.5s20 -30.5 20 -52.5z" />
    <glyph glyph-name="Agrave" unicode="&#xc0;" 
d="M60 13c-4.66699 -14.667 -15.167 -22.001 -31.5 -22.001s-34.833 9 -55.5 27c20 58.667 62.333 153.167 127 283.5s106.667 227.833 126 292.5c2.66699 10.667 4 18 4 22c0 10 -7.33301 25.333 -22 46l-8 11l2 13c56.667 16 119.334 24 188.001 24l61 -4
c7.33301 -10 13 -25.333 17 -46c10.667 -50.667 16 -181 16 -391c0 -81.333 7 -138.666 21 -171.999c5.33301 -12.667 10.666 -19 15.999 -19s21.666 6.66699 48.999 20l13 6l20 -36c-25.333 -24.667 -53.5 -44.167 -84.5 -58.5s-59.5 -21.5 -85.5 -21.5
c-67.333 0 -101 52.333 -101 157v79c-17.333 4 -43.666 6 -78.999 6s-74 -3.33301 -116 -10c-33.333 -77.333 -59 -146.333 -77 -207zM334 291.999l1 116c0 101.333 -4.33301 170 -13 206c-5.33301 0 -9.33301 -0.666992 -12 -2
c-18.667 -51.333 -36.167 -94.833 -52.5 -130.5l-53 -114l-35.5 -75.5h165zM239 914.999c26.667 0 113.001 -44.001 259.001 -132.001l-17 -47c-63.333 18.667 -165.333 46.334 -306 83.001c17.333 64 38.666 96 63.999 96z" />
    <glyph glyph-name="Aacute" unicode="&#xc1;" 
d="M60 13c-4.66699 -14.667 -15.167 -22.001 -31.5 -22.001s-34.833 9 -55.5 27c20 58.667 62.333 153.167 127 283.5s106.667 227.833 126 292.5c2.66699 10.667 4 18 4 22c0 10 -7.33301 25.333 -22 46l-8 11l2 13c56.667 16 119.334 24 188.001 24l61 -4
c7.33301 -10 13 -25.333 17 -46c10.667 -50.667 16 -181 16 -391c0 -81.333 7 -138.666 21 -171.999c5.33301 -12.667 10.666 -19 15.999 -19s21.666 6.66699 48.999 20l13 6l20 -36c-25.333 -24.667 -53.5 -44.167 -84.5 -58.5s-59.5 -21.5 -85.5 -21.5
c-67.333 0 -101 52.333 -101 157v79c-17.333 4 -43.666 6 -78.999 6s-74 -3.33301 -116 -10c-33.333 -77.333 -59 -146.333 -77 -207zM334 291.999l1 116c0 101.333 -4.33301 170 -13 206c-5.33301 0 -9.33301 -0.666992 -12 -2
c-18.667 -51.333 -36.167 -94.833 -52.5 -130.5l-53 -114l-35.5 -75.5h165zM539 845.999c0 -18.667 -12.333 -33.332 -37 -43.999c-60.667 -17.333 -148 -34.666 -262 -51.999l-21 46c140 63.333 234.333 108.333 283 135c7.33301 -10.667 15.333 -25.834 24 -45.501
s13 -32.834 13 -39.501z" />
    <glyph glyph-name="Acircumflex" unicode="&#xc2;" 
d="M60 13c-4.66699 -14.667 -15.167 -22.001 -31.5 -22.001s-34.833 9 -55.5 27c20 58.667 62.333 153.167 127 283.5s106.667 227.833 126 292.5c2.66699 10.667 4 18 4 22c0 10 -7.33301 25.333 -22 46l-8 11l2 13c56.667 16 119.334 24 188.001 24l61 -4
c7.33301 -10 13 -25.333 17 -46c10.667 -50.667 16 -181 16 -391c0 -81.333 7 -138.666 21 -171.999c5.33301 -12.667 10.666 -19 15.999 -19s21.666 6.66699 48.999 20l13 6l20 -36c-25.333 -24.667 -53.5 -44.167 -84.5 -58.5s-59.5 -21.5 -85.5 -21.5
c-67.333 0 -101 52.333 -101 157v79c-17.333 4 -43.666 6 -78.999 6s-74 -3.33301 -116 -10c-33.333 -77.333 -59 -146.333 -77 -207zM334 291.999l1 116c0 101.333 -4.33301 170 -13 206c-5.33301 0 -9.33301 -0.666992 -12 -2
c-18.667 -51.333 -36.167 -94.833 -52.5 -130.5l-53 -114l-35.5 -75.5h165zM294 868.999c60 33.333 98.832 49.999 116.499 49.999s41.167 -17.167 70.5 -51.5s53 -65.166 71 -92.499l-34 -32c-71.333 36 -117.666 56.333 -138.999 61c-34 -6 -74.167 -17.833 -120.5 -35.5
s-72.5 -27.5 -78.5 -29.5l-27 37c34 28.667 81 59.667 141 93z" />
    <glyph glyph-name="Atilde" unicode="&#xc3;" 
d="M60 13c-4.66699 -14.667 -15.167 -22.001 -31.5 -22.001s-34.833 9 -55.5 27c20 58.667 62.333 153.167 127 283.5s106.667 227.833 126 292.5c2.66699 10.667 4 18 4 22c0 10 -7.33301 25.333 -22 46l-8 11l2 13c56.667 16 119.334 24 188.001 24l61 -4
c7.33301 -10 13 -25.333 17 -46c10.667 -50.667 16 -181 16 -391c0 -81.333 7 -138.666 21 -171.999c5.33301 -12.667 10.666 -19 15.999 -19s21.666 6.66699 48.999 20l13 6l20 -36c-25.333 -24.667 -53.5 -44.167 -84.5 -58.5s-59.5 -21.5 -85.5 -21.5
c-67.333 0 -101 52.333 -101 157v79c-17.333 4 -43.666 6 -78.999 6s-74 -3.33301 -116 -10c-33.333 -77.333 -59 -146.333 -77 -207zM334 291.999l1 116c0 101.333 -4.33301 170 -13 206c-5.33301 0 -9.33301 -0.666992 -12 -2
c-18.667 -51.333 -36.167 -94.833 -52.5 -130.5l-53 -114l-35.5 -75.5h165zM168 764.999c9.33301 90.667 43.333 135.998 102 135.998c22.667 0 57.5 -6 104.5 -18s78 -18 93 -18s25.5 0.333008 31.5 1c13.333 2.66699 25.333 13.334 36 32.001l32 -6
c-2.66699 -27.333 -8.33398 -51.666 -17.001 -72.999c-13.333 -37.333 -42 -56 -86 -56c-15.333 0 -45.5 5.83301 -90.5 17.5s-78 17.5 -99 17.5s-36.167 -2.5 -45.5 -7.5s-18.666 -15.833 -27.999 -32.5z" />
    <glyph glyph-name="Adieresis" unicode="&#xc4;" 
d="M60 13c-4.66699 -14.667 -15.167 -22.001 -31.5 -22.001s-34.833 9 -55.5 27c20 58.667 62.333 153.167 127 283.5s106.667 227.833 126 292.5c2.66699 10.667 4 18 4 22c0 10 -7.33301 25.333 -22 46l-8 11l2 13c56.667 16 119.334 24 188.001 24l61 -4
c7.33301 -10 13 -25.333 17 -46c10.667 -50.667 16 -181 16 -391c0 -81.333 7 -138.666 21 -171.999c5.33301 -12.667 10.666 -19 15.999 -19s21.666 6.66699 48.999 20l13 6l20 -36c-25.333 -24.667 -53.5 -44.167 -84.5 -58.5s-59.5 -21.5 -85.5 -21.5
c-67.333 0 -101 52.333 -101 157v79c-17.333 4 -43.666 6 -78.999 6s-74 -3.33301 -116 -10c-33.333 -77.333 -59 -146.333 -77 -207zM334 291.999l1 116c0 101.333 -4.33301 170 -13 206c-5.33301 0 -9.33301 -0.666992 -12 -2
c-18.667 -51.333 -36.167 -94.833 -52.5 -130.5l-53 -114l-35.5 -75.5h165zM213.5 781.999c-11 11.333 -16.499 26.832 -16.499 46.499s7.66699 36.334 23 50.001s33.333 20.5 54 20.5c43.333 0 65 -21 65 -63c0 -18.667 -7.83301 -35.167 -23.5 -49.5
s-33.834 -21.5 -54.501 -21.5s-36.5 5.66699 -47.5 17zM419.001 781.998c-10.667 11.333 -15.999 26.832 -15.999 46.499s7.5 36.334 22.5 50.001s32.833 20.5 53.5 20.5c44 0 66 -21 66 -63c0 -18.667 -8 -35.167 -24 -49.5s-34.333 -21.5 -55 -21.5
s-36.334 5.66699 -47.001 17z" />
    <glyph glyph-name="Aring" unicode="&#xc5;" 
d="M60 13c-4.66699 -14.667 -15.167 -22.001 -31.5 -22.001s-34.833 9 -55.5 27c20 58.667 62.333 153.167 127 283.5s106.667 227.833 126 292.5c2.66699 10.667 4 18 4 22c0 10 -7.33301 25.333 -22 46l-8 11l2 13c56.667 16 119.334 24 188.001 24l61 -4
c7.33301 -10 13 -25.333 17 -46c10.667 -50.667 16 -181 16 -391c0 -81.333 7 -138.666 21 -171.999c5.33301 -12.667 10.666 -19 15.999 -19s21.666 6.66699 48.999 20l13 6l20 -36c-25.333 -24.667 -53.5 -44.167 -84.5 -58.5s-59.5 -21.5 -85.5 -21.5
c-67.333 0 -101 52.333 -101 157v79c-17.333 4 -43.666 6 -78.999 6s-74 -3.33301 -116 -10c-33.333 -77.333 -59 -146.333 -77 -207zM334 291.999l1 116c0 101.333 -4.33301 170 -13 206c-5.33301 0 -9.33301 -0.666992 -12 -2
c-18.667 -51.333 -36.167 -94.833 -52.5 -130.5l-53 -114l-35.5 -75.5h165zM284.5 769.499c-19 19 -28.5 42.667 -28.5 71s9.5 51.666 28.5 69.999s45.5 27.5 79.5 27.5s60.5 -9.16699 79.5 -27.5s28.5 -41.666 28.5 -69.999s-9.5 -52 -28.5 -71s-45.5 -28.5 -79.5 -28.5
s-60.5 9.5 -79.5 28.5zM310 839.999c0 -14 4.83301 -25.5 14.5 -34.5s22.834 -13.5 39.501 -13.5s29.334 4.5 38.001 13.5s13 20.5 13 34.5s-4.33301 25.5 -13 34.5s-21.334 13.5 -38.001 13.5s-29.834 -4.5 -39.501 -13.5s-14.5 -20.5 -14.5 -34.5z" />
    <glyph glyph-name="AE" unicode="&#xc6;" horiz-adv-x="737" 
d="M468 365c40 6.66699 81.5 9.99902 124.5 9.99902s74.167 -3 93.5 -9c0 -23.333 -4.66699 -44 -14 -62l-4 -9c-38 6 -68 9 -90 9c-34.667 0 -68 -2 -100 -6l-13 -1l-3 -54c0 -87.333 11.333 -138.333 34 -153c11.333 -6.66699 30.166 -10 56.499 -10s81.833 16 166.5 48
l18 -51c-26 -21.333 -63.667 -41.5 -113 -60.5s-102.333 -28.5 -159 -28.5s-97.167 17 -121.5 51s-36.5 85.333 -36.5 154c0 34.667 1 64 3 88c-51.333 -4 -102 -12.333 -152 -25c-37.333 -81.333 -68.666 -161.666 -93.999 -240.999c-4.66699 -14.667 -15 -22.667 -31 -24
c-20.667 0 -40.667 9 -60 27c22 66 65.333 165.333 130 298s108 229.667 130 291c0.666992 1.33301 1 4.33301 1 9c0 11.333 -6 27 -18 47l-6 10l2 13c56.667 16 125 24 205 24l241 -4c19.333 0 43 0.666992 71 2c2 -18 3 -31 3 -39c0 -34.667 -12.333 -52 -37 -52
c-6 0 -28.667 2.5 -68 7.5s-69 7.5 -89 7.5s-37.667 -1 -53 -3c-6 -88.667 -11.667 -176.667 -17 -264zM337 617.999c-8.66699 0 -15.667 -1.33398 -21 -4.00098c-17.333 -51.333 -57 -143.333 -119 -276c50 9.33301 89.333 15 118 17c14.667 156.667 22 244.334 22 263.001
z" />
    <glyph glyph-name="Ccedilla" unicode="&#xc7;" horiz-adv-x="542" 
d="M272 -94c0 -16 8 -24.001 24 -24.001s35 5.33301 57 16l11 6l18 -34c-4.66699 -4.66699 -11 -10.5 -19 -17.5s-24 -16.5 -48 -28.5s-46.333 -18 -67 -18s-37.334 6.16699 -50.001 18.5s-19 28 -19 47s7.5 39.333 22.5 61s32.167 40.5 51.5 56.5
c-58.667 3.33301 -107 29.833 -145 79.5s-57 114.5 -57 194.5s14 153.5 42 220.5s68 121.5 120 163.5s107.5 63 166.5 63s106.667 -13.333 143 -40s54.5 -58.5 54.5 -95.5s-11 -68.5 -33 -94.5c-21.333 0 -45.333 4.66699 -72 14s-46.667 20.666 -60 33.999l19 101
c-16 10 -37 15 -63 15c-40.667 0 -76.667 -34.833 -108 -104.5s-47 -155.5 -47 -257.5c0 -67.333 11.167 -116.166 33.5 -146.499s49.5 -45.5 81.5 -45.5c52.667 0 103.334 24.667 152.001 74l41 -37c-32.667 -44 -75 -79.333 -127 -106
c-21.333 -11.333 -43.333 -19.666 -66 -24.999c-16 -13.333 -29.333 -28.5 -40 -45.5s-16 -31.833 -16 -44.5z" />
    <glyph glyph-name="Egrave" unicode="&#xc8;" horiz-adv-x="515" 
d="M249 -12c-46.667 0 -91.3311 13.333 -133.998 40c-21.333 13.333 -38.833 32 -52.5 56s-20.5 51.667 -20.5 83c0 59.333 19.667 107.666 59 144.999s86.666 59 141.999 65c-37.333 10 -67.166 27.333 -89.499 52s-33.5 56 -33.5 94c0 57.333 22.5 102.833 67.5 136.5
s96.5 50.5 154.5 50.5s106.333 -12.333 145 -37s58 -58 58 -100c0 -14.667 -2.5 -29 -7.5 -43s-10.167 -24 -15.5 -30l-7 -10c-21.333 0 -44.833 3.66699 -70.5 11s-44.5 16.666 -56.5 27.999l12 103c-10 10 -26.833 15 -50.5 15s-42.334 -12.167 -56.001 -36.5
s-20.5 -52.166 -20.5 -83.499s3.66699 -55 11 -71s17.666 -28.333 30.999 -37c20.667 -13.333 45 -22.666 73 -27.999l-8 -55c-48 0 -89.667 -14.167 -125 -42.5s-53 -65.833 -53 -112.5c0 -29.333 9.5 -53.5 28.5 -72.5s43.5 -28.5 73.5 -28.5
c54.667 0 110.667 27.667 168 83l40 -37c-77.333 -92 -165 -138 -263 -138zM229.003 915c26.667 0 113.001 -44.001 259.001 -132.001l-17 -47c-63.333 18.667 -165.333 46.334 -306 83.001c17.333 64 38.666 96 63.999 96z" />
    <glyph glyph-name="Eacute" unicode="&#xc9;" horiz-adv-x="515" 
d="M249 -12c-46.667 0 -91.3311 13.333 -133.998 40c-21.333 13.333 -38.833 32 -52.5 56s-20.5 51.667 -20.5 83c0 59.333 19.667 107.666 59 144.999s86.666 59 141.999 65c-37.333 10 -67.166 27.333 -89.499 52s-33.5 56 -33.5 94c0 57.333 22.5 102.833 67.5 136.5
s96.5 50.5 154.5 50.5s106.333 -12.333 145 -37s58 -58 58 -100c0 -14.667 -2.5 -29 -7.5 -43s-10.167 -24 -15.5 -30l-7 -10c-21.333 0 -44.833 3.66699 -70.5 11s-44.5 16.666 -56.5 27.999l12 103c-10 10 -26.833 15 -50.5 15s-42.334 -12.167 -56.001 -36.5
s-20.5 -52.166 -20.5 -83.499s3.66699 -55 11 -71s17.666 -28.333 30.999 -37c20.667 -13.333 45 -22.666 73 -27.999l-8 -55c-48 0 -89.667 -14.167 -125 -42.5s-53 -65.833 -53 -112.5c0 -29.333 9.5 -53.5 28.5 -72.5s43.5 -28.5 73.5 -28.5
c54.667 0 110.667 27.667 168 83l40 -37c-77.333 -92 -165 -138 -263 -138zM550.003 846c0 -18.667 -12.333 -33.332 -37 -43.999c-60.667 -17.333 -148 -34.666 -262 -51.999l-21 46c140 63.333 234.333 108.333 283 135c7.33301 -10.667 15.333 -25.834 24 -45.501
s13 -32.834 13 -39.501z" />
    <glyph glyph-name="Ecircumflex" unicode="&#xca;" horiz-adv-x="515" 
d="M249 -12c-46.667 0 -91.3311 13.333 -133.998 40c-21.333 13.333 -38.833 32 -52.5 56s-20.5 51.667 -20.5 83c0 59.333 19.667 107.666 59 144.999s86.666 59 141.999 65c-37.333 10 -67.166 27.333 -89.499 52s-33.5 56 -33.5 94c0 57.333 22.5 102.833 67.5 136.5
s96.5 50.5 154.5 50.5s106.333 -12.333 145 -37s58 -58 58 -100c0 -14.667 -2.5 -29 -7.5 -43s-10.167 -24 -15.5 -30l-7 -10c-21.333 0 -44.833 3.66699 -70.5 11s-44.5 16.666 -56.5 27.999l12 103c-10 10 -26.833 15 -50.5 15s-42.334 -12.167 -56.001 -36.5
s-20.5 -52.166 -20.5 -83.499s3.66699 -55 11 -71s17.666 -28.333 30.999 -37c20.667 -13.333 45 -22.666 73 -27.999l-8 -55c-48 0 -89.667 -14.167 -125 -42.5s-53 -65.833 -53 -112.5c0 -29.333 9.5 -53.5 28.5 -72.5s43.5 -28.5 73.5 -28.5
c54.667 0 110.667 27.667 168 83l40 -37c-77.333 -92 -165 -138 -263 -138zM278.003 869c60 33.333 98.832 49.999 116.499 49.999s41.167 -17.167 70.5 -51.5s53 -65.166 71 -92.499l-34 -32c-71.333 36 -117.666 56.333 -138.999 61c-34 -6 -74.167 -17.833 -120.5 -35.5
s-72.5 -27.5 -78.5 -29.5l-27 37c34 28.667 81 59.667 141 93z" />
    <glyph glyph-name="Edieresis" unicode="&#xcb;" horiz-adv-x="515" 
d="M249 -12c-46.667 0 -91.3311 13.333 -133.998 40c-21.333 13.333 -38.833 32 -52.5 56s-20.5 51.667 -20.5 83c0 59.333 19.667 107.666 59 144.999s86.666 59 141.999 65c-37.333 10 -67.166 27.333 -89.499 52s-33.5 56 -33.5 94c0 57.333 22.5 102.833 67.5 136.5
s96.5 50.5 154.5 50.5s106.333 -12.333 145 -37s58 -58 58 -100c0 -14.667 -2.5 -29 -7.5 -43s-10.167 -24 -15.5 -30l-7 -10c-21.333 0 -44.833 3.66699 -70.5 11s-44.5 16.666 -56.5 27.999l12 103c-10 10 -26.833 15 -50.5 15s-42.334 -12.167 -56.001 -36.5
s-20.5 -52.166 -20.5 -83.499s3.66699 -55 11 -71s17.666 -28.333 30.999 -37c20.667 -13.333 45 -22.666 73 -27.999l-8 -55c-48 0 -89.667 -14.167 -125 -42.5s-53 -65.833 -53 -112.5c0 -29.333 9.5 -53.5 28.5 -72.5s43.5 -28.5 73.5 -28.5
c54.667 0 110.667 27.667 168 83l40 -37c-77.333 -92 -165 -138 -263 -138zM217.503 782c-11 11.333 -16.499 26.832 -16.499 46.499s7.66699 36.334 23 50.001s33.333 20.5 54 20.5c43.333 0 65 -21 65 -63c0 -18.667 -7.83301 -35.167 -23.5 -49.5
s-33.834 -21.5 -54.501 -21.5s-36.5 5.66699 -47.5 17zM423.004 781.999c-10.667 11.333 -15.999 26.832 -15.999 46.499s7.5 36.334 22.5 50.001s32.833 20.5 53.5 20.5c44 0 66 -21 66 -63c0 -18.667 -8 -35.167 -24 -49.5s-34.333 -21.5 -55 -21.5
s-36.334 5.66699 -47.001 17z" />
    <glyph glyph-name="Igrave" unicode="&#xcc;" horiz-adv-x="325" 
d="M105 915c14.667 0 36.501 -7.66797 65.501 -23.001s86.167 -48.666 171.5 -99.999l-15 -51c-96 28 -191.333 54 -286 78c17.333 64 38.666 96 63.999 96zM209.001 101.999c0 -14.667 3.66797 -21.999 11.001 -21.999c4 0 23.333 8.66699 58 26l19 -37
c-60 -54 -113 -81 -159 -81c-28.667 0 -50.5 9.66699 -65.5 29s-22.5 43.333 -22.5 72s16.167 107.167 48.5 235.5s50.166 216.5 53.499 264.5c0 10.667 -3.5 23.5 -10.5 38.5s-14.167 27.167 -21.5 36.5l-10 14l3 15c38 11.333 100.667 17 188 17
c8 -15.333 12 -37.5 12 -66.5s-17.333 -112.833 -52 -251.5s-52 -235.334 -52 -290.001z" />
    <glyph glyph-name="Iacute" unicode="&#xcd;" horiz-adv-x="325" 
d="M404 846c0 -18.667 -12.333 -33.3311 -37 -43.998c-46.667 -13.333 -129 -29 -247 -47l-18 47c114 51.333 202.333 94.333 265 129c7.33301 -10.667 15.333 -25.834 24 -45.501s13 -32.834 13 -39.501zM209 102.003c0 -14.667 3.66797 -21.999 11.001 -21.999
c4 0 23.333 8.66699 58 26l19 -37c-60 -54 -113 -81 -159 -81c-28.667 0 -50.5 9.66699 -65.5 29s-22.5 43.333 -22.5 72s16.167 107.167 48.5 235.5s50.166 216.5 53.499 264.5c0 10.667 -3.5 23.5 -10.5 38.5s-14.167 27.167 -21.5 36.5l-10 14l3 15
c38 11.333 100.667 17 188 17c8 -15.333 12 -37.5 12 -66.5s-17.333 -112.833 -52 -251.5s-52 -235.334 -52 -290.001z" />
    <glyph glyph-name="Icircumflex" unicode="&#xce;" horiz-adv-x="325" 
d="M180 870c54.667 32.667 90.167 48.999 106.5 48.999s37.333 -16.333 63 -49s47.5 -63.667 65.5 -93l-34 -32c-62 34 -103.333 53.667 -124 59c-24.667 -4.66699 -84.667 -25.667 -180 -63l-27 37c32 28.667 75.333 59.334 130 92.001zM209 101.999
c0 -14.667 3.66797 -21.999 11.001 -21.999c4 0 23.333 8.66699 58 26l19 -37c-60 -54 -113 -81 -159 -81c-28.667 0 -50.5 9.66699 -65.5 29s-22.5 43.333 -22.5 72s16.167 107.167 48.5 235.5s50.166 216.5 53.499 264.5c0 10.667 -3.5 23.5 -10.5 38.5
s-14.167 27.167 -21.5 36.5l-10 14l3 15c38 11.333 100.667 17 188 17c8 -15.333 12 -37.5 12 -66.5s-17.333 -112.833 -52 -251.5s-52 -235.334 -52 -290.001z" />
    <glyph glyph-name="Idieresis" unicode="&#xcf;" horiz-adv-x="325" 
d="M93 828c0 20 7.16699 37.001 21.5 51.001s31.5 21 51.5 21c42 0 63 -21.333 63 -64c0 -18.667 -7.5 -35.334 -22.5 -50.001s-32.833 -22 -53.5 -22c-40 0 -60 21.333 -60 64zM283 828.001c0 20 7.33301 37.001 22 51.001s32 21 52 21c42.667 0 64 -21.333 64 -64
c0 -18.667 -7.66699 -35.334 -23 -50.001s-33.333 -22 -54 -22c-40.667 0 -61 21.333 -61 64zM209 102.002c0 -14.667 3.66797 -21.999 11.001 -21.999c4 0 23.333 8.66699 58 26l19 -37c-60 -54 -113 -81 -159 -81c-28.667 0 -50.5 9.66699 -65.5 29s-22.5 43.333 -22.5 72
s16.167 107.167 48.5 235.5s50.166 216.5 53.499 264.5c0 10.667 -3.5 23.5 -10.5 38.5s-14.167 27.167 -21.5 36.5l-10 14l3 15c38 11.333 100.667 17 188 17c8 -15.333 12 -37.5 12 -66.5s-17.333 -112.833 -52 -251.5s-52 -235.334 -52 -290.001z" />
    <glyph glyph-name="Eth" unicode="&#xd0;" horiz-adv-x="641" 
d="M307 -12c-38.667 0 -78.668 6.33105 -120.001 18.998c-34.667 -8.66699 -64.834 -13 -90.501 -13s-43.167 0.666992 -52.5 2c2.66699 26 23.334 127.667 62.001 305l7 32h-64c0 32.667 1 54 3 64h75c20.667 98.667 31 157.334 31 176.001s-4.5 36 -13.5 52
s-17.833 27.667 -26.5 35l-14 11l3 15c17.333 4.66699 52.833 9.83398 106.5 15.501s100.5 8.5 140.5 8.5c92.667 0 162.834 -20.5 210.501 -61.5s71.5 -107.5 71.5 -199.5c0 -75.333 -12.5 -147.5 -37.5 -216.5s-63.167 -127 -114.5 -174s-110.333 -70.5 -177 -70.5z
M377.999 646.998c-17.333 0 -36.999 -1.99902 -58.999 -5.99902c-6 -68.667 -20 -150 -42 -244h88c0 -20.667 -1 -42 -3 -64h-99c-30 -127.333 -48.333 -214.333 -55 -261c16 -8 38 -12 66 -12s54.5 11.167 79.5 33.5s45.167 50.166 60.5 83.499
s28.666 70.666 39.999 111.999c19.333 74 29 141.333 29 202s-8 101.834 -24 123.501s-43 32.5 -81 32.5z" />
    <glyph glyph-name="Ntilde" unicode="&#xd1;" horiz-adv-x="661" 
d="M63 -4h-19.001c2.66699 30 20.334 118.167 53.001 264.5s53 255.833 61 328.5c0 10.667 -3.5 23.5 -10.5 38.5s-14.167 27.167 -21.5 36.5l-10 14l3 15c37.333 11.333 101.666 17 192.999 17c8.66699 -16 13 -31.667 13 -47s-1.33301 -34.333 -4 -57
c83.333 69.333 151.333 104 204 104c34.667 0 62.667 -11.333 84 -34s32 -54.334 32 -95.001s-14.167 -118.167 -42.5 -232.5s-42.5 -194.166 -42.5 -239.499c0 -19.333 3.33301 -29 10 -29c6 0 22.667 6.66699 50 20l13 6l20 -37c-28 -24 -57 -43.5 -87 -58.5
s-57.167 -22.5 -81.5 -22.5s-44.166 8.83301 -59.499 26.5s-23 41.667 -23 72s13.833 105.833 41.5 226.5s41.5 197.667 41.5 231s-13 50 -39 50c-39.333 0 -84 -19.667 -134 -59c-7.33301 -35.333 -21 -94.333 -41 -177c-44 -182 -66 -296 -66 -342
c-26 -13.333 -72 -20 -138 -20zM247.999 765c9.33301 90.667 43.333 135.998 102 135.998c22.667 0 57.5 -6 104.5 -18s78 -18 93 -18s25.5 0.333008 31.5 1c13.333 2.66699 25.333 13.334 36 32.001l32 -6c-3.33301 -27.333 -9 -51.666 -17 -72.999
c-14.667 -37.333 -43.334 -56 -86.001 -56c-15.333 0 -45.5 5.83301 -90.5 17.5s-78 17.5 -99 17.5s-36.167 -2.5 -45.5 -7.5s-18.666 -15.833 -27.999 -32.5z" />
    <glyph glyph-name="Ograve" unicode="&#xd2;" horiz-adv-x="636" 
d="M618 537.5c8.66699 -29.667 13.001 -62.498 13.001 -98.498s-4 -74.333 -12 -115s-21.333 -81.334 -40 -122.001s-41.334 -76.667 -68.001 -108s-60.334 -56.833 -101.001 -76.5s-85.334 -29.5 -134.001 -29.5c-71.333 0 -126.666 25.5 -165.999 76.5
s-59 116.667 -59 197s14.167 154 42.5 221s69 121.667 122 164s111.833 63.5 176.5 63.5c42.667 0 80 -8 112 -24s56.833 -37.333 74.5 -64s30.834 -54.834 39.501 -84.501zM385.501 97.002c21.667 27.333 38.167 63 49.5 107c22.667 86.667 34 175.667 34 267
c0 114 -30.667 171 -92 171c-34.667 0 -65 -20.667 -91 -62c-48.667 -78 -73 -186 -73 -324c0 -75.333 4.33301 -122 13 -140c4 -10 9.33301 -20.333 16 -31c12 -19.333 33.5 -29 64.5 -29s57.333 13.667 79 41zM259.001 915.002c26.667 0 113.001 -44.001 259.001 -132.001
l-17 -47c-63.333 18.667 -165.333 46.334 -306 83.001c17.333 64 38.666 96 63.999 96z" />
    <glyph glyph-name="Oacute" unicode="&#xd3;" horiz-adv-x="636" 
d="M618 537.5c8.66699 -29.667 13.001 -62.498 13.001 -98.498s-4 -74.333 -12 -115s-21.333 -81.334 -40 -122.001s-41.334 -76.667 -68.001 -108s-60.334 -56.833 -101.001 -76.5s-85.334 -29.5 -134.001 -29.5c-71.333 0 -126.666 25.5 -165.999 76.5
s-59 116.667 -59 197s14.167 154 42.5 221s69 121.667 122 164s111.833 63.5 176.5 63.5c42.667 0 80 -8 112 -24s56.833 -37.333 74.5 -64s30.834 -54.834 39.501 -84.501zM385.501 97.002c21.667 27.333 38.167 63 49.5 107c22.667 86.667 34 175.667 34 267
c0 114 -30.667 171 -92 171c-34.667 0 -65 -20.667 -91 -62c-48.667 -78 -73 -186 -73 -324c0 -75.333 4.33301 -122 13 -140c4 -10 9.33301 -20.333 16 -31c12 -19.333 33.5 -29 64.5 -29s57.333 13.667 79 41zM584.001 846.002c0 -18.667 -12.333 -33.332 -37 -43.999
c-60.667 -17.333 -148 -34.666 -262 -51.999l-21 46c140 63.333 234.333 108.333 283 135c7.33301 -10.667 15.333 -25.834 24 -45.501s13 -32.834 13 -39.501z" />
    <glyph glyph-name="Ocircumflex" unicode="&#xd4;" horiz-adv-x="636" 
d="M618 537.5c8.66699 -29.667 13.001 -62.498 13.001 -98.498s-4 -74.333 -12 -115s-21.333 -81.334 -40 -122.001s-41.334 -76.667 -68.001 -108s-60.334 -56.833 -101.001 -76.5s-85.334 -29.5 -134.001 -29.5c-71.333 0 -126.666 25.5 -165.999 76.5
s-59 116.667 -59 197s14.167 154 42.5 221s69 121.667 122 164s111.833 63.5 176.5 63.5c42.667 0 80 -8 112 -24s56.833 -37.333 74.5 -64s30.834 -54.834 39.501 -84.501zM385.501 97.002c21.667 27.333 38.167 63 49.5 107c22.667 86.667 34 175.667 34 267
c0 114 -30.667 171 -92 171c-34.667 0 -65 -20.667 -91 -62c-48.667 -78 -73 -186 -73 -324c0 -75.333 4.33301 -122 13 -140c4 -10 9.33301 -20.333 16 -31c12 -19.333 33.5 -29 64.5 -29s57.333 13.667 79 41zM354.001 869.002c60 33.333 98.832 49.999 116.499 49.999
s41.167 -17.167 70.5 -51.5s53 -65.166 71 -92.499l-34 -32c-71.333 36 -117.666 56.333 -138.999 61c-34 -6 -74.167 -17.833 -120.5 -35.5s-72.5 -27.5 -78.5 -29.5l-27 37c34 28.667 81 59.667 141 93z" />
    <glyph glyph-name="Otilde" unicode="&#xd5;" horiz-adv-x="636" 
d="M618 537.5c8.66699 -29.667 13.001 -62.498 13.001 -98.498s-4 -74.333 -12 -115s-21.333 -81.334 -40 -122.001s-41.334 -76.667 -68.001 -108s-60.334 -56.833 -101.001 -76.5s-85.334 -29.5 -134.001 -29.5c-71.333 0 -126.666 25.5 -165.999 76.5
s-59 116.667 -59 197s14.167 154 42.5 221s69 121.667 122 164s111.833 63.5 176.5 63.5c42.667 0 80 -8 112 -24s56.833 -37.333 74.5 -64s30.834 -54.834 39.501 -84.501zM385.501 97.002c21.667 27.333 38.167 63 49.5 107c22.667 86.667 34 175.667 34 267
c0 114 -30.667 171 -92 171c-34.667 0 -65 -20.667 -91 -62c-48.667 -78 -73 -186 -73 -324c0 -75.333 4.33301 -122 13 -140c4 -10 9.33301 -20.333 16 -31c12 -19.333 33.5 -29 64.5 -29s57.333 13.667 79 41zM203.001 765.002c9.33301 90.667 43.333 135.998 102 135.998
c22.667 0 57.5 -6 104.5 -18s78 -18 93 -18s25.5 0.333008 31.5 1c13.333 2.66699 25.333 13.334 36 32.001l32 -6c-3.33301 -27.333 -9 -51.666 -17 -72.999c-14.667 -37.333 -43.334 -56 -86.001 -56c-15.333 0 -45.5 5.83301 -90.5 17.5s-78 17.5 -99 17.5
s-36.167 -2.5 -45.5 -7.5s-18.666 -15.833 -27.999 -32.5z" />
    <glyph glyph-name="Odieresis" unicode="&#xd6;" horiz-adv-x="636" 
d="M618 537.5c8.66699 -29.667 13.001 -62.498 13.001 -98.498s-4 -74.333 -12 -115s-21.333 -81.334 -40 -122.001s-41.334 -76.667 -68.001 -108s-60.334 -56.833 -101.001 -76.5s-85.334 -29.5 -134.001 -29.5c-71.333 0 -126.666 25.5 -165.999 76.5
s-59 116.667 -59 197s14.167 154 42.5 221s69 121.667 122 164s111.833 63.5 176.5 63.5c42.667 0 80 -8 112 -24s56.833 -37.333 74.5 -64s30.834 -54.834 39.501 -84.501zM385.501 97.002c21.667 27.333 38.167 63 49.5 107c22.667 86.667 34 175.667 34 267
c0 114 -30.667 171 -92 171c-34.667 0 -65 -20.667 -91 -62c-48.667 -78 -73 -186 -73 -324c0 -75.333 4.33301 -122 13 -140c4 -10 9.33301 -20.333 16 -31c12 -19.333 33.5 -29 64.5 -29s57.333 13.667 79 41zM243.501 782.002c-11 11.333 -16.499 26.832 -16.499 46.499
s7.66699 36.334 23 50.001s33.333 20.5 54 20.5c43.333 0 65 -21 65 -63c0 -18.667 -7.83301 -35.167 -23.5 -49.5s-33.834 -21.5 -54.501 -21.5s-36.5 5.66699 -47.5 17zM449.002 782.001c-10.667 11.333 -15.999 26.832 -15.999 46.499s7.5 36.334 22.5 50.001
s32.833 20.5 53.5 20.5c44 0 66 -21 66 -63c0 -18.667 -8 -35.167 -24 -49.5s-34.333 -21.5 -55 -21.5s-36.334 5.66699 -47.001 17z" />
    <glyph glyph-name="multiply" unicode="&#xd7;" horiz-adv-x="493" 
d="M367 107l-117 116.999l-116 -117c-30 24.667 -50.333 44.334 -61 59.001l117 118l-117 118c16 18.667 36.667 37.667 62 57l115 -116l115 116c26 -19.333 47 -38.333 63 -57l-118 -119l117 -117c-12 -16 -32 -35.667 -60 -59z" />
    <glyph glyph-name="Oslash" unicode="&#xd8;" horiz-adv-x="636" 
d="M601.5 582c19.667 -43.333 29.5029 -86.999 29.5029 -130.999s-4 -86.333 -12 -127s-21.333 -81.334 -40 -122.001s-41.334 -76.667 -68.001 -108s-60.334 -56.833 -101.001 -76.5s-85.334 -29.5 -134.001 -29.5c-12 0 -23.333 1 -34 3l-32 -91
c-19.333 1.33301 -33.333 5.33301 -42 12c-8 4.66699 -16.667 10 -26 16l30 84c-39.333 20.667 -69.333 53.334 -90 98.001s-31 101.167 -31 169.5s14.167 136 42.5 203s69 121.667 122 164s111.833 63.5 176.5 63.5c12 0 28 -1.33301 48 -4l36 92
c34.667 -5.33301 55.667 -11.333 63 -18c0.666992 -0.666992 3.66699 -3.33398 9 -8.00098l-36 -91c40 -22.667 69.833 -55.667 89.5 -99zM310.003 56.001c28.667 0 53.833 13.667 75.5 41s38.167 63 49.5 107c22.667 86.667 34 175.667 34 267c0 34.667 -2.33301 63 -7 85
l-193 -493c10 -4.66699 23.667 -7 41 -7zM377.002 642.001c-34.667 0 -64.999 -20.667 -90.999 -62c-48.667 -78 -73 -186 -73 -324c0 -56 2.33301 -95.333 7 -118l192 496c-10.667 5.33301 -22.334 8 -35.001 8z" />
    <glyph glyph-name="Ugrave" unicode="&#xd9;" horiz-adv-x="668" 
d="M313 633c0 -34.667 -14.1641 -114.665 -42.4971 -239.998s-42.5 -204.833 -42.5 -238.5s12.333 -50.5 37 -50.5c42.667 0 90.667 18.333 144 55c4 24 13.667 72.333 29 145c36 168 54.667 283.667 56 347c0 11.333 -0.666992 20.666 -2 27.999
c53.333 20.667 107 31 161 31c2 -4 3 -14 3 -30c0 -36.667 -16.167 -131 -48.5 -283s-48.5 -248.667 -48.5 -290c0 -18 3 -27 9 -27s26.333 8.66699 61 26l18 -37c-59.333 -54 -112 -81 -158 -81c-25.333 0 -46.333 8 -63 24s-25.334 38.667 -26.001 68
c-90 -61.333 -164.667 -92 -224 -92c-32.667 0 -58.834 10.5 -78.501 31.5s-29.5 49.833 -29.5 86.5s13.667 113.5 41 230.5s41 201.167 41 252.5c0 10.667 -3.33301 23.5 -10 38.5s-13.334 27.167 -20.001 36.5l-10 14l2 15c36.667 11.333 98.667 17 186 17
c10 -16.667 15 -42.334 15 -77.001zM259.003 915.002c26.667 0 113.001 -44.001 259.001 -132.001l-17 -47c-63.333 18.667 -165.333 46.334 -306 83.001c17.333 64 38.666 96 63.999 96z" />
    <glyph glyph-name="Uacute" unicode="&#xda;" horiz-adv-x="668" 
d="M313 633c0 -34.667 -14.1641 -114.665 -42.4971 -239.998s-42.5 -204.833 -42.5 -238.5s12.333 -50.5 37 -50.5c42.667 0 90.667 18.333 144 55c4 24 13.667 72.333 29 145c36 168 54.667 283.667 56 347c0 11.333 -0.666992 20.666 -2 27.999
c53.333 20.667 107 31 161 31c2 -4 3 -14 3 -30c0 -36.667 -16.167 -131 -48.5 -283s-48.5 -248.667 -48.5 -290c0 -18 3 -27 9 -27s26.333 8.66699 61 26l18 -37c-59.333 -54 -112 -81 -158 -81c-25.333 0 -46.333 8 -63 24s-25.334 38.667 -26.001 68
c-90 -61.333 -164.667 -92 -224 -92c-32.667 0 -58.834 10.5 -78.501 31.5s-29.5 49.833 -29.5 86.5s13.667 113.5 41 230.5s41 201.167 41 252.5c0 10.667 -3.33301 23.5 -10 38.5s-13.334 27.167 -20.001 36.5l-10 14l2 15c36.667 11.333 98.667 17 186 17
c10 -16.667 15 -42.334 15 -77.001zM620.003 846.002c0 -18.667 -12.333 -33.332 -37 -43.999c-60.667 -17.333 -148 -34.666 -262 -51.999l-21 46c140 63.333 234.333 108.333 283 135c7.33301 -10.667 15.333 -25.834 24 -45.501s13 -32.834 13 -39.501z" />
    <glyph glyph-name="Ucircumflex" unicode="&#xdb;" horiz-adv-x="668" 
d="M313 633c0 -34.667 -14.1641 -114.665 -42.4971 -239.998s-42.5 -204.833 -42.5 -238.5s12.333 -50.5 37 -50.5c42.667 0 90.667 18.333 144 55c4 24 13.667 72.333 29 145c36 168 54.667 283.667 56 347c0 11.333 -0.666992 20.666 -2 27.999
c53.333 20.667 107 31 161 31c2 -4 3 -14 3 -30c0 -36.667 -16.167 -131 -48.5 -283s-48.5 -248.667 -48.5 -290c0 -18 3 -27 9 -27s26.333 8.66699 61 26l18 -37c-59.333 -54 -112 -81 -158 -81c-25.333 0 -46.333 8 -63 24s-25.334 38.667 -26.001 68
c-90 -61.333 -164.667 -92 -224 -92c-32.667 0 -58.834 10.5 -78.501 31.5s-29.5 49.833 -29.5 86.5s13.667 113.5 41 230.5s41 201.167 41 252.5c0 10.667 -3.33301 23.5 -10 38.5s-13.334 27.167 -20.001 36.5l-10 14l2 15c36.667 11.333 98.667 17 186 17
c10 -16.667 15 -42.334 15 -77.001zM354.003 869.002c60 33.333 98.832 49.999 116.499 49.999s41.167 -17.167 70.5 -51.5s53 -65.166 71 -92.499l-34 -32c-71.333 36 -117.666 56.333 -138.999 61c-34 -6 -74.167 -17.833 -120.5 -35.5s-72.5 -27.5 -78.5 -29.5l-27 37
c34 28.667 81 59.667 141 93z" />
    <glyph glyph-name="Udieresis" unicode="&#xdc;" horiz-adv-x="668" 
d="M313 633c0 -34.667 -14.1641 -114.665 -42.4971 -239.998s-42.5 -204.833 -42.5 -238.5s12.333 -50.5 37 -50.5c42.667 0 90.667 18.333 144 55c4 24 13.667 72.333 29 145c36 168 54.667 283.667 56 347c0 11.333 -0.666992 20.666 -2 27.999
c53.333 20.667 107 31 161 31c2 -4 3 -14 3 -30c0 -36.667 -16.167 -131 -48.5 -283s-48.5 -248.667 -48.5 -290c0 -18 3 -27 9 -27s26.333 8.66699 61 26l18 -37c-59.333 -54 -112 -81 -158 -81c-25.333 0 -46.333 8 -63 24s-25.334 38.667 -26.001 68
c-90 -61.333 -164.667 -92 -224 -92c-32.667 0 -58.834 10.5 -78.501 31.5s-29.5 49.833 -29.5 86.5s13.667 113.5 41 230.5s41 201.167 41 252.5c0 10.667 -3.33301 23.5 -10 38.5s-13.334 27.167 -20.001 36.5l-10 14l2 15c36.667 11.333 98.667 17 186 17
c10 -16.667 15 -42.334 15 -77.001zM269.503 782.002c-11 11.333 -16.499 26.832 -16.499 46.499s7.66699 36.334 23 50.001s33.333 20.5 54 20.5c43.333 0 65 -21 65 -63c0 -18.667 -7.83301 -35.167 -23.5 -49.5s-33.834 -21.5 -54.501 -21.5s-36.5 5.66699 -47.5 17z
M475.004 782.001c-10.667 11.333 -15.999 26.832 -15.999 46.499s7.5 36.334 22.5 50.001s32.833 20.5 53.5 20.5c44 0 66 -21 66 -63c0 -18.667 -8 -35.167 -24 -49.5s-34.333 -21.5 -55 -21.5s-36.334 5.66699 -47.001 17z" />
    <glyph glyph-name="Yacute" unicode="&#xdd;" horiz-adv-x="641" 
d="M282.5 -216.5c-22.333 -5 -46.498 -7.49902 -72.498 -7.49902s-48.167 7.66699 -66.5 23s-27.5 35.666 -27.5 60.999s8.5 48.333 25.5 69s37.5 37 61.5 49c48.667 25.333 93 42 133 50l26 5c0.666992 2.66699 4.66699 16 12 40s12.666 42.667 15.999 56
c-84.667 -50.667 -154.334 -76 -209.001 -76c-32.667 0 -59.667 10.5 -81 31.5s-32 51 -32 90s12.667 109.333 38 211s38 169.5 38 203.5c0 22 -10 47 -30 75l-10 14l3 15c40 11.333 101.667 17 185 17c9.33301 -20 14 -47 14 -81s-12.667 -105.833 -38 -215.5
s-38 -173.167 -38 -190.5c0 -35.333 12 -53 36 -53c45.333 0 93.666 13 144.999 39c40.667 167.333 68.334 325.333 83.001 474c34 17.333 80.667 26 140 26h19c0 -35.333 -6 -84.333 -18 -147l-71 -360c-14 -72 -32.333 -134.833 -55 -188.5s-46 -95.167 -70 -124.5
s-50.5 -53 -79.5 -71s-54.667 -29.5 -77 -34.5zM210.002 -156.999c23.333 0 47.667 12.833 73 38.5s46 56.167 62 91.5c-31.333 -3.33301 -66.5 -15.5 -105.5 -36.5s-58.5 -42.5 -58.5 -64.5c0 -8 2.83301 -14.833 8.5 -20.5s12.5 -8.5 20.5 -8.5zM629.003 846.001
c0 -18.667 -12.333 -33.332 -37 -43.999c-60.667 -17.333 -148 -34.666 -262 -51.999l-21 46c140 63.333 234.333 108.333 283 135c7.33301 -10.667 15.333 -25.834 24 -45.501s13 -32.834 13 -39.501z" />
    <glyph glyph-name="Thorn" unicode="&#xde;" horiz-adv-x="549" 
d="M315 587l43.001 0.999023c140.667 0 211 -56 211 -168c0 -74 -26 -136.667 -78 -188s-127.333 -77 -226 -77c-17.333 0 -30.666 0.333008 -39.999 1c-12 -65.333 -18.333 -111.666 -19 -138.999c-24 -13.333 -74.667 -20 -152 -20h-10c2 29.333 19.833 117 53.5 263
s54.5 255.667 62.5 329c0 10.667 -3.33301 23.5 -10 38.5s-13.334 27.167 -20.001 36.5l-11 14l3 15c39.333 11.333 101.666 17 186.999 17c8 -13.333 12 -31 12 -53s-2 -45.333 -6 -70zM398.501 499.999c-13 17.333 -28.833 26.001 -47.5 26.001s-35 -2 -49 -6
c-6 -31.333 -16.833 -81.333 -32.5 -150s-26.5 -118 -32.5 -148h12c52 0 93.167 19.667 123.5 59s45.5 90.666 45.5 153.999c0 26 -6.5 47.667 -19.5 65z" />
    <glyph glyph-name="germandbls" unicode="&#xdf;" horiz-adv-x="614" 
d="M617 150c0 -47.333 -19.834 -86.167 -59.501 -116.5s-87.834 -45.5 -144.501 -45.5c-40.667 0 -73.667 8.16699 -99 24.5s-38 31.333 -38 45s11.833 34.667 35.5 63s43.167 44.833 58.5 49.5c12.667 -4.66699 26.834 -18.5 42.501 -41.5s28.834 -50.833 39.501 -83.5
c21.333 1.33301 32 15 32 41s-7.83301 52 -23.5 78s-33 48.333 -52 67s-36.333 41.334 -52 68.001s-23.5 50.334 -23.5 71.001s4 37.167 12 49.5s17.667 23.666 29 33.999s22.666 21.5 33.999 33.5c28 28.667 42 67.334 42 116.001c0 21.333 -5.5 38.166 -16.5 50.499
s-26.833 18.5 -47.5 18.5c-30 0 -52.667 -29.833 -68 -89.5s-32.666 -161.834 -51.999 -306.501s-35 -243.334 -47 -296.001s-28.333 -97 -49 -133h-7c-18.667 0 -42.667 2.83301 -72 8.5s-50.333 11.834 -63 18.501c43.333 128 77.333 294.667 102 500
c-26.667 -2 -52 -5 -76 -9c-0.666992 6 -1 15 -1 27s1.33301 25 4 39h80l1 5c20 114 49.5 192 88.5 234s96.5 63 172.5 63c51.333 0 95.333 -9.83301 132 -29.5s55 -50.5 55 -92.5c0 -27.333 -6 -51.166 -18 -71.499s-25 -35.5 -39 -45.5c-38 -26 -57 -49.667 -57 -71
c0 -26.667 24 -66.334 72 -119.001c18.667 -20 35.5 -44.333 50.5 -73s22.5 -55.667 22.5 -81z" />
    <glyph glyph-name="agrave" unicode="&#xe0;" horiz-adv-x="480" 
d="M328 414c1.33301 1.33301 5.00098 9.99902 11.001 25.999c31.333 0 73.333 -9.33301 126 -28c-16.667 -55.333 -30 -113.166 -40 -173.499s-15 -103.333 -15 -129s2.66699 -38.5 8 -38.5c4 0 18.667 6.33301 44 19l12 6l18 -35l-23.5 -20
c-9.66699 -8 -27.834 -18.833 -54.501 -32.5s-50.667 -20.5 -72 -20.5c-41.333 0 -65.333 18.667 -72 56c-42.667 -37.333 -81.167 -56 -115.5 -56s-63.333 13.333 -87 40s-35.5 68.667 -35.5 126c0 89.333 18.333 159.833 55 211.5s81 77.5 133 77.5
c37.333 0 73.333 -9.66699 108 -29zM214.001 72.999c16 0 33.999 6.33301 53.999 19c4.66699 94 20.334 187 47.001 279c-20 8.66699 -37 13 -51 13c-24 0 -44.5 -23.5 -61.5 -70.5s-25.5 -98.833 -25.5 -155.5s12.333 -85 37 -85zM203 692.999c18 0 47.333 -14 88 -42
l28.5 -19.5l31.5 -22.5l31 -23c20 -16.667 41.333 -33 64 -49l-22 -38c-82 31.333 -179.333 65 -292 101c25.333 62 49 93 71 93z" />
    <glyph glyph-name="aacute" unicode="&#xe1;" horiz-adv-x="480" 
d="M328 414c1.33301 1.33301 5.00098 9.99902 11.001 25.999c31.333 0 73.333 -9.33301 126 -28c-16.667 -55.333 -30 -113.166 -40 -173.499s-15 -103.333 -15 -129s2.66699 -38.5 8 -38.5c4 0 18.667 6.33301 44 19l12 6l18 -35l-23.5 -20
c-9.66699 -8 -27.834 -18.833 -54.501 -32.5s-50.667 -20.5 -72 -20.5c-41.333 0 -65.333 18.667 -72 56c-42.667 -37.333 -81.167 -56 -115.5 -56s-63.333 13.333 -87 40s-35.5 68.667 -35.5 126c0 89.333 18.333 159.833 55 211.5s81 77.5 133 77.5
c37.333 0 73.333 -9.66699 108 -29zM214.001 72.999c16 0 33.999 6.33301 53.999 19c4.66699 94 20.334 187 47.001 279c-20 8.66699 -37 13 -51 13c-24 0 -44.5 -23.5 -61.5 -70.5s-25.5 -98.833 -25.5 -155.5s12.333 -85 37 -85zM467 615.999
c0 -18.667 -12 -33.667 -36 -45c-32.667 -15.333 -114.334 -38 -245.001 -68l-18 40c62.667 32.667 119.334 66 170.001 100s82 54.667 94 62c6.66699 -9.33301 14.167 -24 22.5 -44s12.5 -35 12.5 -45z" />
    <glyph glyph-name="acircumflex" unicode="&#xe2;" horiz-adv-x="480" 
d="M328 414c1.33301 1.33301 5.00098 9.99902 11.001 25.999c31.333 0 73.333 -9.33301 126 -28c-16.667 -55.333 -30 -113.166 -40 -173.499s-15 -103.333 -15 -129s2.66699 -38.5 8 -38.5c4 0 18.667 6.33301 44 19l12 6l18 -35l-23.5 -20
c-9.66699 -8 -27.834 -18.833 -54.501 -32.5s-50.667 -20.5 -72 -20.5c-41.333 0 -65.333 18.667 -72 56c-42.667 -37.333 -81.167 -56 -115.5 -56s-63.333 13.333 -87 40s-35.5 68.667 -35.5 126c0 89.333 18.333 159.833 55 211.5s81 77.5 133 77.5
c37.333 0 73.333 -9.66699 108 -29zM214.001 72.999c16 0 33.999 6.33301 53.999 19c4.66699 94 20.334 187 47.001 279c-20 8.66699 -37 13 -51 13c-24 0 -44.5 -23.5 -61.5 -70.5s-25.5 -98.833 -25.5 -155.5s12.333 -85 37 -85zM358 704.999
c22 0 64.334 -56.334 127.001 -169.001l-31 -29c-57.333 44.667 -100.333 72.334 -129 83.001c-54 -14.667 -117 -43.667 -189 -87l-27 37c35.333 34 81.166 70 137.499 108s93.5 57 111.5 57z" />
    <glyph glyph-name="atilde" unicode="&#xe3;" horiz-adv-x="480" 
d="M328 414c1.33301 1.33301 5.00098 9.99902 11.001 25.999c31.333 0 73.333 -9.33301 126 -28c-16.667 -55.333 -30 -113.166 -40 -173.499s-15 -103.333 -15 -129s2.66699 -38.5 8 -38.5c4 0 18.667 6.33301 44 19l12 6l18 -35l-23.5 -20
c-9.66699 -8 -27.834 -18.833 -54.501 -32.5s-50.667 -20.5 -72 -20.5c-41.333 0 -65.333 18.667 -72 56c-42.667 -37.333 -81.167 -56 -115.5 -56s-63.333 13.333 -87 40s-35.5 68.667 -35.5 126c0 89.333 18.333 159.833 55 211.5s81 77.5 133 77.5
c37.333 0 73.333 -9.66699 108 -29zM214.001 72.999c16 0 33.999 6.33301 53.999 19c4.66699 94 20.334 187 47.001 279c-20 8.66699 -37 13 -51 13c-24 0 -44.5 -23.5 -61.5 -70.5s-25.5 -98.833 -25.5 -155.5s12.333 -85 37 -85zM115 530.999
c9.33301 94.667 43 142.001 101 142.001c22.667 0 55.834 -5.83301 99.501 -17.5s74.5 -17.5 92.5 -17.5s30.667 2 38 6s15.666 14 24.999 30l31 -6c-2.66699 -30.667 -8 -56.334 -16 -77.001c-15.333 -39.333 -44 -59 -86 -59c-15.333 0 -43.833 5.83301 -85.5 17.5
s-72.667 17.5 -93 17.5s-35.333 -2.83301 -45 -8.5s-19.5 -17.167 -29.5 -34.5z" />
    <glyph glyph-name="adieresis" unicode="&#xe4;" horiz-adv-x="480" 
d="M328 414c1.33301 1.33301 5.00098 9.99902 11.001 25.999c31.333 0 73.333 -9.33301 126 -28c-16.667 -55.333 -30 -113.166 -40 -173.499s-15 -103.333 -15 -129s2.66699 -38.5 8 -38.5c4 0 18.667 6.33301 44 19l12 6l18 -35l-23.5 -20
c-9.66699 -8 -27.834 -18.833 -54.501 -32.5s-50.667 -20.5 -72 -20.5c-41.333 0 -65.333 18.667 -72 56c-42.667 -37.333 -81.167 -56 -115.5 -56s-63.333 13.333 -87 40s-35.5 68.667 -35.5 126c0 89.333 18.333 159.833 55 211.5s81 77.5 133 77.5
c37.333 0 73.333 -9.66699 108 -29zM214.001 72.999c16 0 33.999 6.33301 53.999 19c4.66699 94 20.334 187 47.001 279c-20 8.66699 -37 13 -51 13c-24 0 -44.5 -23.5 -61.5 -70.5s-25.5 -98.833 -25.5 -155.5s12.333 -85 37 -85zM161 556.999
c-10.667 12 -15.999 28 -15.999 48s7.5 37.167 22.5 51.5s32.167 21.5 51.5 21.5c42 0 63 -21.667 63 -65c0 -19.333 -7.66699 -36.5 -23 -51.5s-32.833 -22.5 -52.5 -22.5s-34.834 6 -45.501 18zM356.501 556.499c-10.333 11.667 -15.5 27.6689 -15.5 48.002
s7.5 37.666 22.5 51.999s32.5 21.5 52.5 21.5s35.333 -5.83301 46 -17.5s16 -27.334 16 -47.001s-7.66699 -37 -23 -52s-33 -22.5 -53 -22.5s-35.167 5.83301 -45.5 17.5z" />
    <glyph glyph-name="aring" unicode="&#xe5;" horiz-adv-x="480" 
d="M328 414c1.33301 1.33301 5.00098 9.99902 11.001 25.999c31.333 0 73.333 -9.33301 126 -28c-16.667 -55.333 -30 -113.166 -40 -173.499s-15 -103.333 -15 -129s2.66699 -38.5 8 -38.5c4 0 18.667 6.33301 44 19l12 6l18 -35l-23.5 -20
c-9.66699 -8 -27.834 -18.833 -54.501 -32.5s-50.667 -20.5 -72 -20.5c-41.333 0 -65.333 18.667 -72 56c-42.667 -37.333 -81.167 -56 -115.5 -56s-63.333 13.333 -87 40s-35.5 68.667 -35.5 126c0 89.333 18.333 159.833 55 211.5s81 77.5 133 77.5
c37.333 0 73.333 -9.66699 108 -29zM214.001 72.999c16 0 33.999 6.33301 53.999 19c4.66699 94 20.334 187 47.001 279c-20 8.66699 -37 13 -51 13c-24 0 -44.5 -23.5 -61.5 -70.5s-25.5 -98.833 -25.5 -155.5s12.333 -85 37 -85zM203 626.999
c0 30.667 9.5 55.834 28.5 75.501s46.167 29.5 81.5 29.5s62.5 -9.83301 81.5 -29.5s28.5 -44.834 28.5 -75.501s-9.5 -56 -28.5 -76s-46.167 -30 -81.5 -30s-62.5 10 -81.5 30s-28.5 45.333 -28.5 76zM261 626.999c0 -14.667 4.5 -26.5 13.5 -35.5s21.667 -13.5 38 -13.5
s28.666 4.5 36.999 13.5s12.5 20.833 12.5 35.5s-4.16699 26.5 -12.5 35.5s-20.666 13.5 -36.999 13.5s-29 -4.5 -38 -13.5s-13.5 -20.833 -13.5 -35.5z" />
    <glyph glyph-name="ae" unicode="&#xe6;" horiz-adv-x="645" 
d="M220 443c36.667 0 71.998 -9.33398 105.998 -28.001c4 10 8.33301 18.333 13 25c18.667 -3.33301 42.667 -12 72 -26c35.333 19.333 72 29 110 29s69.667 -9.66699 95 -29s38 -45.166 38 -77.499s-8.16699 -59.5 -24.5 -81.5s-36.166 -39 -59.499 -51
c-47.333 -23.333 -90.666 -38 -129.999 -44l-24 -3c4.66699 -62.667 30.334 -94 77.001 -94c16 0 33 4 51 12s32 16 42 24l15 12l24 -32c-5.33301 -7.33301 -16 -17 -32 -29s-31 -22 -45 -30c-38.667 -21.333 -78.667 -32 -120 -32c-62 0 -105.667 27.333 -131 82
c-16 -20.667 -39.333 -39.5 -70 -56.5s-56.667 -25.5 -78 -25.5c-30.667 0 -57.834 13.333 -81.501 40s-35.5 68.667 -35.5 126c0 89.333 18.333 159.833 55 211.5s81 77.5 133 77.5zM284.998 105.999c-4.66699 13.333 -7 46.667 -7 100s10 109.333 30 168
c-15.333 6.66699 -30 10 -44 10c-24 0 -44.5 -23.5 -61.5 -70.5s-25.5 -98.833 -25.5 -155.5s12.5 -85 37.5 -85s48.5 11 70.5 33zM495.998 249c20 22.667 30 52 30 88s-10.667 54 -32 54c-25.333 0 -44.833 -21.5 -58.5 -64.5s-20.5 -83.167 -20.5 -120.5
c34 6 61 20.333 81 43z" />
    <glyph glyph-name="ccedilla" unicode="&#xe7;" horiz-adv-x="397" 
d="M260 393c-26.667 0 -48.001 -22.166 -64.001 -66.499s-24 -91.833 -24 -142.5c0 -80 24.667 -120 74 -120c16 0 33 3.83301 51 11.5s32.333 15.167 43 22.5l15 12l23 -31l-19 -18.5c-8 -7.66699 -24.5 -19.167 -49.5 -34.5s-50.167 -26 -75.5 -32
c-16.667 -12 -31.167 -26.667 -43.5 -44s-18.5 -34.166 -18.5 -50.499s8 -24.5 24 -24.5s35 6.33301 57 19l11 7l18 -28c-4.66699 -4.66699 -11 -10.5 -19 -17.5s-24 -16.333 -48 -28s-46.333 -17.5 -67 -17.5s-37.334 6.16699 -50.001 18.5s-19 28.333 -19 48
s8.33301 39.667 25 60s35.667 37.833 57 52.5c-45.333 4.66699 -79.166 23.667 -101.499 57s-33.5 76.666 -33.5 129.999c0 79.333 21.833 143.666 65.5 192.999s99.834 74 168.501 74c44.667 0 80.167 -10.167 106.5 -30.5s39.5 -45.333 39.5 -75
s-9.33301 -55.167 -28 -76.5c-16.667 0 -36 3.66699 -58 11s-38.667 16.333 -50 27l15 88c-6 4 -14.333 6 -25 6z" />
    <glyph glyph-name="egrave" unicode="&#xe8;" horiz-adv-x="399" 
d="M26 173c0 83.333 25.165 149.166 75.498 197.499s107.5 72.5 171.5 72.5c39.333 0 71.666 -9.66699 96.999 -29s38 -45.166 38 -77.499s-8.16699 -59.5 -24.5 -81.5s-36.166 -39 -59.499 -51c-47.333 -23.333 -90.666 -38 -129.999 -44l-24 -3
c4.66699 -62.667 30.334 -94 77.001 -94c16 0 33 4 51 12s32 16 42 24l15 12l24 -32c-5.33301 -7.33301 -16 -17 -32 -29s-31 -22 -45 -30c-38.667 -21.333 -81 -32 -127 -32s-82.333 16.333 -109 49s-40 78 -40 136zM249.998 249c20 22.667 30 52 30 88s-10.667 54 -32 54
c-25.333 0 -44.833 -21.5 -58.5 -64.5s-20.5 -83.167 -20.5 -120.5c34 6 61 20.333 81 43zM156.998 693c18 0 47.333 -14 88 -42l28.5 -19.5l31.5 -22.5l31 -23c20 -16.667 41.333 -33 64 -49l-22 -38c-82 31.333 -179.333 65 -292 101c25.333 62 49 93 71 93z" />
    <glyph glyph-name="eacute" unicode="&#xe9;" horiz-adv-x="399" 
d="M26 173c0 83.333 25.165 149.166 75.498 197.499s107.5 72.5 171.5 72.5c39.333 0 71.666 -9.66699 96.999 -29s38 -45.166 38 -77.499s-8.16699 -59.5 -24.5 -81.5s-36.166 -39 -59.499 -51c-47.333 -23.333 -90.666 -38 -129.999 -44l-24 -3
c4.66699 -62.667 30.334 -94 77.001 -94c16 0 33 4 51 12s32 16 42 24l15 12l24 -32c-5.33301 -7.33301 -16 -17 -32 -29s-31 -22 -45 -30c-38.667 -21.333 -81 -32 -127 -32s-82.333 16.333 -109 49s-40 78 -40 136zM249.998 249c20 22.667 30 52 30 88s-10.667 54 -32 54
c-25.333 0 -44.833 -21.5 -58.5 -64.5s-20.5 -83.167 -20.5 -120.5c34 6 61 20.333 81 43zM410.998 616c0 -18.667 -12 -33.667 -36 -45c-32.667 -15.333 -114.334 -38 -245.001 -68l-18 40c62.667 32.667 119.334 66 170.001 100s82 54.667 94 62
c6.66699 -9.33301 14.167 -24 22.5 -44s12.5 -35 12.5 -45z" />
    <glyph glyph-name="ecircumflex" unicode="&#xea;" horiz-adv-x="399" 
d="M26 173c0 83.333 25.165 149.166 75.498 197.499s107.5 72.5 171.5 72.5c39.333 0 71.666 -9.66699 96.999 -29s38 -45.166 38 -77.499s-8.16699 -59.5 -24.5 -81.5s-36.166 -39 -59.499 -51c-47.333 -23.333 -90.666 -38 -129.999 -44l-24 -3
c4.66699 -62.667 30.334 -94 77.001 -94c16 0 33 4 51 12s32 16 42 24l15 12l24 -32c-5.33301 -7.33301 -16 -17 -32 -29s-31 -22 -45 -30c-38.667 -21.333 -81 -32 -127 -32s-82.333 16.333 -109 49s-40 78 -40 136zM249.998 249c20 22.667 30 52 30 88s-10.667 54 -32 54
c-25.333 0 -44.833 -21.5 -58.5 -64.5s-20.5 -83.167 -20.5 -120.5c34 6 61 20.333 81 43zM330.998 705c22 0 64.334 -56.334 127.001 -169.001l-31 -29c-57.333 44.667 -100.333 72.334 -129 83.001c-54 -14.667 -117 -43.667 -189 -87l-27 37
c35.333 34 81.166 70 137.499 108s93.5 57 111.5 57z" />
    <glyph glyph-name="edieresis" unicode="&#xeb;" horiz-adv-x="399" 
d="M26 173c0 83.333 25.165 149.166 75.498 197.499s107.5 72.5 171.5 72.5c39.333 0 71.666 -9.66699 96.999 -29s38 -45.166 38 -77.499s-8.16699 -59.5 -24.5 -81.5s-36.166 -39 -59.499 -51c-47.333 -23.333 -90.666 -38 -129.999 -44l-24 -3
c4.66699 -62.667 30.334 -94 77.001 -94c16 0 33 4 51 12s32 16 42 24l15 12l24 -32c-5.33301 -7.33301 -16 -17 -32 -29s-31 -22 -45 -30c-38.667 -21.333 -81 -32 -127 -32s-82.333 16.333 -109 49s-40 78 -40 136zM249.998 249c20 22.667 30 52 30 88s-10.667 54 -32 54
c-25.333 0 -44.833 -21.5 -58.5 -64.5s-20.5 -83.167 -20.5 -120.5c34 6 61 20.333 81 43zM124.998 557c-10.667 12 -15.999 28 -15.999 48s7.5 37.167 22.5 51.5s32.167 21.5 51.5 21.5c42 0 63 -21.667 63 -65c0 -19.333 -7.66699 -36.5 -23 -51.5
s-32.833 -22.5 -52.5 -22.5s-34.834 6 -45.501 18zM320.499 556.5c-10.333 11.667 -15.5 27.6689 -15.5 48.002s7.5 37.666 22.5 51.999s32.5 21.5 52.5 21.5s35.333 -5.83301 46 -17.5s16 -27.334 16 -47.001s-7.66699 -37 -23 -52s-33 -22.5 -53 -22.5
s-35.167 5.83301 -45.5 17.5z" />
    <glyph glyph-name="igrave" unicode="&#xec;" horiz-adv-x="273" 
d="M96 688c13.333 0 32.499 -8.16699 57.499 -24.5s47.667 -33.5 68 -51.5l84.5 -76l-22 -38c-135.333 52.667 -221.666 85 -258.999 97c25.333 62 49 93 71 93zM182.999 98c0 -18 2.99902 -26.998 8.99902 -26.998c4 0 19.333 6.33301 46 19l12 6l17 -35
c-6 -5.33301 -14 -12 -24 -20s-28.667 -18.833 -56 -32.5s-52.666 -20.5 -75.999 -20.5s-41.666 7.16699 -54.999 21.5s-20 33.666 -20 57.999s8.33301 67.666 25 129.999s25 102.833 25 121.5c0 28 -8.66699 54.333 -26 79l-9 12l1 13c35.333 10 92.666 15 171.999 15
c8.66699 -10 13 -29.333 13 -58s-8.66699 -76.167 -26 -142.5s-26.333 -105.333 -27 -117s-1 -19.167 -1 -22.5z" />
    <glyph glyph-name="iacute" unicode="&#xed;" horiz-adv-x="273" 
d="M49 545c56 30 135.333 81.667 238 155c6.66699 -9.33301 14.167 -24 22.5 -44s12.5 -35 12.5 -45c0 -18.667 -12 -33.667 -36 -45c-50.667 -23.333 -123.667 -44 -219 -62zM183 98c0 -18 2.99902 -26.998 8.99902 -26.998c4 0 19.333 6.33301 46 19l12 6l17 -35
c-6 -5.33301 -14 -12 -24 -20s-28.667 -18.833 -56 -32.5s-52.666 -20.5 -75.999 -20.5s-41.666 7.16699 -54.999 21.5s-20 33.666 -20 57.999s8.33301 67.666 25 129.999s25 102.833 25 121.5c0 28 -8.66699 54.333 -26 79l-9 12l1 13c35.333 10 92.666 15 171.999 15
c8.66699 -10 13 -29.333 13 -58s-8.66699 -76.167 -26 -142.5s-26.333 -105.333 -27 -117s-1 -19.167 -1 -22.5z" />
    <glyph glyph-name="icircumflex" unicode="&#xee;" horiz-adv-x="273" 
d="M238 705c18.667 0 55.667 -55.332 111 -165.999l-33 -32c-2.66699 2 -8 6.66699 -16 14l-16.5 15l-14.5 13c-6.66699 6 -12 10.333 -16 13l-15 10c-12.667 9.33301 -22.667 15.333 -30 18c-42 -13.333 -95 -42.333 -159 -87l-28 40c30 33.333 69.667 68.666 119 105.999
s82 56 98 56zM183 98.001c0 -18 2.99902 -26.998 8.99902 -26.998c4 0 19.333 6.33301 46 19l12 6l17 -35c-6 -5.33301 -14 -12 -24 -20s-28.667 -18.833 -56 -32.5s-52.666 -20.5 -75.999 -20.5s-41.666 7.16699 -54.999 21.5s-20 33.666 -20 57.999
s8.33301 67.666 25 129.999s25 102.833 25 121.5c0 28 -8.66699 54.333 -26 79l-9 12l1 13c35.333 10 92.666 15 171.999 15c8.66699 -10 13 -29.333 13 -58s-8.66699 -76.167 -26 -142.5s-26.333 -105.333 -27 -117s-1 -19.167 -1 -22.5z" />
    <glyph glyph-name="idieresis" unicode="&#xef;" horiz-adv-x="281" 
d="M51 604c0 20.667 7 38.167 21 52.5s30.667 21.5 50 21.5c41.333 0 62 -21.667 62 -65c0 -19.333 -7.5 -36.5 -22.5 -51.5s-32.5 -22.5 -52.5 -22.5c-38.667 0 -58 21.667 -58 65zM232 556.5c-10 11.667 -15 27.668 -15 48.001s7.33301 37.666 22 51.999
s31.667 21.5 51 21.5c40.667 0 61 -21.667 61 -65c0 -19.333 -7.33301 -36.5 -22 -51.5s-32 -22.5 -52 -22.5s-35 5.83301 -45 17.5zM191 98.001c0 -18 2.99902 -26.998 8.99902 -26.998c4 0 19.333 6.33301 46 19l12 6l17 -35c-6 -5.33301 -14 -12 -24 -20
s-28.667 -18.833 -56 -32.5s-52.666 -20.5 -75.999 -20.5s-41.666 7.16699 -54.999 21.5s-20 33.666 -20 57.999s8.33301 67.666 25 129.999s25 102.833 25 121.5c0 28 -8.66699 54.333 -26 79l-9 12l1 13c35.333 10 92.666 15 171.999 15c8.66699 -10 13 -29.333 13 -58
s-8.66699 -76.167 -26 -142.5s-26.333 -105.333 -27 -117s-1 -19.167 -1 -22.5z" />
    <glyph glyph-name="eth" unicode="&#xf0;" horiz-adv-x="474" 
d="M464 301c0 -62 -12 -118.998 -36 -170.998c-44.667 -94.667 -117.334 -142 -218.001 -142c-60.667 0 -107.167 17.5 -139.5 52.5s-48.5 83.667 -48.5 146s22 120.666 66 174.999s100.333 81.5 169 81.5c14.667 0 30.334 -1.66699 47.001 -5c-7.33301 40 -17 75 -29 105
l-117 -35c-11.333 12.667 -17 32 -17 58l105 31c-27.333 41.333 -63.666 74.666 -108.999 99.999l23 37c69.333 -18 129.666 -54.667 180.999 -110l125 37c8 -20.667 12 -38.667 12 -54l-1 -4l-97 -29c56 -83.333 84 -174.333 84 -273zM314 298.002
c0 28.667 -1.00195 56.001 -3.00195 82.001c-9.33301 2 -18 3 -26 3c-41.333 0 -72.166 -22.333 -92.499 -67s-30.5 -95.334 -30.5 -152.001c0 -75.333 19.667 -113 59 -113c32.667 0 56.334 24 71.001 72s22 106.333 22 175z" />
    <glyph glyph-name="ntilde" unicode="&#xf1;" horiz-adv-x="508" 
d="M57 -3h-19.001c0 31.333 9.5 91.333 28.5 180s28.5 139 28.5 151c0 22 -9.33301 45.333 -28 70l-9 12l1 13c36 10 93.667 15 173 15c8.66699 -11.333 13.334 -32 14.001 -62c58 44.667 107 67 147 67c24 0 43.167 -8.33301 57.5 -25s21.5 -37.5 21.5 -62.5
s-7.66699 -68.167 -23 -129.5s-23 -102.5 -23 -123.5s2.66699 -31.5 8 -31.5c4 0 18 6.33301 42 19l12 6l18 -35c-6 -5.33301 -14 -12 -24 -20s-28.5 -18.833 -55.5 -32.5s-51.167 -20.5 -72.5 -20.5c-48.667 0 -73 27.667 -73 83c0 23.333 7.5 66.333 22.5 129
s22.5 103 22.5 121s-5.66699 27 -17 27c-19.333 0 -43 -8.33301 -71 -25c-2 -11.333 -8.66699 -41.333 -20 -90c-23.333 -104.667 -35 -178.667 -35 -222c-23.333 -9.33301 -65.333 -14 -126 -14zM130.999 525c9.33301 94.667 43 142.001 101 142.001
c22.667 0 55.834 -5.83301 99.501 -17.5s74.5 -17.5 92.5 -17.5s30.667 2 38 6s15.666 14 24.999 30l31 -6c-2.66699 -30.667 -8 -56.334 -16 -77.001c-15.333 -39.333 -44 -59 -86 -59c-15.333 0 -43.833 5.83301 -85.5 17.5s-72.667 17.5 -93 17.5
s-35.333 -2.83301 -45 -8.5s-19.5 -17.167 -29.5 -34.5z" />
    <glyph glyph-name="ograve" unicode="&#xf2;" horiz-adv-x="409" 
d="M170 -12c-46 0 -81.998 16.166 -107.998 48.499s-39 77.5 -39 135.5c0 74 19.833 137.667 59.5 191s94.5 80 164.5 80l36 -2c11.333 6 24 9 38 9c52.667 0 79 -49.667 79 -149c27.333 1.33301 55 5 83 11l16 4l6 -39c-22 -9.33301 -51.667 -17.666 -89 -24.999l-20 -4
c-12.667 -70 -38.334 -130.833 -77.001 -182.5s-88.334 -77.5 -149.001 -77.5zM224.002 73.999c28 0 53.168 18 75.501 54s37.833 74 46.5 114c-71.333 0 -107 26.667 -107 80c0 21.333 4.33301 41.333 13 60l5 10c-2.66699 1.33301 -6 2 -10 2s-7 -0.666992 -9 -2
c-16.667 -10.667 -32.334 -35.667 -47.001 -75s-22 -84.333 -22 -135c0 -72 18.333 -108 55 -108zM174.003 692.999c18 0 47.333 -14 88 -42l28.5 -19.5l31.5 -22.5l31 -23c20 -16.667 41.333 -33 64 -49l-22 -38c-82 31.333 -179.333 65 -292 101c25.333 62 49 93 71 93z
" />
    <glyph glyph-name="oacute" unicode="&#xf3;" horiz-adv-x="409" 
d="M170 -12c-46 0 -81.998 16.166 -107.998 48.499s-39 77.5 -39 135.5c0 74 19.833 137.667 59.5 191s94.5 80 164.5 80l36 -2c11.333 6 24 9 38 9c52.667 0 79 -49.667 79 -149c27.333 1.33301 55 5 83 11l16 4l6 -39c-22 -9.33301 -51.667 -17.666 -89 -24.999l-20 -4
c-12.667 -70 -38.334 -130.833 -77.001 -182.5s-88.334 -77.5 -149.001 -77.5zM224.002 73.999c28 0 53.168 18 75.501 54s37.833 74 46.5 114c-71.333 0 -107 26.667 -107 80c0 21.333 4.33301 41.333 13 60l5 10c-2.66699 1.33301 -6 2 -10 2s-7 -0.666992 -9 -2
c-16.667 -10.667 -32.334 -35.667 -47.001 -75s-22 -84.333 -22 -135c0 -72 18.333 -108 55 -108zM420.003 615.999c0 -18.667 -12 -33.667 -36 -45c-32.667 -15.333 -114.334 -38 -245.001 -68l-18 40c62.667 32.667 119.334 66 170.001 100s82 54.667 94 62
c6.66699 -9.33301 14.167 -24 22.5 -44s12.5 -35 12.5 -45z" />
    <glyph glyph-name="ocircumflex" unicode="&#xf4;" horiz-adv-x="409" 
d="M170 -12c-46 0 -81.998 16.166 -107.998 48.499s-39 77.5 -39 135.5c0 74 19.833 137.667 59.5 191s94.5 80 164.5 80l36 -2c11.333 6 24 9 38 9c52.667 0 79 -49.667 79 -149c27.333 1.33301 55 5 83 11l16 4l6 -39c-22 -9.33301 -51.667 -17.666 -89 -24.999l-20 -4
c-12.667 -70 -38.334 -130.833 -77.001 -182.5s-88.334 -77.5 -149.001 -77.5zM224.002 73.999c28 0 53.168 18 75.501 54s37.833 74 46.5 114c-71.333 0 -107 26.667 -107 80c0 21.333 4.33301 41.333 13 60l5 10c-2.66699 1.33301 -6 2 -10 2s-7 -0.666992 -9 -2
c-16.667 -10.667 -32.334 -35.667 -47.001 -75s-22 -84.333 -22 -135c0 -72 18.333 -108 55 -108zM328.003 704.999c22 0 64.334 -56.334 127.001 -169.001l-31 -29c-57.333 44.667 -100.333 72.334 -129 83.001c-54 -14.667 -117 -43.667 -189 -87l-27 37
c35.333 34 81.166 70 137.499 108s93.5 57 111.5 57z" />
    <glyph glyph-name="otilde" unicode="&#xf5;" horiz-adv-x="409" 
d="M170 -12c-46 0 -81.998 16.166 -107.998 48.499s-39 77.5 -39 135.5c0 74 19.833 137.667 59.5 191s94.5 80 164.5 80l36 -2c11.333 6 24 9 38 9c52.667 0 79 -49.667 79 -149c27.333 1.33301 55 5 83 11l16 4l6 -39c-22 -9.33301 -51.667 -17.666 -89 -24.999l-20 -4
c-12.667 -70 -38.334 -130.833 -77.001 -182.5s-88.334 -77.5 -149.001 -77.5zM224.002 73.999c28 0 53.168 18 75.501 54s37.833 74 46.5 114c-71.333 0 -107 26.667 -107 80c0 21.333 4.33301 41.333 13 60l5 10c-2.66699 1.33301 -6 2 -10 2s-7 -0.666992 -9 -2
c-16.667 -10.667 -32.334 -35.667 -47.001 -75s-22 -84.333 -22 -135c0 -72 18.333 -108 55 -108zM67.0029 530.999c9.33301 94.667 43 142.001 101 142.001c22.667 0 55.834 -5.83301 99.501 -17.5s74.5 -17.5 92.5 -17.5s30.667 2 38 6s15.666 14 24.999 30l31 -6
c-2.66699 -30.667 -8 -56.334 -16 -77.001c-15.333 -39.333 -44 -59 -86 -59c-15.333 0 -43.833 5.83301 -85.5 17.5s-72.667 17.5 -93 17.5s-35.333 -2.83301 -45 -8.5s-19.5 -17.167 -29.5 -34.5z" />
    <glyph glyph-name="odieresis" unicode="&#xf6;" horiz-adv-x="409" 
d="M170 -12c-46 0 -81.998 16.166 -107.998 48.499s-39 77.5 -39 135.5c0 74 19.833 137.667 59.5 191s94.5 80 164.5 80l36 -2c11.333 6 24 9 38 9c52.667 0 79 -49.667 79 -149c27.333 1.33301 55 5 83 11l16 4l6 -39c-22 -9.33301 -51.667 -17.666 -89 -24.999l-20 -4
c-12.667 -70 -38.334 -130.833 -77.001 -182.5s-88.334 -77.5 -149.001 -77.5zM224.002 73.999c28 0 53.168 18 75.501 54s37.833 74 46.5 114c-71.333 0 -107 26.667 -107 80c0 21.333 4.33301 41.333 13 60l5 10c-2.66699 1.33301 -6 2 -10 2s-7 -0.666992 -9 -2
c-16.667 -10.667 -32.334 -35.667 -47.001 -75s-22 -84.333 -22 -135c0 -72 18.333 -108 55 -108zM122.003 556.999c-10.667 12 -15.999 28 -15.999 48s7.5 37.167 22.5 51.5s32.167 21.5 51.5 21.5c42 0 63 -21.667 63 -65c0 -19.333 -7.66699 -36.5 -23 -51.5
s-32.833 -22.5 -52.5 -22.5s-34.834 6 -45.501 18zM317.504 556.499c-10.333 11.667 -15.5 27.6689 -15.5 48.002s7.5 37.666 22.5 51.999s32.5 21.5 52.5 21.5s35.333 -5.83301 46 -17.5s16 -27.334 16 -47.001s-7.66699 -37 -23 -52s-33 -22.5 -53 -22.5
s-35.167 5.83301 -45.5 17.5z" />
    <glyph glyph-name="divide" unicode="&#xf7;" horiz-adv-x="512" 
d="M70 238c0 42 3.66699 71 11 87h369c0 -44.667 -2 -73.667 -6 -87h-374zM206 402c-10.667 12 -16 27.832 -16 47.499s7.33301 36.834 22 51.501s32 22 52 22s35.5 -6 46.5 -18s16.5 -27.5 16.5 -46.5s-7.5 -36.167 -22.5 -51.5s-32.5 -23 -52.5 -23s-35.333 6 -46 18z
M198 57.999c-10.667 12 -16 27.832 -16 47.499s7.33301 36.834 22 51.501s32 22 52 22s35.5 -6 46.5 -18s16.5 -27.5 16.5 -46.5s-7.5 -36.167 -22.5 -51.5s-32.5 -23 -52.5 -23s-35.333 6 -46 18z" />
    <glyph glyph-name="oslash" unicode="&#xf8;" horiz-adv-x="412" 
d="M23 172c0 74 19.832 137.665 59.499 190.998s94.5 80 164.5 80c16 0 26.667 -0.666992 32 -2l27 86c21.333 0 42 -6.33301 62 -19c-9.33301 -27.333 -18.666 -56.666 -27.999 -87.999c39.333 -24 59.333 -69.333 60 -136c0 -36 -7 -74 -21 -114
s-35.667 -77.167 -65 -111.5s-62.666 -56.166 -99.999 -65.499l-23 -85c-20.667 0 -38.334 3 -53.001 9l-7 5l19 68c-39.333 5.33301 -70.333 24 -93 56s-34 74 -34 126zM184.999 317.498c-22 -45 -33 -90.333 -33 -136s8.66699 -76.5 26 -92.5
c38.667 140.667 67 240.667 85 300c-30 -2.66699 -56 -26.5 -78 -71.5zM309.499 151.498c21.667 41 32.499 82.334 32.499 124.001s-6.66699 71.167 -20 88.5c-30.667 -96.667 -59 -192.334 -85 -287.001c26.667 8.66699 50.834 33.5 72.501 74.5z" />
    <glyph glyph-name="ugrave" unicode="&#xf9;" horiz-adv-x="499" 
d="M64 221.5c17.333 69 26 111.335 26 127.002s-12 36.5 -36 62.5l1 13c45.333 9.33301 105 14 179 14c3.33301 -8.66699 5 -24.334 5 -47.001s-9.33301 -71 -28 -145s-28 -120 -28 -138s6.66699 -27 20 -27c19.333 0 41.666 7 66.999 21
c2.66699 16 9.33398 46.667 20.001 92c24 106.667 36 183 36 229c23.333 9.33301 65.333 14 126 14h19c0 -31.333 -9.33301 -92.5 -28 -183.5s-28 -144.333 -28 -160s3.33301 -23.5 10 -23.5c4 0 23 8 57 24l19 -32c-59.333 -49.333 -111.333 -74 -156 -74
c-21.333 0 -39.5 6 -54.5 18s-23.5 27.667 -25.5 47c-54 -44 -103 -66 -147 -66c-23.333 0 -42.5 7.66699 -57.5 23s-22.5 37.166 -22.5 65.499s8.66699 77 26 146zM183 693.002c18 0 47.333 -14 88 -42l28.5 -19.5l31.5 -22.5l31 -23c20 -16.667 41.333 -33 64 -49l-22 -38
c-82 31.333 -179.333 65 -292 101c25.333 62 49 93 71 93z" />
    <glyph glyph-name="uacute" unicode="&#xfa;" horiz-adv-x="499" 
d="M64 221.5c17.333 69 26 111.335 26 127.002s-12 36.5 -36 62.5l1 13c45.333 9.33301 105 14 179 14c3.33301 -8.66699 5 -24.334 5 -47.001s-9.33301 -71 -28 -145s-28 -120 -28 -138s6.66699 -27 20 -27c19.333 0 41.666 7 66.999 21
c2.66699 16 9.33398 46.667 20.001 92c24 106.667 36 183 36 229c23.333 9.33301 65.333 14 126 14h19c0 -31.333 -9.33301 -92.5 -28 -183.5s-28 -144.333 -28 -160s3.33301 -23.5 10 -23.5c4 0 23 8 57 24l19 -32c-59.333 -49.333 -111.333 -74 -156 -74
c-21.333 0 -39.5 6 -54.5 18s-23.5 27.667 -25.5 47c-54 -44 -103 -66 -147 -66c-23.333 0 -42.5 7.66699 -57.5 23s-22.5 37.166 -22.5 65.499s8.66699 77 26 146zM459 616.002c0 -18.667 -12 -33.667 -36 -45c-32.667 -15.333 -114.334 -38 -245.001 -68l-18 40
c62.667 32.667 119.334 66 170.001 100s82 54.667 94 62c6.66699 -9.33301 14.167 -24 22.5 -44s12.5 -35 12.5 -45z" />
    <glyph glyph-name="ucircumflex" unicode="&#xfb;" horiz-adv-x="499" 
d="M64 221.5c17.333 69 26 111.335 26 127.002s-12 36.5 -36 62.5l1 13c45.333 9.33301 105 14 179 14c3.33301 -8.66699 5 -24.334 5 -47.001s-9.33301 -71 -28 -145s-28 -120 -28 -138s6.66699 -27 20 -27c19.333 0 41.666 7 66.999 21
c2.66699 16 9.33398 46.667 20.001 92c24 106.667 36 183 36 229c23.333 9.33301 65.333 14 126 14h19c0 -31.333 -9.33301 -92.5 -28 -183.5s-28 -144.333 -28 -160s3.33301 -23.5 10 -23.5c4 0 23 8 57 24l19 -32c-59.333 -49.333 -111.333 -74 -156 -74
c-21.333 0 -39.5 6 -54.5 18s-23.5 27.667 -25.5 47c-54 -44 -103 -66 -147 -66c-23.333 0 -42.5 7.66699 -57.5 23s-22.5 37.166 -22.5 65.499s8.66699 77 26 146zM348 705.002c22 0 64.334 -56.334 127.001 -169.001l-31 -29c-57.333 44.667 -100.333 72.334 -129 83.001
c-54 -14.667 -117 -43.667 -189 -87l-27 37c35.333 34 81.166 70 137.499 108s93.5 57 111.5 57z" />
    <glyph glyph-name="udieresis" unicode="&#xfc;" horiz-adv-x="499" 
d="M64 221.5c17.333 69 26 111.335 26 127.002s-12 36.5 -36 62.5l1 13c45.333 9.33301 105 14 179 14c3.33301 -8.66699 5 -24.334 5 -47.001s-9.33301 -71 -28 -145s-28 -120 -28 -138s6.66699 -27 20 -27c19.333 0 41.666 7 66.999 21
c2.66699 16 9.33398 46.667 20.001 92c24 106.667 36 183 36 229c23.333 9.33301 65.333 14 126 14h19c0 -31.333 -9.33301 -92.5 -28 -183.5s-28 -144.333 -28 -160s3.33301 -23.5 10 -23.5c4 0 23 8 57 24l19 -32c-59.333 -49.333 -111.333 -74 -156 -74
c-21.333 0 -39.5 6 -54.5 18s-23.5 27.667 -25.5 47c-54 -44 -103 -66 -147 -66c-23.333 0 -42.5 7.66699 -57.5 23s-22.5 37.166 -22.5 65.499s8.66699 77 26 146zM161 557.002c-10.667 12 -15.999 28 -15.999 48s7.5 37.167 22.5 51.5s32.167 21.5 51.5 21.5
c42 0 63 -21.667 63 -65c0 -19.333 -7.66699 -36.5 -23 -51.5s-32.833 -22.5 -52.5 -22.5s-34.834 6 -45.501 18zM356.501 556.502c-10.333 11.667 -15.5 27.6689 -15.5 48.002s7.5 37.666 22.5 51.999s32.5 21.5 52.5 21.5s35.333 -5.83301 46 -17.5s16 -27.334 16 -47.001
s-7.66699 -37 -23 -52s-33 -22.5 -53 -22.5s-35.167 5.83301 -45.5 17.5z" />
    <glyph glyph-name="yacute" unicode="&#xfd;" horiz-adv-x="457" 
d="M442 616c0 -18.667 -12 -33.667 -36 -45c-32.667 -15.333 -114.334 -38 -245.001 -68l-18 40c62.667 32.667 119.334 66 170.001 100s82 54.667 94 62c6.66699 -9.33301 14.167 -24 22.5 -44s12.5 -35 12.5 -45zM133 -147c0 -12.667 7.16699 -19.001 21.5 -19.001
s30.5 6.83301 48.5 20.5s33 35.834 45 66.501c-32 -6 -59.167 -15.667 -81.5 -29s-33.5 -26.333 -33.5 -39zM118 -4.00098c-56 0 -83.998 30.667 -83.998 92c0 14.667 6.66699 57 20 127s20 128.333 20 175c0 10 -1.33301 19.333 -4 28c36 14 85.333 21 148 21
c3.33301 -9.33301 5 -25.333 5 -48s-7.33301 -69.667 -22 -141s-22 -117.333 -22 -138s8.66699 -31 26 -31c20.667 0 45.667 10.333 75 31c3.33301 39.333 16.666 143 39.999 311c23.333 9.33301 65.333 14 126 14h19c-12.667 -50 -25 -122 -37 -216
s-21.667 -159.333 -29 -196c-14 -73.333 -39.833 -133.166 -77.5 -179.499s-86.834 -69.5 -147.501 -69.5c-24 0 -45.833 6.33301 -65.5 19s-29.5 29 -29.5 49c0 26.667 16.333 51 49 73s76.667 39 132 51c6 29.333 10.667 57.666 14 84.999c-54 -38 -106 -57 -156 -57z" />
    <glyph glyph-name="thorn" unicode="&#xfe;" horiz-adv-x="459" 
d="M1 -224c-3.33301 8 -5.00098 28.165 -5.00098 60.498s10.833 102 32.5 209l65.5 338c22 118.333 33 212.5 33 282.5c0 10.667 -1.66699 24.334 -5 41.001c52 18 101.667 27 149 27c3.33301 -9.33301 5 -21.333 5 -36c0 -60 -14.333 -157 -43 -291c36 24 69.5 36 100.5 36
s58 -13.5 81 -40.5s34.5 -68.167 34.5 -123.5c0 -85.333 -20 -155.166 -60 -209.499s-87 -81.5 -141 -81.5c-33.333 0 -64.666 6.33301 -93.999 19c-10.667 -73.333 -16 -141.333 -16 -204c-36 -14.667 -81.667 -23.667 -137 -27zM297.999 339.498
c-6.66699 12.333 -16.333 18.5 -29 18.5s-29 -4 -49 -12c-30 -138 -49.333 -233 -58 -285c16 -7.33301 34 -11 54 -11c28 0 50.333 22.167 67 66.5s25 89.5 25 135.5s-3.33301 75.167 -10 87.5z" />
    <glyph glyph-name="ydieresis" unicode="&#xff;" horiz-adv-x="457" 
d="M149 557c-10.667 12 -15.999 28 -15.999 48s7.5 37.167 22.5 51.5s32.167 21.5 51.5 21.5c42 0 63 -21.667 63 -65c0 -19.333 -7.66699 -36.5 -23 -51.5s-32.833 -22.5 -52.5 -22.5s-34.834 6 -45.501 18zM344.501 556.5c-10.333 11.667 -15.5 27.6689 -15.5 48.002
s7.5 37.666 22.5 51.999s32.5 21.5 52.5 21.5s35.333 -5.83301 46 -17.5s16 -27.334 16 -47.001s-7.66699 -37 -23 -52s-33 -22.5 -53 -22.5s-35.167 5.83301 -45.5 17.5zM133.001 -146.998c0 -12.667 7.16699 -19.001 21.5 -19.001s30.5 6.83301 48.5 20.5
s33 35.834 45 66.501c-32 -6 -59.167 -15.667 -81.5 -29s-33.5 -26.333 -33.5 -39zM118.001 -3.99902c-56 0 -83.998 30.667 -83.998 92c0 14.667 6.66699 57 20 127s20 128.333 20 175c0 10 -1.33301 19.333 -4 28c36 14 85.333 21 148 21
c3.33301 -9.33301 5 -25.333 5 -48s-7.33301 -69.667 -22 -141s-22 -117.333 -22 -138s8.66699 -31 26 -31c20.667 0 45.667 10.333 75 31c3.33301 39.333 16.666 143 39.999 311c23.333 9.33301 65.333 14 126 14h19c-12.667 -50 -25 -122 -37 -216
s-21.667 -159.333 -29 -196c-14 -73.333 -39.833 -133.166 -77.5 -179.499s-86.834 -69.5 -147.501 -69.5c-24 0 -45.833 6.33301 -65.5 19s-29.5 29 -29.5 49c0 26.667 16.333 51 49 73s76.667 39 132 51c6 29.333 10.667 57.666 14 84.999c-54 -38 -106 -57 -156 -57z" />
    <glyph glyph-name="hbar" unicode="&#x127;" horiz-adv-x="496" 
d="M141 583c4 28 5.99902 53.334 5.99902 76.001s-2 38.667 -6 48c52 18 101 27 147 27c6 -6 9 -20.667 9 -44s-4 -59 -12 -107h149c0 -24 -1.66699 -44.333 -5 -61h-157l-31 -138c54 39.333 101.333 59 142 59c25.333 0 44.5 -8 57.5 -24s19.5 -37.167 19.5 -63.5
s-7.66699 -69.333 -23 -129s-23 -100.5 -23 -122.5s2.66699 -33 8 -33s19.333 6 42 18l12 6l18 -35c-6 -5.33301 -14 -12 -24 -20s-28.333 -18.667 -55 -32s-51.167 -20 -73.5 -20s-40.166 7.16699 -53.499 21.5s-20 33.666 -20 57.999s7.5 68.666 22.5 132.999
s22.5 105 22.5 122s-7 25.5 -21 25.5c-17.333 0 -39 -7.33301 -65 -22c-36.667 -161.333 -55 -266 -55 -314c-28 -10.667 -75.667 -16 -143 -16c-0.666992 11.333 -1 24.833 -1 40.5s6 51 18 106s27 120.333 45 196s31.333 136.834 40 183.501h-65c0 26 1.66699 46.333 5 61
h70z" />
    <glyph glyph-name="Itilde" unicode="&#x128;" horiz-adv-x="325" 
d="M408 892c-6 -86 -37.9961 -129 -95.9961 -129c-14.667 0 -39.334 5.5 -74.001 16.5s-60.667 16.5 -78 16.5s-30.5 -2.5 -39.5 -7.5s-17.833 -15.167 -26.5 -30.5l-33 7c3.33301 32 8.66602 57.667 15.999 77c14.667 38 41 57 79 57c18 0 45 -5.33301 81 -16
s62.167 -16 78.5 -16s28.666 1.83301 36.999 5.5s16.166 12.167 23.499 25.5zM209.004 102c0 -14.667 3.66797 -21.999 11.001 -21.999c4 0 23.333 8.66699 58 26l19 -37c-60 -54 -113 -81 -159 -81c-28.667 0 -50.5 9.66699 -65.5 29s-22.5 43.333 -22.5 72
s16.167 107.167 48.5 235.5s50.166 216.5 53.499 264.5c0 10.667 -3.5 23.5 -10.5 38.5s-14.167 27.167 -21.5 36.5l-10 14l3 15c38 11.333 100.667 17 188 17c8 -15.333 12 -37.5 12 -66.5s-17.333 -112.833 -52 -251.5s-52 -235.334 -52 -290.001z" />
    <glyph glyph-name="itilde" unicode="&#x129;" horiz-adv-x="273" 
d="M33 533c7.33301 88 38.334 132 93.001 132c16 0 40.167 -4.5 72.5 -13.5s54.666 -13.5 66.999 -13.5s22.666 1.83301 30.999 5.5s16.833 11.167 25.5 22.5l31 -6c-2 -24 -7 -48 -15 -72c-12 -36 -40 -54 -84 -54c-12 0 -33.667 4.5 -65 13.5s-53.666 13.5 -66.999 13.5
s-23.5 -2.33301 -30.5 -7s-15.833 -14 -26.5 -28zM183.001 98c0 -18 2.99902 -26.998 8.99902 -26.998c4 0 19.333 6.33301 46 19l12 6l17 -35c-6 -5.33301 -14 -12 -24 -20s-28.667 -18.833 -56 -32.5s-52.666 -20.5 -75.999 -20.5s-41.666 7.16699 -54.999 21.5
s-20 33.666 -20 57.999s8.33301 67.666 25 129.999s25 102.833 25 121.5c0 28 -8.66699 54.333 -26 79l-9 12l1 13c35.333 10 92.666 15 171.999 15c8.66699 -10 13 -29.333 13 -58s-8.66699 -76.167 -26 -142.5s-26.333 -105.333 -27 -117s-1 -19.167 -1 -22.5z" />
    <glyph glyph-name="dotlessi" unicode="&#x131;" horiz-adv-x="273" 
d="M183 98c0 -18 2.99902 -26.998 8.99902 -26.998c4 0 19.333 6.33301 46 19l12 6l17 -35c-6 -5.33301 -14 -12 -24 -20s-28.667 -18.833 -56 -32.5s-52.666 -20.5 -75.999 -20.5s-41.666 7.16699 -54.999 21.5s-20 33.666 -20 57.999s8.33301 67.666 25 129.999
s25 102.833 25 121.5c0 28 -8.66699 54.333 -26 79l-9 12l1 13c35.333 10 92.666 15 171.999 15c8.66699 -10 13 -29.333 13 -58s-8.66699 -76.167 -26 -142.5s-26.333 -105.333 -27 -117s-1 -19.167 -1 -22.5z" />
    <glyph glyph-name="IJ" unicode="&#x132;" horiz-adv-x="730" 
d="M209 102c0 -14.667 3.5 -21.999 10.5 -21.999s21.167 5.33301 42.5 16l19 -37c-29.333 -26 -54.666 -44.333 -75.999 -55s-45 -16 -71 -16s-46.5 9.66699 -61.5 29s-22.5 43.333 -22.5 72s16.167 107.167 48.5 235.5s50.166 216.5 53.499 264.5
c0 10.667 -3.5 23.5 -10.5 38.5s-14.167 27.167 -21.5 36.5l-10 14l3 15c38 11.333 100.667 17 188 17c8 -15.333 12 -37.5 12 -66.5s-17.333 -112.833 -52 -251.5s-52 -235.334 -52 -290.001zM488 709.001l203 -6.99902l106 4c1.33301 -7.33301 2 -18.5 2 -33.5
s-2.5 -25.667 -7.5 -32s-13.167 -9.5 -24.5 -9.5s-35.666 0.666992 -72.999 2c-26.667 -223.333 -52.667 -385.666 -78 -486.999c-12.667 -49.333 -29.334 -86.666 -50.001 -111.999c-10.667 -12.667 -25 -23.5 -43 -32.5s-40.667 -13.5 -68 -13.5s-55.5 9.16699 -84.5 27.5
s-52.5 41.166 -70.5 68.499l28 31c8 -7.33301 20.333 -15.333 37 -24s31 -13 43 -13c20 0 37.5 20.167 52.5 60.5s30.333 111.166 46 212.499s23.5 183.666 23.5 246.999v41c-53.333 0 -92.333 -3 -117 -9c-8.66699 17.333 -14.667 40 -18 68
c16.667 7.33301 47.667 11 93 11z" />
    <glyph glyph-name="ij" unicode="&#x133;" horiz-adv-x="528" 
d="M210 236.5c-18 -68.333 -27.001 -112.998 -27.001 -133.998s3 -31.5 9 -31.5c4 0 19.333 6.33301 46 19l12 6l17 -35c-6 -5.33301 -14 -12 -24 -20s-28.667 -18.833 -56 -32.5s-52.666 -20.5 -75.999 -20.5s-41.666 7.16699 -54.999 21.5s-20 33.666 -20 57.999
s8.33301 67.666 25 129.999s25 102.833 25 121.5c0 28 -8.66699 54.333 -26 79l-9 12l1 13c35.333 10 92.666 15 171.999 15c8.66699 -10 13 -29 13 -57s-9 -76.167 -27 -144.5zM102.999 600.002c0 22 9.16602 41.334 27.499 58.001s39.5 25 63.5 25s42.667 -6.66699 56 -20
s20 -30.833 20 -52.5s-9.5 -40.834 -28.5 -57.501s-40.167 -25 -63.5 -25s-41.666 6.5 -54.999 19.5s-20 30.5 -20 52.5zM360.998 333.003c0 15.333 -9.66602 36.333 -28.999 63l-9 14l1 13c38 10 95.333 15 172 15c8.66699 -10 13 -28.5 13 -55.5
s-8.16699 -89.833 -24.5 -188.5s-30 -169.667 -41 -213s-22.5 -77.5 -34.5 -102.5s-30.833 -48.333 -56.5 -70s-53 -32.5 -82 -32.5s-55.833 6.33301 -80.5 19s-43.334 25 -56.001 37l-18 19l22 32c32.667 -19.333 57 -29 73 -29c25.333 0 48 17.667 68 53
s38.667 105.5 56 210.5s26 176.833 26 215.5zM376.999 600.003c0 22 9.16602 41.334 27.499 58.001s39.5 25 63.5 25s42.667 -6.66699 56 -20s20 -30.833 20 -52.5s-9.5 -40.834 -28.5 -57.501s-40.167 -25 -63.5 -25s-41.666 6.5 -54.999 19.5s-20 30.5 -20 52.5z" />
    <glyph glyph-name="Jcircumflex" unicode="&#x134;" horiz-adv-x="415" 
d="M233 870c54.667 32.667 90.167 48.999 106.5 48.999s37.333 -16.333 63 -49s47.5 -63.667 65.5 -93l-34 -32c-62 34 -103.333 53.667 -124 59c-24.667 -4.66699 -84.667 -25.667 -180 -63l-27 37c32 28.667 75.333 59.334 130 92.001zM173 708.999l202.999 -6.99902
l106 4c1.33301 -7.33301 2 -18.5 2 -33.5s-2.5 -25.667 -7.5 -32s-13.167 -9.5 -24.5 -9.5s-35.666 0.666992 -72.999 2c-26.667 -223.333 -53 -385.666 -79 -486.999c-12 -49.333 -28.333 -86.666 -49 -111.999c-10.667 -12.667 -25 -23.5 -43 -32.5
s-40.667 -13.5 -68 -13.5s-55.5 9.16699 -84.5 27.5s-52.5 41.166 -70.5 68.499l28 31c8 -7.33301 20.333 -15.333 37 -24s31 -13 43 -13c20 0 37.5 20.167 52.5 60.5s30.333 111.166 46 212.499s23.5 183.666 23.5 246.999v41c-52.667 0 -91.667 -3 -117 -9
c-8.66699 17.333 -14.667 40 -18 68c16.667 7.33301 47.667 11 93 11z" />
    <glyph glyph-name="jcircumflex" unicode="&#x135;" horiz-adv-x="256" 
d="M230 704c18.667 0 56 -55.666 112 -166.999l-34 -31c-2.66699 2 -8 6.66699 -16 14l-16.5 15l-14.5 13c-6.66699 6 -12 10.333 -16 13l-15 10c-12.667 9.33301 -22.667 15.333 -30 18c-42 -13.333 -95 -42.333 -159 -87l-28 40c30 33.333 69.667 68.666 119 105.999
s82 56 98 56zM89 333.001c0 15.333 -9.66602 36.333 -28.999 63l-9 14l1 13c38 10 95.333 15 172 15c8.66699 -10 13 -28.5 13 -55.5s-8.16699 -89.833 -24.5 -188.5s-30 -169.667 -41 -213s-22.5 -77.5 -34.5 -102.5s-30.833 -48.333 -56.5 -70s-53 -32.5 -82 -32.5
s-55.833 6.33301 -80.5 19s-43.334 25 -56.001 37l-18 19l22 32c32.667 -19.333 57 -29 73 -29c25.333 0 48 17.667 68 53s38.667 105.5 56 210.5s26 176.833 26 215.5z" />
    <glyph glyph-name="kcommaaccent" unicode="&#x137;" horiz-adv-x="508" 
d="M310 -90c0 -56 -29.334 -113.332 -88.001 -171.999l-34 18c13.333 27.333 22 56.666 26 87.999l-59 51c2.66699 14 11.834 31 27.501 51s31.5 33.333 47.5 40c21.333 0 40 -8.33301 56 -25s24 -33.667 24 -51zM142.999 660.001c0 22 -1.99805 37.6689 -5.99805 47.002
c52 18 101 27 147 27c6 -6 9 -21.333 9 -46c0 -55.333 -18.333 -161.333 -55 -318c59.333 48.667 118 73 176 73c26 0 48 -8 66 -24s27 -39.333 27 -70c0 -57.333 -47 -99 -141 -125c22 -69.333 41.333 -116.333 58 -141c7.33301 -10.667 12.666 -16 15.999 -16
c7.33301 0 22.666 5.66699 45.999 17l11 5l16 -34c-16 -14.667 -38.167 -29.5 -66.5 -44.5s-54.166 -22.5 -77.499 -22.5c-52 0 -88.333 47.333 -109 142c-9.33301 40.667 -15 78.667 -17 114c42.667 10 74.5 22.167 95.5 36.5s31.5 32.666 31.5 54.999
s-11.333 33.5 -34 33.5s-60.667 -22.667 -114 -68c-33.333 -140.667 -50 -237 -50 -289c-36.667 -10.667 -84.334 -16 -143.001 -16c-0.666992 11.333 -1 21.333 -1 30c0 28.667 19.167 126.667 57.5 294s57.5 280.666 57.5 339.999z" />
    <glyph glyph-name="kgreenlandic" unicode="&#x138;" horiz-adv-x="520" 
d="M57 -3l-18.999 0.000976562c0 31.333 9.5 91.333 28.5 180s28.5 139 28.5 151c0 22 -9.33301 45.333 -28 70l-9 12l1 13c36 10 93.667 15 173 15c9.33301 -11.333 14 -32.666 14 -63.999c0 -0.666992 -0.166992 -1.83398 -0.5 -3.50098s-0.5 -3.16699 -0.5 -4.5
c60.667 51.333 121 77 181 77c26 0 48 -8 66 -24s27 -39.333 27 -70c0 -57.333 -47 -99 -141 -125c22 -69.333 41.333 -116.333 58 -141c7.33301 -10.667 12.666 -16 15.999 -16c7.33301 0 22.666 5.66699 45.999 17l11 5l16 -34c-16 -14.667 -38.167 -29.5 -66.5 -44.5
s-54.166 -22.5 -77.499 -22.5c-52 0 -88.333 47.333 -109 142c-9.33301 40.667 -15 78.667 -17 114c42.667 10 74.5 22.167 95.5 36.5s31.5 32.666 31.5 54.999s-10.333 33.5 -31 33.5c-24 0 -63 -22.333 -117 -67c-34 -147.333 -51 -244.333 -51 -291
c-23.333 -9.33301 -65.333 -14 -126 -14z" />
    <glyph glyph-name="Ldotaccent" unicode="&#x13f;" horiz-adv-x="535" 
d="M395.5 312.5c-11.667 13 -17.4961 30 -17.4961 51s8.16699 39.333 24.5 55s35.166 23.5 56.499 23.5s37.666 -6.33301 48.999 -19s17 -29.167 17 -49.5s-8.33301 -38.833 -25 -55.5s-35.334 -25 -56.001 -25s-36.834 6.5 -48.501 19.5zM442.504 -1
c-17 -12 -37 -18.002 -60 -18.002s-57.333 14 -103 42s-82.167 46 -109.5 54c-18 -24 -38.333 -44 -61 -60s-38.334 -24 -47.001 -24c-6.66699 0 -20 14.5 -40 43.5s-30 49.833 -30 62.5c0 7.33301 10.5 18.333 31.5 33s43.167 24.667 66.5 30
c16.667 40.667 34 100.834 52 180.501s32 161.834 42 246.501c0 10.667 -3.5 23.5 -10.5 38.5s-14.167 27.167 -21.5 36.5l-10 14l3 15c40 11.333 105.667 17 197 17c8.66699 -14.667 13 -37 13 -67s-8.66699 -74.667 -26 -134s-41.166 -130.5 -71.499 -213.5
s-47.833 -132.167 -52.5 -147.5c2.66699 -0.666992 11 -3 25 -7s23.167 -6.5 27.5 -7.5l25.5 -6c12.667 -3 22.667 -5 30 -6s17 -2.16699 29 -3.5c20.667 -3.33301 40.167 -5 58.5 -5s31.5 4.66699 39.5 14l28 52l33 -8c0 -43.333 -7 -84.333 -21 -123
c-8 -20.667 -20.5 -37 -37.5 -49z" />
    <glyph glyph-name="ldot" unicode="&#x140;" horiz-adv-x="399" 
d="M291.5 313.5c-11.667 13 -17.4961 30 -17.4961 51s8.16699 39.333 24.5 55s35.166 23.5 56.499 23.5s37.666 -6.33301 48.999 -19s17 -29.167 17 -49.5s-8.33301 -38.833 -25 -55.5s-35.334 -25 -56.001 -25s-36.834 6.5 -48.501 19.5zM50.5039 11
c-15 15.333 -22.5 36.832 -22.5 64.499s16.5 116 49.5 265s49.5 256.5 49.5 322.5l-6 44c52 18 100.667 27 146 27c6.66699 -9.33301 10 -25.666 10 -48.999c0 -53.333 -16.833 -156.5 -50.5 -309.5s-50.5 -242 -50.5 -267s3 -37.5 9 -37.5l70 25l18 -35
c-22.667 -18 -50.167 -34.667 -82.5 -50s-60 -23 -83 -23s-42 7.66699 -57 23z" />
    <glyph glyph-name="Lslash" unicode="&#x141;" horiz-adv-x="514" 
d="M146 306l-108.997 -37.999c-10 8.66699 -16 29.667 -18 63c42.667 15.333 90.334 31 143.001 47c14 67.333 25.667 137.666 35 210.999c0 10.667 -3.5 23.5 -10.5 38.5s-13.833 27.167 -20.5 36.5l-11 14l3 15c40 11.333 105.667 17 197 17
c8.66699 -14.667 13 -39 13 -73s-18.667 -108.333 -56 -223c80.667 24.667 136 41 166 49c10 -20.667 15 -42 15 -64c-38 -11.333 -107.667 -33.333 -209 -66l-4 -11l-62 -174c2.66699 -0.666992 11 -3 25 -7s23.167 -6.5 27.5 -7.5l25.5 -6c12.667 -3 22.667 -5 30 -6
s16.666 -2.16699 27.999 -3.5c21.333 -3.33301 41.166 -5 59.499 -5s31.5 4.66699 39.5 14l28 52l33 -8c0 -43.333 -7.33301 -84.333 -22 -123c-7.33301 -20.667 -19.5 -37 -36.5 -49s-37 -18 -60 -18s-57.333 14 -103 42s-82.167 46 -109.5 54c-18 -24 -38.333 -44 -61 -60
s-38.334 -24 -47.001 -24c-6.66699 0 -20 14.5 -40 43.5s-30 49.833 -30 62.5c0 7.33301 10.5 18.333 31.5 33s43.167 24.667 66.5 30c15.333 39.333 29.666 87.333 42.999 144z" />
    <glyph glyph-name="lslash" unicode="&#x142;" horiz-adv-x="346" 
d="M287 464c21.333 10.667 46 24.001 74 40.001c13.333 -15.333 22 -33.666 26 -54.999c-10.667 -6 -29 -15.333 -55 -28l-60 -30l-6 -27c-32 -146.667 -48 -232.167 -48 -256.5s3 -36.5 9 -36.5l70 25l18 -35c-22.667 -18 -50.167 -34.667 -82.5 -50s-60 -23 -83 -23
s-42 7.66699 -57 23s-22.5 36.666 -22.5 63.999s15 108.666 45 243.999l-85 -50c-10.667 11.333 -20 30 -28 56c56.667 30 99.667 53.667 129 71c25.333 120 38 209 38 267l-6 44c52 18 100.667 27 146 27c6.66699 -9.33301 10 -31.5 10 -66.5s-10.667 -102.833 -32 -203.5z
" />
    <glyph glyph-name="Nacute" unicode="&#x143;" horiz-adv-x="661" 
d="M63 -4h-19.001c2.66699 30 20.334 118.167 53.001 264.5s53 255.833 61 328.5c0 10.667 -3.5 23.5 -10.5 38.5s-14.167 27.167 -21.5 36.5l-10 14l3 15c37.333 11.333 101.666 17 192.999 17c8.66699 -16 13 -31.667 13 -47s-1.33301 -34.333 -4 -57
c83.333 69.333 151.333 104 204 104c34.667 0 62.667 -11.333 84 -34s32 -54.334 32 -95.001s-14.167 -118.167 -42.5 -232.5s-42.5 -194.166 -42.5 -239.499c0 -19.333 3.33301 -29 10 -29c6 0 22.667 6.66699 50 20l13 6l20 -37c-28 -24 -57 -43.5 -87 -58.5
s-57.167 -22.5 -81.5 -22.5s-44.166 8.83301 -59.499 26.5s-23 41.667 -23 72s13.833 105.833 41.5 226.5s41.5 197.667 41.5 231s-13 50 -39 50c-39.333 0 -84 -19.667 -134 -59c-7.33301 -35.333 -21 -94.333 -41 -177c-44 -182 -66 -296 -66 -342
c-26 -13.333 -72 -20 -138 -20zM638.999 846c0 -18.667 -12.333 -33.332 -37 -43.999c-60.667 -17.333 -148 -34.666 -262 -51.999l-21 46c140 63.333 234.333 108.333 283 135c7.33301 -10.667 15.333 -25.834 24 -45.501s13 -32.834 13 -39.501z" />
    <glyph glyph-name="nacute" unicode="&#x144;" horiz-adv-x="508" 
d="M57 -3h-19.001c0 31.333 9.5 91.333 28.5 180s28.5 139 28.5 151c0 22 -9.33301 45.333 -28 70l-9 12l1 13c36 10 93.667 15 173 15c8.66699 -11.333 13.334 -32 14.001 -62c58 44.667 107 67 147 67c24 0 43.167 -8.33301 57.5 -25s21.5 -37.5 21.5 -62.5
s-7.66699 -68.167 -23 -129.5s-23 -102.5 -23 -123.5s2.66699 -31.5 8 -31.5c4 0 18 6.33301 42 19l12 6l18 -35c-6 -5.33301 -14 -12 -24 -20s-28.5 -18.833 -55.5 -32.5s-51.167 -20.5 -72.5 -20.5c-48.667 0 -73 27.667 -73 83c0 23.333 7.5 66.333 22.5 129
s22.5 103 22.5 121s-5.66699 27 -17 27c-19.333 0 -43 -8.33301 -71 -25c-2 -11.333 -8.66699 -41.333 -20 -90c-23.333 -104.667 -35 -178.667 -35 -222c-23.333 -9.33301 -65.333 -14 -126 -14zM441.999 616c0 -18.667 -12 -33.667 -36 -45
c-32.667 -15.333 -114.334 -38 -245.001 -68l-18 40c62.667 32.667 119.334 66 170.001 100s82 54.667 94 62c6.66699 -9.33301 14.167 -24 22.5 -44s12.5 -35 12.5 -45z" />
    <glyph glyph-name="OE" unicode="&#x152;" horiz-adv-x="861" 
d="M586 377c47.333 6.66699 92.333 10 135 10s73 -3 91 -9c0 -23.333 -4.66699 -44 -14 -62l-4 -9c-42 6 -77 9 -105 9l-113 -7c-9.33301 -32 -14 -68.333 -14 -109c0 -80 33.333 -120 100 -120c32.667 0 93 16 181 48l18 -51c-24 -20 -60.5 -39.833 -109.5 -59.5
s-96.833 -29.5 -143.5 -29.5c-64 0 -117 16 -159 48c-51.333 -32 -110.833 -48 -178.5 -48s-121.167 25.5 -160.5 76.5s-59 120.5 -59 208.5c0 92 20.333 175 61 249c42.667 78.667 100.667 133.334 174 164.001c40 16 82.667 24 128 24l168 -5c112.667 0 203 1 271 3
c2 -16.667 3 -30.334 3 -41.001c0 -31.333 -13 -47 -39 -47c-4.66699 0 -25.167 1.66699 -61.5 5s-64 5 -83 5s-33.167 -0.666992 -42.5 -2zM412 135c0 56 7.33398 134.832 22.001 236.499s29.667 186.834 45 255.501c-18 12 -42.667 18 -74 18
c-60 0 -107.333 -35.5 -142 -106.5s-52 -169 -52 -294s30.667 -187.5 92 -187.5c43.333 0 79.666 18 108.999 54v24z" />
    <glyph glyph-name="oe" unicode="&#x153;" horiz-adv-x="712" 
d="M243 443c21.333 0 41.3301 -5.33301 59.9971 -16c8.66699 2.66699 18 4 28 4c41.333 0 62 -34 62 -102c21.333 36.667 49.333 64.834 84 84.501s71.334 29.5 110.001 29.5s70.667 -8.16699 96 -24.5s38 -38.333 38 -66s-8.16699 -50.834 -24.5 -69.501
s-36.166 -33 -59.499 -43c-46 -20 -89 -32.333 -129 -37l-25 -3c4.66699 -91.333 30.334 -137 77.001 -137c16 0 33 4 51 12s32 16 42 24l15 12l24 -32c-5.33301 -7.33301 -16 -17 -32 -29s-31.333 -22 -46 -30c-38 -21.333 -77.667 -32 -119 -32
c-74 0 -119 40.667 -135 122c-44 -81.333 -107.333 -122 -190 -122c-46 0 -82 16.167 -108 48.5s-39 77.5 -39 135.5c0 74 19.5 137.667 58.5 191s92.833 80 161.5 80zM223.997 74c28 0 53.168 13.5 75.501 40.5s37.833 55.5 46.5 85.5c-71.333 0 -107 34 -107 102
c0 28 4.33301 54 13 78l5 12c-2.66699 1.33301 -6 2 -10 2s-7 -0.666992 -9 -2c-16.667 -10.667 -32.334 -35.667 -47.001 -75s-22 -84.333 -22 -135c0 -72 18.333 -108 55 -108zM560.998 391c-23.333 0 -41.667 -13.667 -55 -41s-21.333 -56 -24 -86l2 -13
c34 5.33301 60.667 16.333 80 33s29 38.667 29 66s-10.667 41 -32 41z" />
    <glyph glyph-name="Racute" unicode="&#x154;" horiz-adv-x="633" 
d="M70 -5c-12.667 0 -21.3359 0.334961 -26.0029 1.00195c4.66699 38.667 25.167 136.834 61.5 294.501s54.5 257.5 54.5 299.5c0 8 -4.66699 18.5 -14 31.5s-18.666 23.833 -27.999 32.5l-13 14l3 16c91.333 17.333 188 26 290 26c122.667 0 184 -48.333 184 -145
c0 -47.333 -11.833 -90.5 -35.5 -129.5s-60.5 -69.5 -110.5 -91.5c37.333 -124.667 69.333 -205.334 96 -242.001c12 -15.333 21.333 -23 28 -23c12 0 30.667 6 56 18l12 6l23 -37c-24.667 -22.667 -53.167 -41.334 -85.5 -56.001s-62.666 -22 -90.999 -22
s-51.666 12.167 -69.999 36.5s-35 60.166 -50 107.499s-30.167 108 -45.5 182c-21.333 -1.33301 -37.666 -2 -48.999 -2c-34 -146 -52.667 -244.667 -56 -296c-28.667 -14 -73.334 -21 -134.001 -21zM298.998 380.002c40 0 71.5 17.834 94.5 53.501s34.5 78.167 34.5 127.5
c0 26 -4.66699 47 -14 63s-23.333 24 -42 24c-8 0 -17.5 -1.16699 -28.5 -3.5s-16.5 -3.83301 -16.5 -4.5c-10.667 -68.667 -28 -155.334 -52 -260.001h24zM558.998 846.003c0 -18.667 -12.333 -33.332 -37 -43.999c-60.667 -17.333 -148 -34.666 -262 -51.999l-21 46
c140 63.333 234.333 108.333 283 135c7.33301 -10.667 15.333 -25.834 24 -45.501s13 -32.834 13 -39.501z" />
    <glyph glyph-name="Rcommaaccent" unicode="&#x156;" horiz-adv-x="633" 
d="M367 -90c0 -56 -29.334 -113.332 -88.001 -171.999l-34 18c13.333 27.333 22 56.666 26 87.999l-59 51c2.66699 14 11.834 31 27.501 51s31.5 33.333 47.5 40c21.333 0 40 -8.33301 56 -25s24 -33.667 24 -51zM69.999 -4.99902
c-12.667 0 -21.3359 0.334961 -26.0029 1.00195c4.66699 38.667 25.167 136.834 61.5 294.501s54.5 257.5 54.5 299.5c0 8 -4.66699 18.5 -14 31.5s-18.666 23.833 -27.999 32.5l-13 14l3 16c91.333 17.333 188 26 290 26c122.667 0 184 -48.333 184 -145
c0 -47.333 -11.833 -90.5 -35.5 -129.5s-60.5 -69.5 -110.5 -91.5c37.333 -124.667 69.333 -205.334 96 -242.001c12 -15.333 21.333 -23 28 -23c12 0 30.667 6 56 18l12 6l23 -37c-24.667 -22.667 -53.167 -41.334 -85.5 -56.001s-62.666 -22 -90.999 -22
s-51.666 12.167 -69.999 36.5s-35 60.166 -50 107.499s-30.167 108 -45.5 182c-21.333 -1.33301 -37.666 -2 -48.999 -2c-34 -146 -52.667 -244.667 -56 -296c-28.667 -14 -73.334 -21 -134.001 -21zM298.997 380.003c40 0 71.5 17.834 94.5 53.501s34.5 78.167 34.5 127.5
c0 26 -4.66699 47 -14 63s-23.333 24 -42 24c-8 0 -17.5 -1.16699 -28.5 -3.5s-16.5 -3.83301 -16.5 -4.5c-10.667 -68.667 -28 -155.334 -52 -260.001h24z" />
    <glyph glyph-name="rcommaaccent" unicode="&#x157;" horiz-adv-x="364" 
d="M181 -96c0 -25.333 -8.50098 -53.833 -25.501 -85.5s-38.5 -60.5 -64.5 -86.5l-34 18c13.333 27.333 22 56.666 26 87.999l-59 43c2.66699 14 11 30.333 25 49s29 31.334 45 38.001c22.667 0 42.834 -6.66699 60.501 -20s26.5 -28 26.5 -44zM49.999 -3
l-6.99805 -0.00292969c-1.33301 5.33301 -2 17.5 -2 36.5s9 70.167 27 153.5s27 131 27 143c0 20.667 -9.33301 43.334 -28 68.001l-9 12l1 13c36 10 93.667 15 173 15c8 -17.333 12 -41.666 12 -72.999c7.33301 12 22.666 28 45.999 48s47.333 30 72 30
c36 0 54 -31.333 54 -94l-13.5 -15.5c-5.66699 -6.33301 -17 -15.166 -34 -26.499s-33.5 -18.333 -49.5 -21c-0.666992 0 -6.33398 9 -17.001 27s-18.667 27 -24 27c-16.667 -6 -31.334 -16 -44.001 -30c-30.667 -138 -46 -227.333 -46 -268c0 -14.667 0.333008 -25 1 -31
c-23.333 -9.33301 -69.666 -14 -138.999 -14z" />
    <glyph glyph-name="Rcaron" unicode="&#x158;" horiz-adv-x="633" 
d="M70 -5c-12.667 0 -21.3359 0.334961 -26.0029 1.00195c4.66699 38.667 25.167 136.834 61.5 294.501s54.5 257.5 54.5 299.5c0 8 -4.66699 18.5 -14 31.5s-18.666 23.833 -27.999 32.5l-13 14l3 16c91.333 17.333 188 26 290 26c122.667 0 184 -48.333 184 -145
c0 -47.333 -11.833 -90.5 -35.5 -129.5s-60.5 -69.5 -110.5 -91.5c37.333 -124.667 69.333 -205.334 96 -242.001c12 -15.333 21.333 -23 28 -23c12 0 30.667 6 56 18l12 6l23 -37c-24.667 -22.667 -53.167 -41.334 -85.5 -56.001s-62.666 -22 -90.999 -22
s-51.666 12.167 -69.999 36.5s-35 60.166 -50 107.499s-30.167 108 -45.5 182c-21.333 -1.33301 -37.666 -2 -48.999 -2c-34 -146 -52.667 -244.667 -56 -296c-28.667 -14 -73.334 -21 -134.001 -21zM298.998 380.002c40 0 71.5 17.834 94.5 53.501s34.5 78.167 34.5 127.5
c0 26 -4.66699 47 -14 63s-23.333 24 -42 24c-8 0 -17.5 -1.16699 -28.5 -3.5s-16.5 -3.83301 -16.5 -4.5c-10.667 -68.667 -28 -155.334 -52 -260.001h24zM479.998 795.003c-60 -33.333 -98.832 -49.999 -116.499 -49.999s-41.167 17.167 -70.5 51.5s-53 65.166 -71 92.499
l34 32c71.333 -36 117.666 -56.333 138.999 -61c34 6 74.167 17.833 120.5 35.5s72.5 27.5 78.5 29.5l27 -37c-34 -28.667 -81 -59.667 -141 -93z" />
    <glyph glyph-name="rcaron" unicode="&#x159;" horiz-adv-x="364" 
d="M198 504c-18.667 0 -56 55.666 -112 166.999l34 31c2.66699 -2 8 -6.66699 16 -14l16.5 -15l14.5 -13c6.66699 -6 12 -10.333 16 -13l15 -10c12.667 -9.33301 22.667 -15.333 30 -18c42 13.333 95 42.333 159 87l28 -40c-30 -33.333 -69.667 -68.666 -119 -105.999
s-82 -56 -98 -56zM50 -3.00098l-6.99805 -0.00292969c-1.33301 5.33301 -2 17.5 -2 36.5s9 70.167 27 153.5s27 131 27 143c0 20.667 -9.33301 43.334 -28 68.001l-9 12l1 13c36 10 93.667 15 173 15c8 -17.333 12 -41.666 12 -72.999c7.33301 12 22.666 28 45.999 48
s47.333 30 72 30c36 0 54 -31.333 54 -94l-13.5 -15.5c-5.66699 -6.33301 -17 -15.166 -34 -26.499s-33.5 -18.333 -49.5 -21c-0.666992 0 -6.33398 9 -17.001 27s-18.667 27 -24 27c-16.667 -6 -31.334 -16 -44.001 -30c-30.667 -138 -46 -227.333 -46 -268
c0 -14.667 0.333008 -25 1 -31c-23.333 -9.33301 -69.666 -14 -138.999 -14z" />
    <glyph glyph-name="dotlessj" unicode="&#x237;" horiz-adv-x="256" 
d="M89 333c0 15.333 -9.66602 36.333 -28.999 63l-9 14l1 13c38 10 95.333 15 172 15c8.66699 -10 13 -28.5 13 -55.5s-8.16699 -89.833 -24.5 -188.5s-30 -169.667 -41 -213s-22.5 -77.5 -34.5 -102.5s-30.833 -48.333 -56.5 -70s-53 -32.5 -82 -32.5
s-55.833 6.33301 -80.5 19s-43.334 25 -56.001 37l-18 19l22 32c32.667 -19.333 57 -29 73 -29c25.333 0 48 17.667 68 53s38.667 105.5 56 210.5s26 176.833 26 215.5z" />
    <glyph glyph-name="circumflex" unicode="&#x2c6;" horiz-adv-x="562" 
d="M341 705c22 0 64.334 -56.334 127.001 -169.001l-31 -29c-57.333 44.667 -100.333 72.334 -129 83.001c-54 -14.667 -117 -43.667 -189 -87l-27 37c35.333 34 81.166 70 137.499 108s93.5 57 111.5 57z" />
    <glyph glyph-name="caron" unicode="&#x2c7;" horiz-adv-x="562" 
d="M217 505c-24.667 0 -68.001 55.334 -130.001 166.001l34 32c56.667 -44.667 99.667 -72.334 129 -83.001c54 14.667 117 43.667 189 87l27 -37c-35.333 -34 -81.166 -70 -137.499 -108s-93.5 -57 -111.5 -57z" />
    <glyph glyph-name="ring" unicode="&#x2da;" horiz-adv-x="485" 
d="M132 627c0 30.667 9.5 55.834 28.5 75.501s46.167 29.5 81.5 29.5s62.5 -9.83301 81.5 -29.5s28.5 -44.834 28.5 -75.501s-9.5 -56 -28.5 -76s-46.167 -30 -81.5 -30s-62.5 10 -81.5 30s-28.5 45.333 -28.5 76zM190 627c0 -14.667 4.5 -26.5 13.5 -35.5
s21.667 -13.5 38 -13.5s28.666 4.5 36.999 13.5s12.5 20.833 12.5 35.5s-4.16699 26.5 -12.5 35.5s-20.666 13.5 -36.999 13.5s-29 -4.5 -38 -13.5s-13.5 -20.833 -13.5 -35.5z" />
    <glyph glyph-name="tilde" unicode="&#x2dc;" horiz-adv-x="598" 
d="M103 531c9.33301 94.667 43 142.001 101 142.001c22.667 0 55.834 -5.83301 99.501 -17.5s74.5 -17.5 92.5 -17.5s30.667 2 38 6s15.666 14 24.999 30l31 -6c-2.66699 -30.667 -8 -56.334 -16 -77.001c-15.333 -39.333 -44 -59 -86 -59
c-15.333 0 -43.833 5.83301 -85.5 17.5s-72.667 17.5 -93 17.5s-35.333 -2.83301 -45 -8.5s-19.5 -17.167 -29.5 -34.5z" />
    <glyph glyph-name="dotaccentcmb" unicode="&#x307;" horiz-adv-x="500" 
d="M160.5 563.5c-11.667 13 -17.4961 30 -17.4961 51s8.16699 39.333 24.5 55s35.166 23.5 56.499 23.5s37.666 -6.33301 48.999 -19s17 -29.167 17 -49.5s-8.33301 -38.833 -25 -55.5s-35.334 -25 -56.001 -25s-36.834 6.5 -48.501 19.5z" />
    <glyph glyph-name="endash" unicode="&#x2013;" horiz-adv-x="529" 
d="M54 238c0 36.667 1 65 3 85h429c0 -28.667 -1 -57 -3 -85h-429z" />
    <glyph glyph-name="emdash" unicode="&#x2014;" horiz-adv-x="968" 
d="M64 238c0 22 1 51 3 87h858c0 -30 -1 -59 -3 -87h-858z" />
    <glyph glyph-name="quoteleft" unicode="&#x2018;" horiz-adv-x="249" 
d="M74 518c0 61.333 36.667 133.668 110 217.001l47 -29c-34.667 -53.333 -54 -94 -58 -122l59 -36c0 -23.333 -5.5 -46.333 -16.5 -69s-22.167 -40.334 -33.5 -53.001c-37.333 0 -67 10 -89 30c-12.667 11.333 -19 32 -19 62z" />
    <glyph glyph-name="quoteright" unicode="&#x2019;" horiz-adv-x="243" 
d="M243 643c0 -61.333 -36.667 -133.668 -110 -217.001l-47 29c34.667 53.333 54 94 58 122l-59 36c0 23.333 5.5 46.333 16.5 69s22.167 40.334 33.5 53.001c37.333 0 67 -10 89 -30c12.667 -11.333 19 -32 19 -62z" />
    <glyph glyph-name="quotesinglbase" unicode="&#x201a;" horiz-adv-x="281" 
d="M225 52c0 -61.333 -36.667 -133.668 -110 -217.001l-37 24c36.667 56.667 56.667 96.667 60 120l-71 43c0 23.333 5.5 46.333 16.5 69s22.167 40.334 33.5 53.001c37.333 0 67 -10 89 -30c12.667 -11.333 19 -32 19 -62z" />
    <glyph glyph-name="quotedblleft" unicode="&#x201c;" horiz-adv-x="444" 
d="M74 518c0 61.333 36.667 133.668 110 217.001l47 -29c-34.667 -53.333 -54 -94 -58 -122l59 -36c0 -23.333 -5.5 -46.333 -16.5 -69s-22.167 -40.334 -33.5 -53.001c-37.333 0 -67 10 -89 30c-12.667 11.333 -19 32 -19 62zM269 518.002
c0 61.333 36.667 133.668 110 217.001l47 -29c-34.667 -53.333 -54 -94 -58 -122l59 -36c0 -23.333 -5.5 -46.333 -16.5 -69s-22.167 -40.334 -33.5 -53.001c-37.333 0 -67 10 -89 30c-12.667 11.333 -19 32 -19 62z" />
    <glyph glyph-name="quotedblright" unicode="&#x201d;" horiz-adv-x="438" 
d="M438 643c0 -61.333 -36.667 -133.668 -110 -217.001l-47 29c34.667 53.333 54 94 58 122l-59 36c0 23.333 5.5 46.333 16.5 69s22.167 40.334 33.5 53.001c37.333 0 67 -10 89 -30c12.667 -11.333 19 -32 19 -62zM243 642.998c0 -61.333 -36.667 -133.668 -110 -217.001
l-47 29c34.667 53.333 54 94 58 122l-59 36c0 23.333 5.5 46.333 16.5 69s22.167 40.334 33.5 53.001c37.333 0 67 -10 89 -30c12.667 -11.333 19 -32 19 -62z" />
    <glyph glyph-name="quotedblbase" unicode="&#x201e;" horiz-adv-x="468" 
d="M225 52c0 -61.333 -36.667 -133.668 -110 -217.001l-37 24c36.667 56.667 56.667 96.667 60 120l-71 43c0 23.333 5.5 46.333 16.5 69s22.167 40.334 33.5 53.001c37.333 0 67 -10 89 -30c12.667 -11.333 19 -32 19 -62zM420 51.998
c0 -61.333 -36.668 -133.669 -110.001 -217.002l-37 24c36.667 56.667 56.667 96.667 60 120l-71 43c0 23.333 5.5 46.333 16.5 69s22.167 40.334 33.5 53.001c13.333 0 28.833 -2.66699 46.5 -8s32.334 -13.166 44.001 -23.499s17.5 -30.5 17.5 -60.5z" />
    <glyph glyph-name="bullet" unicode="&#x2022;" horiz-adv-x="428" 
d="M133 232.5c-22 23 -33 52.665 -33 88.998s12.667 66.833 38 91.5s56.5 37 93.5 37s66.333 -11.167 88 -33.5s32.5 -51.166 32.5 -86.499s-12.833 -66.166 -38.5 -92.499s-56.667 -39.5 -93 -39.5s-65.5 11.5 -87.5 34.5z" />
    <glyph glyph-name="guilsinglleft" unicode="&#x2039;" horiz-adv-x="323" 
d="M259 492l42.999 -33.999c-60.667 -76 -98 -128.333 -112 -157c11.333 -34.667 38 -86.334 80 -155.001l-42 -35c-23.333 16 -55.166 46 -95.499 90s-60.5 75.667 -60.5 95c2 24 64.333 89.333 187 196z" />
    <glyph glyph-name="guilsinglright" unicode="&#x203a;" horiz-adv-x="334" 
d="M95 111l-42.999 33.999c60.667 76 98 128.333 112 157c-11.333 34.667 -38 86.334 -80 155.001l42 35c23.333 -16 55.166 -46 95.499 -90s60.5 -75.667 60.5 -95c-2 -24 -64.333 -89.333 -187 -196z" />
    <glyph glyph-name="Euro" unicode="&#x20ac;" horiz-adv-x="586" 
d="M466 315c-1.33301 -16.667 -7.00195 -35.9961 -17.002 -57.9961c-25.333 2.66699 -54.666 4 -87.999 4s-69.333 -0.666992 -108 -2c2.66699 -60 15.334 -103.167 38.001 -129.5s50.334 -39.5 83.001 -39.5c52.667 0 103.334 24.667 152.001 74l41 -37
c-7.33301 -10.667 -20.666 -25.334 -39.999 -44.001s-38.333 -34.167 -57 -46.5s-42.334 -23.5 -71.001 -33.5s-57.667 -15 -87 -15c-60 0 -110.333 23.833 -151 71.5s-62 113.5 -64 197.5c-35.333 -2 -63 -4.66699 -83 -8c-1.33301 8 -2 17.833 -2 29.5s1 23.834 3 36.501
h84c0.666992 13.333 3 32.666 7 57.999c-32 -2 -56.667 -4.66699 -74 -8c-1.33301 8 -2 17.667 -2 29s1 23.666 3 36.999h88c24.667 81.333 64.667 148.166 120 200.499s119 78.5 191 78.5c54.667 0 100.167 -13.333 136.5 -40s54.5 -58.5 54.5 -95.5s-11 -68.5 -33 -94.5
c-21.333 0 -45.333 4.66699 -72 14s-46.667 20.666 -60 33.999l19 101c-16 10 -38.333 15 -67 15s-56.334 -19.5 -83.001 -58.5s-46.667 -90.5 -60 -154.5h217c-1.33301 -16.667 -7 -36 -17 -58c-25.333 2.66699 -55.5 4 -90.5 4s-74.5 -0.666992 -118.5 -2
c-2.66699 -26.667 -4.33398 -46.667 -5.00098 -60h213z" />
    <glyph glyph-name=".null" horiz-adv-x="0" 
 />
    <glyph glyph-name="nonmarkingreturn" horiz-adv-x="333" 
 />
    </font>
</defs>
</svg>
